<?xml version="1.0" encoding="UTF-8"?>
<svg xmlns="http://www.w3.org/2000/svg" width="600" height="300">
<rect width="600" height="300" fill="#7cf"/>
<path fill="#002b7f" d="M323.57,149.61h-324.07v-33.238c12.007-1.8373,23.064-6.4632,27.69-13.845,10.17,0,19.389-11.089,29.527-23.064,1.8701-3.7074,4.6259-4.6259,9.252-0.91863,3.6745,4.5931,4.5931,0.91863,6.4632-5.5446,0.91863-1.8701,2.7558-3.7074,4.5931-1.8701,2.7887,3.7074,3.7074,0.95142,6.4632-0.91863,4.6259-0.91863,11.089-0.91863,15.715,0.91863,2.7559-1.8373,7.3819-1.8373,11.975-1.8373,3.7074,1.8373,7.3818,1.8373,11.089,0,1.8373-0.91863,4.6259-1.8373,8.3005-1.8373,5.5446-4.6259,10.17-9.219,13.845-7.3818,3.7074,0.91863,8.3333,1.8373,12.927,1.8373,10.17,0,15.715-0.91863,18.471-1.8373,1.8373,4.6259,2.7558,4.6259,3.6745,0,0.95142-2.7887,0.95142-4.6259,5.5446-5.5446,0-4.6259,1.8701-5.5446,5.5446-1.8373,5.5446,4.5931,12.007,5.5446,18.471,4.5931,0,5.5446,0.91863,5.5446,3.6745,0,0.91862-5.5118,4.6259-3.6745,10.17,4.6259,0.91863,1.8373,1.8373,3.7074,1.8373,5.5446,20.309,32.316,41.535,44.291,63.68,51.705,3.7074,0.91862,7.4146,0.91862,11.089,3.6745z"/>
<path d="M300,100V300H600V0z" fill="#fff"/>
<rect width="300" height="100" x="300" fill="#0484d6"/>
<rect width="600" height="100" y="200" fill="#f5362f"/>
</svg>
