<?xml version="1.0" encoding="UTF-8"?>
<svg xmlns="http://www.w3.org/2000/svg" xmlns:xlink="http://www.w3.org/1999/xlink" width="1152" height="720">
<defs>
<linearGradient id="grad">
<stop stop-color="#84be86" offset="0"/>
<stop stop-color="#328c4e" offset="1"/>
</linearGradient>
</defs>
<path fill="#f4e109" d="m0,0,0,720,1152,0,0-720z"/>
<path fill="#da251c" d="m596.99,620,555.01,56.187,0-634.28-1110,0,0,634.28"/>
<g fill="#29166f">
<path d="m597,359.06,0-317.16-277.69,0z"/>
<path d="m597,359.06,555-317.16-278.03,0z"/>
<path d="m1152,200.47,0,158.59-1110,0,0,158.56z"/>
<path d="m1152,676.14,0-158.51-1110-317.16,0-158.56z"/>
</g>
<path fill="#f4e109" d="m392.87,329.97,102.05,17.726c-0.408,3.732-0.632,7.516-0.632,11.355,0,3.868,0.225,7.685,0.64,11.441l-102.04,17.813,102.92-11.563c1.158,6.703,2.963,13.182,5.344,19.374l-94.205,43.224,96.647-37.403c1.266,2.774,2.643,5.487,4.14,8.123l178.54,0.001c1.495-2.636,2.874-5.349,4.14-8.123l96.646,37.403-94.206-43.224c2.382-6.192,4.187-12.671,5.345-19.374l102.92,11.563-102.04-17.813c0.414-3.757,0.641-7.573,0.641-11.441,0-3.839-0.227-7.623-0.632-11.355l102.05-17.726-102.94,11.476c-1.148-6.719-2.944-13.211-5.321-19.419l94.22-43.177-96.657,37.357c-3.226-7.082-7.215-13.735-11.879-19.849l78.264-68.147-82.245,63.261c-10.31-11.931-23.281-21.47-38.01-27.65l33.979-98.248-39.859,96.01c-10.556-3.681-21.882-5.707-33.686-5.707-11.803,0-23.128,2.026-33.684,5.707l-39.86-96.01,33.98,98.248c-14.729,6.181-27.701,15.719-38.01,27.65l-82.246-63.261,78.266,68.147c-4.665,6.114-8.654,12.768-11.878,19.849l-96.659-37.357,94.22,43.177c-2.378,6.208-4.171,12.7-5.321,19.419z"/>
<path fill="#fff" d="M596.99,359.05,1152,676.19h-1110l554.99-317.14z"/>
<g fill="#da251c" stroke="#000" stroke-width="0.476">
<path fill="#f1c700" d="m629.96,593.89c0,18.271-14.811,33.082-33.081,33.082-18.268,0-33.082-14.812-33.082-33.082,0-18.269,14.814-33.079,33.082-33.079,18.27,0,33.081,14.81,33.081,33.079z"/>
<path d="m624.99,593.89c0,15.526-12.586,28.112-28.112,28.112s-28.112-12.586-28.112-28.112,12.586-28.112,28.112-28.112,28.112,12.586,28.112,28.112z"/>
<path fill="#e87817" d="m620.54,593.89c0,13.069-10.594,23.663-23.663,23.663s-23.663-10.594-23.663-23.663,10.594-23.663,23.663-23.663,23.663,10.594,23.663,23.663z"/>
<path fill="#29166f" d="m620.54,593.9c0,13.065-10.594,23.661-23.663,23.661s-23.702-10.596-23.702-23.661c0-6.541,5.301-11.858,11.848-11.858,6.552,0,11.836,5.317,11.836,11.858,0,6.542,5.296,11.849,11.85,11.849,6.542-0.001,11.831-5.307,11.831-11.849z"/>
<path fill="#e87817" d="m588.41,593.89c0,1.868-1.509,3.382-3.38,3.382s-3.382-1.514-3.382-3.382c0-1.864,1.511-3.384,3.382-3.384s3.38,1.519,3.38,3.384z"/>
<path fill="#29166f" d="m612.11,593.89c0,1.868-1.508,3.382-3.38,3.382-1.871,0-3.385-1.514-3.385-3.382,0-1.864,1.514-3.384,3.385-3.384,1.873,0,3.38,1.519,3.38,3.384z"/>
<path d="m596.87,556.27c-1.38,0-2.501-1.117-2.501-2.5,0-1.385,1.121-2.507,2.501-2.507,1.384,0,2.502,1.122,2.502,2.507,0,1.382-1.118,2.5-2.502,2.5z"/>
<path d="m596.81,558.2c0,1.385-1.117,2.506-2.502,2.506s-2.501-1.121-2.501-2.506c0-1.378,1.116-2.502,2.501-2.502s2.502,1.124,2.502,2.502z"/>
<path d="m601.94,558.2c0,1.385-1.116,2.506-2.5,2.506-1.386,0-2.506-1.121-2.506-2.506,0-1.378,1.12-2.502,2.506-2.502,1.384,0,2.5,1.124,2.5,2.502z"/>
<path d="m596.87,631.52c1.379,0,2.506,1.12,2.506,2.5,0,1.384-1.127,2.502-2.506,2.502-1.384,0-2.5-1.118-2.5-2.502,0-1.38,1.116-2.5,2.5-2.5z"/>
<path d="m596.94,629.58c0-1.38,1.118-2.5,2.502-2.5,1.382,0,2.504,1.12,2.504,2.5,0,1.386-1.122,2.506-2.504,2.506-1.384,0-2.502-1.12-2.502-2.506z"/>
<path d="m591.81,629.58c0-1.38,1.116-2.5,2.5-2.5s2.505,1.12,2.505,2.5c0,1.386-1.121,2.506-2.505,2.506s-2.5-1.12-2.5-2.506z"/>
<path d="m639.5,593.89c0,1.3813-1.1197,2.501-2.501,2.501s-2.501-1.1197-2.501-2.501,1.1197-2.501,2.501-2.501,2.501,1.1197,2.501,2.501z"/>
<path d="m635.07,596.46c0,1.3824-1.1206,2.503-2.503,2.503s-2.503-1.1206-2.503-2.503,1.1206-2.503,2.503-2.503,2.503,1.1206,2.503,2.503z"/>
<path d="m632.57,588.83c-1.381,0-2.502,1.115-2.502,2.5s1.121,2.504,2.502,2.504c1.382,0,2.502-1.119,2.502-2.504s-1.12-2.5-2.502-2.5z"/>
<path d="m559.25,593.89c0-1.378-1.115-2.504-2.5-2.504-1.384,0-2.501,1.126-2.501,2.504,0,1.383,1.117,2.5,2.501,2.5,1.385,0,2.5-1.118,2.5-2.5z"/>
<path d="m563.68,591.33c0,1.3824-1.1206,2.503-2.503,2.503s-2.503-1.1206-2.503-2.503,1.1206-2.503,2.503-2.503,2.503,1.1206,2.503,2.503z"/>
<path d="m563.68,596.45c0,1.3818-1.1202,2.502-2.502,2.502s-2.502-1.1202-2.502-2.502,1.1202-2.502,2.502-2.502,2.502,1.1202,2.502,2.502z"/>
</g>
<g stroke-width="0.476">
<g fill="#e0609b" stroke="#000">
<path fill="#e87817" d="m600.33,516.36c0,1.84-1.487,3.326-3.325,3.326-1.84,0-3.326-1.486-3.326-3.326,0-1.838,1.486-3.324,3.326-3.324,1.838,0,3.325,1.486,3.325,3.324z"/>
<path fill="#e12211" d="m622.04,486.76c-1.398,5.898-12.077,10.491-25.054,10.491-13.008,0-23.717-4.616-25.07-10.542-4.437,2.376-7.1,5.4-7.1,8.691,0,7.66,14.382,13.867,32.124,13.867,17.74,0,32.118-6.207,32.118-13.867,0-3.268-2.629-6.274-7.018-8.64z"/>
<path d="m597.44,497.25c-2.56,0-5.03-0.179-7.36-0.514-0.354,0.997-2.361,8.101,7.313,12.53,7.429-2.847,7.275-10.72,6.511-12.41-2.063,0.254-4.228,0.394-6.464,0.394z"/>
<path d="m571.8,485.93c-1.184,0.502-7.366,2.488-5.974,13.064,9.224,2.535,10.25-5.694,10.28-6.938-2.553-1.761-4.104-3.864-4.306-6.126z"/>
<path d="m588.87,496.54c0.079,1.021,0.6,9.042-9.55,10.257-7.443-6.215-2.961-13.113-1.307-13.851,2.84,1.615,6.58,2.866,10.857,3.594z"/>
<path d="m617.82,492.06c0.027,1.243,1.056,9.473,10.279,6.938,1.392-10.576-4.792-12.563-5.976-13.064-0.198,2.261-1.752,4.364-4.303,6.126z"/>
<path d="m615.91,492.95c1.654,0.737,6.138,7.636-1.308,13.851-10.149-1.215-9.625-9.235-9.55-10.257,4.278-0.728,8.019-1.979,10.858-3.594z"/>
<path fill="#f1c700" d="m627.78,491.52c0.831,1.236,1.284,2.536,1.284,3.881,0,7.66-14.378,13.867-32.118,13.867-17.741,0-32.124-6.207-32.124-13.867,0-1.237,0.381-2.438,1.089-3.585-3.936,2.409-6.231,5.296-6.231,8.405,0,8.402,16.749,15.207,37.411,15.207,20.669,0,37.421-6.805,37.421-15.207,0.001-3.238-2.495-6.233-6.732-8.701z"/>
</g>
<g fill="#fff">
<path d="m597.12,504.23c-1.458-2.815-0.844-5.285-0.803-6.996,0.16,0.004,0.317,0.005,0.478,0.005-0.06,0.894-0.052,3.593,0.325,6.991z"/>
<path d="m572.84,488.82c-0.661,0.648-2.937,3.078-4.184,6.476,2.1-2.619,4.031-5.024,4.688-5.757-0.181-0.236-0.351-0.477-0.504-0.719z"/>
<path d="m582.4,494.9c-0.296,0.59-1.664,3.014-1.664,6.553,1.033-3.603,2.047-5.626,2.423-6.3-0.261-0.084-0.511-0.164-0.759-0.253z"/>
<path d="m620.59,489.54c0.657,0.732,2.588,3.138,4.688,5.757-1.247-3.397-3.522-5.827-4.184-6.476-0.154,0.242-0.321,0.483-0.504,0.719z"/>
<path d="m610.77,495.16c0.373,0.674,1.387,2.697,2.419,6.3,0-3.539-1.367-5.963-1.664-6.553-0.247,0.089-0.496,0.169-0.755,0.253z"/>
</g>
<g stroke="#000">
<path fill="#e12211" stroke-linejoin="round" stroke-linecap="round" d="m576.26,461.85s-2.332-2.805-5.756-4.99c-3.421-2.194-5.785-0.894-9.277-1.612-3.316-0.688-10.426-2.966-8.386-15.539,2.053,11.032,7.61,7.926,8.077,6.467,0.581-1.814-0.708-4.537-2.603-5.753-2.393-1.538-6.708-5.063-6.708-10.131,0-1.56,0.377-3.218,0.901-4.756,0.566-1.675,3.003-3.86,2.557-6.782,1.879,4.552-2.285,4.675,2.022,11.125,1.16,1.736,2.86,0.363,3.148-0.958,0.442-2.052-0.822-4.79-1.779-6.984-0.962-2.188-1.82-5.789-0.962-8.896,1.235-4.453,3.868-5.447,4.794-8.768,0.561-2.009-2.656-6.852,2.054-10.679-2.584,5.996,0.959,7.939,1.779,9.723,0.822,1.78-0.417,5.209-0.547,6.435-0.171,1.612,2.178,2.282,3.695,1.265,1.955-1.3,1.678-5.234,1.819-7.422,0.136-2.197,1.985-3.532,4.311-4.627,2.329-1.094,6.149-5.379,3.219-11.946,7.264,5.734,5.718,11.09,5.029,13.282-0.683,2.191-2.052,6.301-1.771,9.035,0.27,2.742,2.184,2.602,2.868,1.508,0.688-1.095-0.373-4.674-0.138-6.573,0.4-3.227,5.537-3.862,5.804-6.267,0.222-2.001-4.978-6.153-4.694-9.609,0.445-5.436,4.978-3.62,3.275-9.52,3.697,3.697,1.232,6.499,0.959,7.867-0.273,1.371,0.055,3.479,1.78,3.291,1.233-0.141,2.381-1.729,3.149-4.795,2.085-8.319-4.873-6.527-4.146-12.84,2.566,4.148,5.99,1.523,9.867,7.603,1.874,2.938,0.988,5.373,0.579,7.425-0.411,2.058,1.371,4.114,2.603,2.195,2.794-4.354-1.274-5.243,1.916-10.888-1.149,8.436,3.851,5.978,3.147,14.858-0.291,3.675-4.79,6.982-5.206,10-0.347,2.572,0.449,5.575,1.406,6.533,1.584,1.586,3.188,1.326,3.699-0.549,0.407-1.503-0.413-3.114-0.962-4.759-0.621-1.868,0.601-3.651,2.979-4.243,1.821-0.453,3.977-3.488,3.56-6.16-0.426-2.792-4.774-4.581-0.408-11.643-2.45,7.937,4.134,6.937,4.962,12.396,0.353,2.322-0.43,3.844-0.648,5.063-0.282,1.556,4.211,3.806,2.811-2.258,4.718,3.862,5.063,8.629,4.517,10.407-0.551,1.78-2.056,3.968-1.098,5.886s3.249,2.671,4.52,0.822c1.059-1.541,1.366-3.745,0.582-6.299-0.844-2.749-4.469-3.581-0.513-9.793,0,6.212,4.919,8.503,5.714,11.504,0.393,1.481-0.442,3.219,0.242,4.176,0.685,0.962,4.938,0.58,1.645-6.843,5.86,4.789,2.737,10.437,0.82,11.948-1.914,1.506-5.339,5.441-5.339,8.867,0,3.422,3.704,6.521,4.929,3.559,1.353-3.271-1.383-6.007,1.507-10.547-0.765,4.582,0.693,9.567,2.872,9.859,1.819,0.244,2.356-2.655,2.982-4.622,1.839,5.22-2.16,7.878-2.982,9.109-0.822,1.229-1.197,4.484-2.738,5.342-1.29,0.713-4.38,1.406-6.296,2.769-1.916,1.368-4.174,4.275-0.683,4.799,3.212,0.479,5.377-0.508,7.391-5.48,2.98,9.223-5.41,12.905-9.586,13.423-3.398,0.415-9.174,0.544-10.818,1.776-1.643,1.231-1.643,3.214-1.643,3.214s-2.602,4.729-7.805,5.824c-5.201,1.097-19.718,1.917-23.962,0.273s-7.4-3.84-9.036-6.097zm66.648-45.118c-5.9,5.665-0.803,12.679,0.446,8.628,1.39-4.507-2.096-3.241-0.446-8.628zm-16.259,21.773c-1.02,1.02-0.98,2.195-0.445,2.808,0.445,0.512,1.472,0.037,2.156-0.475,0.687-0.517,1.664-1.645,1.715-3.082,0.09-2.557-2.178-2.633-2.433-5.856-1.2,2.4,2.089,3.523-0.993,6.605zm-5.342-23.107c-1.089,3.51,1.18,4.697,1.493,6.006,0.308,1.287-0.256,1.855,0.151,2.93,0.411,1.075,1.594,2.105,2.26,0.769,0.75-1.494,0.432-2.606-0.099-3.952-0.686-1.743-3.805-1.993-3.805-5.753zm-6.11-12.98c1.332,2.896,0.14,3.552,0.716,6.829,0.206,1.17,1.912,3.409,2.519,1.591,0.512-1.535,0.41-3.078-0.617-4.105-2.288-2.287-0.356-2.552-2.618-4.315zm-6.574,11.655c4.591,5.847-0.048,11.04-1.026,11.864-0.977,0.821-1.542,1.692-1.797,2.513-0.255,0.826-0.052,2.363,1.384,2.004,1.439-0.361,2.673-1.848,3.339-3.081,0.668-1.229,1.598-4.002,1.696-6.265,0.15-3.439-1.505-6.773-3.596-7.035zm-6.832-1.077c-1.868,2.38,0.052,3.88-0.203,5.494-0.149,0.946-0.924,1.438-0.768,2.206,0.15,0.773,1.229,1.593,1.949,0.976,0.716-0.614,1.334-2.668,0.82-3.539-0.511-0.875-2.979-2.11-1.798-5.137zm-10.214-6.161c-4.343,5.054-1.492,10.216-0.927,10.889,0.566,0.664,2.617,0.929,2.72-0.98,0.208-3.886-3.511-3.886-1.793-9.909zm-5.958,9.653c-2.987,8.139,0.14,8.804,0.716,8.42,0.772-0.511,1.334-1.54,0.979-2.258-0.361-0.72-2.432-0.107-1.695-6.162zm-6.676-3.597c0.979,4.318-1.437,4.527-2.058,9.865-0.236,2.036,0.67,4.361,1.079,5.182,0.409,0.826,1.596,1.42,2.314,0.46,0.77-1.025,0.973-2.206,0.408-3.337-0.463-0.928-2.241-1.436-2.211-3.542,0.033-2.143,2.449-6.185,0.468-8.628zm-10.94,0.363c-2.247,4.872,2.253,5.163,2.93,6.979,0.414,1.11,1.229,2.056,1.897,0.98,0.67-1.079,0.413-3.081-0.465-3.906-0.871-0.819-4.362-1.265-4.362-4.053zm-4.108,8.473c-1.598,2.482,1.319,3.732,0.512,6.723-0.445,1.646-0.615,2.771-0.308,3.393,0.308,0.615,1.695,0.924,2.313-0.258,0.615-1.178,0.702-2.16,0.511-3.135-0.357-1.824-3.028-3.174-3.028-6.723zm11.4-17.44c-0.453,0.623-0.874,2.411-0.566,3.54,0.311,1.131,1.802,0.835,2.107,0.257,0.463-0.871-0.183-1.63-0.053-2.613,0.253-1.906,2.894-1.781,2.208-5.139-0.553,3.096-3.03,3.029-3.696,3.955zm18.637-2.621c-0.215,2.016,0.618,5.6,1.899,6.776,1.285,1.182,2.946-0.305,3.028-1.744,0.104-1.831-1.932-2.553-2.253-4.616-0.617-3.965,4.399-5.675,0.409-10.788,1.866,5.655-2.465,4.573-3.083,10.372z"/>
<path fill="#f1c700" d="m615.28,477.31c1.009,1.263,1.566,2.65,1.566,4.11,0,5.835-8.932,10.569-19.953,10.569-11.018,0-19.952-4.734-19.952-10.569,0-1.4,0.521-2.734,1.455-3.958-4.11,2.104-6.614,4.901-6.614,7.977,0,6.521,11.282,11.808,25.208,11.808,13.924,0,25.213-5.286,25.213-11.808,0-3.154-2.634-6.012-6.923-8.129z"/>
<path fill="#e12211" d="m615.59,477.73c-0.229,0.014-0.333,0.168-0.563-0.064-0.336-0.343-1.774-5.841-2.258-7.72-3.385,1.708-9.229,2.841-15.875,2.841-6.458,0-12.236-1.075-15.655-2.727-0.51,1.98-1.901,7.273-2.233,7.605-0.296,0.305-0.373-0.063-0.834,0.111-0.788,1.137-1.228,2.361-1.228,3.644,0,5.835,8.935,10.569,19.952,10.569,11.021,0,19.953-4.734,19.953-10.569,0-1.299-0.451-2.542-1.259-3.69z"/>
<path fill="#e87817" d="m579.67,467.35c1.768,4.648-2.587,10.577-1.52,13.252,1.063,2.667,3.491,4.079,5.861,4.878,5.991,2.019,7.075-3.606,8.075-14.169-3.69,0-9.599-1.144-12.416-3.961z"/>
<path fill="#29166f" d="m614.32,467.35c-1.768,4.648,2.587,10.577,1.52,13.252-1.063,2.667-3.491,4.079-5.861,4.878-5.991,2.019-7.075-3.606-8.075-14.169,3.691,0,9.599-1.144,12.416-3.961z"/>
<path fill="#fff" d="m602.32,471.78c0.75,2.538,2.585,11.549,1.657,13.4-1.125,2.239-4.041,3.375-6.981,3.406s-5.856-1.167-6.981-3.406c-0.928-1.852,0.907-10.862,1.657-13.4h10.648z"/>
<path fill="#e87817" d="m579.97,432c-5.032-3.902-7.604-3.569-7.604-3.569s-2.019,1.635-2.66,7.97c-0.405,4.006-0.633,10.451,2.174,16.628,2.774,6.112,7.654,12.183,9.485,14.039,1.834,1.854,3.345,3.692,3.345,3.692l10.187-4.366s-0.293-2.36-0.374-4.969c-0.077-2.607-1.494-10.163-4.002-16.389-2.543-6.29-7.373-10.568-10.551-13.036z"/>
<path fill="#29166f" d="m613.86,432c5.032-3.902,7.604-3.569,7.604-3.569s2.02,1.635,2.66,7.97c0.406,4.006,0.633,10.451-2.173,16.628-2.774,6.112-7.654,12.183-9.485,14.039-1.834,1.854-3.345,3.692-3.345,3.692l-10.187-4.366s0.293-2.36,0.374-4.969c0.077-2.607,1.494-10.163,4.002-16.389,2.542-6.29,7.372-10.568,10.55-13.036z"/>
<path fill="#fff" d="m602.57,430.27c-3.088-5.569-5.582-6.276-5.582-6.276s-2.5,0.707-5.586,6.276c-1.951,3.521-4.7,9.355-4.556,16.139,0.142,6.711,2.234,14.213,3.185,16.641,0.956,2.428,1.62,4.713,1.62,4.713h11.083s0.66-2.285,1.614-4.713c0.956-2.428,2.632-9.93,2.779-16.641,0.143-6.783-2.609-12.617-4.557-16.139z"/>
<path fill="#f4e109" d="m596.59,470.93c-9.241,0-17.013-2.043-19.26-4.805-0.03,0.133-0.047,0.266-0.047,0.404,0,3.451,8.643,6.256,19.307,6.256,10.662,0,19.308-2.805,19.308-6.256,0-0.139-0.019-0.271-0.048-0.404-2.251,2.762-10.023,4.805-19.26,4.805z"/>
<path fill="#e87817" d="m596.59,468.84c-9.572,0-17.604-2.131-19.827-5.008-0.063,0.21-0.099,0.432-0.099,0.646,0,3.564,8.917,6.457,19.926,6.457,11.001,0,19.924-2.893,19.924-6.457,0-0.215-0.036-0.437-0.099-0.646-2.226,2.877-10.255,5.008-19.825,5.008z"/>
<path fill="#f4e109" d="m596.59,466.98c-9.833,0-18.088-2.182-20.402-5.132-0.021,0.121-0.037,0.248-0.037,0.369,0,3.654,9.148,6.62,20.439,6.62,11.283,0,20.435-2.966,20.435-6.62,0-0.121-0.013-0.248-0.033-0.369-2.314,2.95-10.573,5.132-20.402,5.132z"/>
</g>
<g fill="#000">
<path d="m577.27,430.13c0.364,0.851-0.835,2.477-2.762,3.303s-3.931,0.573-4.296-0.277l-0.109,0.557c0.364,0.851,2.463,1.506,4.75,0.524,2.288-0.98,3.261-2.951,2.896-3.803l-0.479-0.304z"/>
<path d="m581.32,433.08c0.569,1.327-1.313,4.192-4.564,5.585-3.25,1.395-6.623,0.784-7.192-0.545l-0.042,0.734c0.568,1.328,4.137,2.432,7.703,0.902,3.565-1.528,5.226-4.873,4.656-6.202l-0.561-0.474z"/>
<path d="m584.63,436.13c0.718,1.674-1.6,5.621-5.78,7.415-4.183,1.793-8.64,0.749-9.357-0.924l0.065,0.862c0.718,1.674,5.294,3.135,9.784,1.21,4.489-1.925,6.586-6.248,5.867-7.921l-0.579-0.642z"/>
<path d="M586.84,446.47c-1.25,1.38-3.02,2.7-5.18,3.62-5.01,2.15-10.19,1.29-11.04-0.68l0.16,0.68c0.85,1.98,6.07,3.49,11.38,1.22,1.98-0.85,3.6-2.09,4.78-3.37-0.03-0.5-0.09-0.98-0.1-1.47z"/>
<path d="m616.56,430.13c-0.364,0.851,0.834,2.477,2.762,3.303,1.927,0.826,3.931,0.573,4.295-0.277l0.11,0.557c-0.364,0.851-2.463,1.506-4.751,0.524-2.287-0.98-3.26-2.951-2.895-3.803l0.479-0.304z"/>
<path d="m612.52,433.08c-0.569,1.327,1.313,4.192,4.563,5.585,3.251,1.395,6.623,0.784,7.193-0.545l0.041,0.734c-0.568,1.328-4.137,2.432-7.702,0.902-3.565-1.528-5.226-4.873-4.656-6.202l0.561-0.474z"/>
<path d="m609.21,436.13c-0.718,1.674,1.6,5.621,5.78,7.415,4.182,1.793,8.64,0.749,9.357-0.924l-0.066,0.862c-0.717,1.674-5.293,3.135-9.783,1.21-4.489-1.925-6.586-6.248-5.867-7.921l0.579-0.642z"/>
<path d="M607.12,446.59c-0.01,0.5-0.06,1-0.09,1.5,1.17,1.24,2.71,2.4,4.63,3.22,5.3,2.27,10.56,0.76,11.4-1.22l0.16-0.68c-0.85,1.97-6.02,2.83-11.03,0.68-2.09-0.89-3.82-2.17-5.07-3.5z"/>
<path d="m600.83,427.49c0,0.926-1.742,1.948-3.839,1.948s-3.839-1.022-3.839-1.948l-0.32,0.469c0,0.926,1.67,2.354,4.159,2.354s4.159-1.429,4.159-2.354l-0.32-0.469z"/>
<path d="m603.39,431.79c0,1.445-2.858,3.336-6.396,3.336s-6.396-1.891-6.396-3.336l-0.328,0.658c0,1.445,2.844,3.865,6.724,3.865s6.724-2.42,6.724-3.865l-0.328-0.658z"/>
<path d="m605.23,435.9c0,1.821-3.686,4.536-8.235,4.536s-8.235-2.715-8.235-4.536l-0.279,0.818c0,1.821,3.63,4.968,8.515,4.968s8.515-3.146,8.515-4.968l-0.29-0.82z"/>
<path d="m607,443.28c0,2.152-4.238,5.593-10.007,5.593s-10.007-3.44-10.007-5.593l0.143-0.714c0,2.152,4.412,4.994,9.864,4.994s9.864-2.842,9.864-4.994l0.16,0.71z"/>
</g>
</g>
<g id="lion" stroke="#000" stroke-width="0.476" stroke-linejoin="round" stroke-linecap="round">
<path fill="#f4e109" d="m578.1,509.26c6.627,6.627-0.549,11.553-4.858,8.988,0.618-1.141,1.062-3.734,1.062-3.734s4.872,0.986,3.796-5.254z"/>
<g fill="#fff" stroke-width="1.429">
<path d="m445.45,607.5s-4.234,8.459-7.507,10.099c-0.995,0.498-1.821,0.36-1.821,0.36s4.128,3.283,6.071,4.015c1.943,0.726,5.344,2.427,6.436,2.061,1.095-0.362,4.86-2.188,7.652-3.037,2.795-0.849,4.738-0.728,5.952,0.122,1.216,0.854,3.28,3.768,2.552,4.982-0.729,1.213-2.309,2.064-2.309,2.064s0.242,1.094-0.608,2.063c-0.849,0.972-2.914,1.334-2.914,1.334l-0.972,2.554c-0.484,1.335-2.064,1.455-2.064,1.455s-0.122,3.16-1.215,4.735c-1.093,1.583-2.793,1.945-4.857,1.703-2.065-0.242-5.345-1.818-6.316-1.942-0.971-0.121-2.672-1.094-3.157-2.309-0.488-1.214-2.065-2.915-3.766-4.009-1.701-1.092-11.173-5.1-14.453-5.584-3.279-0.489-13.117-3.158-13.117-3.158s8.381-6.803,9.109-12.756c0.729-5.948,2.309-9.105,9.717-7.404,7.406,1.7,17.587,2.652,17.587,2.652z"/>
<path d="m513.73,538.17s2.722-2.971,6.152-4.2c6.747-2.421,9.257-0.081,9.257-0.081s0.136-2.521,5.48-4.223c5.344-1.703,8.259-0.727,8.259-0.727s0.972-3.403,3.888-4.617c2.914-1.215,5.829-1.945,6.315-3.885,0.484-1.943-0.73-5.83,0.241-8.018,0.973-2.188,3.771-4.163,6.406-2.825,2.277,1.155,2.127-0.121,3.826,0.362,1.699,0.49,2.458,1.367,2.458,1.367s1.398-1.182,3.828-0.451c2.427,0.725,3.399,1.547,3.399,1.547s2.429,1.457,2.188,3.156c-0.246,1.704-0.974,4.132-3.887,4.617-2.915,0.485-5.584-0.243-7.53,0.727-1.942,0.976-4.372,4.616-5.102,6.56-0.728,1.945-5.828,15.304-13.115,20.647-7.288,5.342-18.219,16.518-21.133,17.245-2.916,0.731-7.287,1.7-7.287,1.7s1.214-16.518-0.729-21.375c-1.944-4.855-2.914-7.526-2.914-7.526z"/>
</g>
<g fill="url(#grad)" stroke-width="0.667">
<path d="m375.46,542.44s6.964-6.071,13.295,1.129c6.426,7.311,2.914,15.123-0.366,18.218-3.278,3.098-7.604,6.334-13.298,5.285,1.856-2.311,1.032-3.699,0.785-4.513-0.547-1.786,1.408-1.575,3.362-4.122,1.434-1.861,2.518-5.51,1.625-8.188-1.856-5.57-5.403-7.809-5.403-7.809z"/>
<path d="m302.22,567.26c5.333-4.255,8.208,3.433,15.121,0.731,3.417-1.335,6.922-8.2,11.295-8.932,4.373-0.727,9.525,2.734,12.752,0.551,5.647-3.826,0.911-13.302,13.117-18.765,8.628-3.862,18.4-3.101,22.956,1.639,4.554,4.733,5.647,11.476,4.19,14.211-1.458,2.731-5.466,6.011-5.466,6.011l-6.377,1.092s-2.186-4.738-6.739-5.465c-4.554-0.729-6.922,2.369-9.109,5.83-2.62,4.148-9.11,9.475-19.312,7.469-3.77-0.739-7.834,4.918-17.672,2.187-4.889-1.357-7.986-6.626-14.756-6.559z"/>
<path d="m307.31,581.61c4.309-3.92,8.75,0.238,10.765,0.221,3.659-0.029,6.921-2.55,8.015-5.827,1.092-3.281,4.19-6.194,8.015-6.558,3.826-0.367,10.02,0.543,12.752-3.101,2.734-3.642,7.652-14.209,14.028-15.485,6.377-1.272,9.11,0.729,9.838,3.826,0.729,3.1-0.912,9.84-0.912,9.84l-2.549,5.463-8.564,2.918s-0.18,4.371-4.007,5.827c-3.825,1.46-12.752-0.543-17.854,0.729-5.1,1.275-4.653,3.521-11.295,4.737-11.548,2.116-12.173-5.009-18.232-2.59z"/>
<path d="m303.13,600.59c5.109-6.156,10.974,2.27,17.296-1.594,3.454-2.11,4.564-10.246,8.754-11.705,4.191-1.457,9.473,1.277,12.388-2.55,2.915-3.826,0.547-9.841,6.558-12.572,6.014-2.729,10.932-0.728,10.932-0.728s5.283-1.821,8.199-1.459c2.914,0.365,9.656,4.012,9.656,4.012s1.456,8.377-4.01,13.297c-5.465,4.921-10.565,7.471-15.303,5.83-3.05-1.055-4.917-1.641-7.285,0-2.37,1.641-2.37,4.373-6.924,4.373s-8.198-2.914-10.93-1.094c-2.733,1.819-4.158,5.658-8.928,6.377-12.231,1.844-13.419-5.218-20.403-2.187z"/>
<path d="m411.96,622.09s-3.158,2.917-5.102,3.767c-1.944,0.851-6.804,2.913-6.804,2.913s4.374,0.489,4.982,1.823c0.606,1.338-1.104,4.906-5.83,2.308,1.976,4.849,9.664,2.724,11.779,1.823,1.767-0.752,4.858-1.336,5.588-0.364,0.728,0.971-0.266,4.265-5.344,3.033,8.016,4.294,11.66-0.729,14.089-2.185,2.43-1.459,4.615-2.551,5.345-1.459,0.729,1.094,1.207,4.313-4.617,4.373,4.886,1.564,8.016-0.485,9.596-2.064,1.577-1.577,2.269-2.009,3.728-2.496,1.457-0.486,6.594-2.361,7.444-5.032,0.852-2.673,0.729-4.616-0.485-6.194-1.215-1.58-2.672-1.945-3.644-1.824-0.972,0.123-1.578,0.73-1.578,1.462,0,0.726,0.848,3.034-1.579,3.884-2.429,0.851-4.98,1.7-7.41,0.973-2.429-0.729-5.586-1.46-7.894-1.336-2.307,0.12-3.886,1.821-5.83,0.849-1.941-0.975-6.434-4.254-6.434-4.254z"/>
<path d="m547.98,521.16c1.943-1.212,4.13-2.668,7.044-0.483,2.916,2.187,5.155,6.253,8.258,8.987,7.825,6.896,5.394,11.146,1.7,16.516,2.193-9.182-4.856-11.494-4.126-7.041,0.563,3.434,3.069,5.672-1.946,15.06,0.391-3.2,0.244-5.831-0.484-7.531-0.729-1.698-2.672-1.942-2.672,0.245,0,2.182,3.234,10.336-6.073,17.971,7.12-10.635-0.428-14.188-1.944-9.957-2.623,7.322-0.748,14.635-11.173,16.03,8.362-6.896,4.658-12.913,1.215-9.47-4.158,4.158-1.54,11.074-9.961,16.03,4.636-7.661-0.893-7.363-3.155-6.073-1.702,0.971-8.504,5.341-8.504,5.341s0.972-4.37,1.217-8.256c0.24-3.886,1.456-4.614,1.456-4.614s6.315-0.728,8.258-4.617c1.944-3.887,3.158-9.231,7.531-11.172,4.372-1.945,12.631-3.645,14.817-7.771,2.186-4.13,1.701-6.076-0.242-8.988-1.944-2.919-4.131-4.854-3.888-6.559,0.243-1.703,1.186-2.718,2.672-3.648z"/>
<path d="m543.61,529.36c-2.599-2.209-8.987,0.305-8.987,0.305s4.978-1.125,6.618,1.246c0.909,1.307,0.092,2.912-0.273,2.912,0,0-0.001,0.004-0.003,0.004-0.602-0.506-1.366-0.822-2.213-0.822-1.911,0-3.46,1.55-3.46,3.461,0,1.864,1.467,3.346,3.295,3.593,2.319,0.313,4.523-0.357,5.842-1.771,2.023-2.171,2.825-5.83-0.819-8.928z"/>
<path d="m527.3,533.01c-2.945-0.79-8.198,1.273-8.198,1.273s5.968-0.32,7.378,1.457c1.167,1.472,0.584,2.716,0.376,3.006-0.519-0.248-1.098-0.393-1.712-0.393-2.181,0-3.948,1.766-3.948,3.949,0,2.179,1.768,3.947,3.948,3.947,0.183,0,1.249-0.166,1.609-0.344,0.58-0.287,1.353-0.709,1.829-1.141,1.935-1.756,2.5-3.363,2.726-6.291,0.14-1.814-1.063-4.67-4.008-5.463z"/>
<path d="m442.89,610.35s-0.639,3.826-5.102,5.559c-2.21,0.857-4.357,0.055-5.591-0.609,0.699-0.781,1.127-1.812,1.127-2.945,0-2.449-1.982-4.434-4.432-4.434-2.239,0-4.089,1.661-4.389,3.817-0.093,0.667-0.15,1.32,0.017,2.058,0.495,2.16,2.297,4.455,5.524,5.301,3.826,1,8.157-0.08,10.475-2.825,2.46-2.917,2.371-5.922,2.371-5.922z"/>
<path d="m502.07,460.92c19.043-1.048,17.543,12.202,9.716,15.062,0,0-3.765-0.242-8.016,0.123-4.801,0.409-5.969-5.17-0.094-5.92,5.737-0.733,9.562-5.813-1.606-9.265z"/>
<path d="m437.46,479.14c7.594-9.643,15.844,0.732,22.349-3.158,3.758-2.248,7.529-7.775,13.36-7.047,5.83,0.729,9.23,1.943,12.145,0.242,2.914-1.697,7.775-6.557,14.333-4.613,3.462,1.029,4.989,3.785,5.28,5.225,0.417,2.055,0.306,6.435,0.306,6.435l-10.201,1.7c-3.888,1.701-7.774,4.375-7.774,4.375s-4.129-5.831-7.773-6.075c-3.644-0.241-9.472,0.244-12.146,2.429-2.672,2.188-6.779,6.01-11.174,4.616-4.798-1.522-8.798-8.334-18.705-4.129z"/>
<path d="m428.23,491.77c11.636-9.71,11.386,3.228,21.761-6.71,4.08-3.907,8.063-1.188,13.46-4.463,5.13-3.113,9.715-9.23,16.031-7.287,6.316,1.939,9.961,7.529,9.961,7.529s-8.017,5.586-9.717,8.984c-1.701,3.402-10.033-1.645-14.575-1.214-5.101,0.489-7.685,3.819-12.389,6.075-14.333,6.877-13.583-5.686-24.532-2.914z"/>
<path d="m415.36,520.92c9.572,5.393,15.879,2.891,17.973,0,2.939-4.056,3.144-9.014,7.287-10.928,4.055-1.873,8.56,0.189,10.689-2.432,3.157-3.885-0.703-16.087,6.072-20.648,12.631-8.5,24.29,0.488,24.29,0.488s-5.708,5.828-6.558,13.848c-0.718,6.766,2.187,10.442,2.187,10.442s-3.479,6.896-13.118,5.59c-11.751-1.593-13.053-0.324-18.751,4.907-6.874,6.313-20.595,9.499-30.071-1.267z"/>
<path d="m405.88,539.38c8.234-5.445,10.359,1.742,19.433,1.214,4.143-0.241,7.289-2.185,9.959-6.798,2.672-4.617,4.616-7.047,9.959-7.286,5.344-0.245,9.716-0.977,11.902-4.378,2.187-3.398-1.699-12.875,3.887-19.187,5.588-6.317,14.333-4.376,14.333-4.376s-1.194,5.555,0.122,9.594c1.7,5.223,4.493,5.469,4.493,5.469s-5.068,2.232-6.314,8.621c-0.96,4.917,0.97,9.355,0.97,9.355s-6.316,6.559-16.76,5.102c-10.445-1.458-11.417-1.945-15.061,0.728-3.644,2.671-6.719,6.966-15.059,7.286-12.005,0.461-11.505-7.977-21.864-5.344z"/>
</g>
<g stroke-width="1.429" fill="#fff">
<path d="m387.91,572.9c-9.666,7.408-12.791,1.471-20.041-1.459-1.994-0.806-5.344-0.242-5.344-0.242l-1.699-3.888s-0.85-2.671,0.606-3.886c1.458-1.217,5.952-0.85,6.802,0.363,0.851,1.217,3.399,5.104,4.857,6.014,1.458,0.906,4.858,1.883,7.409,1.032,2.55-0.853,8.017-5.222,13.846-9.351,5.83-4.131,10.808-6.317,16.031-6.196,5.223,0.12,9.961,2.184,13.967,2.429,4.01,0.246,8.988-1.822,12.997-4.127,4.007-2.311,15.008-4.386,24.776-12.025,3.811-2.98,12.631-12.995,14.938-15.787,2.309-2.798,12.631,1.943,14.576,3.4,1.944,1.458,10.444,0.484,10.444,0.484s4.979-2.063,6.679-2.309c1.701-0.242,2.186,0.729,2.186,0.729s6.195,8.627,8.138,15.428c1.946,6.797,1.946,21.252,1.095,26.473-0.851,5.227-1.823,14.456-8.624,18.828-6.803,4.371-28.056,14.087-38.986,16.517-10.932,2.429-17.611,6.317-22.592,6.071-4.98-0.24-16.762-3.396-21.01-3.884-4.25-0.487-8.501-0.606-8.501-0.606s-0.487,6.68-2.309,10.808c-1.822,4.127-8.859,10.615-14.204,12.071-5.342,1.459-13.245,2.016-13.729,2.621-0.488,0.61-0.73,2.432,0,3.766,0.727,1.34,4.613,8.383,5.951,9.355,1.552,1.129,5.886,2.124,7.771,1.821,1.815-0.292,4.25,0,5.102,1.335,0.85,1.336,0.851,4.372,0.364,4.979-0.486,0.61-1.578,1.096-1.578,1.096s-0.244,2.188-1.215,2.796c-0.972,0.604-2.673,1.092-2.673,1.092s-0.122,0.847-1.215,1.696c-1.093,0.853-1.785,0.725-1.785,0.725s-1.369,0.237-2.464,0.978c-1.805,1.221-7.742-0.242-10.082-2.43-1.821-1.701-2.188-5.342-2.671-6.559-0.486-1.212-2.066-2.79-3.402-3.765-1.336-0.973-21.618-25.263-21.618-27.811,0-2.552,2.31-9.476,5.346-10.809,3.034-1.338,8.621-3.159,9.351-5.103,0.729-1.942-1.848-11.221,0.242-17.734,2.977-9.277,4.29-9.465,12.268-14.936z"/>
<path d="m363.62,573.09c4.938,1.414,1.375,8.039-3.461,5.828-2.339-1.069-4.281-4.279-3.279-6.833,1.001-2.546,2.825-3.277,4.098-3.005,1.275,0.271,3.644,1.824,3.644,1.824l-3.735,1.91c-0.762,1.458-0.364,2.732,1.094,3.464,1.305,0.651,3.077-0.711,1.639-3.188z"/>
<path d="m474.02,563.19s13.489,1.655,17.775,5.622c4.885,4.523,3.845,8.465,3.845,8.465s7.59-0.119,10.687,3.039c2.536,2.587,4.07,4.248,4.07,4.248l9.534,2.672c3.28,2.673,4.676,5.223,4.676,5.223s2.246-0.119,6.132,1.336c3.887,1.459,6.559,2.916,8.744,2.55,2.187-0.362,6.802-1.577,7.774-3.767,0.973-2.186-0.607-7.526,1.82-9.957,2.43-2.428,3.887-3.034,5.587-2.549,1.703,0.484,3.279,4.492,3.279,4.492l4.253,2.917c0.713,1.906,0,4.005,0,4.005s0.363,0.731,0.971,2.794c0.607,2.063-0.304,2.978-0.304,2.978s0.061,2.488-1.274,3.461c-1.338,0.973-3.158,1.216-3.158,1.216s0.561,2.091-0.168,3.425c-0.729,1.333-1.429,1.785-2.5,2.262-0.831,0.368-2.434,0.141-3.405,1.116-0.973,0.967-1.94,3.396-5.101,2.913-3.159-0.486-4.131-2.428-8.26-3.279-4.128-0.849-18.581-2.065-27.083-3.648-8.502-1.574-15.302-1.574-23.563-1.695-8.26-0.121-20.282-1.459-20.769-5.224-0.486-3.764,2.552-7.53,2.186-9.472-0.364-1.944-2.307-8.016-2.307-10.203s-1.568-10.701,0.849-13.848c1.216-1.579,4.008-1.579,5.71-1.092z"/>
<path d="m364.89,565.07c-0.399,3.365-3.587,1.303-2.824-0.64,0.581-1.479,3.279-1.641,4.646-1.003,1.366,0.639,3.644,3.464,3.825,4.372,0.183,0.911,0.51-3.675-1.183-5.555-1.641-1.825-5.193-2.825-8.018-1.367-2.445,1.261-3.279,3.188-2.915,5.919,0.313,2.352,2.565,3.931,4.646,4.192,3.548,0.448,6.298-3.177,1.823-5.918z"/>
<path d="m375.09,567.07c5.21-2.135,0.96-7.26-1.458-6.922-2.263,0.316-3.593,2.115-3.828,3.643-0.24,1.564,0.296,3.826,1.185,4.826,0.684,0.771,2.445,1.321,2.445,1.321s-1.904-2.741-0.714-4.597c1.142-1.78,3.58-2.093,2.37,1.729z"/>
</g>
<path fill="#fff" stroke="none" d="m463.89,559c8.617,3.146,9.46,3.168,15.442,4.337,3.271,0.64,2.942,4.616,0.585,7.446s-0.472,10.842-2.357,13.199-6.579,5.318-6.579,5.318c-4.263-3.434-8.504-4.848-8.976-11.918-0.47-7.08,1.89-18.39,1.89-18.39z"/>
<g fill="#f4e109">
<path d="m399.81,658.08s-2.623-1.095-3.349,0.82c-0.728,1.916,0.488,2.89,0.488,2.89s4.104,0.651,1.55,5.729c6.804-3.952,1.311-9.439,1.311-9.439z"/>
<path d="m403.26,655.94s-2.242-0.728-2.632,1.055c-0.389,1.783,0.772,3.008,0.772,3.008s2.961,0.75,1.796,4.503c5.353-4.504,0.064-8.566,0.064-8.566z"/>
<path d="m409.39,649.88s-0.831-0.381-1.438,0.833c-0.606,1.218-0.005,2.833-0.005,2.833s3.294,0.391,3.339,4.549c4.642-6.596-1.896-8.215-1.896-8.215z"/>
<path d="m454.1,634.6s-2.087-0.613-2.574,2.422c-0.403,2.519,1.482,2.802,1.482,2.802s3.485-1.263,3.643,2.913c5.405-4.739-2.551-8.137-2.551-8.137z"/>
<path d="m457.37,630.71s-1.765-0.27-1.817,2.491c-0.043,2.289,1.474,2.295,1.474,2.295s3.4-1.688,4.208,2.357c4.254-4.857-3.865-7.143-3.865-7.143z"/>
<path d="m460.86,626.5s-1.787-0.321-1.936,2.442c-0.12,2.287,1.423,2.34,1.423,2.34s3.335-1.66,4.01,2.123c4.826-4.158-3.497-6.905-3.497-6.905z"/>
<path d="m462.88,622.32c-3.01,0.739-1.323,4.302,0.489,4.599,0.376-0.734,2.376-1.797,2.976,1.16,3.9-2.957-1.975-5.832-3.465-5.759z"/>
<path d="m562.31,583.1c-2.323-6.604-8.684-2.368-8.684-2.368s-1.115,0.997,0.061,2.368c1.457,1.702,3.08,1.122,3.08,1.122s1.845-3.101,5.543-1.122z"/>
<path d="m558.91,586.26c-0.521,0.43-0.938,1.363-0.087,2.702,0.852,1.335,2.886,1.629,2.886,1.629s1.029-2.596,5.46,0.161c-1.431-7.194-7.248-5.323-8.259-4.492z"/>
<path d="m560.92,591.54c0.679-0.157,9.385,1.83,6.981,8.688-2.159-5.232-5.821-2.613-5.821-2.613s-2.06-0.681-2.56-2.246c-0.813-2.547,0.883-3.708,1.4-3.829z"/>
<path d="m556.24,600.95s-1.865,0.224-2.202,1.786c-0.654,3.035,1.459,3.452,1.459,3.452s4.749-0.003,3.421,5.82c6.578-7.01-0.297-10.885-2.678-11.058z"/>
<path d="m407.02,653.28s-2.299-0.463-2.476,1.347c-0.178,1.813,1.029,2.87,1.029,2.87s3.419-0.25,2.373,4.299c4.546-5.174-0.926-8.516-0.926-8.516z"/>
</g>
<g fill="#93aa5e">
<path d="m497.22,473.99c1.696-0.357,3.396-0.557,4.492,0.66,1.092,1.213,1.49,2.167,1.49,2.167s-3.185,0.208-5.595,0.923c-1.358,0.401-3.304,1.31-3.304,1.31s-1.58-2.093-0.365-3.306c1.214-1.217,2.443-1.577,3.282-1.754z"/>
<path d="m485.68,484.36s-3.522-2.063-1.7-4.737c1.821-2.672,3.522-3.885,5.466-4.008,1.943-0.122,4.857,3.429,4.857,3.429s-3.334,1.524-4.791,2.5c-1.458,0.971-3.832,2.816-3.832,2.816z"/>
<path d="m478.59,492.89s-2.99-1.479-2.749-4.151c0.245-2.673,2.794-6.317,5.831-6.071,3.037,0.241,4.009,1.7,4.009,1.7s-2.448,1.797-4.502,4.475c-1.421,1.853-2.589,4.047-2.589,4.047z"/>
<path d="m476.03,499.05s-2.131-1.324-3.346,0.013c-1.214,1.334-3.037,4.128-2.429,6.071,0.608,1.944,2.915,3.764,4.008,3.646,1.094-0.124,2.005-0.505,2.005-0.505s-0.765-2.732-0.833-4.553c-0.089-2.351,0.595-4.672,0.595-4.672z"/>
<path d="m474.96,519.79s-3.731-0.935-4.218-3.85-0.121-5.467,1.215-6.682c1.335-1.213,4.104-1.492,4.104-1.492s0.923,3.081,2.381,3.93c1.458,0.852,2.351,2.142,2.351,2.142s-1.339,0.565-2.916,2.263c-1.474,1.584-2.917,3.689-2.917,3.689z"/>
<path d="m474.9,530s-2.094,1.001-3.672-1.061c-1.578-2.066-1.943-5.956-0.365-7.777,1.58-1.82,4.096-1.371,4.096-1.371s-0.833,3.365-0.833,4.703c0.001,1.336,0.774,5.506,0.774,5.506z"/>
<path d="m478.59,492.89s-2.26-2.449-3.961-0.87c-1.702,1.577-3.037,3.402-2.187,4.858,0.849,1.456,3.588,2.173,3.588,2.173s0.805-2.155,1.19-3.334c0.596-1.816,1.37-2.827,1.37-2.827z"/>
</g>
<path fill="#f1c700" stroke-width="1.429" d="m512.7,506.16s-3.979,1.037-3.582,3.945c0.547,4.011,5.709,3.343,5.709,3.343s-7.045,3.096-8.442,4.615c-1.395,1.518-3.037,4.128-3.037,4.128s-2.308-2.975-1.942-5.586c0.183-1.318,2.613-2.064,2.613-3.342,0-1.273-0.063-5.948,1.881-6.982,1.941-1.032,6.8-0.121,6.8-0.121z"/>
<path fill="#fff" stroke-width="1.429" d="m532.8,485.58s1.44-5.214-0.552-7.602c-1.991-2.389-4.646-3.453-6.504-2.921-1.857,0.532-6.636,3.187-6.636,3.187s-1.503-2.522-7.321-2.256-11.259-0.267-17.232,2.256c-5.973,2.522-9.821,5.84-12.608,8.493-2.788,2.655-5.709,8.738-6.594,11.839-1.3,4.553-0.925,8.053,0.355,10.725,1.034,2.157,4.26,4.338,4.26,4.338s-3.665,1.99-5.586,6.148c-1.646,3.562-0.847,8.418-0.349,10.961,0.176,0.896,0.695,2.035,0.695,2.035s3.883-0.602,5.476-2.857c1.593-2.256,1.687-5.074,3.81-6.666,2.123-1.594,7.064-1.508,7.064-1.508s-1.331-3.469,1.508-6.588c1.647-1.811,2.645-3.275,2.778-4.603,0.133-1.325,0.372-2.905,2.703-4.272,2.33-1.367,5.398-2.014,7.138-5.649,0.51-1.065,0.7-2.099,2.094-3.417s4.513-1.326,6.769-1.326c2.257,0,5.708,0,7.035-0.664,1.328-0.664,3.359-1.411,4.533-3.095s1.307-3.011,2.236-4.47c0.929-1.461,0.928-2.123,2.388-2.389,1.457-0.265,2.54,0.301,2.54,0.301z"/>
<g fill="url(#grad)" stroke-width="0.667">
<path d="m509.6,473.43c-1.567-1.176-4.979-0.85-5.71,1.217-0.728,2.061,0.608,4.542,2.222,5.649,1.518,1.041,3.274,1.429,4.613,1.13,1.499-0.332,5.51-2.425,6.845-3.154s1.138-2.048-1.048-2.531c-2.186-0.49-4.994,0.448-4.994,0.448s-0.957-2.029-1.928-2.759z"/>
<path d="m497.7,489.65s0.367,2.37-1.639,2.549c-2.003,0.182-3.644-1.457-2.732-3.641,0.913-2.188,3.159-2.916,4.981-2.732,1.82,0.18,4.858,1.639,5.039,3.641,0.182,2.007,0.182,5.648-1.091,6.925-1.276,1.274-3.825,3.095-6.376,4.372-2.552,1.277-4.737,0.184-7.469,1.822-2.733,1.641-2.309,4.25-6.135,4.25-3.825,0-4.797-1.338-4.797-1.338s4.068,1.338,6.135-0.85c1.566-1.658,0.787-7.895,4.25-9.17,3.461-1.274,9.474,0,10.203-2.004,0.725-2-0.369-3.824-0.369-3.824z"/>
<path d="m413.15,563.24c-1.605,0-3.025,0.777-3.917,1.973,0,0-1.458-1.73-0.639-4.098,0.82-2.369,4.564-4.152,7.106-4.372,3.188-0.276,7.497,1.114,7.497,1.114s-4.399-2.3-8.954-2.117c-4.555,0.18-9.109,2.734-10.201,6.195-1.096,3.465,0.087,8.383,3.917,10.203,2.482,1.182,4.648,1.145,6.089,0.791,2.27-0.422,3.993-2.407,3.993-4.801,0-2.698-2.191-4.888-4.891-4.888z"/>
<path d="m445.22,565.81c-0.146-1.402-0.676-2.449-1.301-3.136-0.974-1.069-2.414-1.733-3.971-1.733-2.753,0-5.014,2.105-5.259,4.797-0.336-0.01-2.914-0.189-3.518-2.639-0.547-2.222,0.242-4.8,1.184-5.738,1.188-1.186,3.979-2.752,3.979-2.752s-6.803,0.927-8.989,5.024c-1.611,3.022-1.093,7.653,2.004,10.385,3.097,2.737,7.014,4.102,10.749,2.737,3.164-1.16,4.506-3.121,4.843-4.129s0.4-1.656,0.279-2.816z"/>
<path d="m397.05,629.74c-3.644-0.315-5.913-1.403-6.308-1.605,0.957-0.76,1.572-1.936,1.572-3.252,0-2.295-1.863-4.159-4.16-4.159-1.895,0-3.307,1.374-3.994,3.002s-0.6,3.473,0.305,5.158c1.429,2.66,6.198,4.096,9.031,3.953,7.621-0.382,12.996-3.749,14.553-4.843-1.128,0.728-4.401,2.315-10.999,1.746z"/>
<path d="m416.63,617.9c-2.299,2.417-6.649,3.096-9.929,2.55-1.579-0.262-2.995-1.254-3.604-2.096,0.887-0.773,1.449-1.912,1.449-3.186,0-2.348-1.904-4.251-4.251-4.251-1.155,0-2.1,0.251-3.159,1.333-1.06,1.083-1.912,3.555-1.182,6.379,0.728,2.822,4.19,5.191,8.925,6.104,4.736,0.908,9.656-2.461,11.935-4.922,2.276-2.458,2.64-7.106,2.64-7.106s-0.814,3.083-2.824,5.195z"/>
<path d="m358.7,597.13c11.171-6.693,18.584,4.285,19.95,7.195,1.384,2.954,2.641,10.48,0.546,13.121-2.094,2.645-6.468,2.456-8.288,3.28-1.822,0.817-2.004,3.183-1.185,4.915,0.819,1.734,3.188,4.01,4.556,5.192,1.364,1.186,4.827,4.464,6.101,6.104,1.276,1.641,4.009,4.645,6.104,4.464,2.096-0.181,3.007-1.186,4.463-1.641,1.459-0.454,3.371,0,4.1,1.549,0.729,1.551,1.003,5.012-1.913,6.926-2.914,1.912-4.281,3.461-8.38,4.008-3.256,0.433-6.369-0.756-9.201-2.281-2.336-1.26-6.931-4.4-11.932-1.363,2.813-5.662,8.949-2.293,10.417-2.35,1.548-0.06,1.605-1.385-1.4-2.934s-10.829-2.191-15.301-8.107c8.535,3.666,9.29-0.273,8.471-1.82-1.049-1.982-4.389-3.329-7.016-4.102-2.331-0.684-7.608-1.787-11.021,0.184,2.288-4.846,8.788-1.346,9.928-3.369,0.952-1.688-0.948-4.01-2.641-5.104-1.549-1.003-4.312-2.185-8.563,0.642,2.126-5.326,9.188-1.826,11.66-5.104,0.943-1.251,0.807-3.606-0.364-4.826-0.896-0.935-2.919-1.648-4.19-0.912-0.963,0.558-2.792,1.829-5.921,0.456,4.629,0.623,5.629-4.252,10.112-4.188,1.642,0.023,3.331-1.112,3.461-2.098,0.167-1.27-1.002-2.915-2.915-2.824-1.7,0.08-3.278,2.482-8.744,0.273,4.841,0.709,6.778-2.791,10.566-3.46,2.359-0.417,3.825,0.361,5.466,1.366,1.64,1.002,3.279-1.096,1.64-2.371-1.08-0.841-2.77-2.514-8.566-0.821z"/>
<path d="m519.56,586.44c-2.446-1.602-7.713-1.76-7.713-1.76s6.072,1.274,7.713,5.465c1.337,3.416,0.242,3.949,0.242,3.949s0.005,0.022,0.015,0.058c-0.635-0.521-1.436-0.849-2.323-0.849-2.028,0-3.672,1.644-3.672,3.678,0,2.029,1.644,3.672,3.672,3.672,0,0,3.827,0.424,5.951-2.488,4.036-5.537-1.942-10.448-3.885-11.725z"/>
<path d="m505.96,579.34c-3.269-1.963-7.954-1.762-7.954-1.762s3.343,2.087,4.068,3.398c0.724,1.309,0.704,2.246,0.552,2.813-0.69-0.301-1.45-0.473-2.25-0.473-3.103,0-5.619,2.513-5.619,5.613,0,3.104,2.516,5.624,5.619,5.624,0.054,0,0.105-0.011,0.16-0.015,1.61,0.05,7.628-0.187,9.555-6.153,1.275-3.945-0.791-7.041-4.131-9.045z"/>
<path d="m491.14,568.04c-6.728-4.924-15.667-4.555-15.667-4.555s10.261,3.037,11.78,9.596c0.899,3.888-0.725,4.961-0.947,5.088-0.599-1.893-2.369-3.267-4.459-3.267-2.58,0-4.674,2.096-4.674,4.678,0,0.813,0.21,1.579,0.577,2.247,1.105,2.482,4.084,5.249,9.686,5.039,3.599-0.138,6.802-3.58,7.53-5.952,0.728-2.366,2.063-8.558-3.826-12.874z"/>
<path d="m468.43,583.23s2.55,4.007,2.55,6.071-0.728,8.379,3.28,10.325c4.009,1.942,14.212,0.97,17.611,0.24,3.4-0.728,11.717-0.263,14.816,0.61,2.671,0.751,10.201,4.246,13.726,4.008,3.522-0.243,10.444-1.457,11.538-4.133,1.092-2.672,0.849-5.222,1.214-5.95,0.363-0.726,2.064-1.455,4.615-0.849,2.55,0.608,4.979,1.215,6.072,2.551,1.092,1.334,2.308,4.856,0,7.652-2.307,2.794-6.68,5.223-8.259,6.801-1.579,1.576-3.888,5.709-5.346,7.65-1.457,1.943-5.758,7.17-12.871,4.98,11.551-1.373,8.738-10.373,5.585-10.689-2.563-0.257-5.708,0.854-7.043,3.281-1.338,2.428-5.116,9.473-14.21,5.828,5.781,0.457,8.299-2.714,8.38-4.617,0.074-1.75-2.824-5.273-6.681-3.52-4.605,2.094-4.543,7.594-12.024,5.83,4.231-0.361,6.314-3.645,5.708-4.859-0.606-1.215-2.792-2.791-5.586-1.822-2.794,0.975-6.32,4.322-7.534,5.775-1.214,1.459-4.857,5.795-10.319,1.996,5.774,0.986,7.408-2.063,6.801-3.52s-3.645-2.793-6.56-1.943c-2.916,0.852-4.251,2.673-5.952,3.4-1.699,0.727-7.14,1.486-9.836-3.156,8.446,3.393,6.195-2.918,4.858-4.251-1.337-1.338-5.83-3.159-5.709-7.772,0.121-4.617,2.915-8.987,6.073-11.297,3.158-2.308,4.493-3.401,4.857-4.736,0.369-1.337,0.246-3.884,0.246-3.884z"/>
<path d="m471.22,528.94c-1.578-2.066-1.943-5.956-0.365-7.777,0.882-1.017,2.359-1.269,3.501-1.298,0.007-0.026,0.013-0.058,0.021-0.081,0.094-0.297,0.235-0.596,0.397-0.896-0.333-0.091-1.001-0.273-2.34-0.64-2.674-0.727-7.531,1.945-11.902,6.318-4.374,4.373-8.018,15.302-11.661,19.436-3.643,4.125-8.986,1.456-14.573,3.156-5.588,1.694-10.187,10.342-23.076,3.883,5.452,7.146,18.202,6.334,22.104,4.615,4.087-1.801,7.846-4.164,13.62-2.955,4.921,1.03,9.744-0.456,13.587-3.849,4.128-3.637,6.072-10.683,8.744-13.598,2.225-2.428,4.426-3.327,5.107-3.565l-0.526-1.522c-0.965-0.069-1.98-0.365-2.638-1.227z"/>
<path d="m489.93,520.68s-5.345-0.729-7.773,2.187c-2.429,2.916-1.215,5.344-4.373,7.042-3.159,1.704-5.83,0.489-9.23,4.131-3.401,3.644-4.13,10.933-6.802,13.12-2.672,2.182-11.659,1.454-11.659,1.454s5.958,2.473,11.659,1.218c7.178-1.58,10.928-13.83,26.234-15.551-14.807,3.221-10.307,10.221-18.22,15.061-3.04,1.859-8.258,2.671-8.258,2.671s5.979,1.501,12.875-2.426c4.452-2.535,6.315-4.127,8.987-3.647,2.673,0.487,10.643,0.592,14.09-1.7,3.598-2.392,6.039-4.535,6.313-8.012,0.288-3.634-1.7-6.56-1.7-6.56s-5.586,0.974-8.744-3.153c-3.155-4.137-3.399-5.835-3.399-5.835z"/>
<path d="m418.87,606.41c-1.629,1.242-4.191,0.913-5.83-0.092-1.077-0.656-1.986-1.791-2.233-2.546,1.227-0.739,2.052-2.079,2.052-3.618,0-2.328-1.889-4.217-4.221-4.217-1.08,0-2.065,0.408-2.812,1.076-0.58,0.52-1.427,1.816-1.766,3.168-0.357,1.43-0.77,4.574,1.873,7.047,2.917,2.736,8.478,3.59,10.658,3.19,1.934-0.355,3.154-1.397,3.825-2.915,0.862-1.947,1.185-6.375,1.185-6.375s-0.458,3.549-2.731,5.282z"/>
</g>
<g fill="#93aa5e">
<path d="m531.95,522.38s1.152,7.048-3.463,6.5c-4.615-0.547-4.633-5.692-4.633-5.692l8.096-0.808z"/>
<path d="m515.04,526.19s0.863,4.583,5.731,3.476c4.028-0.918,3.019-6.393,3.019-6.393l-8.75,2.917z"/>
<path d="m515.04,526.19s0.816,2.929-1.859,4.206c-4.778,2.281-7.531-1.703-7.531-1.703s3.246-1.827,4.523-2.318c1.626-0.625,4.867-0.185,4.867-0.185z"/>
<path d="m496.12,528.51s-0.625,4.252,2.678,5.061c3.78,0.922,7.054-2.471,6.816-4.763-1.39-0.341-3.001-0.074-4.753,0.004-2.612,0.125-4.741-0.302-4.741-0.302z"/>
<path d="m491.03,522.98s-2.375,1.285-2.314,3.291c0.06,2,1.109,3.478,2.125,4.004,3.157,1.641,5.487-1.61,5.487-1.61s-1.727-1.102-3.065-2.589c-1.106-1.229-2.233-3.096-2.233-3.096z"/>
<path d="m490.7,516.7s-3.75-0.953-4.72,0.583c-1.365,2.162-1.033,4.189-0.122,5.279,0.912,1.092,4.247,1.339,5.169,0.417-0.789-1.399-0.835-2.51-0.773-3.602,0.06-1.095,0.446-2.677,0.446-2.677z"/>
<path d="m493.97,511.85s-3.095-2.59-5.14-1.978c-2.006,0.601-3.157,2.552-2.916,4.009,0.249,1.489,2.243,2.303,3.71,2.551,1.577,0.27,1.131,0.149,1.131,0.149s1.116-1.708,1.845-2.5c0.73-0.785,1.37-2.231,1.37-2.231z"/>
<path d="m497.1,506.13s-1.183-1.018-3.006-2.292c-1.821-1.274-4.73-1.423-5.337,0.155-0.606,1.578-0.393,3.608,0.456,4.637,0.851,1.035,1.28,1.31,2.887,2.113,1.616,0.808,1.905,0.982,1.905,0.982s0.732-2.508,1.339-3.721c0.606-1.214,1.756-1.874,1.756-1.874z"/>
<path d="m501.06,503.93s-1.193-3.747-3.393-4.195c-2.154-0.439-3.273,0.179-3.546,1.875-0.271,1.685,0.614,2.668,1.463,3.304,0.902,0.675,1.756,1.041,1.756,1.041l3.72-2.025z"/>
<path d="m505.08,499.32s-1.788-1.957-3.365-2.017c-1.581-0.063-2.319,0.499-2.613,1.578-0.273,1.004,0.183,2.128,0.852,2.974,0.666,0.854,1.317,1.78,1.317,1.78s1.95-0.672,2.56-1.398c0.606-0.73,1.249-2.917,1.249-2.917z"/>
</g>
<g fill="#da251c">
<path d="m502.53,521.07s3.471-5.986,10.567-7.924c5.583-1.524,15.958,2.726,14.939-4.647-0.291-2.106-1.668-9.689,7.923-10.111-5.55,1.604-3.278,6.377-3.278,6.377s1.821-2.278,3.917-2.641c2.095-0.365,6.103,0.623,6.103-3.828,1.948,8.67-6.146,4.951-7.833,10.387-0.709,2.285,1.395,8.229-4.86,10.777-4.217,1.72-10.261-2.065-13.783-2.065-2.912,0-6.711,4.463-8.26,5.468-1.549,1.001-5.435-1.793-5.435-1.793z"/>
<path d="m523.08,492.86c0.134-0.014,0.27-0.035,0.406-0.061,1.172-0.823,2.143-1.857,2.631-3.158,1.091-2.917,1.091-4.008,3.461-5.102,1.452-0.67,2.76-0.105,3.519,0.723,0.499-0.569,1.429-1.898,1.159-3.697-0.366-2.428-2.674-6.073-5.345-6.318-2.673-0.242-4.979,0.49-5.346,1.946-0.362,1.456-0.728,3.032-1.82,3.519-1.094,0.488-2.914-0.359-4.616,1.947-1.701,2.308-1.701,4.736-0.484,6.071,1.213,1.335,5.221,4.251,6.435,4.13z"/>
</g>
<g fill="#fff">
<path d="m518.38,496.48c1.612,1.084,7.362,6.271,0.363,11.388,1.562-5.741-2.938-5.366-4.099-5.739-1.23-2.288,0.494-5.068,3.736-5.649z"/>
<path d="m531.08,487.54c1.299,0.839,6.669,3.338,1.806,8.201,0.545-4.057-2.955-3.604-3.749-3.604-1.042-1.515-0.363-4.046,1.943-4.597z"/>
<path d="m511.2,482.14c1.491-1.247,3.063-2.273,3.993-2.508,0.388-0.098,0.81-0.238,1.242-0.406-0.338-1.273-1.08-2.938-2.759-3.113-2.317-0.244-3.567,1.481-3.776,3.029-0.139,1.03,0.364,2.213,1.3,2.998z"/>
<path d="m508.69,495.9s-1.094-4.25-3.887-4.615c-2.051-0.268-3.4,1.457-3.706,3.158-0.266,1.5,0.243,3.521,2.188,4.191,1.944,0.668,2.394,0.301,2.394,0.301s0.098-0.786,1.129-1.82c1.03-1.031,1.882-1.215,1.882-1.215z"/>
<path d="m527.31,486.73s-1.488-3.334-3.928-2.977c-1.58,0.23-1.963,1.886-1.607,2.798,0.952,2.44,4.643,2.618,4.643,2.618s0.191-0.672,0.436-1.402c0.241-0.729,0.456-1.037,0.456-1.037z"/>
<path d="m529.58,484.54s-2.609-2.244-2.246-3.945c0.365-1.703,2.412-1.73,3.126-1.136,2.36,1.968,1.25,4.94,1.25,4.94l-2.13,0.141z"/>
</g>
<path d="m528.12,493.65c-1.641,0.908-5.648,1.64-8.563,3.096-2.916,1.459-2.612,7.288-5.709,9.294-3.096,2.003-6.68-1.117-8.441,2.122-1.608,2.959,0.032,3.508-0.424,5.164-0.487,1.762-2.611,2.004-2.794,4.006-0.182,2.006,0.608,3.279,2.065,4.191,1.458,0.912,3.644,0.912,4.918-0.182,1.276-1.094,4.374-4.191,6.924-4.463,2.551-0.273,6.011,2.096,9.655,2.278,3.644,0.181,6.923-1.458,7.834-3.462,0.91-2.006,1.64-1.279,2.005,0.179,0.363,1.458,0.183,5.284-1.823,6.378-2.003,1.096-7.834,0.549-9.655,1.641-1.821,1.094-4.555,2.914-8.199,2.73-3.644-0.18-5.101,0.184-7.47,1.459-2.368,1.275-7.02,3.039-10.018,2.186-2.509-0.715-6.561-3.645-7.835-7.104-1.276-3.46-1.094-6.559,1.274-8.928,2.37-2.365,2.37-6.559,4.373-8.196,2.002-1.641,6.013-2.915,7.286-4.193,1.276-1.271,0.547-4.735,4.191-6.376,3.645-1.639,8.015,0.182,10.932-0.545,2.914-0.729,6.375-2.369,7.469-5.283,1.091-2.917,1.091-4.008,3.461-5.102s4.372,1.094,4.19,2.367c-0.182,1.276-2.187,1.094-3.825,2.734s-0.18,3.097-1.821,4.009z" stroke-width="1.429" fill="#fff"/>
<path d="m506.2,495.17c0,0.67048-0.54353,1.214-1.214,1.214s-1.214-0.54352-1.214-1.214c0-0.67047,0.54353-1.214,1.214-1.214s1.214,0.54353,1.214,1.214z"/>
<path d="m514.08,479.37c0,0.536-0.435,0.97-0.973,0.97-0.537,0-0.973-0.434-0.973-0.97,0-0.541,0.436-0.977,0.973-0.977,0.538,0.001,0.973,0.436,0.973,0.977z"/>
<g fill="#f4e109" stroke="none">
<path d="m433.42,635.22s2.084-1.242,2.354-3.189c0.182-1.314-1.591-0.895-1.289,0.393,0.396,1.702-1.065,2.796-1.065,2.796z"/>
<path d="m420.52,635.05s2.486-1.757,2.702-4.148c0.144-1.617-2.005-0.886-1.56,0.641,0.588,2.002-1.142,3.507-1.142,3.507z"/>
<path d="m408.81,632.71s3.462-0.695,4.811-3.133c0.911-1.648-1.712-1.887-1.95-0.059-0.32,2.412-2.861,3.192-2.861,3.192z"/>
<path d="m526.36,542.3c0,0.67047-0.54352,1.214-1.214,1.214-0.67047,0-1.214-0.54353-1.214-1.214,0-0.67048,0.54353-1.214,1.214-1.214,0.67048,0,1.214,0.54352,1.214,1.214z"/>
<path d="m540.21,536.47c0,0.807-0.654,1.461-1.458,1.461-0.805,0-1.456-0.654-1.456-1.461,0-0.803,0.651-1.456,1.456-1.456,0.804,0,1.458,0.653,1.458,1.456z"/>
<path d="m531.4,568.56s1.2-2.843-0.578-5.158c-1.201-1.561-2.902,0.163-1.144,1.35,2.323,1.567,1.722,3.808,1.722,3.808z"/>
<path d="m543.04,557.68s0.333-2.755-2.042-4.288c-1.598-1.035-2.732,0.898-0.705,1.459,2.68,0.749,2.747,2.829,2.747,2.829z"/>
<path d="m553.42,551.52s0.263-2.697-1.84-4.172c-1.418-0.996-2.392,0.9-0.604,1.434,2.36,0.703,2.444,2.738,2.444,2.738z"/>
<path d="m558.65,542.2s-0.28-2.276-2.282-3.106c-1.354-0.562-1.81,1.18-0.237,1.295,2.076,0.145,2.519,1.811,2.519,1.811z"/>
<path d="m561.46,532.61s-1.275-1.903-3.438-1.743c-1.461,0.109-1.084,1.869,0.373,1.261,1.918-0.804,3.065,0.482,3.065,0.482z"/>
<path d="m441.41,566.22c0,0.80523-0.65277,1.458-1.458,1.458s-1.458-0.65277-1.458-1.458,0.65277-1.458,1.458-1.458,1.458,0.65277,1.458,1.458z"/>
<path d="m414.85,568.13c0,0.93944-0.76156,1.701-1.701,1.701-0.93943,0-1.701-0.76156-1.701-1.701,0-0.93943,0.76157-1.701,1.701-1.701,0.93944,0,1.701,0.76157,1.701,1.701z"/>
<path d="m430.59,612.35c0,0.93888-0.76111,1.7-1.7,1.7-0.93888,0-1.7-0.76112-1.7-1.7,0-0.93889,0.76112-1.7,1.7-1.7,0.93889,0,1.7,0.76111,1.7,1.7z"/>
<path d="m402,615.17c0,0.941-0.762,1.699-1.701,1.699s-1.7-0.758-1.7-1.699c0-0.94,0.76-1.701,1.7-1.701,0.939,0,1.701,0.76,1.701,1.701z"/>
<path d="m389.85,624.89c0,0.941-0.762,1.697-1.701,1.697-0.938,0-1.7-0.756-1.7-1.697s0.762-1.701,1.7-1.701c0.939,0,1.701,0.759,1.701,1.701z"/>
<path d="m366.02,603.81s3.807,0.92,4.793,4.117c0.663,2.154-2.399,2.461-2.252,0.07,0.191-3.156-2.541-4.187-2.541-4.187z"/>
<path d="m361.46,610.43s3.752-0.008,5.407,3.076c1.117,2.082-1.655,3.176-2.076,0.647-0.554-3.345-3.331-3.723-3.331-3.723z"/>
<path d="m358.49,619.6s3.2-1.451,5.949,0.826c1.854,1.543-0.041,3.641-1.495,1.41-1.915-2.946-4.454-2.236-4.454-2.236z"/>
<path d="m362.78,627.77s2.614-1.264,4.927,0.564c1.561,1.23,0.038,3.001-1.205,1.188-1.64-2.386-3.722-1.752-3.722-1.752z"/>
<path d="m369.1,638.17s3.222,2.059,6.354,0.553c2.115-1.02,0.339-3.394-1.426-1.643-2.329,2.312-4.928,1.09-4.928,1.09z"/>
<path d="m378.67,647.87s2.688,1.257,4.971-0.345c1.544-1.077-0.059-2.769-1.258-1.14-1.584,2.146-3.713,1.485-3.713,1.485z"/>
<path d="m502.07,588.93c0,0.941-0.761,1.704-1.698,1.704-0.94,0-1.7-0.763-1.7-1.704,0-0.935,0.76-1.697,1.7-1.697,0.937-0.001,1.698,0.762,1.698,1.697z"/>
<path d="m518.71,596.98c0,0.668-0.545,1.211-1.216,1.211-0.669,0-1.214-0.543-1.214-1.211,0-0.675,0.545-1.221,1.214-1.221,0.671,0.001,1.216,0.547,1.216,1.221z"/>
<path d="m483.79,579.59c0,1.0736-0.87036,1.944-1.944,1.944s-1.944-0.87036-1.944-1.944,0.87035-1.944,1.944-1.944,1.944,0.87036,1.944,1.944z"/>
<path d="m468.3,614.26s3.01-2.115,2.855-5.416c-0.104-2.227-2.854-1.496-1.975,0.68,1.164,2.874-0.88,4.736-0.88,4.736z"/>
<path d="m483.7,614.57s2.28-2.28,1.406-5.26c-0.591-2.017-2.94-1.027-1.653,0.85,1.701,2.475,0.247,4.41,0.247,4.41z"/>
<path d="m499.33,613.41s1.765-1.642,0.932-4.059c-0.561-1.634-2.437-1.017-1.311,0.557,1.485,2.073,0.379,3.502,0.379,3.502z"/>
<path d="m513.06,614.13s1.412-2.064,0.307-4.213c-0.744-1.448-2.393-0.354-1.137,0.886,1.659,1.643,0.83,3.327,0.83,3.327z"/>
<path d="m528.87,613.77s1.27-2.398-0.112-4.561c-0.93-1.462-2.554-0.08-1.104,1.094,1.913,1.553,1.216,3.467,1.216,3.467z"/>
<path d="m410.58,600.15c0,1.075-0.872,1.944-1.944,1.944-1.074,0-1.943-0.869-1.943-1.944,0-1.067,0.869-1.938,1.943-1.938,1.073,0.001,1.944,0.871,1.944,1.938z"/>
</g>
<g fill="#000">
<path d="m435.88,585.17c-13.827,1.076-15.424,21.738-15.424,21.738h0.969s0.378-17.412,14.455-21.738z"/>
<path d="m560.55,515.24c1.627-3.12,4.814-2.058,6.469-1.095-2.467-0.587-4.53-0.4-6.469,1.095z"/>
<path d="m568.57,513.78c1.86-1.973,4.798-2.223,6.286,0.092-2.3-0.939-3.863-0.877-6.286-0.092z"/>
<path d="m503.71,546.22c7.591,10.035,4.091,18.16,0.455,28.601,4.761-5.691,8.636-20.941-0.455-28.601z"/>
<path d="m508.9,540.2c-2.542,10.982,0.376,29.04,5.739,35.074-3.287-7.189-6.655-17.096-5.739-35.074z"/>
<path d="m394.83,655.49c4.851-0.303,5.345,3.039,5.345,3.039l-0.729-0.61c-0.001,0,0.172-1.669-4.616-2.429z"/>
<path d="m399.96,653.92c4.53-0.987,4.42,3.218,4.42,3.218l-1.116-1.205s0.414-1.875-3.304-2.013z"/>
<path d="m403.56,651.11c4.058-0.857,3.963,2.684,3.963,2.684l-0.658-0.677c-0.001,0,0.44-1.864-3.305-2.007z"/>
<path d="m455.92,635.57s-0.116-4.321-5.055-2.585c4.188-0.736,4.358,2.073,4.358,2.073l0.697,0.512z"/>
<path d="m459.33,631.37s0.285-4.182-4.786-2.383c4.571-0.799,4.191,2.145,4.191,2.145l0.595,0.238z"/>
<path d="m463.07,627.38s-0.706-4.006-5.261-2.266c4.18-0.553,4.281,1.823,4.281,1.823l0.98,0.443z"/>
<path d="m552.35,590.39c0.824-5.703,5.405-6.254,5.405-6.254l1.81,0.744s-4.89-0.381-7.215,5.51z"/>
<path d="m554.3,594.52c3.193-6.396,7.408-3.037,7.408-3.037l-0.485,0.245s-3.105-2.416-6.923,2.792z"/>
<path d="m550.16,601.19c6.577-6.065,8.453,0.596,8.453,0.596l-0.953-0.298s-1.36-4.363-7.5-0.298z"/>
<path d="m507.18,489.71c1.066-7.208,6.619-9.527,8.014-10.081,2.059-0.817,3.401-1.335,4.616-2.063,1.216-0.728,3.322-2.354,5.002-2.712,1.399-0.299,2.936-0.004,4.108,0.4,1.428,0.492,0,0.49,0,0.49s-2.798-0.713-4.979,0.119c-2.581,0.984-3.295,2.175-4.396,2.868-1.495,0.943-3.84,1.093-5.685,2.232-1.47,0.91-4.551,2.289-6.68,8.747z"/>
<path d="m513,520.19c3.426,0,5.051,4.188,8.624,3.52,1.53-0.286,1.762-0.848,2.854-0.969,1.093-0.123,4.697,0.193,4.697,0.193l-3.968,0.472s-0.488-0.118-1.642,0.304c-1.153,0.428-1.612,0.784-3.703,0.428-1.686-0.288-4.436-3.391-6.862-3.948z"/>
</g>
</g>
<use xlink:href="#lion" transform="matrix(-1,0,0,1,1193.9797,0)"/>
</svg>