<svg xmlns="http://www.w3.org/2000/svg" height="450" width="750" version="1.0"><path style="color:#000;fill:#fff;fill-opacity:1;fill-rule:evenodd;stroke:none;stroke-width:2.4460001;stroke-linecap:round;stroke-linejoin:miter;marker:none;marker-start:none;marker-mid:none;marker-end:none;stroke-miterlimit:4;stroke-dasharray:none;stroke-dashoffset:0;stroke-opacity:1;visibility:visible;display:inline;overflow:visible" d="M0 0h750v450H0z"/><path transform="matrix(2.08198 0 0 2.08198 46.845 -476.257)" style="font-size:12px;fill-rule:evenodd;stroke:#000" d="M215.368 385.603c-16.007 7.403-19.919 17.152-26.987 24.928-7.07 7.775-17.608 24.502-38.107 18.847-.643-4.189-3.291-15.742-11.02-20.968-4.777-2.91-10.604-7.069-11.664-14.137-8.483 2.12-29.724 3.816-30.749-7.422-.353-3.888 2.977-9.845-.585-13.945-.804.025-5.312.115-6.494-.436-1.237-1.46-.016-6.776.88-7.956l-.01-.05c-2.115-.192-7.575-5.181-.86-8.716 1.771-2.081 1.461-3.782 1.455-5.7-1.11.014-3.836-.017-4.235-.044-7.078-.026-6.169-4.593-4.13-9.453 1.414-3.181 9.384-18.379 10.798-20.5 1.414-2.12 1.414-3.18.354-5.301-1.06-2.12-.707-5.655 0-8.129.706-2.474 2.12-6.362 1.06-7.422-1.06-1.06-.707-4.595-.354-5.302.354-.707.354-2.474.354-3.18 0-.707.353-2.475 1.414-3.181 1.06-.707 1.767-3.181 1.06-3.888-.707-.707.353-5.655 1.414-6.009 1.06-.353 3.18-1.06 4.24-3.534-.124-3.49 2.617-7.452 4.242-9.19 1.06-1.06.707-4.594.707-4.594l3.11.071c.339-.113 2.898-3.605 5.372-4.312 2.474-.707 8.13-3.534 8.13-3.534l3.887-4.242 3.535 1.767s2.827-1.06 5.301-1.413c2.474-.354 7.776-2.12 9.543-4.948 1.767-2.828 1.413 3.365 1.47 3.703.226.057 3.124-1.583 8.072-1.23 4.949.354 10.603 2.475 12.37 1.768 1.768-.707 3.535 1.414 3.535 1.414s3.534 2.12 6.362 2.12h5.301l.354 2.474s5.301 1.824 7.775 2.884c2.474 1.06 4.595 2.418 7.776 2.771 3.18.354 4.241 1.414 4.241 1.414l-1.414 2.827s3.817.778 4.948 4.595c2.121 2.827 4.949 7.422 7.07 7.776 2.12.353 3.534 1.413 3.534 1.413l-2.828 3.535s.707 1.06 2.12 2.474c1.414 1.413 4.242 3.887 4.242 3.887l-1.767 3.181s0 .707.353 2.474c.354 1.768.354 4.949 2.12 5.655 1.768.707 1.768 2.828 1.768 2.828s.353.353-1.767 1.06c-2.12.707-3.535.707-2.474 2.12a273.75 273.75 0 0 1 2.827 3.889s-1.767 1.06-3.534 1.413c-1.767.354-3.535.354-3.535.354s1.414 6.715 2.828 7.775c1.414 1.06-2.12 1.767-4.241.707-2.12-1.06-.796 3.181.618 3.535 1.414.353-.513.847-2.174.865-1.414-.353-3.234-.106-2.42 1.98 1.06 2.827 2.209 4.223-.619 5.637-2.827 1.414-5.39 7.776-3.976 9.896 1.413 2.12 2.209 5.302 2.209 5.302l-6.715.353s-.46 1.06 1.307 2.827c1.767 1.768 3.535 3.782 3.287 4.277.054.765-5.319.454-5.265 1.22 4.57 22.592 15.426 28.928 15.44 30.118l-.859.602z"/><path transform="matrix(2.08198 0 0 2.08198 46.845 -476.257)" style="font-size:12px;fill:#fff;fill-rule:evenodd;stroke:#000;stroke-width:.125" d="M102.756 277.383c-2.356 1.767-4.417 4.71-2.356 6.477 2.65 2.356 3.828 3.24 3.828 3.24s-4.711-1.473-5.594.293c-.884 1.767-1.914 4.454 0 5.006 1.472.883 4.71 2.65 4.71 2.65s-7.36-.884-5.594-.59c-.883 2.356-1.766 6.478 2.945 8.245 4.71 1.766 19.432 7.066 22.082 8.538 2.65 1.472 8.538 2.356 11.483 2.356 2.944 0 13.839.589 12.071.589l-6.477 1.766c-1.105.11 13.397 4.93 15.532 4.49 1.14-2.65 15.972-16.561 24.216.515.883 3.828-2.061 9.717-5.006 10.894-2.944 1.178-4.416 2.65-5.594 5.889-1.178 3.239-4.193 9.016-7.433 8.539-4.455-2.908-6.405-2.65-4.344-.295 2.282 3.24 7.618 3.387 10.305-.589 2.245-2.76 4.268-9.9 8.833-11.777 2.355-.883 5.3-6.478 5.3-6.478s4.122-.294 5.888 1.473c1.767 1.766 6.183 1.766 8.833 1.472 2.65-.295 7.104-1.288 5.631-1.288-1.472 0 4.087-.184 5.853.11 1.767.295 1.177-4.416-1.768-6.772-2.944-2.355-11.188-6.183-12.955-8.538-1.766-2.356-14.427-9.422-17.96-9.716-3.533-.295-7.95-2.65-7.95-2.65s6.626-.11 3.387-.7c-3.238-.588-9.57-3.128-12.808-4.306-3.239-1.177-5.889-1.177-9.422-1.177-3.533 0-26.988-5.745-32.84-9.316-4.417-1.473 20.953 5.893 23.897 6.188 5.005.736 6.588-.258-1.656-4.233-3.533-2.061-19.268-10.313-31.862-13.76-1.289 1.289-.82 1.688-3.175 3.455z"/><path transform="matrix(2.08198 0 0 2.08198 46.845 -476.257)" style="font-size:12px;fill:none;fill-rule:evenodd;stroke:#fff;stroke-width:2.52982402;stroke-linecap:round" d="M167.048 325.854c.114.013.59.097.894.416.338.436.624.827.794 1.248.126.561.29 1.025.2 1.56-.191.523-.447.895-.796 1.247-.393.486-.68.732-1.092 1.04-.46.218-.902.643-1.292.832-.186.253-.666.439-.894.728-.265.355-.47.531-.497 1.04-.172.505-.229 1.127-.298 1.663-.097.59-.236 1.145-.298 1.664-.248.445-.519.674-1.093.832-.474.084-.965.104-1.49.104-.297-.284-.803-.605-1.093-.936v-.832"/><path transform="matrix(2.08198 0 0 2.08198 46.845 -476.257)" style="font-size:12px;fill:#fff;fill-rule:evenodd;stroke:#fff;stroke-width:1" d="M158.768 323.534c2.54-4.088 18.45-11.601 14.584 2.983-.884 1.546.773 2.21 1.215 1.105 4.088-17.236-13.48-10.055-16.241-5.525-1.105 1.879.442 1.547.442 1.437z"/><path transform="matrix(2.08198 0 0 2.08198 46.845 -476.257)" style="font-size:12px;fill:none;fill-rule:evenodd;stroke:#000;stroke-width:2;stroke-linecap:round" d="M101.426 298.674c5.966-.11 12.264.221 17.125 3.315 4.861 3.094 9.17 3.977 14.363 3.977s7.845.11 7.845.11h0"/><path transform="matrix(2.08198 0 0 2.08198 46.845 -476.257)" style="font-size:12px;fill:none;fill-rule:evenodd;stroke:#000;stroke-width:1.97581506" d="M174.85 307.63c9.97 3.86 11.737 4.995 15.947 7.72 4.21 2.724 5.766 3.177 9.31 5.448 2.638 1.589 4.21 3.405 4.21 3.405 2.27 1.816-9.85-7.038-17.724-5.221-2.88 0-3.324 0-5.983-2.952-2.658-2.95-5.76-5.448-10.192-7.264-4.43-1.817-12.185-4.768-12.185-4.768"/><path transform="matrix(2.08198 0 0 2.08198 46.845 -476.257)" style="font-size:12px;fill:none;fill-rule:evenodd;stroke:#000;stroke-width:1.75;stroke-linecap:round" d="M185.929 324.884c.604 0 3.12-.095 4.086.227.844.114 2.194.224 2.952.454 1.283.153 2.467.42 3.859.454 1.497.014 2.03.47 3.405.681.43.538 1.243 1.183 1.816 1.59"/><path transform="matrix(2.08198 0 0 2.08198 46.845 -476.257)" style="font-size:12px;fill:none;fill-rule:evenodd;stroke:#fff;stroke-width:2.25" d="M103.556 316.517c3.661 5.049 9.272 7.817 15.404 9.13-.155 1.484-7.443 1.579-10.159 5.02"/><g style="font-size:12px;stroke:#000"><path style="fill:none;fill-opacity:1;fill-rule:evenodd;stroke:#000;stroke-width:2;stroke-linecap:butt;stroke-linejoin:miter;stroke-dasharray:none;stroke-opacity:1" d="M240.5 258.367c.116 1.29.521 6.918-.04 6.982-3.178.454-5.37.986-8.095 3.71-2.724 2.724-8.958 7.363-12.493.996-1.816-3.632 2.607-5.331 4.877-5.331 2.231-.078 5.737-1.801 9.37-2.71 3.632-.908 5.106-3.241 5.56-2.787l.82-.86z" transform="matrix(2.08198 0 0 2.08198 46.845 -476.257)"/><g style="stroke:#000;stroke-opacity:1"><path style="fill:none;fill-opacity:1;fill-rule:evenodd;stroke:#000;stroke-width:2;stroke-linecap:butt;stroke-linejoin:miter;stroke-dasharray:none;stroke-opacity:1" d="M254.814 272.274c.497-.274 2.853-3.421 1.634-7.257-1.767-2.65 7.999 2.853 5.938 5.797-2.609 2.032-7.776 2.007-7.572 1.46z" transform="matrix(2.08198 0 0 2.08198 46.845 -476.257)"/><g style="stroke:#000;stroke-opacity:1"><path style="fill:none;fill-opacity:1;fill-rule:evenodd;stroke:#000;stroke-width:2;stroke-linecap:butt;stroke-linejoin:miter;stroke-dasharray:none;stroke-opacity:1" d="M231.556 259.984c-.042-.6-.114-5.973-.023-7.159 1.825-.274 7.228-1.057 8.406.71 4.188 6.328-8.01 9.48-8.304 8.597l-.079-2.148z" transform="matrix(2.08198 0 0 2.08198 46.845 -476.257)"/><g style="stroke:#000;stroke-opacity:1"><path style="fill:none;fill-opacity:1;fill-rule:evenodd;stroke:#000;stroke-width:2;stroke-linecap:butt;stroke-linejoin:miter;stroke-dasharray:none;stroke-opacity:1" d="m221.705 272.672 7.655 26.499s4.322 18.81-8.833 23.848c-4.122.295-5.594-.294-5.594-.294l1.178 6.477c5.839 6.022 9.604 4.6 14.61 2.538 5.005-2.06 5.208-2.222 7.858-3.695 2.65-1.472 6.303-9.77 6.71-12.13 1.136-6.1 4.971-18.083 16.487-43.537-2.077-.183-15.625 1.186-16.538 1.186-.456.73-2.586 4.21-5.867 5.585-3.604 1.473-8.795-2.771-3.533-6.183 2.57-1.638 11.102.293 10.943-4.163-.217-3.872-5.938-3.492-8.294-3.197-2.355.294-5.594 2.944-7.066 4.416-3.297 3.297-7.95 3.828-9.716 2.65z" transform="matrix(2.08198 0 0 2.08198 46.845 -476.257)"/><g style="stroke:#000;stroke-opacity:1"><path style="fill:none;fill-opacity:1;fill-rule:evenodd;stroke:#000;stroke-width:2;stroke-linecap:butt;stroke-linejoin:miter;stroke-dasharray:none;stroke-opacity:1" d="M209.928 335.68c1.766 2.944 3.533 6.477 4.416 11.188.883 4.711 3.434 11.3 10.01 12.955 5.3 1.472 10.011 3.828 11.19 7.95 1.177 4.122 2.019 9.38 2.019 9.289l8.194-11.595c-.091-1.551-.154-5.329-.154-9.745-.09-6.424-4.851-7.991-9.562-9.758-4.711-1.766-9.99-3.96-11.462-6.61-1.472-2.65-5.23-7.207-7.29-8.974-2.061-1.766-7.361 5.3-7.361 5.3z" transform="matrix(2.08198 0 0 2.08198 46.845 -476.257)"/><path style="font-size:12px;fill:none;fill-rule:evenodd;stroke:#000;stroke-width:2;stroke-dasharray:none;stroke-opacity:1" d="M218.588 390.336c4.551 8.184 5.593 18.692 7.465 26.522 3.248-6.169 8.303-10.566 13.633-14.028.312-6.142 1.868-14.62 3.634-17.27 8.533-12.435 2.528-19.554 2.528-19.554-8.527 10.014-8.82 17.178-27.245 24.316l-.015.014z" transform="matrix(2.08198 0 0 2.08198 46.845 -476.257)"/><path style="font-size:12px;fill:none;fill-rule:evenodd;stroke:#000;stroke-width:2;stroke-opacity:1" d="M210.479 415.63c-.235 2.032 2.483 9.093 7.084 9.409 4.52.31 7.127-3.167 7.953-7.231l-2.265-13.647-12.772 11.47z" transform="matrix(2.08198 0 0 2.08198 46.845 -476.257)"/></g></g></g></g></g><path transform="matrix(2.08198 0 0 2.08198 46.845 -476.257)" style="font-size:12px;fill:#fff;fill-rule:evenodd;stroke:#000;stroke-width:1" d="M210.447 325.111c-.908-2.497.454-2.497 2.951-1.362 4.087 2.497 1.135 8.854-3.405 10.216-2.497 1.135-3.86-1.816-.227-3.178 3.405-.909.681-5.903.681-5.676h.227-.227z"/><path transform="matrix(2.08198 0 0 2.08198 46.845 -476.257)" style="font-size:12px;fill:none;fill-rule:evenodd;stroke:#000;stroke-width:1.25" d="M239.96 363.96v.307c0-.83-.015-.408.227 1.232 0 1.666.124 3.065.227 4.619 0 1.286-.153 2.208-.227 3.387M237.69 365.497v.562c0-1.04-.03-.746.227.843.09 1.585.409 2.412.453 3.936 0 1.547-.184 2.748-.227 4.217M236.554 399.346h.227c-.06.214 0 1.43 0 2.244 0 1.224-.023 2.418-.227 3.205M234.057 400.482v.454-.454.454-.454c.05 1.677.227 2.605.227 4.313 0 .522.098.918-.227 1.135M231.787 401.844c.092 1.828.398 3.024.454 4.903 0 .944-.19 1.05-.227 1.907M229.063 403.226v.287c0-.774-.015-.38.227 1.148.041 1.41.227 2.169.227 3.73-.043 1.498-.374 2.122-.454 3.441M227.02 404.114c0 .406.122 1.98.227 2.951v3.178c-.126 1.058-.357 2.195-.682 2.952v.68M242.23 364.46c.058.426.394 2.054 0 3.1 0 .926-.106 1.4-.227 2.068"/><path transform="matrix(2.08198 0 0 2.08198 46.845 -476.257)" style="font-size:12px;fill:none;fill-rule:evenodd;stroke:#000" d="M216.016 325.204c3.047.625 10.468 0 13.437-2.187l2.969-2.188M216.026 326.698c2.91 1.097 10.338 1.65 13.614-.043l3.277-1.692"/><path transform="matrix(2.08198 0 0 2.08198 46.845 -476.257)" style="font-size:12px;fill:none;fill-rule:evenodd;stroke:#000;stroke-width:1" d="M215.781 330.673c1.563 1.875 2.657 2.813 3.125 5.313l.47 2.5M213.906 331.61c1.875 2.657 3.125 3.594 3.75 6.25l.625 2.657"/><path transform="matrix(2.08198 0 0 2.08198 46.845 -476.257)" style="font-size:12px;fill:none;fill-rule:evenodd;stroke:#000" d="M212.344 333.33c.781 4.062 3.906 11.718 6.25 14.218l2.344 2.5"/><path transform="matrix(2.08198 0 0 2.08198 46.845 -476.257)" style="font-size:12px;fill:none;fill-rule:evenodd;stroke:#000;stroke-width:1.19580305" d="M224.06 419.629c-1.577-.204-4.644-2.75-5.332-3.665-.689-.915-.739-1.3-.739-1.3"/><path transform="matrix(2.08198 0 0 2.08198 46.845 -476.257)" style="font-size:12px;fill:none;fill-rule:evenodd;stroke:#000;stroke-width:1.195696" d="M222.97 421.697c-1.705-.413-5.024-3.205-5.769-4.15-.745-.944-.896-1.19-.896-1.19"/><path transform="matrix(2.08198 0 0 2.08198 46.845 -476.257)" style="font-size:12px;fill:none;fill-rule:evenodd;stroke:#000;stroke-width:1.35255206" d="M222.034 423.602c-1.8-.198-5.524-3.017-6.395-4.038l-.872-1.022"/><path transform="matrix(2.08198 0 0 2.08198 46.845 -476.257)" style="font-size:12px;fill:none;fill-rule:evenodd;stroke:#000;stroke-width:1" d="M244.398 282.038c-.23 1.896-.345 5.63.344 7.986l.69 2.356M249.913 276.063c-1.321.46-3.275 1.494-3.907 2.356l-.632.862"/><path transform="matrix(2.08198 0 0 2.08198 46.845 -476.257)" style="font-size:12px;fill:none;fill-rule:evenodd;stroke:#000;stroke-width:1.31511104" d="M233.968 277.764c2.846 5.003 1.963 21.347 1.374 23.209l-.59 1.86"/><path transform="matrix(2.08198 0 0 2.08198 46.845 -476.257)" style="font-size:12px;fill:none;fill-rule:evenodd;stroke:#000;stroke-width:1" d="M224.688 267.626c-1.172.39-3.594 2.305-3.79 3.36"/><path transform="matrix(2.08198 0 0 2.08198 46.845 -476.257)" style="font-size:12px;fill:none;fill-rule:evenodd;stroke:#000" d="M226.563 268.993c-1.172.39-3.594 2.305-3.79 3.36"/><path style="font-size:12px;fill:none;fill-rule:evenodd;stroke:#feffff;stroke-width:1.45000005" d="M129.672 92.309c-2.32-.125-2.51 6.605.482 6.449" transform="matrix(2.08198 0 0 2.08198 0 -.004)"/><path style="font-size:12px;fill:none;fill-rule:evenodd;stroke:#feffff;stroke-width:1.45000005" d="M130.159 92.309c2.32-.125 2.509 6.604-.482 6.449" transform="matrix(2.08198 0 0 2.08198 0 -.004)"/><path style="font-size:12px;fill:none;fill-rule:evenodd;stroke:#feffff;stroke-width:3.57178807;stroke-opacity:1" d="m130 92.443-.079 5.64" transform="matrix(2.08198 0 0 2.08198 0 -.004)"/></svg>