<svg height="512.00006" width="1024" xmlns="http://www.w3.org/2000/svg" xmlns:xlink="http://www.w3.org/1999/xlink"><clipPath id="a"><path d="m0 0h114.403v149.418h-114.403z" transform="translate(44.9316 -.3037)"/></clipPath><path d="m0 .000004h1024v512h-1024z" fill="#3771c8"/><path d="m341.33334.000007h682.66663v512h-682.66663z" fill="#fff"/><path d="m682.66669.000004h341.33334v512h-341.33334z" fill="#ff0"/><g clip-path="url(#a)" transform="matrix(2.3895303 0 0 2.3992938 265.51379 96.454701)"><path d="m105.744 130.969s.198-1.234-1.279-1.166l-.284-1.446s-.074-.738-.546-.267c0 0-.988 1.005-1.895.832l-.198-1.991s-.095-.452-.908-.264c0 0-1.4455.375-1.8078.378 0 0-.4658-1.355-.2022-2.353 0 0 .5293-1.545-1.3652-.713l-1.9824 1.105-.7461-2.348s-.0957-.543-.7266-.265l-1.8047.83-.0263-3.17s.0478-.772-.8184-.355c0 0-2.0351.92-2.3564-.069 0 0-.3955-2.503-1.3819-2.614l-2.5234 1.381-.6543-2.168-2.3467.835-1.5674-3.156s-.2783-.722-.998-.082l-2.875 2.652s-1.2188-.792-1.6494-2.34c0 0-.2227-.879-1.1797-.171l-2.5205 1.743s-.5401.276-.8174-.265l-.2773-.54-.5528-1.083s-.3076-.564-.9072-.173c0 0-2.4287 1.743-3.1494 2.383 0 0-.5791.532-1.1787-.171 0 0-2.0176-2.928-2.375-2.424l-1.7012 2.189s-.8047 1.275-.8188-.355l-1.0601-50.7802s.7187-3.2671 4.7881 1.1123c0 0-1.4375 1.3716-1.5996 3.5464 0 0-.1641 1.9038-.5215 2.4502 0 0-.5342 1.0918.1953 1.6284 0 0 .2764.542.0088.9966 0 0-.5264 1.9072.8359 2.2568 0 0 1.3604.3501 1.8233 1.4327 0 0 .6445 1.353 1.9131 1.3423 0 0 1.3593.0791 1.9052.436 0 0 1.9971.3452 2.0762-.9243 0 0 .332-2.1983 1.4102-4.3599 0 0 3.0224-8.6787-6.6973-9.7231 0 0-.7344-1.2613-2.9277-3.4151l-2.1026-2.1553s.7818-13.9555.6782-15.4946c0 0-.7275-.3564-1.0908-.4433l.3433-2.1768s.1723-.998-.917-1.2603c0 0-.5415-6.1972 6.6191-5.5361 0 0 4.0196.2622 4.0039 8.5225 0 0 1.3623.5317 1.793-2.0088 0 0 .6191-1.7261 1.1738-.3726 0 0 .6582 2.7115-.3281 3.8072 0 0-1.167 1.1879.4619.9018 0 0 .2774.812.6377.5371l.3594-.2744 1.8017-1.1934s1.753 3.5171-2.7128 10.8023c0 0-.8965 1.2163.3671.5405l3.6026-2.3877s.9043-.1884 1.1865.9864c0 0 .1943 1.538.8291 1.623 0 0 .1709.0127.083-.7256 0 0-.3056-3.8013 1.332-3 0 0 .0459 1.9038 1.6456 1.7056 0 0 .4433-1.2715-1.043-5.334 0 0-.3711-.9937.5332-1.1821 0 0 1.3574-.2837 1.4443-.6475 0 0 .1084-.1909-.7295-.4458 0 0-2.8173-1.062-1.6494-2.1597 0 0 1.2119-.4013 2.2608-.4726 0 0 2.3105-.4942 2.6123-1.6533 0 0 .2675-.5459-.6368-.3565 0 0-1.2275.0708-2.9033-.4272 0 0-1.0879-.1719-1.9941-.2539 0 0 .3476-1.6338 1.6133-1.917 0 0 2.1689-.4712 2.0703-1.4673l-4.0772-.0547s-.1855-.542 1.1651-1.459c0 0 2.7041-1.3833 1.3398-2.0957 0 0-1.623.9199-4.7959.586 0 0-.2969-2.9864.2354-4.169 0 0 .332-.7905-.2744-.3589 0 0-1.3506 1.0083-2.3497.6543 0 0-.1025-1.4482.7959-2.1806 0 0 .2579-.6187-.3662-.5401 0 0-1.8007 1.2832-2.6191.9282 0 0-.4541-.0859.084-.7246 0 0 .8066-1.0034.084-.8164 0 0-1.8077.5596-2.7022 1.7446 0 0-.4482.5474-.8144.0074 0 0-.3692-.7217-.6338.0058 0 0-.4239 3.355-7.2227 2.5996 0 0 5.835-5.8486 14.2656-5.0166 0 0 3.2657.6963 4.9395 5.4815 0 0 1.1641-1.4595.9756-2.273 0 0-.3809-2.08.7138-1.0932 0 0 1.5498.8916 3.4737 3.501 0 0 .7256.0844.4463-.7286 0 0-.6592-2.9824-1.5782-4.4238 0 0-.0986-.9043 1.6163-1.5537 0 0 1.0859-.1914.1748-.7266 0 0-2.2598.3828-2.3575-.3413 0 0-.0976-.8144.7119-1.4555 0 0 1.2598-.8262.9795-1.8204 0 0-.7197.46-2.0781.5625l-1.3574.1026-1.54.0132s.9853-1.3672.7949-2.271l-3.4307 1.2978s-1.1719.5547-.8242-.9887l.4248-3.2642s-2.6885 3.1934-4.1396 2.9346c0 0-.6397-.5371.6982-2.9043 0 0-.249-.2691-.6328.0962 0 0-2.6045 2.4682-3.5137 2.2045 0 0-.0078-.9057.6113-2.541 0 0 .6827-1.2256.0059-.8642-.1338.0713-.2842.1411-.2842.1411s-3.206 1.3872-5.5596 6.209c0 0-1.7744 4.0913-4.8305 6.7446 0 0-.3028-3.5293 3.0112-7.7251l4.3926-5.0205s4.1523-3.8003 7.8828.2925c0 0-.0771-2.7969 1.4277-2.4575 0 0 2.6348.9726 3.8106.7807 0 0-.7158-3.1528-2.1143-3.5137l-1.1806-.3515s-1.0909-.5337-.2813-1.084c0 0 2.0654-2.0117.9795-1.8203 0 0-1.5293 1.0093-2.167.7432 0 0-.9082-.3541-1.6279.2871 0 0-.9004.5507-1.3555.2832 0 0-.2285-1.4761.3399-2.4488 0 0 .3418-.8423-.4561-.5395 0 0-1.4453.5566-2.8828 1.8369 0 0-.9873.915-.9063-.0825 0 0 .3418-2.2671-.1953-1.6289l-2.5976 3.2846s-.8076 1.0938-.9063-.0825l.1651-1.8139s-3.2413 2.2036-4.295 5.9257c0 0-.0644 2.899-.6987 2.9043 0 0-.5478-.4472-.123-3.7124 0 0 1.9116-9.2553-1.8296-12.3022 0 0-1.0625-.332-1.2569 1.2798 0 0-.7246 5.0786-.7949 7.4341 0 0-.4712 3.0839.3076 9.2358 0 0 .794 7.7827-.2612 11.4145 0 0-2.0962-1.5214-1.9609-6.685 0 0 .4731-7.9746-1.0899-10.5874 0 0-.5483-.5396-.5381.6387 0 0 .1123 2.4438-.5215 2.4497 0 0-.5507-.8101-.4721-2.1695l.0786-1.3598s.2402-1.8233-.5483-.6285c0 0-.8975 1.0044-1.0015-.5351l-.1128-2.5352s-.1885-.813-.6343.0054c0 0-.8823 2.6353-1.5229 1.916 0 0-1.0225-2.98-3.0318-4.8642 0 0-.5429.0952-.3554.8188 0 0 1.1176 3.4317-.4288 2.7202 0 0-2.728-1.2431-3.5576-2.8667 0 0-.8217-.8081-.7231.1875 0 0 .9267 1.649.1968 1.7198 0 0-1.2593.2309-2-.7979 0 0-1.0035-.8062-.813.2793 0 0 .8388 2.6187.2954 2.6235 0 0-1.1763.1011-2.086-.3432 0 0-2.0625-.8369-1.9028-.0742.0943.4516.3677.6303.9175 1.3505 0 0 1.0054.9873.0112 1.2681 0 0-2.438.8369-4.5688 5.7461 0 0-.2993 1.0972 1.0879.0811 0 0 7.8105-7.8584 15.6792 1.1298l-.9864 1.0953-3.8369-3.6797s-.8086.8222.3853 2.623c0 0 .9536 1.2525.2031 2.4439 0 0-6.0933-6.3833-6.2998-5.7413 0 0-.7192.6412.8398 2.8916 0 0 .3912 1.7178-.3471 1.7232 0 0-2.7661-.2153-4.9751-.4839 0 0-.9468-.0757-1.5064-.3037 0 0-.4682.7959.8833 1.4175 0 0 4.0567 2.1015 1.3677 2.4424 0 0-2.1352.3364-4.6841-1.3838 0 0-.6176 1.747 1.9346 3.8623 0 0 .7173.4697.0884 1.0293 0 0-1.8091 1.3613-2.2622 3.8198 0 0-.2212 1.9019-.7666 2.8574 0 0 1.1899.3057 2.4438-1.209l1.021-.9599s.6309-.2427.7974.7055c0 0 .0317 3.563.8232 3.5562 0 0 .3364.0806.6255-.9556 0 0 2.2827-9.1889 9.1904-8.2363 0 0 5.0708.4302 9.7808 4.8223 0 0-.2334.3974-1.8169.4116 0 0-2.082-2.6734-7.3984-3.9727 0 0-1.2701-.3051-.3907.5581 0 0 2.1519 1.6436 1.3643 2.1255 0 0-3.6494-.8384-5.9419-.4223 0 0-.2339.3974.4019.7089 0 0 2.3852 1.087 1.122 1.4947 0 0-3.3276-.208-5.2925 1.3925 0 0 .6402.7857 2.147 1.0889 0 0-3.1533 1.5322-4.3257 3.2061 0 0-.2338.4765.5581.4692 0 0 3.9551-.3516 3.0127.4487 0 0-3.4682 1.773-5.2461 6.6973 0 0-.0712.7925.7159.3101 0 0 2.5185-1.6846 2.5278-.6558 0 0-.2598 6.4155.4575 6.9634 0 0 .4834 1.0254 2.2735-2.5537 0 0 .996-2.5474 2.3686-.7334l1.8403 2.2011s.8028 1.2588 1.0288-.0097c0 0 .5362-2.0635.358-4.3579 0 0 .1782-.6704.5527-.1631 0 0 .0532 1.8183.959 1.021l-.0083-.9497s2.1323-.6519 2.145.8515l.0132 1.5044s-.395 1.4561.2593 2.4522l.0112 1.2661s-.0698 1.0308.4775.2344l.5469-.7964.7813-1.1948s.4687-.7173.8691-.1666c0 0 1.8486 3.0713 4.938 3.2813l.2739-4.8315s1.0293-.0889.376-2.2994c0 0-.3252-.9477.2265-1.2685 0 0 .356-.332-.0073-.7915 0 0-.4868-1.3423.459-1.8252 0 0 .2319-.4351-.1685-1.1069 0 0-.832-4.586.5865-5.3892 0 0 .7885-.3237.7949.3887l.0063.7124s-.9716 21.9643-.5903 34.3696l.5737 44.4661s-.6123 2.362-2.8081-.065c0 0-1.0097-1.532-1.9057-.437 0 0-.4434 1.092-.9009.552l-1.5523-1.345-.6269.73s-.3472.598-1-.444c0 0-.4751-.741-1.0889-.171l-1.438 1.28s-2.4707-2.876-3.56-3.138l-2.4141 3.554s-.6225 1.273-1.1738.372c0 0-.6797-1.008-1.1792-.171-.1914.321-.2676.456-.2676.456s-.2002.473-.7222.277c0 0-.767-.835-1.2192.134-.3467.741-.4028.878-.4028.878l-.7969 1.999s-.5342 1.092-1.2666.192c0 0-1.3711-1.436-1.5386.104l-.1709 1.18s-.1723.998-.9922.462c0 0-.8676-.82-1.269-.08l-.8911 1.638s-.6279.73-1.085.281l-.4565-.449s-.7671-1-1.086.01c-.2314.731-.353 1.09-.353 1.09s-.1943 1.112-1.1728.554l-1.1831-.623-.5303 1.453s-.2407.92-1.085.191c0 0-.914-.898-1.2666.192l-.3525 1.09s-.3506 1.362-.9898.734c0 0-1.1455-1.484-1.539.104l-.3511 1.272-1.8125-.166s-1.4507-.168-.4429 1.181l1.0078 1.35s.3252.903-.6215 1.364c6.180279 2.1327 10.072998 1.72248 13.252282.41983 3.179285-1.30264 5.645135-3.49771 11.011408-4.52673 5.8814-.941 13.278689-.73223 13.278689-.73223 4.576754-1.56219 8.830622-1.31061 13.553718-.94181 0 0 3.943137 1.47413 7.097437.97013 0 0 2.440597-.30981 5.351197-.21081 17.178358.26796 27.763709 6.89783 29.988269 1.74962z" fill="#161413" transform="translate(44.9316 -.3037)"/><path d="m.3584.6445.6289-.458s.6329-.1865.7295.5367c0 0 .0069.7251-.7197.5502 0 0-.9971-.1733-.6387-.6289z" fill="none" stroke="#161413" stroke-width=".054342" transform="translate(146.689 129.419)"/><path d="m35.2867 125.925c-11.6031-1.074-18.4434 3.786-18.4434 3.786l-3.1709-.062c-.0947-.453.0757-1.723.0757-1.723.0942-.783 1.1719-.35 1.1719-.35l1.2246.096c.5303-1.454 1.1167-1.86 1.1167-1.86l1.5429.35c1.1929.295 1.1846-.622 1.1846-.622s-.0034-.411.1612-.84c.2768-.722.8115-.46.8115-.46l1.1836.714c1.0952.987 2.062-2.373 2.062-2.373s-.0127-.007.3559-.728c.2852-.558.7222-.278.7222-.278l1.6411 1.254c.9097.445 1.0786-.915 1.0786-.915l.0835-.816c-.0083-.997.7227-.279.7227-.279l1.0942.896c.9121.717 1.7075-1.554 1.7075-1.554.4512-1.046 1.1753-.282 1.1753-.282l1.2788 1.256c.9126.718 1.8062-.559 1.8062-.559 1.1211-1.22 1.9941.163 1.9941.163s0 0 .7329.9c.732.899 1.3609.26 1.3609.26l.8066-.913c.8057-1.094 1.8164.527 1.8164.527.9165 1.166 1.4488-.103 1.4488-.103 1.1577-2.184 2.5341-.203 2.5341-.203.8482 1.09 1.4527.348 1.4527.348l2.0605-2.463c.3985-.329.7246.175.7246.175l1.378 1.98.8945-1.095c.3584-.546.9062-.008.9062-.008l.6407.719c.7314.718 1.3613.35 1.3613.35l1.3486-1.098.4287.7c.5782 1.006 1.7491-.176 1.7491-.176.4492-.548.6338-.096.6338-.096l1.3701 1.347.8105-.642c.6289-.458.9043-.099.9043-.099l.8281 1.442 1.2608-.917.5508.901c.4609.902 1.6298.076 1.6298.076 1.2647-.373 1.2715.261 1.2715.261l.0977.904 1.6289-.286c.4932-.177.5459.267.5459.267l.2783.723c.2793.993 1.0908.533 1.0908.533l.6319-.277.9179 1.35 1.3545-.464c1.3623.441.1016 1.267.1016 1.267-2.3506.474-5.5322-.857-5.5322-.857-5.544-2.216-14.4893.309-14.4893.309-.9941.281-1.6328-.166-1.6328-.166-8.9019-3.092-16.397-.58-16.397-.58-.8115.46-2.081.29-2.081.29zm51.6489 2.532-.2891-1.99s-.6377-.356-1.3574.194c0 0-.9053.008-1.2705-.351l-.1113-2.173s-.3653-.45-1.086-.081c-.7216.368-.7216.368-.7216.368l-.9014.461s-.7393.395-.9131-.716l-.1006-1.177s-.3301-1.329-1.5439-.439c0 0-1.7969 1.737-1.6397-.982l.0801-1.268s.0977-.987-1.001-.535l-1.082.462s-1.1719.645-1.2764-.894c-.1035-1.539-.1035-1.539-.1035-1.539s-.1924-1.085-1.0019-.535c-.8106.551-.8106.551-.8106.551l-.9902.642s-.7266-.174-.8262-1.26c0 0 .0781-1.359-1.0019-.716l-1.0811.734s-1.0947-.805-1.1943-1.801c0 0-.1036-1.538-.8301-1.713l-2.7852 2.47s-.8105.641-1.3623-.35l-1.0127-1.893s-.6396-.538-1.6279.286l-1.2588 1.007s-.8066 1.004-1.6299.014l-1.0088-1.259s-.4589-.721-1.2675.011c-.8096.732-.8096.732-.8096.732l-1.168 1.007s-.8945 1.185-1.9013-.074c-1.0069-1.259-1.0069-1.259-1.0069-1.259s-.7334-.989-1.1797-.261-.4463.728-.4463.728l-1.9687 2.826s-.2896.769.4653 1.354c.7158.555.7295.537.7295.537s.9126.807 1.4497.077l1.9727-2.28s.54-.814 1.0635-.163c.3505.44.5439.753.5439.753s.833 1.478 1.3008.651l.5332-1.182s.2666-.761.9414.096c.5439.691.6973.886.6973.886s.6474 1.156 1.455.621l.9883-.914s.8086-.642.9981.262c0 0 .1035 1.449 1.0937.715l.7188-.64s.3076-.511.6367.266c.3789.899.3701.902.3701.902s.1865.724.9062.173c.7208-.549.7208-.549.7208-.549s.8085-.732 1.0869.081c0 0 .0146 1.63.8261 1.08 0 0 .9854-1.097 1.2666-.102l.0079.816s.3701 1.083 1.54.166c0 0 1.8906-1.284 2.083.073 0 0 .0127 1.358.9131.717 0 0 .9892-.825 1.1767-.102l.3711.903s.1885.994.9092.535c0 0 .8096-.641.9063-.007 0 0-.166 1.721 1.0957 1.076l.7207-.459s.8105-.55 1 .444c0 0 .1025 1.358.7334.989 0 0 1.3584-.725 1.1826.443 0 0-.2002 1.378 2.459 1.609 0 0 3.1738.515 3.8994.599 0 0 1.1797.256 1.7246.347zm-85.7485 2.75s5.5122-1.407 7.8628-1.88l1.1611-1.912 1.727.709s.3628.087.628-.64c.2656-.727.2656-.727.2656-.727l.3545-.909s.4429-1.091 1.1743-.282c.7324.809.7324.809.7324.809s.273.178.5391-.457l.6196-1.636s.3545-.909 1.2656-.283c.9112.626.9112.626.9112.626s.3491.303.5405-.277c.2437-.734.2656-.727.2656-.727l.5308-1.453s.2646-.818.9048-.099c.6406.719.6406.719.6406.719l.7519.831 1.7608-3.48s.4419-1.182 1.1738-.373c.7324.809.7324.809.7324.809s1.3716 1.527 1.3575-.103c0 0 .0722-2.084.9795-1.91l1.5498 1.164s.8203.627 1.3559-.285c.5357-.91.5357-.91.5357-.91l.4458-.819 2.0981 1.703s.7329.898 1.6318.167c.8995-.733.8995-.733.8995-.733l.6289-.549 1.7392 2.067s.501.601 1.085-.19c.6889-.933.7168-.912.7168-.912s.5371-.73 1.1748-.283c.6382.448.6382.448.6382.448s.915 1.078 1.3608.259l.4453-.818s.3067-.381-.4624-1.083c-.522-.477-.5473-.449-.5473-.449s-1.6387-1.609-2.2549-.994l-.5547.747s-.1758.636-1.3609-.26c-1.186-.894-1.186-.894-1.186-.894s-.7187-.807-.9966-.082c0 0-.6181 1.817-1.351.828-.7334-.991-.7334-.991-.7334-.991s-.8252-1.08-1.3565.284c0 0-.1733.907-.8125.278 0 0-.6445-1.171-1.2725-.531 0 0-1.1616 1.821-2.351.473-1.19-1.348-1.19-1.348-1.19-1.348s-1.1382-1.611-1.727-.709l-2.4146 3.463-.5473-.448s-.5816-.615-.815.007c-.2427.646-.2661.636-.2661.636s-.2817.893-.8999.642l-.6377-.357s-.6372-.447-.9888.825l-.2597 1.361s-.2603 1.36-1.169 1.006c-.9082-.354-.9082-.354-.9082-.354s-.9404-.517-1.1728.554l-.3511 1.271s-.0303.705-.7217.369c-.8012-.39-.8178-.355-.8178-.355s-.8184-.356-1.2632.554c-.4449.91-.4449.91-.4449.91s-.2646.817-.811.46c-.5469-.358-.5469-.358-.5469-.358s-.768-.637-.9555-.154c-.2027.52-.3076.709-.3076.709l-.3526 1.09s-.0561.479-.8135.188c-.9111-.35-.9087-.354-.9087-.354s-.9038-.484-.9941.281c0 0-.166 1.722-.6221 1.363-.456-.358-.456-.358-.456-.358s-.8228-.898-1.1773.01l-.4419 1.272s-.4389 1.545-1.5317.83l-.9097-.446s-.0864.454.0992.996c0 0 .1865.633-.7198.55 0 0-1.0884-.172-.6303.458zm52.8637-118.8691s3.5215-1.1865 5.7744.0161c0 0 .8194.5366.6768-.209-.1426-.7465-.1426-.7465-.1426-.7465l-.1426-.7461s1.085-.3492 1.9053.2548c0 0 .9571.8077 2.3799.3868 0 0 .0498-2.0376-4.292-1.5245l-.2725.003 1.0733-1.4365s.6055-.752-.4785-.4707c0 0-2.6446.6342-4.4571 2.9594 0 0-.8115.4829-.4794-.3344l1.8701-3.6851s.2617-1.0894-.4131-.54c0 0-1.8291.4917-3.4102 6.144zm-2.4336 1.4473c2.6993-2.1294 1.9121-6.605 1.9121-6.605-3.3115 1.8633-1.9121 6.605-1.9121 6.605zm-2.2177 2.6015s1.1425-1.3007 1.1923-3.2714c.0508-1.9708.0508-1.9708.0508-1.9708s.167-4.145-.6406-3.3222c0 0-1.5869 1.3486-1.3301 3.0683 0 0 .5733 3.4595.7276 5.4961zm-2.4151 3.418.9405-1.231s-.0235-2.6494.3095-3.3999c0 0 .3145-2.8554-.2344-3.4619 0 0-.3417-.2685-.6035.8887 0 0-.2539 2.0396-.5215 2.5171 0 0-.4013.6831-.3242 1.77.0782 1.086.0782 1.086.0782 1.086s.0878 2.3085.3554 1.831zm-3.3901.709.1816 5.1611c.8853.2642.9116-4.4233.9116-4.4233.1177-1.2461-.1528-1.9009-.1528-1.9009-.5522-1.0142-1.1181-3.5903-1.1181-3.5903-.5865 2.8584.1777 4.7534.1777 4.7534zm-.6211-8.7573 1.1865 3.5893s0 0 .3506 1.2202c.3506 1.2188.478.2671.478.2671l.1148-2.3779s0 0 .0561-1.3594c.0562-1.3594-1.1201-3.7265-1.1201-3.7265s0 0-.3467-.8121c-.3466-.812-.75-.2651-.75-.2651zm.331-8.6983c-.0156 2.9234 1.4048 5.2183 1.4048 5.2183s0 0 .4165 1.0835c.4175 1.0825.4556-2.3145.4556-2.3145s0 0 .0483-2.1733c.0494-2.1743-1.187-3.6577-1.187-3.6577-.9614-1.2144-1.1382 1.8437-1.1382 1.8437zm-1.0219 33.8814s-.0855.4951-.0962 1.0449c-.0195 1.0185.6128.1982.6128.1982 1.2407-5.7168 6.7324-6.9199 6.7324-6.9199-4.0879-1.3906-7.2251 4.9541-7.2251 4.9541zm10.0371-5.1582c2.8662 1.4008 4.1318 6.3486 4.1318 6.3486 1.0733-1.5713.3076-3.6709.3076-3.6709-.1435-.8818.9473-.416.9473-.416 1.3037 1.5513 2.0147 5.0776 2.0147 5.0776 1.4746-2.3227.3066-3.8076.3066-3.8076-2.0635-2.8345-7.7109-3.8716-7.7109-3.8716-.3389.003.0029.3399.0029.3399zm-7.5029 27.1709-.1226 1.4272s1.4912-.353 2.314.5903c0 0 1.0234.4673-.0039-.5429 0 0-1.1661-1.2119-2.1875-1.4746zm-2.8643-1.334c.8213.6723 1.6323.2573 1.6323.2573 1.3447-.9707 1.3267-3.6113 1.3267-3.6113l-.0591-6.6572zm.6538-10.5347c-.5327 1.2271-.915 4.0161-.915 4.0161l.0966 3.3277c.064-.4766 1.5181-5.0406 1.5181-5.0406s0 0 .5303-1.499c.5303-1.4995.102-3.8052.102-3.8052-.2597 1.3609-1.332 3.001-1.332 3.001zm-.772-2.8462s0 0 .0103 1.2227c.0112 1.2221.2119.8808.2119.8808.6782-.0737 1.4541-4.5644 1.4541-4.5644l-.0273-3.0567c-1.9649.5611-1.649 5.5176-1.649 5.5176zm19.3291-3.2964c2.2842-2.9409.2364-4.1455.2364-4.1455-.8828.1441-.2364 4.1455-.2364 4.1455zm1.5664.3262c.6202 1.0137.501 2.9844.501 2.9844.4444-3.604-.3086-4.2774-.3086-4.2774-.3408.0035-.1924 1.293-.1924 1.293zm-2.0878 9.8008c2.2402-.1553 2.3222-6.2705 2.3222-6.2705-.6474 3.5381-2.3222 6.2705-2.3222 6.2705zm3.54-6.8247s-.1133 2.5825-.6494 3.3345c0 0-.5371.8198.0263 3.0566 0 0 .4795.4038.4717-.479-.0078-.8833-.0078-.8833-.0078-.8833l-.0098-1.0874s.0606-.8833.6758-.4131c.6153.4697.6153.4697.6153.4697s1.164.9405 1.0185-.0766c0 0-.1474-1.2212-1.7832-2.022 0 0-.6191-.7422.1279-.8169.7471-.0742.7471-.0742.7471-.0742s1.2901-.0112.333-.75c0 0-.4814-.607-1.5654-.2583zm-.2275-2.7832.0781 1.2226s.4092.2676 1.083-.3491c0 0 1.4844-1.3042 1.8232-1.3071 0 0 1.044-.6753-.4834-.8789 0 0-1.3593-.124-2.5009 1.3125zm-.087-2.105 1.2725-1.981s.1426-.1435.0664-.2724c-.1436-.2407-1.6269.354-1.6269.354-.8125.3472.288 1.8994.288 1.8994zm-1.042-2.5044 1.876-3.0049c-1.8388-.5957-3.1816 1.1826-3.1816 1.1826zm-2.4677-2.5591c.6836.5376 1.2158-.8261 1.2158-.8261.5312-1.4312-.0313-3.4644-.0313-3.4644-1.3554.352-2.4863 3.0112-2.4863 3.0112-.1318.5449 1.3018 1.2793 1.3018 1.2793zm-7.5049-3.6699.9521.1279s-.2119-1.0175.2627-1.0219c0 0-1.0224-.4664-1.2148.894zm2.165-.9707c-.3271.8682.1514 1.6294.1514 1.6294l.4766.1992c1.2939.3291.5849-2.9941.5849-2.9941-.2099-.6768-1.2129 1.1655-1.2129 1.1655zm3.9981-1.2578c-.6807.0063-1.6153 1.7129-1.6153 1.7129-.5341 1.0913-.0507 2.0385-.0507 2.0385l.5478.4024c1.2949.5322 1.2725-2.0488 1.2725-2.0488.0605-.8838.3252-1.5655.3252-1.5655.2646-.7495-.4795-.5395-.4795-.5395zm-14.7803 3.1875s1.5356-3.0025 2.8232-3.353c0 0 2.1622-1.3106 2.7657-2.1983 0 0-4.2027.9883-5.7964 5.1455 0 0-.1992.4776.2075.4058zm-.9023-2.166c-.2652.75.4775.268.4775.268.7363-1.2295.3906-1.9057.3906-1.9057zm22.6718-1.8301.0547-1.4951c-.2793-.8809-2.3222-1.3379-2.3222-1.3379.0048.543 2.2675 2.833 2.2675 2.833zm-5.3388-4.5718 1.9013-.0166s2.4297-1.7881 2.4883-2.8081c0 0-.4795-.4707-1.9658.4253 0 0-3.2461 1.7271-2.4238 2.3994zm3.4697.648s2.2471.5239 4.0605-1.6661c0 0 .7393-1.0258-1.6318-.3251 0 0-2.6416.9741-2.4287 1.9912zm2.0469.9331 3.2109 2.146s.8877.5351.2002-.4781l-1.2363-1.4834s-.2764-.4731.3359-.4101c0 0 1.1543-.1465.54-.3443 0 0-4.2822-.3701-3.0507.5699zm-16.0274.4809s4.5762-4.8633 4.416-7.5796l-.2119-.9482s-.872 1.3657-1.3437 1.7778c0 0-3.959 5.4014-4.1504 6.8296 0 0 .1406.4741 1.29-.0796zm3.5205-1.2534s3.7803-2.751 4.0264-5.6059c0 0-.208-.542-.8818.0756 0 0-3.4385 3.0869-4.5723 5.4746 0 0-.1992.5459.7519.4014 0 0 .3389-.0713.6758-.3457zm4.5889-3.5049s0 0-1.4141 1.439c-1.415 1.4394-.8007 1.6367-.8007 1.6367 1.2246.1934 2.9834-.7051 2.9834-.7051 3.038-2.0644 2.539-4.7094 2.539-4.7094-1.6943.4902-3.3076 2.3388-3.3076 2.3388zm-18.7002 13.1397s-10.7651 4.0351-3.1206 15.8554c0 0 .6811.1978.1997-.4775-.4814-.6743-.4814-.6743-.4814-.6743l-.9668-1.7578s-.3496-1.1519.4721-.4116c.8218.7392.8218.7392.8218.7392l1.1641 1.0767s.873-1.1626-2.0117-4.7373c0 0-.6197-.9458.2641-.8853 0 0 .3408.1328.7534.6729.4121.5395.4121.5395.4121.5395s.7994.9336.75.333c0 0 .2593-1.4292-2.2036-3.3769 0 0-.7602-1.42.1958-.8853 0 0 1.0943.874 1.5088 1.6172 0 0 1.231.8721.6748-.5488l-1.3808-2.5015s-.4151-.8799-.0098-1.1553c0 0 .606-.5488.9546.4673 0 0 .4878 1.3545.6919 1.353 0 0 .3428.4043.2637-.8178 0 0 .1083-3.126 1.0507-4.0855 0 0 .6768-.3462-.0029-.3393zm-1.9468-5.0772 2.1885 1.6109s-.0112-1.2227-1.9307-3.1753c0 0-.4101-.3369-.2671.4775 0 0 .2774.6763.0093 1.0869zm-1.0254-.7383s.5708-4.6245-2.5044-6.6357c0 0-.1337.2051.2105.7456 0 0 1.376 1.958 1.2573 3.8608 0 0-.4678.8877-.8115.4151 0 0 .1084-3.0576-1.3926-3.7915 0 0-.8144.0068-.3818 2.9238 0 0 .0947.3599.5493.6065.8291.4506.8188.4682.8188.4682zm-18.184 2.4024s3.747-6.4873 6.873-6.3106c0 0 2.2388-.292 6.5327 1.3013 0 0 .3413.2002.2617-1.1577 0 0 .4405-3.9434-2.2231-5.6187 0 0 .5737 3.459-1.791 4.9747 0 0-1.0811.621-1.0249-.6705l.1235-1.4272s.2085-1.27-2.3384-3.3081c0 0-.435-.3438-.4746.1396 0 0-.2549 1.9048.4346 3.0533 0 0 1.0727 1.7212.0161 1.8349 0 0-.4727.3433-1.2344-1.3476 0 0-.9077-2.7779-4.1626-2.0699 0 0-.4829.2061.2783.6768 0 0 .8658.4824 1.1001 1.4854 0 0 .4185 1.3603 1.9151 1.5454 0 0 .7519.5366.0039.4077 0 0-3.1338-.9917-6.1865-.5572 0 0-.6109.0738.0024.2715.6128.1988.6128.1988.6128.1988l1.5005.666s-4.2554 2.7549-3.6895 5.2627c0 0 .544.0634 1.2173-.6211.6729-.6861.6729-.6861.6729-.6861l2.8305-2.538.2071.3378s-2.2183 2.6685-1.7285 4.2271zm18.7734 2.8232s-.4761-.1318-.9448.687l-.2012.2735s1.0137-.5523 1.146-.9605zm-5.3125 6.0923c.6025-1.0244.2534-2.0405.2534-2.0405-.8711 1.3672-.2534 2.0405-.2534 2.0405zm.2812 8.7612c.6661-1.5009 1.48-1.6435 1.48-1.6435.1099-2.9224-.8413-2.9819-.8413-2.9819-1.2729 2.0488-.6387 4.6254-.6387 4.6254zm-2.8999-5.2734.086 1.9692s1.2778-1.4375-.086-1.9692zm2.709-.9072c1.7617-.5586 1.1387-1.9121 1.1387-1.9121-1.3569.2163-1.1387 1.9121-1.1387 1.9121zm1.9732-7.4224 1.8125-2.3926s.6738-.6176-1.0225-.3989c0 0-2.1963-2.5625-3.6919-2.6846 0 0-.1328.3409.1441.9493 0 0 .768 2.3711.3623 2.5786-.4058.207-.4058.207-.4058.207s-2.5347-2.4907-4.3687-2.4067c0 0 .419 1.2871 1.9239 2.4287 0 0 1.3008 1.143.6264 1.6924 0 0-.3369.3432-1.2265-.3965 0 0-1.9864-1.8843-4.9737-1.6543 0 0 3.4107 1.6001 4.169 2.8843 0 0 .2798.8803-.6055.6171 0 0-4.6382-2.1333-6.3882-.2841 0 0 3.9493.9843 4.6436 2.7446 0 0 .0058.6792-1.2861.5552 0 0-4.6275-.979-6.2173 3.5869 0 0-.1812.6709.5454.269l.6772-.2798s1.1343-.1899 1.9634-.7651c0 0 1.353-.6226 1.4941-.0127 0 0 .084.3887-.3344.5464 0 0-2.1582.8921-2.145 3.3472l.021 2.31s.2114.8809.6811.1973c0 0 2.2148-3.0083 2.2671-4.7744l-.0068-.7476s.8134-.2109.7514.4693l-.0561 1.2905s-.0537 1.5112 2.0659 3.1748c0 0 .686.7412.6094-.2095-.0762-.9507-.0762-.9507-.0762-.9507s-.2588-2.0439-.9775-2.9795c0 0-.7032-2.7109.517-2.9936 0 0 1.1748 2.2988 2.3321 2.561 0 0 .8857.2627-.3155-4.957 0 0-.1474-1.3565.2588-1.4282 0 0 .7432-.4825.9595.9419 0 0-.0522 1.7671 1.1763 2.3676 0 0 1.081-.6211 1.0605-2.9301 0 0 .1758-3.1949 1.6621-4.0909 0 0 .6763-.414.7486.1289 0 0 .0879 2.2417.625 1.4888zm3.2744-13.8179s-3.8042-7.643-11.2154-8.4604c0 0-.5429.0728.6143.334 0 0 5.9902 1.4419 10.1245 7.9946 0 0 .3467.812.4766.1318zm-3.4746-1.1245s0 0 .8906.875c.8906.8755.8862.3326.8862.3326l-2.1255-2.2237c-.4043.4112.3487 1.0161.3487 1.0161zm-13.9893-7.145c-1.2168.69-.2627 1.021-.2627 1.021l2.2305-1.31c-.4776-.1998-1.9678.289-1.9678.289zm19.5127 9.5415s.5845-3.0615-.1787-4.8218c0 0-.2769-.6084-.606.6172 0 0-.7968 1.9771.3101 4.2764 0 0 .2808 1.0166.4746-.0718zm-3.4536-6.4902c-.6001 1.3633.084 1.9009.084 1.9009.4126.4721 1.1679 1.416 1.1679 1.416.8853.2641.2491-2.583.2491-2.583-.3491-1.0161-.4283-2.3062-.4283-2.3062-.2104-.7451-1.0727 1.5723-1.0727 1.5723zm-2.25-.9317 1.0288 1.1456s.4824.7431.6689-1.1607c0 0 .7198-3.1313-.1748-4.4131 0 0-1.2119 1.2329-1.267 2.6597 0 0 .0102 1.1548-.2559 1.7685zm-1.231-.9399s1.8204-1.5791.5049-4.3525l-.6943-1.6914s-.5508-.8111-.7442.3461c0 0-.2265 1.3829-.25 2.5152 0 0 .0191 2.8559 1.1836 3.1826zm-1.9814-1.2056s.5815-3.4013-1.8731-4.4663c0 0-.6831-.4023-.4052.2071 0 0 .4829.8789.4214 1.5586 0 0 .6362 2.8476 1.8569 2.7006zm-2.1807-.8637s.104-3.6016-3.2251-3.6397c0 0-.2695.2056.0074.815 0 0 .9765 2.8447 2.7446 3.101 0 0 .4184.1114.4731-.2763zm-3.8105-.7139s-.7588-1.2832-2.4536-.9287c0 0-.2701.206.0039.4756 0 0 .6108.5771 1.8403.6621 0 0 .7852.0556.6094-.209z" fill="#008f33" transform="translate(58.4804 1.4394)"/><path d="m2.4888 50.4238s0 0-.7476.0068c-.747.0064-.6748.4815-.6748.4815l.0074.8823c.3471.8125.0117 1.2905.0117 1.2905s0 0 .0122 1.4268c.0127 1.4268.2851 1.4917.2851 1.4917l.6177.6743s.0122-.0127.7539.7407c.5747.5835.7495.2647.7495.2647.5371-.6836.251-2.3115.251-2.3115-.1421-.7461-.0288-3.2603-.0288-3.2603s0 0-.0073-.8149c-.0069-.8155-.7539-.8086-.7539-.8086zm.5366-.7519s.7788-.211.6016-1.0923c-.0733-.6109-.0733-.6109-.0733-.6109s-.0927-2.852.0386-3.3286c0 0 .1597-1.1904-.6899-1.2168l-1.0191.0093s-.8183-.3325-.8081.7539c0 0-.0283.6792-.0586 1.1558 0 0-.1967.749-.0449 2.5132 0 0-.1206 1.7675.5591 1.7617 0 0 1.0864.0244 1.4946.0547zm-1.9795-11.1446c-.1303.4951-.0674 2.4673-.0674 2.4673s0 0-.0615.7476c-.061.7485.4126.5405.4126.5405.4063-.1401.6123.1304.6123.1304 1.1577.2612 1.2891-.2159 1.2891-.2159.6006-1.228.043-2.853.043-2.853-.1431-.8139-.0835-1.7656-.0835-1.7656s-.0318.1655.0302-.374c.0313-.272-.3423-.3365-.3423-.3365-.1738.1285-.4414-.0307-.4414-.0307-.2729-.0654-.6118.0058-.6118.0058-1.1225-.1596-.7793 1.6841-.7793 1.6841zm-.2983-8.3315.0781 1.1543c-.06.917-.1118 2.7182-.1118 2.7182-.0513 1.9024 1.1035 1.8921 1.1035 1.8921l.9507-.0088c.6792-.0058.5234-2.2461.5234-2.2461-.1435-.8818-.1635-3.1909-.1635-3.1909-.4102-.3364-2.3804-.3188-2.3804-.3188zm.2158-6.3194c-.8164-.1289-.4707.5469-.4707.5469s.0127.1201.0396.6797c.042.8491.0542 2.2412.0542 2.2412-.2242 2.4756 1.4462 2.229 1.4462 2.229 1.2906-.0112 1.1436-1.2334 1.1436-1.2334-.2148-1.2881-.0288-3.2602-.0288-3.2602.0644-.4082.1289-.8155.1289-.8155-.3438-.9809-1.4307-.4633-1.4307-.4633zm.4683-8.4956c-.2032.0699-.7481-.1289-.7481-.1289-.3061-.0317-.2636.9532-.2636.9532l.0371 4.2109s0 0 .082 1.5615c.0815 1.562 1.6387.937 1.6387.937.4746-.0722.7378-1.0254.7378-1.0254l-.1192-5.8408c.0596-.9521-1.3647-.6675-1.3647-.6675zm.2768-7.1352c-.4751.0381-.7466.0742-.7466.0742-.8525-.3315-.6655 1.5005-.6655 1.5005.1392.4746-.0473 2.3784-.0473 2.3784-.1866 1.9717.6977 2.0996.6977 2.0996.5767-.039.8164.1284.8164.1284 1.0889.2622.9439-.7553.9439-.7553l-.0367-4.2119c.1211-1.6304-.9619-1.2139-.9619-1.2139zm.4732-7.9517c-.4746.106-.8155-.0268-.8155-.0268-.5795-.2671-.7461.1084-.7461.1084.0967.9175-.0512 1.9018-.0512 1.9018.1494 1.5615-.1782 2.9229-.1782 2.9229-.3907 1.9057.6943 1.6919.6943 1.6919l.2378-.0352.4424.1319c1.02.1264.7382-.9922.7382-.9922-.2158-1.4239.0933-4.8911.0933-4.8911.2217-.9312-.415-.8116-.415-.8116zm12.1523 7.0254-.6123-.1982c-.8154.0073-.1269 1.0874-.1269 1.0874l.8281 1.4194 1.1474-.8252c-.3408-.0649-1.2363-1.4834-1.2363-1.4834zm-1.1748 5.377c-.6748.6167.0127 1.562.0127 1.562s0 0 .4131.4717c.4111.4716 1.2236.1928 1.2236.1928.8106-.5507-.2138-1.1528-.2138-1.1528-.2032.002-.8907-.875-.8907-.875zm.8623-2.3174c-.542.0723-.0547 1.4267-.0547 1.4267l.5489.6744s0 0 .5468.4028c.5469.4023.6807.0625.6807.0625-.0713-.2715.333-.6148.333-.6148.4053-.4111-.0762-.8823-.0762-.8823l-.958-.9428c-.6826-.3331-1.0205-.1265-1.0205-.1265zm-2.5176-.522s1.2266.397 1.5625-.0132c0 0-.0029-2.3442-1.5781-1.6841-.3974.1661-.668 1.2281.0156 1.6973zm.3301 6.5864s0 0 .2754.4053c.2744.4058.4834.9473.4834.9473l.4795.4712c.6143.334 1.0156-.4165 1.0156-.4165.8008-1.5694-1.6523-2.4986-1.6523-2.4986-1.2256-.1933-.6016 1.0913-.6016 1.0913zm-2.1084-.3208c-.1328.4776.2764.6768.2764.6768-.2656.6138.6221 1.1504.6221 1.1504.8847.1953.8769-.6875.8769-.6875-.2891-1.9678-1.2402-2.0269-1.2402-2.0269-.3399-.0654-.5352.8872-.5352.8872zm-2.5576-5.0039c-.3584 1.0132.2852 1.4239.2852 1.4239l1.0107-.8921c.877-.5508.5996-1.3638.5996-1.3638-.21-.6094-.7519-.4009-.7519-.4009-1.0821.4854-1.1436 1.2329-1.1436 1.2329zm3.6094 1.1231c-.7373 1.0932.3564 1.9663.3564 1.9663.6113-.0049.6709-1.0244.6709-1.0244.0176-.3101.0625-.6128.0625-.6128.3311-.8848-.416-.9468-.416-.9468-.4766-.1313-.6738.6177-.6738.6177zm-3.2403 2.2021c.2823 1.1519 1.3643.5992 1.3643.5992.5586-.1949.3994-.8189.3994-.8189.9463-.4839.2598-1.293.2598-1.293-.3252-.686-1.2217.0786-1.2217.0786-.6064.4131-.8018 1.4341-.8018 1.4341zm5.0254-7.8564c.6075-.2769-.0058-.6113-.0058-.6113-.543.1406-.8174-.3326-.8174-.3326-.5498-.5385-.7471.0747-.7471.0747-.1933 1.292 1.5703.8692 1.5703.8692zm-4.5361 1.6709c.0059.6787.9473-.3482.9473-.3482-.0039-.4077.4677-.8193.4677-.8193-.207-.3379-.4091-.2686-.4091-.2686-1.0791-.0463-1.0059 1.4361-1.0059 1.4361zm2.1182 1.6108c.8252-.0576.3759-1.833-.084-1.833-.461 0-1.1446 1.919.084 1.833zm-.7344 1.9224c.1396.4175 1.6074-.4736 1.3896-1.0117-.2177-.5381-1.5283.5942-1.3896 1.0117z" fill="#ac5341" transform="translate(99.4853 60.1118)"/></g></svg>