<svg height="512" width="1024" xmlns="http://www.w3.org/2000/svg"><clipPath id="a"><path d="M0 0h114.403v149.418H0z" transform="translate(44.932 -.304)"/></clipPath><path d="M0 0h1024v512H0z" fill="#3771c8"/><path d="M341.333 0H1024v512H341.333z" fill="#fff"/><path d="M682.667 0H1024v512H682.667z" fill="#ff0"/><g clip-path="url(#a)" transform="matrix(2.38953 0 0 2.3993 265.514 96.455)"><path d="M150.676 130.665s.198-1.234-1.28-1.166l-.283-1.446s-.074-.738-.546-.267c0 0-.988 1.005-1.895.832l-.198-1.99s-.095-.453-.908-.265c0 0-1.446.375-1.808.378 0 0-.466-1.355-.202-2.353 0 0 .529-1.545-1.366-.713l-1.982 1.105-.746-2.348s-.096-.543-.727-.265l-1.804.83-.027-3.17s.048-.772-.818-.355c0 0-2.035.92-2.356-.069 0 0-.396-2.503-1.382-2.614l-2.524 1.381-.654-2.168-2.347.835-1.567-3.156s-.278-.722-.998-.082l-2.875 2.652s-1.219-.792-1.65-2.34c0 0-.222-.879-1.18-.17l-2.52 1.742s-.54.276-.817-.265l-.277-.54-.553-1.083s-.308-.564-.907-.173c0 0-2.43 1.743-3.15 2.383 0 0-.579.532-1.179-.17 0 0-2.017-2.929-2.375-2.425l-1.7 2.19s-.806 1.274-.82-.356l-1.06-50.78s.719-3.267 4.788 1.112c0 0-1.437 1.372-1.6 3.547 0 0-.163 1.904-.52 2.45 0 0-.535 1.092.195 1.628 0 0 .276.542.008.997 0 0-.526 1.907.836 2.257 0 0 1.36.35 1.824 1.432 0 0 .644 1.353 1.913 1.343 0 0 1.359.079 1.905.436 0 0 1.997.345 2.076-.925 0 0 .332-2.198 1.41-4.36 0 0 3.023-8.678-6.697-9.723 0 0-.734-1.26-2.928-3.415l-2.102-2.155s.781-13.955.678-15.495c0 0-.728-.356-1.09-.443l.342-2.177s.173-.998-.917-1.26c0 0-.541-6.197 6.62-5.536 0 0 4.02.262 4.003 8.522 0 0 1.363.532 1.793-2.008 0 0 .62-1.726 1.174-.373 0 0 .658 2.712-.328 3.807 0 0-1.167 1.188.462.902 0 0 .277.812.638.537l.36-.274 1.8-1.194s1.754 3.517-2.712 10.803c0 0-.897 1.216.367.54l3.603-2.388s.904-.188 1.186.987c0 0 .194 1.538.83 1.623 0 0 .17.013.082-.726 0 0-.305-3.801 1.332-3 0 0 .046 1.904 1.646 1.706 0 0 .443-1.272-1.043-5.334 0 0-.371-.994.533-1.182 0 0 1.357-.284 1.444-.648 0 0 .109-.19-.73-.446 0 0-2.816-1.062-1.649-2.16 0 0 1.212-.4 2.261-.472 0 0 2.31-.494 2.613-1.653 0 0 .267-.546-.637-.357 0 0-1.228.071-2.904-.427 0 0-1.087-.172-1.994-.254 0 0 .348-1.634 1.614-1.917 0 0 2.169-.47 2.07-1.467l-4.077-.055s-.186-.542 1.165-1.459c0 0 2.704-1.383 1.34-2.095 0 0-1.623.92-4.796.586 0 0-.297-2.987.235-4.17 0 0 .332-.79-.274-.358 0 0-1.35 1.008-2.35.654 0 0-.102-1.448.796-2.18 0 0 .258-.62-.366-.54 0 0-1.8 1.282-2.62.927 0 0-.453-.085.085-.724 0 0 .806-1.004.084-.817 0 0-1.808.56-2.703 1.745 0 0-.448.547-.814.007 0 0-.37-.721-.634.006 0 0-.424 3.355-7.222 2.6 0 0 5.835-5.849 14.265-5.017 0 0 3.266.697 4.94 5.482 0 0 1.164-1.46.975-2.273 0 0-.38-2.08.714-1.093 0 0 1.55.891 3.474 3.5 0 0 .725.085.446-.728 0 0-.66-2.982-1.578-4.424 0 0-.099-.904 1.616-1.554 0 0 1.086-.19.175-.726 0 0-2.26.383-2.358-.341 0 0-.097-.815.712-1.456 0 0 1.26-.826.98-1.82 0 0-.72.46-2.078.562l-1.358.103-1.54.013s.986-1.367.795-2.271l-3.43 1.298s-1.172.554-.825-.989l.425-3.264s-2.688 3.193-4.14 2.934c0 0-.64-.537.699-2.904 0 0-.25-.269-.633.096 0 0-2.605 2.469-3.514 2.205 0 0-.008-.906.612-2.541 0 0 .682-1.226.005-.864-.133.071-.284.14-.284.14s-3.206 1.388-5.56 6.21c0 0-1.774 4.091-4.83 6.744 0 0-.303-3.529 3.011-7.725l4.393-5.02s4.152-3.8 7.883.292c0 0-.077-2.797 1.427-2.457 0 0 2.635.972 3.811.78 0 0-.716-3.152-2.114-3.513l-1.18-.352s-1.092-.533-.282-1.084c0 0 2.065-2.011.98-1.82 0 0-1.53 1.01-2.168.743 0 0-.908-.354-1.628.287 0 0-.9.551-1.355.283 0 0-.229-1.476.34-2.448 0 0 .342-.843-.456-.54 0 0-1.446.557-2.883 1.837 0 0-.987.915-.906-.082 0 0 .341-2.268-.196-1.63l-2.597 3.285s-.808 1.094-.907-.082l.166-1.814s-3.242 2.203-4.295 5.926c0 0-.065 2.899-.7 2.904 0 0-.547-.447-.122-3.713 0 0 1.911-9.255-1.83-12.302 0 0-1.062-.332-1.257 1.28 0 0-.724 5.079-.795 7.434 0 0-.47 3.084.308 9.236 0 0 .794 7.783-.261 11.414 0 0-2.096-1.52-1.961-6.685 0 0 .473-7.974-1.09-10.587 0 0-.548-.54-.538.639 0 0 .112 2.444-.522 2.45 0 0-.55-.81-.472-2.17l.079-1.36s.24-1.823-.548-.628c0 0-.898 1.004-1.002-.535l-.113-2.536s-.188-.813-.634.006c0 0-.882 2.635-1.523 1.916 0 0-1.022-2.98-3.032-4.864 0 0-.543.095-.355.818 0 0 1.118 3.432-.429 2.72 0 0-2.728-1.243-3.557-2.866 0 0-.822-.808-.724.187 0 0 .927 1.65.197 1.72 0 0-1.259.231-2-.798 0 0-1.003-.806-.813.28 0 0 .84 2.618.296 2.623 0 0-1.177.101-2.086-.343 0 0-2.063-.837-1.903-.074.094.451.368.63.917 1.35 0 0 1.006.987.012 1.268 0 0-2.438.837-4.57 5.746 0 0-.299 1.098 1.089.081 0 0 7.81-7.858 15.679 1.13l-.987 1.096-3.836-3.68s-.809.822.385 2.623c0 0 .953 1.252.203 2.444 0 0-6.093-6.384-6.3-5.742 0 0-.719.642.84 2.892 0 0 .391 1.718-.347 1.723 0 0-2.766-.215-4.975-.484 0 0-.947-.075-1.507-.303 0 0-.468.796.884 1.417 0 0 4.056 2.102 1.367 2.443 0 0-2.135.336-4.684-1.384 0 0-.617 1.747 1.935 3.862 0 0 .717.47.088 1.03 0 0-1.809 1.36-2.262 3.82 0 0-.221 1.901-.767 2.857 0 0 1.19.305 2.444-1.21l1.021-.96s.631-.242.798.706c0 0 .031 3.563.823 3.556 0 0 .336.081.625-.955 0 0 2.283-9.19 9.19-8.237 0 0 5.072.43 9.782 4.823 0 0-.234.397-1.817.411 0 0-2.082-2.673-7.399-3.972 0 0-1.27-.305-.39.558 0 0 2.151 1.643 1.364 2.125 0 0-3.65-.838-5.942-.422 0 0-.234.397.402.709 0 0 2.385 1.087 1.122 1.495 0 0-3.328-.208-5.293 1.392 0 0 .64.786 2.147 1.089 0 0-3.153 1.532-4.325 3.206 0 0-.234.477.558.47 0 0 3.955-.352 3.012.448 0 0-3.468 1.773-5.246 6.697 0 0-.07.793.716.31 0 0 2.519-1.684 2.528-.655 0 0-.26 6.415.458 6.963 0 0 .483 1.025 2.273-2.554 0 0 .996-2.547 2.369-.733l1.84 2.201s.803 1.259 1.029-.01c0 0 .536-2.063.358-4.358 0 0 .178-.67.552-.163 0 0 .054 1.819.96 1.021l-.009-.95s2.132-.651 2.145.852l.013 1.504s-.395 1.457.26 2.453l.01 1.266s-.069 1.03.478.234l.547-.796.782-1.195s.468-.717.869-.167c0 0 1.848 3.072 4.938 3.282l.274-4.832s1.029-.089.376-2.3c0 0-.326-.947.226-1.268 0 0 .356-.332-.007-.791 0 0-.487-1.343.459-1.825 0 0 .232-.436-.169-1.107 0 0-.832-4.586.587-5.39 0 0 .788-.323.795.39l.006.712s-.972 21.964-.59 34.37l.573 44.465s-.612 2.362-2.808-.065c0 0-1.01-1.532-1.905-.437 0 0-.444 1.092-.901.552l-1.553-1.345-.627.73s-.347.598-1-.444c0 0-.475-.74-1.088-.17l-1.438 1.28s-2.471-2.877-3.56-3.139l-2.415 3.554s-.622 1.273-1.173.372c0 0-.68-1.008-1.18-.17-.19.32-.267.455-.267.455s-.2.473-.722.277c0 0-.767-.835-1.22.134-.346.741-.402.878-.402.878l-.797 2s-.534 1.091-1.267.191c0 0-1.37-1.436-1.538.104l-.171 1.18s-.173.998-.993.462c0 0-.867-.82-1.269-.08l-.89 1.638s-.629.73-1.086.281l-.456-.449s-.767-1-1.086.01c-.232.731-.353 1.09-.353 1.09s-.194 1.112-1.173.554l-1.183-.623-.53 1.453s-.241.92-1.085.191c0 0-.914-.898-1.267.192l-.352 1.09s-.351 1.362-.99.734c0 0-1.146-1.484-1.54.104l-.35 1.272-1.813-.166s-1.45-.168-.443 1.181l1.008 1.35s.325.903-.621 1.364c6.18 2.133 10.073 1.723 13.252.42 3.18-1.303 5.645-3.498 11.011-4.527 5.882-.94 13.279-.732 13.279-.732 4.577-1.562 8.83-1.31 13.554-.942 0 0 3.943 1.474 7.097.97 0 0 2.44-.31 5.351-.21 17.179.268 27.764 6.898 29.989 1.75z" fill="#161413"/><path d="m147.047 130.064.63-.458s.632-.187.729.536c0 0 .007.725-.72.55 0 0-.997-.173-.639-.629z" fill="none" stroke="#161413" stroke-width=".054"/><path d="M93.767 127.364c-11.603-1.074-18.443 3.786-18.443 3.786l-3.171-.062c-.095-.453.075-1.723.075-1.723.095-.783 1.172-.35 1.172-.35l1.225.096c.53-1.454 1.117-1.86 1.117-1.86l1.543.35c1.192.295 1.184-.622 1.184-.622s-.003-.41.161-.84c.277-.722.812-.46.812-.46l1.183.714c1.096.987 2.062-2.373 2.062-2.373s-.012-.007.356-.728c.286-.558.723-.278.723-.278l1.64 1.254c.91.445 1.08-.915 1.08-.915l.083-.816c-.009-.997.722-.279.722-.279l1.095.896c.912.717 1.707-1.554 1.707-1.554.451-1.046 1.175-.282 1.175-.282l1.28 1.256c.912.718 1.805-.559 1.805-.559 1.122-1.22 1.995.163 1.995.163l.732.9c.732.9 1.361.26 1.361.26l.807-.913c.806-1.094 1.816.527 1.816.527.917 1.166 1.45-.103 1.45-.103 1.157-2.184 2.533-.203 2.533-.203.848 1.09 1.453.348 1.453.348l2.06-2.463c.399-.329.725.175.725.175l1.378 1.98.895-1.095c.358-.546.906-.008.906-.008l.64.72c.732.717 1.362.35 1.362.35l1.348-1.099.43.7c.577 1.006 1.748-.176 1.748-.176.45-.548.634-.096.634-.096l1.37 1.347.81-.642c.63-.458.905-.099.905-.099l.828 1.442 1.26-.917.552.901c.46.902 1.63.076 1.63.076 1.264-.373 1.27.261 1.27.261l.099.904 1.628-.286c.494-.177.546.267.546.267l.279.723c.279.993 1.09.533 1.09.533l.632-.277.918 1.35 1.355-.464c1.362.441.101 1.267.101 1.267-2.35.474-5.532-.857-5.532-.857-5.544-2.216-14.49.31-14.49.31-.993.28-1.632-.167-1.632-.167-8.902-3.092-16.397-.58-16.397-.58-.811.46-2.08.29-2.08.29zm51.649 2.532-.29-1.99s-.637-.356-1.356.194c0 0-.906.008-1.271-.35l-.111-2.174s-.366-.45-1.086-.08l-.722.367-.901.461s-.74.395-.913-.716l-.101-1.177s-.33-1.329-1.544-.439c0 0-1.797 1.737-1.64-.982l.08-1.268s.098-.987-1-.535l-1.083.462s-1.171.645-1.276-.894l-.103-1.539s-.193-1.085-1.002-.535l-.81.551-.991.642s-.727-.174-.826-1.26c0 0 .078-1.359-1.002-.716l-1.081.734s-1.095-.805-1.195-1.8c0 0-.103-1.539-.83-1.714l-2.785 2.47s-.81.641-1.362-.35l-1.013-1.893s-.64-.538-1.628.286l-1.259 1.007s-.806 1.004-1.63.014l-1.008-1.259s-.46-.72-1.268.011l-.81.732-1.167 1.007s-.895 1.185-1.902-.074l-1.007-1.259s-.733-.989-1.18-.26l-.446.727-1.968 2.826s-.29.77.465 1.354c.716.555.73.537.73.537s.912.807 1.45.077l1.972-2.28s.54-.814 1.063-.163c.35.44.544.753.544.753s.833 1.478 1.301.651l.533-1.182s.267-.76.942.096l.697.886s.647 1.156 1.455.621l.988-.914s.809-.642.998.262c0 0 .104 1.45 1.094.715l.719-.64s.307-.51.637.266c.379.9.37.902.37.902s.186.724.906.173l.72-.549s.81-.732 1.088.081c0 0 .014 1.63.826 1.08 0 0 .985-1.097 1.266-.102l.008.816s.37 1.083 1.54.166c0 0 1.89-1.284 2.083.073 0 0 .013 1.358.913.717 0 0 .99-.825 1.177-.102l.371.903s.189.994.91.535c0 0 .809-.64.906-.007 0 0-.166 1.721 1.095 1.076l.721-.459s.81-.55 1 .444c0 0 .102 1.358.733.99 0 0 1.359-.726 1.183.442 0 0-.2 1.378 2.459 1.61 0 0 3.174.514 3.9.598 0 0 1.18.256 1.724.347zm-85.749 2.75s5.513-1.407 7.863-1.88l1.161-1.912 1.727.71s.363.086.628-.64l.266-.728.354-.909s.443-1.09 1.175-.282l.732.81s.273.177.54-.458l.619-1.636s.354-.909 1.266-.283l.91.626s.35.303.541-.277c.244-.734.266-.727.266-.727l.53-1.453s.265-.818.905-.099l.641.72.752.83 1.76-3.48s.443-1.182 1.175-.373l.732.81s1.372 1.526 1.357-.104c0 0 .073-2.084.98-1.91l1.55 1.164s.82.627 1.356-.285l.535-.91.446-.819 2.098 1.703s.733.898 1.632.167l.9-.733.628-.549 1.74 2.067s.5.601 1.085-.19c.689-.933.716-.912.716-.912s.538-.73 1.175-.283l.638.448s.915 1.078 1.361.26l.446-.819s.306-.38-.463-1.083c-.522-.477-.547-.449-.547-.449s-1.639-1.609-2.255-.994l-.555.747s-.176.636-1.36-.26l-1.187-.894s-.718-.807-.996-.082c0 0-.618 1.817-1.351.828l-.734-.99s-.825-1.08-1.356.283c0 0-.173.907-.813.278 0 0-.644-1.17-1.272-.53 0 0-1.162 1.82-2.351.472l-1.19-1.348s-1.138-1.61-1.727-.709l-2.415 3.463-.547-.448s-.582-.615-.815.007c-.243.646-.266.636-.266.636s-.282.893-.9.642l-.638-.357s-.637-.447-.989.825l-.26 1.361s-.26 1.36-1.168 1.006l-.908-.354s-.94-.517-1.173.554l-.351 1.271s-.03.705-.722.37c-.801-.39-.818-.356-.818-.356s-.818-.356-1.263.554l-.445.91s-.265.817-.811.46l-.547-.358s-.768-.637-.955-.154c-.203.52-.308.71-.308.71l-.353 1.09s-.056.478-.813.187c-.911-.35-.909-.354-.909-.354s-.904-.484-.994.281c0 0-.166 1.722-.622 1.363l-.456-.358s-.823-.898-1.177.01l-.442 1.272s-.44 1.545-1.532.83l-.91-.446s-.086.454.1.996c0 0 .186.633-.72.55 0 0-1.089-.172-.63.458zm52.864-118.869s3.522-1.186 5.775.016c0 0 .819.537.676-.209l-.142-.746-.143-.746s1.085-.35 1.905.255c0 0 .958.807 2.38.386 0 0 .05-2.037-4.292-1.524l-.272.003 1.073-1.437s.606-.752-.478-.47c0 0-2.645.634-4.457 2.96 0 0-.812.482-.48-.335l1.87-3.685s.262-1.09-.413-.54c0 0-1.829.491-3.41 6.144zm-2.433 1.448c2.699-2.13 1.912-6.605 1.912-6.605-3.312 1.863-1.912 6.605-1.912 6.605zm-2.218 2.601s1.142-1.3 1.192-3.271l.051-1.971s.167-4.145-.64-3.322c0 0-1.588 1.348-1.33 3.068 0 0 .573 3.46.727 5.496zm-2.415 3.418.94-1.23s-.023-2.65.31-3.4c0 0 .314-2.856-.235-3.463 0 0-.341-.268-.603.889 0 0-.254 2.04-.522 2.517 0 0-.4.683-.324 1.77l.078 1.086s.088 2.309.356 1.831zm-3.39.71.181 5.16c.886.264.912-4.423.912-4.423.118-1.246-.153-1.901-.153-1.901-.552-1.014-1.118-3.59-1.118-3.59-.587 2.858.178 4.753.178 4.753zm-.621-8.758 1.186 3.59.35 1.22c.351 1.218.479.266.479.266l.114-2.378.057-1.359c.056-1.36-1.12-3.726-1.12-3.726l-.347-.813c-.347-.812-.75-.265-.75-.265zm.33-8.699c-.015 2.924 1.405 5.219 1.405 5.219l.417 1.083c.417 1.083.455-2.314.455-2.314l.049-2.174c.05-2.174-1.187-3.657-1.187-3.657-.962-1.215-1.138 1.843-1.138 1.843zm-1.021 33.882s-.086.495-.097 1.045c-.019 1.018.613.198.613.198 1.241-5.717 6.733-6.92 6.733-6.92-4.088-1.39-7.225 4.954-7.225 4.954zM110.8 33.22c2.866 1.4 4.132 6.348 4.132 6.348 1.073-1.571.307-3.67.307-3.67-.143-.882.947-.417.947-.417 1.304 1.552 2.015 5.078 2.015 5.078 1.475-2.323.307-3.808.307-3.808-2.064-2.834-7.711-3.871-7.711-3.871-.339.003.003.34.003.34zm-7.503 27.17-.123 1.428s1.491-.353 2.314.59c0 0 1.024.467-.004-.543 0 0-1.166-1.212-2.187-1.474zm-2.864-1.333c.82.672 1.632.257 1.632.257 1.345-.97 1.327-3.611 1.327-3.611l-.06-6.658zm.653-10.535c-.532 1.227-.915 4.016-.915 4.016l.097 3.328c.064-.477 1.518-5.04 1.518-5.04l.53-1.5c.53-1.5.102-3.805.102-3.805-.26 1.36-1.332 3-1.332 3zm-.772-2.846.01 1.222c.012 1.222.213.881.213.881.678-.074 1.454-4.564 1.454-4.564l-.028-3.057c-1.965.561-1.649 5.518-1.649 5.518zm19.33-3.297c2.284-2.94.236-4.145.236-4.145-.883.144-.237 4.145-.237 4.145zm1.566.326c.62 1.014.5 2.985.5 2.985.445-3.604-.308-4.278-.308-4.278-.34.004-.192 1.293-.192 1.293zm-2.088 9.801c2.24-.155 2.322-6.27 2.322-6.27-.647 3.538-2.322 6.27-2.322 6.27zm3.54-6.824s-.113 2.582-.65 3.334c0 0-.536.82.027 3.057 0 0 .48.403.472-.48l-.008-.883-.01-1.087s.06-.883.676-.413l.615.47s1.164.94 1.019-.077c0 0-.148-1.221-1.783-2.022 0 0-.62-.742.127-.817l.747-.074s1.29-.011.334-.75c0 0-.482-.607-1.566-.258zm-.227-2.784.078 1.223s.409.268 1.083-.35c0 0 1.484-1.303 1.823-1.306 0 0 1.044-.676-.484-.88 0 0-1.359-.123-2.5 1.313zm-.087-2.105 1.272-1.98s.143-.144.066-.273c-.143-.24-1.626.354-1.626.354-.813.347.288 1.9.288 1.9zm-1.042-2.504 1.876-3.005c-1.84-.596-3.182 1.183-3.182 1.183zm-2.468-2.56c.683.539 1.216-.825 1.216-.825.53-1.431-.032-3.465-.032-3.465-1.355.352-2.486 3.012-2.486 3.012-.132.545 1.302 1.279 1.302 1.279zm-7.505-3.669.952.128s-.212-1.018.263-1.022c0 0-1.023-.466-1.215.894zm2.165-.97c-.327.867.151 1.629.151 1.629l.477.199c1.294.329.585-2.994.585-2.994-.21-.677-1.213 1.165-1.213 1.165zm3.998-1.259c-.68.007-1.615 1.713-1.615 1.713-.534 1.092-.05 2.039-.05 2.039l.547.402c1.295.533 1.272-2.048 1.272-2.048.06-.884.326-1.566.326-1.566.264-.75-.48-.54-.48-.54zm-14.78 3.188s1.535-3.003 2.823-3.353c0 0 2.162-1.31 2.766-2.198 0 0-4.203.988-5.797 5.145 0 0-.199.478.208.406zm-.903-2.166c-.265.75.478.268.478.268.736-1.23.39-1.906.39-1.906zm22.672-1.83.055-1.495c-.28-.881-2.322-1.338-2.322-1.338.005.543 2.267 2.833 2.267 2.833zm-5.339-4.572 1.902-.017s2.43-1.788 2.488-2.808c0 0-.48-.47-1.966.426 0 0-3.246 1.727-2.424 2.4zm3.47.648s2.247.524 4.06-1.666c0 0 .74-1.026-1.631-.325 0 0-2.642.974-2.429 1.991zm2.047.933 3.211 2.146s.888.535.2-.478l-1.236-1.483s-.277-.473.336-.41c0 0 1.154-.147.54-.345 0 0-4.282-.37-3.05.57zm-16.027.481s4.576-4.863 4.416-7.58l-.212-.948s-.872 1.366-1.344 1.778c0 0-3.959 5.401-4.15 6.83 0 0 .14.474 1.29-.08zm3.52-1.253s3.78-2.751 4.027-5.606c0 0-.208-.542-.882.075 0 0-3.439 3.087-4.573 5.475 0 0-.199.546.752.401 0 0 .34-.07.676-.345zm4.59-3.505-1.415 1.439c-1.415 1.44-.8 1.636-.8 1.636 1.224.194 2.983-.705 2.983-.705 3.038-2.064 2.539-4.709 2.539-4.709-1.695.49-3.308 2.339-3.308 2.339zm-18.701 13.14S87.28 38.93 94.925 50.75c0 0 .68.198.199-.478l-.481-.674-.967-1.758s-.35-1.152.472-.411l.822.739 1.164 1.077s.873-1.163-2.012-4.738c0 0-.62-.946.264-.885 0 0 .341.133.754.673l.412.54s.8.933.75.332c0 0 .259-1.429-2.204-3.377 0 0-.76-1.42.196-.885 0 0 1.094.874 1.509 1.617 0 0 1.23.872.674-.548l-1.38-2.502s-.415-.88-.01-1.155c0 0 .606-.549.954.467 0 0 .488 1.355.692 1.353 0 0 .343.404.264-.818 0 0 .108-3.126 1.05-4.085 0 0 .678-.346-.002-.34zm-1.947-5.078 2.189 1.611s-.012-1.223-1.931-3.175c0 0-.41-.337-.267.477 0 0 .277.677.01 1.087zm-1.025-.738s.57-4.625-2.505-6.636c0 0-.133.205.21.746 0 0 1.377 1.958 1.258 3.86 0 0-.468.888-.811.416 0 0 .108-3.058-1.393-3.792 0 0-.814.007-.382 2.924 0 0 .095.36.55.607.829.45.818.468.818.468zm-18.184 2.402s3.747-6.487 6.873-6.31c0 0 2.238-.292 6.532 1.301 0 0 .342.2.262-1.158 0 0 .44-3.943-2.223-5.618 0 0 .574 3.459-1.791 4.974 0 0-1.081.621-1.025-.67l.124-1.427s.208-1.27-2.339-3.308c0 0-.435-.344-.474.14 0 0-.255 1.904.434 3.052 0 0 1.073 1.722.016 1.835 0 0-.472.344-1.234-1.347 0 0-.908-2.778-4.163-2.07 0 0-.483.206.279.677 0 0 .865.482 1.1 1.485 0 0 .418 1.36 1.915 1.545 0 0 .752.537.004.408 0 0-3.134-.992-6.187-.557 0 0-.61.074.003.271l.612.2 1.5.665s-4.254 2.755-3.689 5.263c0 0 .544.063 1.218-.621l.673-.686 2.83-2.538.207.338s-2.218 2.668-1.728 4.227zm18.773 2.824s-.476-.132-.945.687l-.2.273s1.013-.552 1.145-.96zm-5.312 6.092c.602-1.025.253-2.04.253-2.04-.871 1.367-.253 2.04-.253 2.04zm.28 8.761c.667-1.5 1.48-1.643 1.48-1.643.11-2.923-.84-2.982-.84-2.982-1.273 2.048-.64 4.625-.64 4.625zm-2.9-5.273.087 1.969s1.278-1.438-.086-1.97zm2.71-.908c1.762-.558 1.139-1.912 1.139-1.912-1.357.217-1.14 1.912-1.14 1.912zm1.973-7.422 1.813-2.393s.673-.617-1.023-.398c0 0-2.196-2.563-3.692-2.685 0 0-.133.34.144.95 0 0 .768 2.37.363 2.578l-.406.207s-2.535-2.49-4.369-2.407c0 0 .42 1.287 1.924 2.429 0 0 1.3 1.143.626 1.692 0 0-.337.343-1.226-.396 0 0-1.987-1.885-4.974-1.655 0 0 3.41 1.6 4.17 2.885 0 0 .279.88-.606.617 0 0-4.639-2.133-6.389-.284 0 0 3.95.984 4.644 2.744 0 0 .006.68-1.286.556 0 0-4.628-.98-6.217 3.586 0 0-.182.671.545.27l.677-.28s1.135-.19 1.964-.765c0 0 1.353-.623 1.494-.013 0 0 .084.389-.335.546 0 0-2.158.892-2.145 3.347l.021 2.31s.212.881.681.198c0 0 2.215-3.009 2.268-4.775l-.007-.747s.813-.211.751.47l-.056 1.29s-.054 1.51 2.066 3.174c0 0 .686.742.61-.21l-.077-.95s-.259-2.044-.977-2.98c0 0-.704-2.71.517-2.993 0 0 1.174 2.299 2.332 2.561 0 0 .885.263-.316-4.957 0 0-.147-1.356.26-1.428 0 0 .742-.483.959.942 0 0-.053 1.767 1.176 2.367 0 0 1.08-.62 1.06-2.93 0 0 .176-3.195 1.662-4.09 0 0 .677-.415.75.128 0 0 .087 2.242.624 1.49zm3.274-13.818s-3.804-7.643-11.215-8.46c0 0-.543.073.614.334 0 0 5.99 1.442 10.125 7.994 0 0 .347.812.476.132zm-3.474-1.124.89.875c.891.875.887.332.887.332l-2.126-2.223c-.404.41.349 1.016.349 1.016zm-13.99-7.145c-1.216.69-.262 1.02-.262 1.02l2.23-1.31c-.477-.2-1.967.29-1.967.29zm19.513 9.541s.585-3.061-.178-4.822c0 0-.277-.608-.606.618 0 0-.797 1.977.31 4.276 0 0 .28 1.017.474-.072zm-3.453-6.49c-.6 1.363.084 1.9.084 1.9a58.59 58.59 0 0 1 1.168 1.417c.885.264.249-2.583.249-2.583-.35-1.016-.429-2.306-.429-2.306-.21-.745-1.072 1.572-1.072 1.572zm-2.25-.932 1.028 1.146s.483.743.67-1.16c0 0 .72-3.132-.175-4.414 0 0-1.212 1.233-1.267 2.66 0 0 .01 1.155-.256 1.768zm-1.231-.94s1.82-1.579.505-4.352l-.695-1.692s-.55-.81-.744.347c0 0-.226 1.382-.25 2.515 0 0 .02 2.856 1.184 3.182zm-1.982-1.205s.582-3.402-1.873-4.467c0 0-.683-.402-.405.208 0 0 .483.878.421 1.558 0 0 .637 2.848 1.857 2.7zm-2.18-.864s.104-3.602-3.225-3.64c0 0-.27.206.007.815 0 0 .976 2.845 2.745 3.101 0 0 .418.112.473-.276zm-3.81-.714s-.76-1.283-2.455-.929c0 0-.27.206.004.476 0 0 .611.577 1.84.662 0 0 .786.056.61-.209z" fill="#008f33"/><path d="m101.974 110.536-.748.006c-.747.007-.674.482-.674.482l.007.882c.347.813.012 1.29.012 1.29l.012 1.427c.013 1.427.285 1.492.285 1.492l.618.674s.012-.012.754.741c.574.584.75.265.75.265.536-.684.25-2.312.25-2.312-.142-.746-.029-3.26-.029-3.26l-.007-.815c-.007-.815-.754-.808-.754-.808zm.537-.752s.778-.211.601-1.093l-.073-.61s-.093-2.853.039-3.33c0 0 .16-1.19-.69-1.216l-1.02.01s-.818-.333-.807.753c0 0-.029.68-.06 1.156 0 0-.196.75-.044 2.513 0 0-.12 1.768.56 1.762 0 0 1.086.024 1.494.055zm-1.98-11.145c-.13.495-.067 2.467-.067 2.467l-.062.748c-.06.749.413.54.413.54.406-.14.612.13.612.13 1.158.262 1.29-.215 1.29-.215.6-1.228.042-2.853.042-2.853-.143-.814-.083-1.766-.083-1.766s-.032.166.03-.374c.031-.272-.342-.336-.342-.336-.174.128-.442-.03-.442-.03-.273-.066-.612.005-.612.005-1.122-.16-.779 1.684-.779 1.684zm-.298-8.331.078 1.154c-.06.917-.112 2.718-.112 2.718-.051 1.902 1.104 1.892 1.104 1.892l.95-.009c.68-.005.524-2.246.524-2.246-.144-.881-.164-3.19-.164-3.19-.41-.337-2.38-.32-2.38-.32zm.216-6.32c-.817-.129-.471.547-.471.547s.013.12.04.68c.042.849.054 2.241.054 2.241-.224 2.476 1.446 2.229 1.446 2.229 1.29-.011 1.144-1.233 1.144-1.233-.215-1.289-.03-3.26-.03-3.26l.13-.816c-.344-.981-1.431-.463-1.431-.463zm.468-8.495c-.203.07-.748-.13-.748-.13-.306-.031-.264.954-.264.954l.037 4.21.082 1.562c.082 1.562 1.64.937 1.64.937.474-.072.737-1.025.737-1.025l-.12-5.84c.06-.953-1.364-.668-1.364-.668zm.277-7.136c-.475.038-.747.075-.747.075-.852-.332-.665 1.5-.665 1.5.139.475-.048 2.379-.048 2.379-.186 1.971.698 2.1.698 2.1.577-.04.816.127.816.127 1.09.263.944-.755.944-.755l-.036-4.212c.12-1.63-.962-1.214-.962-1.214zm.473-7.951a1.517 1.517 0 0 1-.816-.027c-.579-.267-.746.108-.746.108.097.918-.05 1.902-.05 1.902.149 1.562-.179 2.923-.179 2.923-.39 1.906.694 1.692.694 1.692l.238-.035.442.132c1.02.126.739-.993.739-.993-.216-1.424.093-4.89.093-4.89.222-.932-.415-.812-.415-.812zm12.152 7.025-.612-.198c-.815.007-.127 1.087-.127 1.087l.828 1.42 1.148-.825c-.341-.065-1.237-1.484-1.237-1.484zm-1.175 5.377c-.674.617.013 1.562.013 1.562l.413.472c.411.471 1.224.193 1.224.193.81-.551-.214-1.153-.214-1.153-.203.002-.89-.875-.89-.875zm.863-2.317c-.542.072-.055 1.426-.055 1.426l.549.675.547.403c.547.402.68.062.68.062-.07-.271.334-.615.334-.615.405-.41-.077-.882-.077-.882l-.958-.943c-.682-.333-1.02-.126-1.02-.126zm-2.518-.522s1.227.397 1.563-.014c0 0-.003-2.344-1.578-1.684-.398.166-.668 1.228.015 1.698zm.33 6.586.276.405c.274.406.483.948.483.948l.48.47c.614.335 1.015-.416 1.015-.416.801-1.569-1.652-2.498-1.652-2.498-1.226-.194-.602 1.091-.602 1.091zm-2.108-.32a.568.568 0 0 0 .276.676c-.265.614.622 1.15.622 1.15.885.196.877-.687.877-.687-.289-1.968-1.24-2.027-1.24-2.027-.34-.065-.535.887-.535.887zm-2.558-5.005c-.358 1.014.285 1.424.285 1.424l1.011-.892c.877-.55.6-1.364.6-1.364-.21-.609-.752-.4-.752-.4-1.082.485-1.144 1.232-1.144 1.232zm3.61 1.123c-.738 1.094.356 1.967.356 1.967.611-.005.671-1.025.671-1.025.018-.31.062-.612.062-.612.332-.885-.416-.947-.416-.947-.476-.132-.673.617-.673.617zm-3.24 2.203c.282 1.151 1.364.599 1.364.599.558-.195.4-.82.4-.82.945-.483.259-1.292.259-1.292-.325-.686-1.222.078-1.222.078-.606.414-.802 1.435-.802 1.435zm5.025-7.857c.607-.277-.006-.611-.006-.611-.543.14-.817-.333-.817-.333-.55-.538-.748.075-.748.075-.193 1.292 1.57.87 1.57.87zm-4.536 1.671c.006.679.947-.348.947-.348-.004-.408.468-.82.468-.82-.207-.337-.41-.268-.41-.268-1.079-.046-1.005 1.436-1.005 1.436zm2.118 1.61c.825-.057.376-1.832-.084-1.832-.461 0-1.145 1.919.084 1.833zm-.735 1.923c.14.418 1.608-.473 1.39-1.011-.218-.539-1.528.594-1.39 1.011z" fill="#ac5341"/></g></svg>