<svg xmlns="http://www.w3.org/2000/svg" width="600" height="300"><path fill="#7cf" d="M0 0h600v300H0z"/><path fill="#002b7f" d="M323.57 149.61H-.5v-33.238c12.007-1.837 23.064-6.463 27.69-13.845 10.17 0 19.389-11.089 29.527-23.064 1.87-3.707 4.626-4.626 9.252-.919 3.675 4.593 4.593.919 6.463-5.544.919-1.87 2.756-3.708 4.593-1.87 2.789 3.707 3.708.951 6.463-.919 4.626-.919 11.09-.919 15.715.919 2.756-1.838 7.382-1.838 11.975-1.838 3.708 1.838 7.382 1.838 11.09 0 1.837-.918 4.625-1.837 8.3-1.837 5.545-4.626 10.17-9.219 13.845-7.382 3.707.919 8.333 1.838 12.927 1.838 10.17 0 15.715-.92 18.471-1.838 1.837 4.626 2.756 4.626 3.674 0 .952-2.788.952-4.626 5.545-5.544 0-4.626 1.87-5.545 5.545-1.838 5.544 4.593 12.007 5.545 18.47 4.593 0 5.545.92 5.545 3.675 0 .919-5.511 4.626-3.674 10.17 4.626.919 1.838 1.837 3.708 1.837 5.545 20.31 32.316 41.535 44.291 63.68 51.705 3.708.919 7.415.919 11.09 3.674z"/><path d="M300 100v200h300V0z" fill="#fff"/><path fill="#0484d6" d="M300 0h300v100H300z"/><path fill="#f5362f" d="M0 200h600v100H0z"/></svg>