<?xml version="1.0" encoding="UTF-8" standalone="no"?>
<!-- Created with Inkscape (http://www.inkscape.org/) -->

<svg
   xmlns:dc="http://purl.org/dc/elements/1.1/"
   xmlns:cc="http://creativecommons.org/ns#"
   xmlns:rdf="http://www.w3.org/1999/02/22-rdf-syntax-ns#"
   xmlns:svg="http://www.w3.org/2000/svg"
   xmlns="http://www.w3.org/2000/svg"
   xmlns:sodipodi="http://sodipodi.sourceforge.net/DTD/sodipodi-0.dtd"
   xmlns:inkscape="http://www.inkscape.org/namespaces/inkscape"
   width="159.32658mm"
   height="85.570107mm"
   viewBox="0 0 564.54301 303.20116"
   id="svg2"
   version="1.1"
   inkscape:version="0.91 r13725"
   sodipodi:docname="tehakimaoriflag2.svg">
  <defs
     id="defs4" />
  <sodipodi:namedview
     id="base"
     pagecolor="#ffffff"
     bordercolor="#666666"
     borderopacity="1.0"
     inkscape:pageopacity="0.0"
     inkscape:pageshadow="2"
     inkscape:zoom="1"
     inkscape:cx="292.99502"
     inkscape:cy="120.30917"
     inkscape:document-units="px"
     inkscape:current-layer="g4190"
     showgrid="false"
     inkscape:window-width="1920"
     inkscape:window-height="1017"
     inkscape:window-x="-8"
     inkscape:window-y="-8"
     inkscape:window-maximized="1"
     fit-margin-top="0"
     fit-margin-left="0"
     fit-margin-right="0"
     fit-margin-bottom="0" />
  <metadata
     id="metadata7">
    <rdf:RDF>
      <cc:Work
         rdf:about="">
        <dc:format>image/svg+xml</dc:format>
        <dc:type
           rdf:resource="http://purl.org/dc/dcmitype/StillImage" />
        <dc:title></dc:title>
      </cc:Work>
    </rdf:RDF>
  </metadata>
  <g
     inkscape:groupmode="layer"
     id="g4190"
     inkscape:label="Layer 2 copy copy"
     style="display:inline"
     transform="translate(-243.9096,-220.44666)">
    <g
       id="g4250"
       transform="translate(24.392022,14.741579)">
      <rect
         style="display:inline;fill:#ffffff;fill-opacity:1;stroke:none;stroke-width:8.10000038;stroke-linecap:round;stroke-miterlimit:4;stroke-dasharray:none;stroke-opacity:1"
         id="rect4158-4"
         width="564.54248"
         height="303.20047"
         x="219.51768"
         y="205.70534" />
      <path
         sodipodi:nodetypes="cccscccccc"
         inkscape:connector-curvature="0"
         id="rect4167-6"
         d="m 219.51758,205.70508 0,48.4668 198.38476,0 c 0,-10e-6 80.91211,-0.28711 80.91211,54.40039 0,68.90919 -64.0039,67.85742 -64.0039,67.85742 l 349.25,0 0,-170.72461 z m 215.27734,170.72461 0.0156,0"
         style="display:inline;fill:#000000;fill-opacity:1;stroke:none;stroke-width:8.10000038;stroke-linecap:round;stroke-miterlimit:4;stroke-dasharray:none;stroke-opacity:1" />
      <path
         id="path4192-9"
         d="m 219.51761,303.51953 0,205.38672 58.62304,0 505.91993,0 0,-83.12695 -349.26563,0 c 0,0 -23.62844,-0.31485 -43.0332,-12.94922 -13.51741,-8.80114 -24.98633,-23.57734 -24.98633,-48.40235 0,-57.35023 51.125,-51.12695 51.125,-51.12695 0,0 40.45703,0.88827 40.45703,32.45313 0,29.78656 -23.5625,30.67578 -23.5625,30.67578 l 0.0156,0 c 0,0 28.4375,0.16894 28.4375,-36.67774 0,-35.88749 -45.34571,-36.23242 -45.34571,-36.23242 l -198.38476,0 z"
         style="display:inline;fill:#9c0000;fill-opacity:1;stroke:none;stroke-width:8.10000038;stroke-linecap:round;stroke-miterlimit:4;stroke-dasharray:none;stroke-opacity:1"
         inkscape:connector-curvature="0" />
    </g>
  </g>
</svg>
