<svg xmlns="http://www.w3.org/2000/svg" xmlns:xlink="http://www.w3.org/1999/xlink" width="1152" height="720"><defs><linearGradient id="a"><stop stop-color="#84be86" offset="0"/><stop stop-color="#328c4e" offset="1"/></linearGradient></defs><path fill="#f4e109" d="M0 0v720h1152V0z"/><path fill="#da251c" d="M596.99 620 1152 676.187V41.907H42v634.28"/><g fill="#29166f"><path d="M597 359.06V41.9H319.31zM597 359.06 1152 41.9H873.97z"/><path d="M1152 200.47v158.59H42v158.56z"/><path d="M1152 676.14V517.63L42 200.47V41.91z"/></g><path fill="#f4e109" d="m392.87 329.97 102.05 17.726a104.382 104.382 0 0 0-.632 11.355c0 3.868.225 7.685.64 11.441l-102.04 17.813 102.92-11.563a102.64 102.64 0 0 0 5.344 19.374l-94.205 43.224 96.647-37.403a103.254 103.254 0 0 0 4.14 8.123l178.54.001a103.943 103.943 0 0 0 4.14-8.123l96.646 37.403-94.206-43.224a102.567 102.567 0 0 0 5.345-19.374l102.92 11.563-102.04-17.813c.414-3.757.641-7.573.641-11.441 0-3.839-.227-7.623-.632-11.355l102.05-17.726-102.94 11.476a102.593 102.593 0 0 0-5.321-19.419l94.22-43.177-96.657 37.357a103.365 103.365 0 0 0-11.879-19.849l78.264-68.147-82.245 63.261c-10.31-11.931-23.281-21.47-38.01-27.65l33.979-98.248-39.859 96.01a102.09 102.09 0 0 0-33.686-5.707 102.083 102.083 0 0 0-33.684 5.707l-39.86-96.01 33.98 98.248c-14.729 6.181-27.701 15.719-38.01 27.65l-82.246-63.261 78.266 68.147a103.238 103.238 0 0 0-11.878 19.849l-96.659-37.357 94.22 43.177a102.668 102.668 0 0 0-5.321 19.419z"/><path fill="#fff" d="M596.99 359.05 1152 676.19H42l554.99-317.14z"/><g fill="#da251c" stroke="#000" stroke-width=".476"><path fill="#f1c700" d="M629.96 593.89c0 18.271-14.811 33.082-33.081 33.082-18.268 0-33.082-14.812-33.082-33.082 0-18.269 14.814-33.079 33.082-33.079 18.27 0 33.081 14.81 33.081 33.079z"/><path d="M624.99 593.89c0 15.526-12.586 28.112-28.112 28.112s-28.112-12.586-28.112-28.112 12.586-28.112 28.112-28.112 28.112 12.586 28.112 28.112z"/><path fill="#e87817" d="M620.54 593.89c0 13.069-10.594 23.663-23.663 23.663s-23.663-10.594-23.663-23.663 10.594-23.663 23.663-23.663 23.663 10.594 23.663 23.663z"/><path fill="#29166f" d="M620.54 593.9c0 13.065-10.594 23.661-23.663 23.661s-23.702-10.596-23.702-23.661c0-6.541 5.301-11.858 11.848-11.858 6.552 0 11.836 5.317 11.836 11.858 0 6.542 5.296 11.849 11.85 11.849 6.542-.001 11.831-5.307 11.831-11.849z"/><path fill="#e87817" d="M588.41 593.89c0 1.868-1.509 3.382-3.38 3.382s-3.382-1.514-3.382-3.382a3.382 3.382 0 1 1 6.762 0z"/><path fill="#29166f" d="M612.11 593.89a3.382 3.382 0 1 1-3.38-3.384 3.38 3.38 0 0 1 3.38 3.384z"/><path d="M596.87 556.27a2.505 2.505 0 0 1 0-5.007 2.503 2.503 0 0 1 2.502 2.507c0 1.382-1.118 2.5-2.502 2.5z"/><path d="M596.81 558.2a2.501 2.501 0 1 1-5.003 0 2.502 2.502 0 1 1 5.003 0zM601.94 558.2a2.504 2.504 0 1 1-5.004.004 2.504 2.504 0 0 1 5.004-.004zM596.87 631.52a2.507 2.507 0 0 1 2.506 2.5 2.506 2.506 0 0 1-2.506 2.502 2.498 2.498 0 0 1-2.5-2.502c0-1.38 1.116-2.5 2.5-2.5z"/><path d="M596.94 629.58a2.503 2.503 0 1 1 5.006.006 2.503 2.503 0 0 1-5.006-.006zM591.81 629.58a2.503 2.503 0 1 1 5.005.005 2.503 2.503 0 0 1-5.005-.005zM639.5 593.89a2.501 2.501 0 1 1-5.002 0 2.501 2.501 0 0 1 5.002 0z"/><path d="M635.07 596.46a2.503 2.503 0 1 1-5.006 0 2.503 2.503 0 0 1 5.006 0z"/><path d="M632.57 588.83a2.502 2.502 0 1 0 0 5.004 2.502 2.502 0 0 0 0-5.004zM559.25 593.89a2.502 2.502 0 0 0-2.5-2.504 2.504 2.504 0 0 0-2.501 2.504c0 1.383 1.117 2.5 2.501 2.5 1.385 0 2.5-1.118 2.5-2.5z"/><path d="M563.68 591.33a2.503 2.503 0 1 1-5.006 0 2.503 2.503 0 0 1 5.006 0z"/><path d="M563.68 596.45a2.502 2.502 0 1 1-5.004 0 2.502 2.502 0 0 1 5.004 0z"/></g><g stroke-width=".476"><g fill="#e0609b" stroke="#000"><path fill="#e87817" d="M600.33 516.36a3.322 3.322 0 0 1-3.325 3.326 3.322 3.322 0 0 1-3.326-3.326 3.322 3.322 0 0 1 3.326-3.324 3.322 3.322 0 0 1 3.325 3.324z"/><path fill="#e12211" d="M622.04 486.76c-1.398 5.898-12.077 10.491-25.054 10.491-13.008 0-23.717-4.616-25.07-10.542-4.437 2.376-7.1 5.4-7.1 8.691 0 7.66 14.382 13.867 32.124 13.867 17.74 0 32.118-6.207 32.118-13.867 0-3.268-2.629-6.274-7.018-8.64z"/><path d="M597.44 497.25c-2.56 0-5.03-.179-7.36-.514-.354.997-2.361 8.101 7.313 12.53 7.429-2.847 7.275-10.72 6.511-12.41a52.974 52.974 0 0 1-6.464.394zM571.8 485.93c-1.184.502-7.366 2.488-5.974 13.064 9.224 2.535 10.25-5.694 10.28-6.938-2.553-1.761-4.104-3.864-4.306-6.126z"/><path d="M588.87 496.54c.079 1.021.6 9.042-9.55 10.257-7.443-6.215-2.961-13.113-1.307-13.851 2.84 1.615 6.58 2.866 10.857 3.594zM617.82 492.06c.027 1.243 1.056 9.473 10.279 6.938 1.392-10.576-4.792-12.563-5.976-13.064-.198 2.261-1.752 4.364-4.303 6.126z"/><path d="M615.91 492.95c1.654.737 6.138 7.636-1.308 13.851-10.149-1.215-9.625-9.235-9.55-10.257 4.278-.728 8.019-1.979 10.858-3.594z"/><path fill="#f1c700" d="M627.78 491.52c.831 1.236 1.284 2.536 1.284 3.881 0 7.66-14.378 13.867-32.118 13.867-17.741 0-32.124-6.207-32.124-13.867 0-1.237.381-2.438 1.089-3.585-3.936 2.409-6.231 5.296-6.231 8.405 0 8.402 16.749 15.207 37.411 15.207 20.669 0 37.421-6.805 37.421-15.207.001-3.238-2.495-6.233-6.732-8.701z"/></g><g fill="#fff"><path d="M597.12 504.23c-1.458-2.815-.844-5.285-.803-6.996.16.004.317.005.478.005-.06.894-.052 3.593.325 6.991zM572.84 488.82c-.661.648-2.937 3.078-4.184 6.476 2.1-2.619 4.031-5.024 4.688-5.757a9.749 9.749 0 0 1-.504-.719zM582.4 494.9c-.296.59-1.664 3.014-1.664 6.553 1.033-3.603 2.047-5.626 2.423-6.3-.261-.084-.511-.164-.759-.253zM620.59 489.54c.657.732 2.588 3.138 4.688 5.757-1.247-3.397-3.522-5.827-4.184-6.476a9.456 9.456 0 0 1-.504.719zM610.77 495.16c.373.674 1.387 2.697 2.419 6.3 0-3.539-1.367-5.963-1.664-6.553-.247.089-.496.169-.755.253z"/></g><g stroke="#000"><path fill="#e12211" stroke-linejoin="round" stroke-linecap="round" d="M576.26 461.85s-2.332-2.805-5.756-4.99c-3.421-2.194-5.785-.894-9.277-1.612-3.316-.688-10.426-2.966-8.386-15.539 2.053 11.032 7.61 7.926 8.077 6.467.581-1.814-.708-4.537-2.603-5.753-2.393-1.538-6.708-5.063-6.708-10.131 0-1.56.377-3.218.901-4.756.566-1.675 3.003-3.86 2.557-6.782 1.879 4.552-2.285 4.675 2.022 11.125 1.16 1.736 2.86.363 3.148-.958.442-2.052-.822-4.79-1.779-6.984-.962-2.188-1.82-5.789-.962-8.896 1.235-4.453 3.868-5.447 4.794-8.768.561-2.009-2.656-6.852 2.054-10.679-2.584 5.996.959 7.939 1.779 9.723.822 1.78-.417 5.209-.547 6.435-.171 1.612 2.178 2.282 3.695 1.265 1.955-1.3 1.678-5.234 1.819-7.422.136-2.197 1.985-3.532 4.311-4.627 2.329-1.094 6.149-5.379 3.219-11.946 7.264 5.734 5.718 11.09 5.029 13.282-.683 2.191-2.052 6.301-1.771 9.035.27 2.742 2.184 2.602 2.868 1.508.688-1.095-.373-4.674-.138-6.573.4-3.227 5.537-3.862 5.804-6.267.222-2.001-4.978-6.153-4.694-9.609.445-5.436 4.978-3.62 3.275-9.52 3.697 3.697 1.232 6.499.959 7.867-.273 1.371.055 3.479 1.78 3.291 1.233-.141 2.381-1.729 3.149-4.795 2.085-8.319-4.873-6.527-4.146-12.84 2.566 4.148 5.99 1.523 9.867 7.603 1.874 2.938.988 5.373.579 7.425-.411 2.058 1.371 4.114 2.603 2.195 2.794-4.354-1.274-5.243 1.916-10.888-1.149 8.436 3.851 5.978 3.147 14.858-.291 3.675-4.79 6.982-5.206 10-.347 2.572.449 5.575 1.406 6.533 1.584 1.586 3.188 1.326 3.699-.549.407-1.503-.413-3.114-.962-4.759-.621-1.868.601-3.651 2.979-4.243 1.821-.453 3.977-3.488 3.56-6.16-.426-2.792-4.774-4.581-.408-11.643-2.45 7.937 4.134 6.937 4.962 12.396.353 2.322-.43 3.844-.648 5.063-.282 1.556 4.211 3.806 2.811-2.258 4.718 3.862 5.063 8.629 4.517 10.407-.551 1.78-2.056 3.968-1.098 5.886s3.249 2.671 4.52.822c1.059-1.541 1.366-3.745.582-6.299-.844-2.749-4.469-3.581-.513-9.793 0 6.212 4.919 8.503 5.714 11.504.393 1.481-.442 3.219.242 4.176.685.962 4.938.58 1.645-6.843 5.86 4.789 2.737 10.437.82 11.948-1.914 1.506-5.339 5.441-5.339 8.867 0 3.422 3.704 6.521 4.929 3.559 1.353-3.271-1.383-6.007 1.507-10.547-.765 4.582.693 9.567 2.872 9.859 1.819.244 2.356-2.655 2.982-4.622 1.839 5.22-2.16 7.878-2.982 9.109-.822 1.229-1.197 4.484-2.738 5.342-1.29.713-4.38 1.406-6.296 2.769-1.916 1.368-4.174 4.275-.683 4.799 3.212.479 5.377-.508 7.391-5.48 2.98 9.223-5.41 12.905-9.586 13.423-3.398.415-9.174.544-10.818 1.776-1.643 1.231-1.643 3.214-1.643 3.214s-2.602 4.729-7.805 5.824c-5.201 1.097-19.718 1.917-23.962.273s-7.4-3.84-9.036-6.097zm66.648-45.118c-5.9 5.665-.803 12.679.446 8.628 1.39-4.507-2.096-3.241-.446-8.628zm-16.259 21.773c-1.02 1.02-.98 2.195-.445 2.808.445.512 1.472.037 2.156-.475.687-.517 1.664-1.645 1.715-3.082.09-2.557-2.178-2.633-2.433-5.856-1.2 2.4 2.089 3.523-.993 6.605zm-5.342-23.107c-1.089 3.51 1.18 4.697 1.493 6.006.308 1.287-.256 1.855.151 2.93.411 1.075 1.594 2.105 2.26.769.75-1.494.432-2.606-.099-3.952-.686-1.743-3.805-1.993-3.805-5.753zm-6.11-12.98c1.332 2.896.14 3.552.716 6.829.206 1.17 1.912 3.409 2.519 1.591.512-1.535.41-3.078-.617-4.105-2.288-2.287-.356-2.552-2.618-4.315zm-6.574 11.655c4.591 5.847-.048 11.04-1.026 11.864-.977.821-1.542 1.692-1.797 2.513-.255.826-.052 2.363 1.384 2.004 1.439-.361 2.673-1.848 3.339-3.081.668-1.229 1.598-4.002 1.696-6.265.15-3.439-1.505-6.773-3.596-7.035zm-6.832-1.077c-1.868 2.38.052 3.88-.203 5.494-.149.946-.924 1.438-.768 2.206.15.773 1.229 1.593 1.949.976.716-.614 1.334-2.668.82-3.539-.511-.875-2.979-2.11-1.798-5.137zm-10.214-6.161c-4.343 5.054-1.492 10.216-.927 10.889.566.664 2.617.929 2.72-.98.208-3.886-3.511-3.886-1.793-9.909zm-5.958 9.653c-2.987 8.139.14 8.804.716 8.42.772-.511 1.334-1.54.979-2.258-.361-.72-2.432-.107-1.695-6.162zm-6.676-3.597c.979 4.318-1.437 4.527-2.058 9.865-.236 2.036.67 4.361 1.079 5.182.409.826 1.596 1.42 2.314.46.77-1.025.973-2.206.408-3.337-.463-.928-2.241-1.436-2.211-3.542.033-2.143 2.449-6.185.468-8.628zm-10.94.363c-2.247 4.872 2.253 5.163 2.93 6.979.414 1.11 1.229 2.056 1.897.98.67-1.079.413-3.081-.465-3.906-.871-.819-4.362-1.265-4.362-4.053zm-4.108 8.473c-1.598 2.482 1.319 3.732.512 6.723-.445 1.646-.615 2.771-.308 3.393.308.615 1.695.924 2.313-.258.615-1.178.702-2.16.511-3.135-.357-1.824-3.028-3.174-3.028-6.723zm11.4-17.44c-.453.623-.874 2.411-.566 3.54.311 1.131 1.802.835 2.107.257.463-.871-.183-1.63-.053-2.613.253-1.906 2.894-1.781 2.208-5.139-.553 3.096-3.03 3.029-3.696 3.955zm18.637-2.621c-.215 2.016.618 5.6 1.899 6.776 1.285 1.182 2.946-.305 3.028-1.744.104-1.831-1.932-2.553-2.253-4.616-.617-3.965 4.399-5.675.409-10.788 1.866 5.655-2.465 4.573-3.083 10.372z"/><path fill="#f1c700" d="M615.28 477.31c1.009 1.263 1.566 2.65 1.566 4.11 0 5.835-8.932 10.569-19.953 10.569-11.018 0-19.952-4.734-19.952-10.569 0-1.4.521-2.734 1.455-3.958-4.11 2.104-6.614 4.901-6.614 7.977 0 6.521 11.282 11.808 25.208 11.808 13.924 0 25.213-5.286 25.213-11.808 0-3.154-2.634-6.012-6.923-8.129z"/><path fill="#e12211" d="M615.59 477.73c-.229.014-.333.168-.563-.064-.336-.343-1.774-5.841-2.258-7.72-3.385 1.708-9.229 2.841-15.875 2.841-6.458 0-12.236-1.075-15.655-2.727-.51 1.98-1.901 7.273-2.233 7.605-.296.305-.373-.063-.834.111-.788 1.137-1.228 2.361-1.228 3.644 0 5.835 8.935 10.569 19.952 10.569 11.021 0 19.953-4.734 19.953-10.569 0-1.299-.451-2.542-1.259-3.69z"/><path fill="#e87817" d="M579.67 467.35c1.768 4.648-2.587 10.577-1.52 13.252 1.063 2.667 3.491 4.079 5.861 4.878 5.991 2.019 7.075-3.606 8.075-14.169-3.69 0-9.599-1.144-12.416-3.961z"/><path fill="#29166f" d="M614.32 467.35c-1.768 4.648 2.587 10.577 1.52 13.252-1.063 2.667-3.491 4.079-5.861 4.878-5.991 2.019-7.075-3.606-8.075-14.169 3.691 0 9.599-1.144 12.416-3.961z"/><path fill="#fff" d="M602.32 471.78c.75 2.538 2.585 11.549 1.657 13.4-1.125 2.239-4.041 3.375-6.981 3.406s-5.856-1.167-6.981-3.406c-.928-1.852.907-10.862 1.657-13.4h10.648z"/><path fill="#e87817" d="M579.97 432c-5.032-3.902-7.604-3.569-7.604-3.569s-2.019 1.635-2.66 7.97c-.405 4.006-.633 10.451 2.174 16.628 2.774 6.112 7.654 12.183 9.485 14.039 1.834 1.854 3.345 3.692 3.345 3.692l10.187-4.366s-.293-2.36-.374-4.969c-.077-2.607-1.494-10.163-4.002-16.389-2.543-6.29-7.373-10.568-10.551-13.036z"/><path fill="#29166f" d="M613.86 432c5.032-3.902 7.604-3.569 7.604-3.569s2.02 1.635 2.66 7.97c.406 4.006.633 10.451-2.173 16.628-2.774 6.112-7.654 12.183-9.485 14.039-1.834 1.854-3.345 3.692-3.345 3.692l-10.187-4.366s.293-2.36.374-4.969c.077-2.607 1.494-10.163 4.002-16.389 2.542-6.29 7.372-10.568 10.55-13.036z"/><path fill="#fff" d="M602.57 430.27c-3.088-5.569-5.582-6.276-5.582-6.276s-2.5.707-5.586 6.276c-1.951 3.521-4.7 9.355-4.556 16.139.142 6.711 2.234 14.213 3.185 16.641a61.03 61.03 0 0 1 1.62 4.713h11.083s.66-2.285 1.614-4.713c.956-2.428 2.632-9.93 2.779-16.641.143-6.783-2.609-12.617-4.557-16.139z"/><path fill="#f4e109" d="M596.59 470.93c-9.241 0-17.013-2.043-19.26-4.805a1.82 1.82 0 0 0-.047.404c0 3.451 8.643 6.256 19.307 6.256 10.662 0 19.308-2.805 19.308-6.256 0-.139-.019-.271-.048-.404-2.251 2.762-10.023 4.805-19.26 4.805z"/><path fill="#e87817" d="M596.59 468.84c-9.572 0-17.604-2.131-19.827-5.008-.063.21-.099.432-.099.646 0 3.564 8.917 6.457 19.926 6.457 11.001 0 19.924-2.893 19.924-6.457 0-.215-.036-.437-.099-.646-2.226 2.877-10.255 5.008-19.825 5.008z"/><path fill="#f4e109" d="M596.59 466.98c-9.833 0-18.088-2.182-20.402-5.132a2.198 2.198 0 0 0-.037.369c0 3.654 9.148 6.62 20.439 6.62 11.283 0 20.435-2.966 20.435-6.62a2.3 2.3 0 0 0-.033-.369c-2.314 2.95-10.573 5.132-20.402 5.132z"/></g><path d="M577.27 430.13c.364.851-.835 2.477-2.762 3.303s-3.931.573-4.296-.277l-.109.557c.364.851 2.463 1.506 4.75.524 2.288-.98 3.261-2.951 2.896-3.803l-.479-.304zM581.32 433.08c.569 1.327-1.313 4.192-4.564 5.585-3.25 1.395-6.623.784-7.192-.545l-.042.734c.568 1.328 4.137 2.432 7.703.902 3.565-1.528 5.226-4.873 4.656-6.202l-.561-.474z"/><path d="M584.63 436.13c.718 1.674-1.6 5.621-5.78 7.415-4.183 1.793-8.64.749-9.357-.924l.065.862c.718 1.674 5.294 3.135 9.784 1.21 4.489-1.925 6.586-6.248 5.867-7.921l-.579-.642zM586.84 446.47c-1.25 1.38-3.02 2.7-5.18 3.62-5.01 2.15-10.19 1.29-11.04-.68l.16.68c.85 1.98 6.07 3.49 11.38 1.22 1.98-.85 3.6-2.09 4.78-3.37-.03-.5-.09-.98-.1-1.47zM616.56 430.13c-.364.851.834 2.477 2.762 3.303 1.927.826 3.931.573 4.295-.277l.11.557c-.364.851-2.463 1.506-4.751.524-2.287-.98-3.26-2.951-2.895-3.803l.479-.304zM612.52 433.08c-.569 1.327 1.313 4.192 4.563 5.585 3.251 1.395 6.623.784 7.193-.545l.041.734c-.568 1.328-4.137 2.432-7.702.902-3.565-1.528-5.226-4.873-4.656-6.202l.561-.474z"/><path d="M609.21 436.13c-.718 1.674 1.6 5.621 5.78 7.415 4.182 1.793 8.64.749 9.357-.924l-.066.862c-.717 1.674-5.293 3.135-9.783 1.21-4.489-1.925-6.586-6.248-5.867-7.921l.579-.642zM607.12 446.59c-.01.5-.06 1-.09 1.5 1.17 1.24 2.71 2.4 4.63 3.22 5.3 2.27 10.56.76 11.4-1.22l.16-.68c-.85 1.97-6.02 2.83-11.03.68-2.09-.89-3.82-2.17-5.07-3.5zM600.83 427.49c0 .926-1.742 1.948-3.839 1.948s-3.839-1.022-3.839-1.948l-.32.469c0 .926 1.67 2.354 4.159 2.354s4.159-1.429 4.159-2.354l-.32-.469zM603.39 431.79c0 1.445-2.858 3.336-6.396 3.336s-6.396-1.891-6.396-3.336l-.328.658c0 1.445 2.844 3.865 6.724 3.865s6.724-2.42 6.724-3.865l-.328-.658z"/><path d="M605.23 435.9c0 1.821-3.686 4.536-8.235 4.536s-8.235-2.715-8.235-4.536l-.279.818c0 1.821 3.63 4.968 8.515 4.968s8.515-3.146 8.515-4.968l-.29-.82zM607 443.28c0 2.152-4.238 5.593-10.007 5.593s-10.007-3.44-10.007-5.593l.143-.714c0 2.152 4.412 4.994 9.864 4.994s9.864-2.842 9.864-4.994l.16.71z"/></g><g id="b" stroke="#000" stroke-width=".476" stroke-linejoin="round" stroke-linecap="round"><path fill="#f4e109" d="M578.1 509.26c6.627 6.627-.549 11.553-4.858 8.988.618-1.141 1.062-3.734 1.062-3.734s4.872.986 3.796-5.254z"/><g fill="#fff" stroke-width="1.429"><path d="M445.45 607.5s-4.234 8.459-7.507 10.099c-.995.498-1.821.36-1.821.36s4.128 3.283 6.071 4.015c1.943.726 5.344 2.427 6.436 2.061 1.095-.362 4.86-2.188 7.652-3.037 2.795-.849 4.738-.728 5.952.122 1.216.854 3.28 3.768 2.552 4.982-.729 1.213-2.309 2.064-2.309 2.064s.242 1.094-.608 2.063c-.849.972-2.914 1.334-2.914 1.334l-.972 2.554c-.484 1.335-2.064 1.455-2.064 1.455s-.122 3.16-1.215 4.735c-1.093 1.583-2.793 1.945-4.857 1.703-2.065-.242-5.345-1.818-6.316-1.942-.971-.121-2.672-1.094-3.157-2.309-.488-1.214-2.065-2.915-3.766-4.009-1.701-1.092-11.173-5.1-14.453-5.584-3.279-.489-13.117-3.158-13.117-3.158s8.381-6.803 9.109-12.756c.729-5.948 2.309-9.105 9.717-7.404 7.406 1.7 17.587 2.652 17.587 2.652zM513.73 538.17s2.722-2.971 6.152-4.2c6.747-2.421 9.257-.081 9.257-.081s.136-2.521 5.48-4.223c5.344-1.703 8.259-.727 8.259-.727s.972-3.403 3.888-4.617c2.914-1.215 5.829-1.945 6.315-3.885.484-1.943-.73-5.83.241-8.018.973-2.188 3.771-4.163 6.406-2.825 2.277 1.155 2.127-.121 3.826.362 1.699.49 2.458 1.367 2.458 1.367s1.398-1.182 3.828-.451c2.427.725 3.399 1.547 3.399 1.547s2.429 1.457 2.188 3.156c-.246 1.704-.974 4.132-3.887 4.617-2.915.485-5.584-.243-7.53.727-1.942.976-4.372 4.616-5.102 6.56-.728 1.945-5.828 15.304-13.115 20.647-7.288 5.342-18.219 16.518-21.133 17.245-2.916.731-7.287 1.7-7.287 1.7s1.214-16.518-.729-21.375c-1.944-4.855-2.914-7.526-2.914-7.526z"/></g><g fill="url(#a)" stroke-width=".667"><path d="M375.46 542.44s6.964-6.071 13.295 1.129c6.426 7.311 2.914 15.123-.366 18.218-3.278 3.098-7.604 6.334-13.298 5.285 1.856-2.311 1.032-3.699.785-4.513-.547-1.786 1.408-1.575 3.362-4.122 1.434-1.861 2.518-5.51 1.625-8.188-1.856-5.57-5.403-7.809-5.403-7.809z"/><path d="M302.22 567.26c5.333-4.255 8.208 3.433 15.121.731 3.417-1.335 6.922-8.2 11.295-8.932 4.373-.727 9.525 2.734 12.752.551 5.647-3.826.911-13.302 13.117-18.765 8.628-3.862 18.4-3.101 22.956 1.639 4.554 4.733 5.647 11.476 4.19 14.211-1.458 2.731-5.466 6.011-5.466 6.011l-6.377 1.092s-2.186-4.738-6.739-5.465c-4.554-.729-6.922 2.369-9.109 5.83-2.62 4.148-9.11 9.475-19.312 7.469-3.77-.739-7.834 4.918-17.672 2.187-4.889-1.357-7.986-6.626-14.756-6.559z"/><path d="M307.31 581.61c4.309-3.92 8.75.238 10.765.221 3.659-.029 6.921-2.55 8.015-5.827 1.092-3.281 4.19-6.194 8.015-6.558 3.826-.367 10.02.543 12.752-3.101 2.734-3.642 7.652-14.209 14.028-15.485 6.377-1.272 9.11.729 9.838 3.826.729 3.1-.912 9.84-.912 9.84l-2.549 5.463-8.564 2.918s-.18 4.371-4.007 5.827c-3.825 1.46-12.752-.543-17.854.729-5.1 1.275-4.653 3.521-11.295 4.737-11.548 2.116-12.173-5.009-18.232-2.59z"/><path d="M303.13 600.59c5.109-6.156 10.974 2.27 17.296-1.594 3.454-2.11 4.564-10.246 8.754-11.705 4.191-1.457 9.473 1.277 12.388-2.55 2.915-3.826.547-9.841 6.558-12.572 6.014-2.729 10.932-.728 10.932-.728s5.283-1.821 8.199-1.459c2.914.365 9.656 4.012 9.656 4.012s1.456 8.377-4.01 13.297c-5.465 4.921-10.565 7.471-15.303 5.83-3.05-1.055-4.917-1.641-7.285 0-2.37 1.641-2.37 4.373-6.924 4.373s-8.198-2.914-10.93-1.094c-2.733 1.819-4.158 5.658-8.928 6.377-12.231 1.844-13.419-5.218-20.403-2.187zM411.96 622.09s-3.158 2.917-5.102 3.767c-1.944.851-6.804 2.913-6.804 2.913s4.374.489 4.982 1.823c.606 1.338-1.104 4.906-5.83 2.308 1.976 4.849 9.664 2.724 11.779 1.823 1.767-.752 4.858-1.336 5.588-.364.728.971-.266 4.265-5.344 3.033 8.016 4.294 11.66-.729 14.089-2.185 2.43-1.459 4.615-2.551 5.345-1.459.729 1.094 1.207 4.313-4.617 4.373 4.886 1.564 8.016-.485 9.596-2.064 1.577-1.577 2.269-2.009 3.728-2.496 1.457-.486 6.594-2.361 7.444-5.032.852-2.673.729-4.616-.485-6.194-1.215-1.58-2.672-1.945-3.644-1.824-.972.123-1.578.73-1.578 1.462 0 .726.848 3.034-1.579 3.884-2.429.851-4.98 1.7-7.41.973-2.429-.729-5.586-1.46-7.894-1.336-2.307.12-3.886 1.821-5.83.849-1.941-.975-6.434-4.254-6.434-4.254zM547.98 521.16c1.943-1.212 4.13-2.668 7.044-.483 2.916 2.187 5.155 6.253 8.258 8.987 7.825 6.896 5.394 11.146 1.7 16.516 2.193-9.182-4.856-11.494-4.126-7.041.563 3.434 3.069 5.672-1.946 15.06.391-3.2.244-5.831-.484-7.531-.729-1.698-2.672-1.942-2.672.245 0 2.182 3.234 10.336-6.073 17.971 7.12-10.635-.428-14.188-1.944-9.957-2.623 7.322-.748 14.635-11.173 16.03 8.362-6.896 4.658-12.913 1.215-9.47-4.158 4.158-1.54 11.074-9.961 16.03 4.636-7.661-.893-7.363-3.155-6.073-1.702.971-8.504 5.341-8.504 5.341s.972-4.37 1.217-8.256c.24-3.886 1.456-4.614 1.456-4.614s6.315-.728 8.258-4.617c1.944-3.887 3.158-9.231 7.531-11.172 4.372-1.945 12.631-3.645 14.817-7.771 2.186-4.13 1.701-6.076-.242-8.988-1.944-2.919-4.131-4.854-3.888-6.559.243-1.703 1.186-2.718 2.672-3.648z"/><path d="M543.61 529.36c-2.599-2.209-8.987.305-8.987.305s4.978-1.125 6.618 1.246c.909 1.307.092 2.912-.273 2.912 0 0-.001.004-.003.004a3.423 3.423 0 0 0-2.213-.822 3.46 3.46 0 0 0-3.46 3.461c0 1.864 1.467 3.346 3.295 3.593 2.319.313 4.523-.357 5.842-1.771 2.023-2.171 2.825-5.83-.819-8.928zM527.3 533.01c-2.945-.79-8.198 1.273-8.198 1.273s5.968-.32 7.378 1.457c1.167 1.472.584 2.716.376 3.006a3.947 3.947 0 0 0-5.66 3.556 3.948 3.948 0 0 0 3.948 3.947c.183 0 1.249-.166 1.609-.344.58-.287 1.353-.709 1.829-1.141 1.935-1.756 2.5-3.363 2.726-6.291.14-1.814-1.063-4.67-4.008-5.463zM442.89 610.35s-.639 3.826-5.102 5.559c-2.21.857-4.357.055-5.591-.609a4.401 4.401 0 0 0 1.127-2.945 4.431 4.431 0 0 0-8.821-.617c-.093.667-.15 1.32.017 2.058.495 2.16 2.297 4.455 5.524 5.301 3.826 1 8.157-.08 10.475-2.825 2.46-2.917 2.371-5.922 2.371-5.922zM502.07 460.92c19.043-1.048 17.543 12.202 9.716 15.062 0 0-3.765-.242-8.016.123-4.801.409-5.969-5.17-.094-5.92 5.737-.733 9.562-5.813-1.606-9.265z"/><path d="M437.46 479.14c7.594-9.643 15.844.732 22.349-3.158 3.758-2.248 7.529-7.775 13.36-7.047 5.83.729 9.23 1.943 12.145.242 2.914-1.697 7.775-6.557 14.333-4.613 3.462 1.029 4.989 3.785 5.28 5.225.417 2.055.306 6.435.306 6.435l-10.201 1.7c-3.888 1.701-7.774 4.375-7.774 4.375s-4.129-5.831-7.773-6.075c-3.644-.241-9.472.244-12.146 2.429-2.672 2.188-6.779 6.01-11.174 4.616-4.798-1.522-8.798-8.334-18.705-4.129z"/><path d="M428.23 491.77c11.636-9.71 11.386 3.228 21.761-6.71 4.08-3.907 8.063-1.188 13.46-4.463 5.13-3.113 9.715-9.23 16.031-7.287 6.316 1.939 9.961 7.529 9.961 7.529s-8.017 5.586-9.717 8.984c-1.701 3.402-10.033-1.645-14.575-1.214-5.101.489-7.685 3.819-12.389 6.075-14.333 6.877-13.583-5.686-24.532-2.914z"/><path d="M415.36 520.92c9.572 5.393 15.879 2.891 17.973 0 2.939-4.056 3.144-9.014 7.287-10.928 4.055-1.873 8.56.189 10.689-2.432 3.157-3.885-.703-16.087 6.072-20.648 12.631-8.5 24.29.488 24.29.488s-5.708 5.828-6.558 13.848c-.718 6.766 2.187 10.442 2.187 10.442s-3.479 6.896-13.118 5.59c-11.751-1.593-13.053-.324-18.751 4.907-6.874 6.313-20.595 9.499-30.071-1.267z"/><path d="M405.88 539.38c8.234-5.445 10.359 1.742 19.433 1.214 4.143-.241 7.289-2.185 9.959-6.798 2.672-4.617 4.616-7.047 9.959-7.286 5.344-.245 9.716-.977 11.902-4.378 2.187-3.398-1.699-12.875 3.887-19.187 5.588-6.317 14.333-4.376 14.333-4.376s-1.194 5.555.122 9.594c1.7 5.223 4.493 5.469 4.493 5.469s-5.068 2.232-6.314 8.621c-.96 4.917.97 9.355.97 9.355s-6.316 6.559-16.76 5.102c-10.445-1.458-11.417-1.945-15.061.728-3.644 2.671-6.719 6.966-15.059 7.286-12.005.461-11.505-7.977-21.864-5.344z"/></g><g stroke-width="1.429" fill="#fff"><path d="M387.91 572.9c-9.666 7.408-12.791 1.471-20.041-1.459-1.994-.806-5.344-.242-5.344-.242l-1.699-3.888s-.85-2.671.606-3.886c1.458-1.217 5.952-.85 6.802.363.851 1.217 3.399 5.104 4.857 6.014 1.458.906 4.858 1.883 7.409 1.032 2.55-.853 8.017-5.222 13.846-9.351 5.83-4.131 10.808-6.317 16.031-6.196 5.223.12 9.961 2.184 13.967 2.429 4.01.246 8.988-1.822 12.997-4.127 4.007-2.311 15.008-4.386 24.776-12.025 3.811-2.98 12.631-12.995 14.938-15.787 2.309-2.798 12.631 1.943 14.576 3.4 1.944 1.458 10.444.484 10.444.484s4.979-2.063 6.679-2.309c1.701-.242 2.186.729 2.186.729s6.195 8.627 8.138 15.428c1.946 6.797 1.946 21.252 1.095 26.473-.851 5.227-1.823 14.456-8.624 18.828-6.803 4.371-28.056 14.087-38.986 16.517-10.932 2.429-17.611 6.317-22.592 6.071-4.98-.24-16.762-3.396-21.01-3.884-4.25-.487-8.501-.606-8.501-.606s-.487 6.68-2.309 10.808c-1.822 4.127-8.859 10.615-14.204 12.071-5.342 1.459-13.245 2.016-13.729 2.621-.488.61-.73 2.432 0 3.766.727 1.34 4.613 8.383 5.951 9.355 1.552 1.129 5.886 2.124 7.771 1.821 1.815-.292 4.25 0 5.102 1.335.85 1.336.851 4.372.364 4.979-.486.61-1.578 1.096-1.578 1.096s-.244 2.188-1.215 2.796c-.972.604-2.673 1.092-2.673 1.092s-.122.847-1.215 1.696c-1.093.853-1.785.725-1.785.725s-1.369.237-2.464.978c-1.805 1.221-7.742-.242-10.082-2.43-1.821-1.701-2.188-5.342-2.671-6.559-.486-1.212-2.066-2.79-3.402-3.765-1.336-.973-21.618-25.263-21.618-27.811 0-2.552 2.31-9.476 5.346-10.809 3.034-1.338 8.621-3.159 9.351-5.103.729-1.942-1.848-11.221.242-17.734 2.977-9.277 4.29-9.465 12.268-14.936z"/><path d="M363.62 573.09c4.938 1.414 1.375 8.039-3.461 5.828-2.339-1.069-4.281-4.279-3.279-6.833 1.001-2.546 2.825-3.277 4.098-3.005 1.275.271 3.644 1.824 3.644 1.824l-3.735 1.91c-.762 1.458-.364 2.732 1.094 3.464 1.305.651 3.077-.711 1.639-3.188zM474.02 563.19s13.489 1.655 17.775 5.622c4.885 4.523 3.845 8.465 3.845 8.465s7.59-.119 10.687 3.039a218.998 218.998 0 0 1 4.07 4.248l9.534 2.672c3.28 2.673 4.676 5.223 4.676 5.223s2.246-.119 6.132 1.336c3.887 1.459 6.559 2.916 8.744 2.55 2.187-.362 6.802-1.577 7.774-3.767.973-2.186-.607-7.526 1.82-9.957 2.43-2.428 3.887-3.034 5.587-2.549 1.703.484 3.279 4.492 3.279 4.492l4.253 2.917c.713 1.906 0 4.005 0 4.005s.363.731.971 2.794c.607 2.063-.304 2.978-.304 2.978s.061 2.488-1.274 3.461c-1.338.973-3.158 1.216-3.158 1.216s.561 2.091-.168 3.425c-.729 1.333-1.429 1.785-2.5 2.262-.831.368-2.434.141-3.405 1.116-.973.967-1.94 3.396-5.101 2.913-3.159-.486-4.131-2.428-8.26-3.279-4.128-.849-18.581-2.065-27.083-3.648-8.502-1.574-15.302-1.574-23.563-1.695-8.26-.121-20.282-1.459-20.769-5.224-.486-3.764 2.552-7.53 2.186-9.472-.364-1.944-2.307-8.016-2.307-10.203s-1.568-10.701.849-13.848c1.216-1.579 4.008-1.579 5.71-1.092z"/><path d="M364.89 565.07c-.399 3.365-3.587 1.303-2.824-.64.581-1.479 3.279-1.641 4.646-1.003 1.366.639 3.644 3.464 3.825 4.372.183.911.51-3.675-1.183-5.555-1.641-1.825-5.193-2.825-8.018-1.367-2.445 1.261-3.279 3.188-2.915 5.919.313 2.352 2.565 3.931 4.646 4.192 3.548.448 6.298-3.177 1.823-5.918z"/><path d="M375.09 567.07c5.21-2.135.96-7.26-1.458-6.922-2.263.316-3.593 2.115-3.828 3.643-.24 1.564.296 3.826 1.185 4.826.684.771 2.445 1.321 2.445 1.321s-1.904-2.741-.714-4.597c1.142-1.78 3.58-2.093 2.37 1.729z"/></g><path fill="#fff" stroke="none" d="M463.89 559c8.617 3.146 9.46 3.168 15.442 4.337 3.271.64 2.942 4.616.585 7.446s-.472 10.842-2.357 13.199-6.579 5.318-6.579 5.318c-4.263-3.434-8.504-4.848-8.976-11.918-.47-7.08 1.89-18.39 1.89-18.39z"/><g fill="#f4e109"><path d="M399.81 658.08s-2.623-1.095-3.349.82c-.728 1.916.488 2.89.488 2.89s4.104.651 1.55 5.729c6.804-3.952 1.311-9.439 1.311-9.439z"/><path d="M403.26 655.94s-2.242-.728-2.632 1.055c-.389 1.783.772 3.008.772 3.008s2.961.75 1.796 4.503c5.353-4.504.064-8.566.064-8.566zM409.39 649.88s-.831-.381-1.438.833c-.606 1.218-.005 2.833-.005 2.833s3.294.391 3.339 4.549c4.642-6.596-1.896-8.215-1.896-8.215zM454.1 634.6s-2.087-.613-2.574 2.422c-.403 2.519 1.482 2.802 1.482 2.802s3.485-1.263 3.643 2.913c5.405-4.739-2.551-8.137-2.551-8.137z"/><path d="M457.37 630.71s-1.765-.27-1.817 2.491c-.043 2.289 1.474 2.295 1.474 2.295s3.4-1.688 4.208 2.357c4.254-4.857-3.865-7.143-3.865-7.143z"/><path d="M460.86 626.5s-1.787-.321-1.936 2.442c-.12 2.287 1.423 2.34 1.423 2.34s3.335-1.66 4.01 2.123c4.826-4.158-3.497-6.905-3.497-6.905zM462.88 622.32c-3.01.739-1.323 4.302.489 4.599.376-.734 2.376-1.797 2.976 1.16 3.9-2.957-1.975-5.832-3.465-5.759zM562.31 583.1c-2.323-6.604-8.684-2.368-8.684-2.368s-1.115.997.061 2.368c1.457 1.702 3.08 1.122 3.08 1.122s1.845-3.101 5.543-1.122zM558.91 586.26c-.521.43-.938 1.363-.087 2.702.852 1.335 2.886 1.629 2.886 1.629s1.029-2.596 5.46.161c-1.431-7.194-7.248-5.323-8.259-4.492zM560.92 591.54c.679-.157 9.385 1.83 6.981 8.688-2.159-5.232-5.821-2.613-5.821-2.613s-2.06-.681-2.56-2.246c-.813-2.547.883-3.708 1.4-3.829zM556.24 600.95s-1.865.224-2.202 1.786c-.654 3.035 1.459 3.452 1.459 3.452s4.749-.003 3.421 5.82c6.578-7.01-.297-10.885-2.678-11.058zM407.02 653.28s-2.299-.463-2.476 1.347c-.178 1.813 1.029 2.87 1.029 2.87s3.419-.25 2.373 4.299c4.546-5.174-.926-8.516-.926-8.516z"/></g><g fill="#93aa5e"><path d="M497.22 473.99c1.696-.357 3.396-.557 4.492.66 1.092 1.213 1.49 2.167 1.49 2.167s-3.185.208-5.595.923c-1.358.401-3.304 1.31-3.304 1.31s-1.58-2.093-.365-3.306c1.214-1.217 2.443-1.577 3.282-1.754z"/><path d="M485.68 484.36s-3.522-2.063-1.7-4.737c1.821-2.672 3.522-3.885 5.466-4.008 1.943-.122 4.857 3.429 4.857 3.429s-3.334 1.524-4.791 2.5c-1.458.971-3.832 2.816-3.832 2.816z"/><path d="M478.59 492.89s-2.99-1.479-2.749-4.151c.245-2.673 2.794-6.317 5.831-6.071 3.037.241 4.009 1.7 4.009 1.7s-2.448 1.797-4.502 4.475c-1.421 1.853-2.589 4.047-2.589 4.047zM476.03 499.05s-2.131-1.324-3.346.013c-1.214 1.334-3.037 4.128-2.429 6.071.608 1.944 2.915 3.764 4.008 3.646 1.094-.124 2.005-.505 2.005-.505s-.765-2.732-.833-4.553c-.089-2.351.595-4.672.595-4.672z"/><path d="M474.96 519.79s-3.731-.935-4.218-3.85-.121-5.467 1.215-6.682c1.335-1.213 4.104-1.492 4.104-1.492s.923 3.081 2.381 3.93c1.458.852 2.351 2.142 2.351 2.142s-1.339.565-2.916 2.263c-1.474 1.584-2.917 3.689-2.917 3.689zM474.9 530s-2.094 1.001-3.672-1.061c-1.578-2.066-1.943-5.956-.365-7.777 1.58-1.82 4.096-1.371 4.096-1.371s-.833 3.365-.833 4.703c.001 1.336.774 5.506.774 5.506zM478.59 492.89s-2.26-2.449-3.961-.87c-1.702 1.577-3.037 3.402-2.187 4.858.849 1.456 3.588 2.173 3.588 2.173s.805-2.155 1.19-3.334c.596-1.816 1.37-2.827 1.37-2.827z"/></g><path fill="#f1c700" stroke-width="1.429" d="M512.7 506.16s-3.979 1.037-3.582 3.945c.547 4.011 5.709 3.343 5.709 3.343s-7.045 3.096-8.442 4.615c-1.395 1.518-3.037 4.128-3.037 4.128s-2.308-2.975-1.942-5.586c.183-1.318 2.613-2.064 2.613-3.342 0-1.273-.063-5.948 1.881-6.982 1.941-1.032 6.8-.121 6.8-.121z"/><path fill="#fff" stroke-width="1.429" d="M532.8 485.58s1.44-5.214-.552-7.602c-1.991-2.389-4.646-3.453-6.504-2.921-1.857.532-6.636 3.187-6.636 3.187s-1.503-2.522-7.321-2.256-11.259-.267-17.232 2.256c-5.973 2.522-9.821 5.84-12.608 8.493-2.788 2.655-5.709 8.738-6.594 11.839-1.3 4.553-.925 8.053.355 10.725 1.034 2.157 4.26 4.338 4.26 4.338s-3.665 1.99-5.586 6.148c-1.646 3.562-.847 8.418-.349 10.961.176.896.695 2.035.695 2.035s3.883-.602 5.476-2.857c1.593-2.256 1.687-5.074 3.81-6.666 2.123-1.594 7.064-1.508 7.064-1.508s-1.331-3.469 1.508-6.588c1.647-1.811 2.645-3.275 2.778-4.603.133-1.325.372-2.905 2.703-4.272 2.33-1.367 5.398-2.014 7.138-5.649.51-1.065.7-2.099 2.094-3.417s4.513-1.326 6.769-1.326c2.257 0 5.708 0 7.035-.664 1.328-.664 3.359-1.411 4.533-3.095s1.307-3.011 2.236-4.47c.929-1.461.928-2.123 2.388-2.389 1.457-.265 2.54.301 2.54.301z"/><g fill="url(#a)" stroke-width=".667"><path d="M509.6 473.43c-1.567-1.176-4.979-.85-5.71 1.217-.728 2.061.608 4.542 2.222 5.649 1.518 1.041 3.274 1.429 4.613 1.13 1.499-.332 5.51-2.425 6.845-3.154s1.138-2.048-1.048-2.531c-2.186-.49-4.994.448-4.994.448s-.957-2.029-1.928-2.759zM497.7 489.65s.367 2.37-1.639 2.549c-2.003.182-3.644-1.457-2.732-3.641.913-2.188 3.159-2.916 4.981-2.732 1.82.18 4.858 1.639 5.039 3.641.182 2.007.182 5.648-1.091 6.925-1.276 1.274-3.825 3.095-6.376 4.372-2.552 1.277-4.737.184-7.469 1.822-2.733 1.641-2.309 4.25-6.135 4.25-3.825 0-4.797-1.338-4.797-1.338s4.068 1.338 6.135-.85c1.566-1.658.787-7.895 4.25-9.17 3.461-1.274 9.474 0 10.203-2.004.725-2-.369-3.824-.369-3.824zM413.15 563.24a4.876 4.876 0 0 0-3.917 1.973s-1.458-1.73-.639-4.098c.82-2.369 4.564-4.152 7.106-4.372 3.188-.276 7.497 1.114 7.497 1.114s-4.399-2.3-8.954-2.117c-4.555.18-9.109 2.734-10.201 6.195-1.096 3.465.087 8.383 3.917 10.203 2.482 1.182 4.648 1.145 6.089.791a4.887 4.887 0 0 0 3.993-4.801 4.891 4.891 0 0 0-4.891-4.888zM445.22 565.81c-.146-1.402-.676-2.449-1.301-3.136a5.385 5.385 0 0 0-3.971-1.733 5.28 5.28 0 0 0-5.259 4.797c-.336-.01-2.914-.189-3.518-2.639-.547-2.222.242-4.8 1.184-5.738 1.188-1.186 3.979-2.752 3.979-2.752s-6.803.927-8.989 5.024c-1.611 3.022-1.093 7.653 2.004 10.385 3.097 2.737 7.014 4.102 10.749 2.737 3.164-1.16 4.506-3.121 4.843-4.129s.4-1.656.279-2.816zM397.05 629.74c-3.644-.315-5.913-1.403-6.308-1.605a4.147 4.147 0 0 0 1.572-3.252 4.161 4.161 0 0 0-4.16-4.159c-1.895 0-3.307 1.374-3.994 3.002s-.6 3.473.305 5.158c1.429 2.66 6.198 4.096 9.031 3.953 7.621-.382 12.996-3.749 14.553-4.843-1.128.728-4.401 2.315-10.999 1.746zM416.63 617.9c-2.299 2.417-6.649 3.096-9.929 2.55-1.579-.262-2.995-1.254-3.604-2.096a4.213 4.213 0 0 0 1.449-3.186 4.251 4.251 0 0 0-4.251-4.251c-1.155 0-2.1.251-3.159 1.333-1.06 1.083-1.912 3.555-1.182 6.379.728 2.822 4.19 5.191 8.925 6.104 4.736.908 9.656-2.461 11.935-4.922 2.276-2.458 2.64-7.106 2.64-7.106s-.814 3.083-2.824 5.195z"/><path d="M358.7 597.13c11.171-6.693 18.584 4.285 19.95 7.195 1.384 2.954 2.641 10.48.546 13.121-2.094 2.645-6.468 2.456-8.288 3.28-1.822.817-2.004 3.183-1.185 4.915.819 1.734 3.188 4.01 4.556 5.192 1.364 1.186 4.827 4.464 6.101 6.104 1.276 1.641 4.009 4.645 6.104 4.464 2.096-.181 3.007-1.186 4.463-1.641 1.459-.454 3.371 0 4.1 1.549.729 1.551 1.003 5.012-1.913 6.926-2.914 1.912-4.281 3.461-8.38 4.008-3.256.433-6.369-.756-9.201-2.281-2.336-1.26-6.931-4.4-11.932-1.363 2.813-5.662 8.949-2.293 10.417-2.35 1.548-.06 1.605-1.385-1.4-2.934s-10.829-2.191-15.301-8.107c8.535 3.666 9.29-.273 8.471-1.82-1.049-1.982-4.389-3.329-7.016-4.102-2.331-.684-7.608-1.787-11.021.184 2.288-4.846 8.788-1.346 9.928-3.369.952-1.688-.948-4.01-2.641-5.104-1.549-1.003-4.312-2.185-8.563.642 2.126-5.326 9.188-1.826 11.66-5.104.943-1.251.807-3.606-.364-4.826-.896-.935-2.919-1.648-4.19-.912-.963.558-2.792 1.829-5.921.456 4.629.623 5.629-4.252 10.112-4.188 1.642.023 3.331-1.112 3.461-2.098.167-1.27-1.002-2.915-2.915-2.824-1.7.08-3.278 2.482-8.744.273 4.841.709 6.778-2.791 10.566-3.46 2.359-.417 3.825.361 5.466 1.366 1.64 1.002 3.279-1.096 1.64-2.371-1.08-.841-2.77-2.514-8.566-.821zM519.56 586.44c-2.446-1.602-7.713-1.76-7.713-1.76s6.072 1.274 7.713 5.465c1.337 3.416.242 3.949.242 3.949l.015.058a3.648 3.648 0 0 0-2.323-.849 3.673 3.673 0 0 0-3.672 3.678 3.671 3.671 0 0 0 3.672 3.672s3.827.424 5.951-2.488c4.036-5.537-1.942-10.448-3.885-11.725zM505.96 579.34c-3.269-1.963-7.954-1.762-7.954-1.762s3.343 2.087 4.068 3.398c.724 1.309.704 2.246.552 2.813a5.614 5.614 0 0 0-7.869 5.14 5.623 5.623 0 0 0 5.619 5.624c.054 0 .105-.011.16-.015 1.61.05 7.628-.187 9.555-6.153 1.275-3.945-.791-7.041-4.131-9.045zM491.14 568.04c-6.728-4.924-15.667-4.555-15.667-4.555s10.261 3.037 11.78 9.596c.899 3.888-.725 4.961-.947 5.088a4.68 4.68 0 0 0-4.459-3.267 4.678 4.678 0 0 0-4.097 6.925c1.105 2.482 4.084 5.249 9.686 5.039 3.599-.138 6.802-3.58 7.53-5.952.728-2.366 2.063-8.558-3.826-12.874z"/><path d="M468.43 583.23s2.55 4.007 2.55 6.071-.728 8.379 3.28 10.325c4.009 1.942 14.212.97 17.611.24 3.4-.728 11.717-.263 14.816.61 2.671.751 10.201 4.246 13.726 4.008 3.522-.243 10.444-1.457 11.538-4.133 1.092-2.672.849-5.222 1.214-5.95.363-.726 2.064-1.455 4.615-.849 2.55.608 4.979 1.215 6.072 2.551 1.092 1.334 2.308 4.856 0 7.652-2.307 2.794-6.68 5.223-8.259 6.801-1.579 1.576-3.888 5.709-5.346 7.65-1.457 1.943-5.758 7.17-12.871 4.98 11.551-1.373 8.738-10.373 5.585-10.689-2.563-.257-5.708.854-7.043 3.281-1.338 2.428-5.116 9.473-14.21 5.828 5.781.457 8.299-2.714 8.38-4.617.074-1.75-2.824-5.273-6.681-3.52-4.605 2.094-4.543 7.594-12.024 5.83 4.231-.361 6.314-3.645 5.708-4.859-.606-1.215-2.792-2.791-5.586-1.822-2.794.975-6.32 4.322-7.534 5.775-1.214 1.459-4.857 5.795-10.319 1.996 5.774.986 7.408-2.063 6.801-3.52s-3.645-2.793-6.56-1.943c-2.916.852-4.251 2.673-5.952 3.4-1.699.727-7.14 1.486-9.836-3.156 8.446 3.393 6.195-2.918 4.858-4.251-1.337-1.338-5.83-3.159-5.709-7.772.121-4.617 2.915-8.987 6.073-11.297 3.158-2.308 4.493-3.401 4.857-4.736.369-1.337.246-3.884.246-3.884zM471.22 528.94c-1.578-2.066-1.943-5.956-.365-7.777.882-1.017 2.359-1.269 3.501-1.298.007-.026.013-.058.021-.081a5.26 5.26 0 0 1 .397-.896l-2.34-.64c-2.674-.727-7.531 1.945-11.902 6.318-4.374 4.373-8.018 15.302-11.661 19.436-3.643 4.125-8.986 1.456-14.573 3.156-5.588 1.694-10.187 10.342-23.076 3.883 5.452 7.146 18.202 6.334 22.104 4.615 4.087-1.801 7.846-4.164 13.62-2.955 4.921 1.03 9.744-.456 13.587-3.849 4.128-3.637 6.072-10.683 8.744-13.598 2.225-2.428 4.426-3.327 5.107-3.565l-.526-1.522c-.965-.069-1.98-.365-2.638-1.227z"/><path d="M489.93 520.68s-5.345-.729-7.773 2.187c-2.429 2.916-1.215 5.344-4.373 7.042-3.159 1.704-5.83.489-9.23 4.131-3.401 3.644-4.13 10.933-6.802 13.12-2.672 2.182-11.659 1.454-11.659 1.454s5.958 2.473 11.659 1.218c7.178-1.58 10.928-13.83 26.234-15.551-14.807 3.221-10.307 10.221-18.22 15.061-3.04 1.859-8.258 2.671-8.258 2.671s5.979 1.501 12.875-2.426c4.452-2.535 6.315-4.127 8.987-3.647 2.673.487 10.643.592 14.09-1.7 3.598-2.392 6.039-4.535 6.313-8.012.288-3.634-1.7-6.56-1.7-6.56s-5.586.974-8.744-3.153c-3.155-4.137-3.399-5.835-3.399-5.835zM418.87 606.41c-1.629 1.242-4.191.913-5.83-.092-1.077-.656-1.986-1.791-2.233-2.546a4.218 4.218 0 1 0-4.981-6.759c-.58.52-1.427 1.816-1.766 3.168-.357 1.43-.77 4.574 1.873 7.047 2.917 2.736 8.478 3.59 10.658 3.19 1.934-.355 3.154-1.397 3.825-2.915.862-1.947 1.185-6.375 1.185-6.375s-.458 3.549-2.731 5.282z"/></g><g fill="#93aa5e"><path d="M531.95 522.38s1.152 7.048-3.463 6.5c-4.615-.547-4.633-5.692-4.633-5.692l8.096-.808z"/><path d="M515.04 526.19s.863 4.583 5.731 3.476c4.028-.918 3.019-6.393 3.019-6.393l-8.75 2.917z"/><path d="M515.04 526.19s.816 2.929-1.859 4.206c-4.778 2.281-7.531-1.703-7.531-1.703s3.246-1.827 4.523-2.318c1.626-.625 4.867-.185 4.867-.185zM496.12 528.51s-.625 4.252 2.678 5.061c3.78.922 7.054-2.471 6.816-4.763-1.39-.341-3.001-.074-4.753.004-2.612.125-4.741-.302-4.741-.302z"/><path d="M491.03 522.98s-2.375 1.285-2.314 3.291c.06 2 1.109 3.478 2.125 4.004 3.157 1.641 5.487-1.61 5.487-1.61s-1.727-1.102-3.065-2.589c-1.106-1.229-2.233-3.096-2.233-3.096z"/><path d="M490.7 516.7s-3.75-.953-4.72.583c-1.365 2.162-1.033 4.189-.122 5.279.912 1.092 4.247 1.339 5.169.417-.789-1.399-.835-2.51-.773-3.602.06-1.095.446-2.677.446-2.677z"/><path d="M493.97 511.85s-3.095-2.59-5.14-1.978c-2.006.601-3.157 2.552-2.916 4.009.249 1.489 2.243 2.303 3.71 2.551 1.577.27 1.131.149 1.131.149s1.116-1.708 1.845-2.5c.73-.785 1.37-2.231 1.37-2.231z"/><path d="M497.1 506.13s-1.183-1.018-3.006-2.292c-1.821-1.274-4.73-1.423-5.337.155-.606 1.578-.393 3.608.456 4.637.851 1.035 1.28 1.31 2.887 2.113 1.616.808 1.905.982 1.905.982s.732-2.508 1.339-3.721c.606-1.214 1.756-1.874 1.756-1.874z"/><path d="M501.06 503.93s-1.193-3.747-3.393-4.195c-2.154-.439-3.273.179-3.546 1.875-.271 1.685.614 2.668 1.463 3.304a9.594 9.594 0 0 0 1.756 1.041l3.72-2.025z"/><path d="M505.08 499.32s-1.788-1.957-3.365-2.017c-1.581-.063-2.319.499-2.613 1.578-.273 1.004.183 2.128.852 2.974.666.854 1.317 1.78 1.317 1.78s1.95-.672 2.56-1.398c.606-.73 1.249-2.917 1.249-2.917z"/></g><g fill="#da251c"><path d="M502.53 521.07s3.471-5.986 10.567-7.924c5.583-1.524 15.958 2.726 14.939-4.647-.291-2.106-1.668-9.689 7.923-10.111-5.55 1.604-3.278 6.377-3.278 6.377s1.821-2.278 3.917-2.641c2.095-.365 6.103.623 6.103-3.828 1.948 8.67-6.146 4.951-7.833 10.387-.709 2.285 1.395 8.229-4.86 10.777-4.217 1.72-10.261-2.065-13.783-2.065-2.912 0-6.711 4.463-8.26 5.468-1.549 1.001-5.435-1.793-5.435-1.793zM523.08 492.86c.134-.014.27-.035.406-.061 1.172-.823 2.143-1.857 2.631-3.158 1.091-2.917 1.091-4.008 3.461-5.102 1.452-.67 2.76-.105 3.519.723.499-.569 1.429-1.898 1.159-3.697-.366-2.428-2.674-6.073-5.345-6.318-2.673-.242-4.979.49-5.346 1.946-.362 1.456-.728 3.032-1.82 3.519-1.094.488-2.914-.359-4.616 1.947-1.701 2.308-1.701 4.736-.484 6.071 1.213 1.335 5.221 4.251 6.435 4.13z"/></g><g fill="#fff"><path d="M518.38 496.48c1.612 1.084 7.362 6.271.363 11.388 1.562-5.741-2.938-5.366-4.099-5.739-1.23-2.288.494-5.068 3.736-5.649zM531.08 487.54c1.299.839 6.669 3.338 1.806 8.201.545-4.057-2.955-3.604-3.749-3.604-1.042-1.515-.363-4.046 1.943-4.597zM511.2 482.14c1.491-1.247 3.063-2.273 3.993-2.508.388-.098.81-.238 1.242-.406-.338-1.273-1.08-2.938-2.759-3.113-2.317-.244-3.567 1.481-3.776 3.029-.139 1.03.364 2.213 1.3 2.998zM508.69 495.9s-1.094-4.25-3.887-4.615c-2.051-.268-3.4 1.457-3.706 3.158-.266 1.5.243 3.521 2.188 4.191 1.944.668 2.394.301 2.394.301s.098-.786 1.129-1.82c1.03-1.031 1.882-1.215 1.882-1.215zM527.31 486.73s-1.488-3.334-3.928-2.977c-1.58.23-1.963 1.886-1.607 2.798.952 2.44 4.643 2.618 4.643 2.618s.191-.672.436-1.402c.241-.729.456-1.037.456-1.037zM529.58 484.54s-2.609-2.244-2.246-3.945c.365-1.703 2.412-1.73 3.126-1.136 2.36 1.968 1.25 4.94 1.25 4.94l-2.13.141z"/></g><path d="M528.12 493.65c-1.641.908-5.648 1.64-8.563 3.096-2.916 1.459-2.612 7.288-5.709 9.294-3.096 2.003-6.68-1.117-8.441 2.122-1.608 2.959.032 3.508-.424 5.164-.487 1.762-2.611 2.004-2.794 4.006-.182 2.006.608 3.279 2.065 4.191 1.458.912 3.644.912 4.918-.182 1.276-1.094 4.374-4.191 6.924-4.463 2.551-.273 6.011 2.096 9.655 2.278 3.644.181 6.923-1.458 7.834-3.462.91-2.006 1.64-1.279 2.005.179.363 1.458.183 5.284-1.823 6.378-2.003 1.096-7.834.549-9.655 1.641-1.821 1.094-4.555 2.914-8.199 2.73-3.644-.18-5.101.184-7.47 1.459-2.368 1.275-7.02 3.039-10.018 2.186-2.509-.715-6.561-3.645-7.835-7.104-1.276-3.46-1.094-6.559 1.274-8.928 2.37-2.365 2.37-6.559 4.373-8.196 2.002-1.641 6.013-2.915 7.286-4.193 1.276-1.271.547-4.735 4.191-6.376 3.645-1.639 8.015.182 10.932-.545 2.914-.729 6.375-2.369 7.469-5.283 1.091-2.917 1.091-4.008 3.461-5.102s4.372 1.094 4.19 2.367c-.182 1.276-2.187 1.094-3.825 2.734s-.18 3.097-1.821 4.009z" stroke-width="1.429" fill="#fff"/><path d="M506.2 495.17a1.214 1.214 0 1 1-2.428 0 1.214 1.214 0 0 1 2.428 0zM514.08 479.37a.97.97 0 0 1-.973.97.974.974 0 0 1 0-1.947.974.974 0 0 1 .973.977z"/><g fill="#f4e109" stroke="none"><path d="M433.42 635.22s2.084-1.242 2.354-3.189c.182-1.314-1.591-.895-1.289.393.396 1.702-1.065 2.796-1.065 2.796zM420.52 635.05s2.486-1.757 2.702-4.148c.144-1.617-2.005-.886-1.56.641.588 2.002-1.142 3.507-1.142 3.507zM408.81 632.71s3.462-.695 4.811-3.133c.911-1.648-1.712-1.887-1.95-.059-.32 2.412-2.861 3.192-2.861 3.192zM526.36 542.3a1.214 1.214 0 1 1-2.428 0 1.214 1.214 0 0 1 2.428 0zM540.21 536.47a1.458 1.458 0 1 1-2.912.006 1.458 1.458 0 0 1 2.912-.006zM531.4 568.56s1.2-2.843-.578-5.158c-1.201-1.561-2.902.163-1.144 1.35 2.323 1.567 1.722 3.808 1.722 3.808zM543.04 557.68s.333-2.755-2.042-4.288c-1.598-1.035-2.732.898-.705 1.459 2.68.749 2.747 2.829 2.747 2.829zM553.42 551.52s.263-2.697-1.84-4.172c-1.418-.996-2.392.9-.604 1.434 2.36.703 2.444 2.738 2.444 2.738zM558.65 542.2s-.28-2.276-2.282-3.106c-1.354-.562-1.81 1.18-.237 1.295 2.076.145 2.519 1.811 2.519 1.811zM561.46 532.61s-1.275-1.903-3.438-1.743c-1.461.109-1.084 1.869.373 1.261 1.918-.804 3.065.482 3.065.482zM441.41 566.22a1.458 1.458 0 1 1-2.916 0 1.458 1.458 0 0 1 2.916 0zM414.85 568.13a1.701 1.701 0 1 1-3.402 0 1.701 1.701 0 0 1 3.402 0zM430.59 612.35a1.7 1.7 0 1 1-3.4 0 1.7 1.7 0 0 1 3.4 0zM402 615.17c0 .941-.762 1.699-1.701 1.699s-1.7-.758-1.7-1.699a1.7 1.7 0 1 1 3.401 0zM389.85 624.89c0 .941-.762 1.697-1.701 1.697a1.7 1.7 0 1 1 1.701-1.697zM366.02 603.81s3.807.92 4.793 4.117c.663 2.154-2.399 2.461-2.252.07.191-3.156-2.541-4.187-2.541-4.187zM361.46 610.43s3.752-.008 5.407 3.076c1.117 2.082-1.655 3.176-2.076.647-.554-3.345-3.331-3.723-3.331-3.723zM358.49 619.6s3.2-1.451 5.949.826c1.854 1.543-.041 3.641-1.495 1.41-1.915-2.946-4.454-2.236-4.454-2.236zM362.78 627.77s2.614-1.264 4.927.564c1.561 1.23.038 3.001-1.205 1.188-1.64-2.386-3.722-1.752-3.722-1.752zM369.1 638.17s3.222 2.059 6.354.553c2.115-1.02.339-3.394-1.426-1.643-2.329 2.312-4.928 1.09-4.928 1.09zM378.67 647.87s2.688 1.257 4.971-.345c1.544-1.077-.059-2.769-1.258-1.14-1.584 2.146-3.713 1.485-3.713 1.485zM502.07 588.93c0 .941-.761 1.704-1.698 1.704a1.701 1.701 0 0 1 0-3.401 1.699 1.699 0 0 1 1.698 1.697zM518.71 596.98a1.214 1.214 0 0 1-2.43 0c0-.675.545-1.221 1.214-1.221a1.22 1.22 0 0 1 1.216 1.221zM483.79 579.59a1.944 1.944 0 1 1-3.888 0 1.944 1.944 0 0 1 3.888 0zM468.3 614.26s3.01-2.115 2.855-5.416c-.104-2.227-2.854-1.496-1.975.68 1.164 2.874-.88 4.736-.88 4.736zM483.7 614.57s2.28-2.28 1.406-5.26c-.591-2.017-2.94-1.027-1.653.85 1.701 2.475.247 4.41.247 4.41zM499.33 613.41s1.765-1.642.932-4.059c-.561-1.634-2.437-1.017-1.311.557 1.485 2.073.379 3.502.379 3.502zM513.06 614.13s1.412-2.064.307-4.213c-.744-1.448-2.393-.354-1.137.886 1.659 1.643.83 3.327.83 3.327zM528.87 613.77s1.27-2.398-.112-4.561c-.93-1.462-2.554-.08-1.104 1.094 1.913 1.553 1.216 3.467 1.216 3.467zM410.58 600.15a1.944 1.944 0 0 1-3.887 0 1.944 1.944 0 0 1 3.887 0z"/></g><path d="M435.88 585.17c-13.827 1.076-15.424 21.738-15.424 21.738h.969s.378-17.412 14.455-21.738zM560.55 515.24c1.627-3.12 4.814-2.058 6.469-1.095-2.467-.587-4.53-.4-6.469 1.095zM568.57 513.78c1.86-1.973 4.798-2.223 6.286.092-2.3-.939-3.863-.877-6.286-.092zM503.71 546.22c7.591 10.035 4.091 18.16.455 28.601 4.761-5.691 8.636-20.941-.455-28.601z"/><path d="M508.9 540.2c-2.542 10.982.376 29.04 5.739 35.074-3.287-7.189-6.655-17.096-5.739-35.074zM394.83 655.49c4.851-.303 5.345 3.039 5.345 3.039l-.729-.61c-.001 0 .172-1.669-4.616-2.429zM399.96 653.92c4.53-.987 4.42 3.218 4.42 3.218l-1.116-1.205s.414-1.875-3.304-2.013zM403.56 651.11c4.058-.857 3.963 2.684 3.963 2.684l-.658-.677c-.001 0 .44-1.864-3.305-2.007zM455.92 635.57s-.116-4.321-5.055-2.585c4.188-.736 4.358 2.073 4.358 2.073l.697.512zM459.33 631.37s.285-4.182-4.786-2.383c4.571-.799 4.191 2.145 4.191 2.145l.595.238zM463.07 627.38s-.706-4.006-5.261-2.266c4.18-.553 4.281 1.823 4.281 1.823l.98.443zM552.35 590.39c.824-5.703 5.405-6.254 5.405-6.254l1.81.744s-4.89-.381-7.215 5.51zM554.3 594.52c3.193-6.396 7.408-3.037 7.408-3.037l-.485.245s-3.105-2.416-6.923 2.792zM550.16 601.19c6.577-6.065 8.453.596 8.453.596l-.953-.298s-1.36-4.363-7.5-.298zM507.18 489.71c1.066-7.208 6.619-9.527 8.014-10.081 2.059-.817 3.401-1.335 4.616-2.063 1.216-.728 3.322-2.354 5.002-2.712 1.399-.299 2.936-.004 4.108.4 1.428.492 0 .49 0 .49s-2.798-.713-4.979.119c-2.581.984-3.295 2.175-4.396 2.868-1.495.943-3.84 1.093-5.685 2.232-1.47.91-4.551 2.289-6.68 8.747zM513 520.19c3.426 0 5.051 4.188 8.624 3.52 1.53-.286 1.762-.848 2.854-.969 1.093-.123 4.697.193 4.697.193l-3.968.472s-.488-.118-1.642.304c-1.153.428-1.612.784-3.703.428-1.686-.288-4.436-3.391-6.862-3.948z"/></g><use xlink:href="#b" transform="matrix(-1 0 0 1 1193.98 0)"/></svg>