<svg width="600" height="400" xmlns="http://www.w3.org/2000/svg"><path fill="#000f5d" d="M0 0h600v400H0z"/><path d="M360 55.54h12.76l4.21-12.47 3.9 12.51h12.85l-10 8.09 3.61 11.85-10.53-7.13-10.44 7.17 3.56-12zm56 50.1h12.8l4.2-12.48 3.9 12.5h12.85l-10 8.1 3.61 11.84-10.53-7.12-10.43 7.18 3.55-12zm29.81 72.1h12.77l4.2-12.47 3.9 12.5h12.85l-10 8.1 3.61 11.84-10.53-7.12-10.43 7.18 3.55-12zm-60.7 24.2h12.77l4.2-12.46L406 202h12.85l-10 8.1 3.61 11.84-10.46-7.15-10.48 7.21 3.55-12zm49.14 55.59H447l4.21-12.47 3.9 12.51H468l-10 8.09 3.61 11.85-10.53-7.12-10.43 7.17 3.55-12zm-44.96 61.69h12.76l4.21-12.46 3.89 12.5H423l-10 8.1 3.62 11.84-10.53-7.12-10.44 7.17 3.56-12zm-34.35-47.81h12.76l4.21-12.47 3.9 12.51h12.85l-10 8.09 3.61 11.84-10.53-7.11-10.43 7.17 3.55-12zm-32.6 86.12h12.77l4.2-12.47 3.9 12.51h12.86l-10 8.09 3.61 11.84-10.53-7.11-10.43 7.17 3.55-12zm-80.73 0h12.76l4.21-12.47 3.89 12.51h12.86l-10 8.09 3.67 11.83-10.53-7.11-10.47 7.17 3.56-12zm-28.8-86.12h12.76l4.21-12.47 3.9 12.51h12.85l-10 8.09 3.61 11.84-10.53-7.11-10.44 7.17 3.56-12zm-38.28 47.81h12.76l4.21-12.46 3.89 12.5h12.86l-10 8.1 3.61 11.84-10.53-7.12-10.44 7.17 3.56-12zm-44.12-61.69h12.76l4.21-12.47 3.9 12.51h12.85l-10 8.09 3.61 11.85-10.53-7.12-10.44 7.17 3.56-12zm-9.94-79.79h12.76l4.21-12.47 3.89 12.5h12.86l-10 8.1 3.61 11.84-10.52-7.12-10.44 7.18 3.55-12zm61.85 24.2h12.76l4.21-12.46 3.9 12.5H216l-10 8.1 3.61 11.84-10.53-7.12-10.36 7.2 3.56-12zm-31.43-96.3h12.76l4.21-12.47 3.9 12.5h12.85l-10 8.1 3.61 11.84-10.53-7.12-10.43 7.18 3.55-12zm56.43-50.1h12.76l4.21-12.47 3.89 12.51H241l-10 8.09 3.61 11.85-10.53-7.12-10.44 7.17 3.56-12zm76.45-20.93h12.77l4.2-12.46 3.9 12.5h12.86l-10 8.1 3.61 11.84-10.52-7.12-10.44 7.17 3.55-12zm83 44.31-37.72 53.74-2.34-1.66 37.73-53.72z" fill="#d59f0f"/><path d="m420.75 116.55-87.65 33.71-1-2.68 87.64-33.71zm20.11 64.68-106.59-12.77.34-2.86 106.6 12.78zM284 298h12.76l4.21-12.47 3.9 12.5h12.85l-10 8.1 3.61 11.84-10.53-7.17-10.44 7.2 3.56-12zm-4-205h15.78L301 77.56 305.8 93h15.87l-12.31 10 4.46 14.62-13-8.77-12.91 8.85 4.39-14.84zm-.34 86.17-.08-.1c-12.21-16.13.21-22 .46-33.46 8.08 15-3.76 19.66 10.31 33.57z" fill="#d59f0f"/><path d="M293.14 179.18c-4.3-6.05-7.32-15.7-6-22 1.32-6.3 5.65-12.51 5-17.28 2.28 5.37 5.1 5.38 4.43 9.33 3.42-10.19 4.87-18 15.52-18.52-11.24 16.36 11.57 30.34-5 48.49z" fill="#d59f0f"/><path d="M310.69 179.2c15.21-18.35-4.14-27.75 13.5-36 .64 5.42-3.68 5.42-1.77 12.06a13.14 13.14 0 0 1-1 7.22c1.8-2.2 5.29-6.35 7.5-8-5.24 7.9 4.63 14.82-8 24.65h-10.49m1.43 46.14c.8-20.45 5.18-26.68 13.47-35.23h-48.72c8.26 8.56 12.63 14.79 13.39 35.24q10.94-.05 21.86-.01zm-11 49.92 6.37 20 3.51-59.27h-19.67l3.37 59.29zm-.1 89.57c2.81-2.6 3.61-11.09 3.61-11.09l1.75-34.67-5.31-3.73-5.32 3.73 1.69 34.65s.76 8.46 3.57 11.09zm28.48-178.39-56.6-.06v-5.38l56.61.06zm-13.78 47.75H285.6v-6.72h29.86zm-154.99-52.89 106.58-12.77-.33-2.86-106.61 12.78zm20.25-64.68 87.65 33.71 1-2.68-87.64-33.71zM235 78.92l37.72 53.74 2.34-1.66-37.74-53.72zm64.11 35.26v11.47H302v-11.48zm-21.88-28.69L266.6 80l.74-1.44L278 84l-.74 1.45m1.74-3.89-8.59-8.31 1.27-1.25 10.13 2a5 5 0 0 1 .61.14 4.7 4.7 0 0 1 .49.16l-7-6.73 1.09-1.11 8.59 8.3-1.2 1.24-10.3-2-.47-.12-.47-.17 7 6.73-1.15 1.12m9.07-19.7-2.6 1 3.31 8.49 2.6-1a3.2 3.2 0 0 0 2.1-2.06 5.5 5.5 0 0 0-.39-3.55A5.23 5.23 0 0 0 291 62a3.22 3.22 0 0 0-2.93-.1m-.27 11.45-4.3-11.18 4.24-1.65a4.88 4.88 0 0 1 4.1 0 6.32 6.32 0 0 1 2.81 3.53 6.85 6.85 0 0 1 .36 4.73 4.79 4.79 0 0 1-3 2.9l-4.18 1.63m11.24-3.39L298.13 58l1.62-.13.95 11.91-1.62.13m7.31-4.91 3.66.7-.83-5.53-2.83 4.83m-4.33 4.22 6.61-10.9 1.76.34 2.12 12.58-1.73-.33-.57-3.75-4.62-.89-1.92 3.27-1.65-.32m11.68 2.65 6.75-9.85 1.47 1-.3 10.32v.62c0 .19-.05.36-.08.51l5.47-8 1.28.88-6.75 9.86-1.46-1 .27-10.48v-.49c0-.16.06-.32.1-.5l-5.48 8-1.27-.88m14.86 6.51 2 3.15 3.48-4.38-5.46 1.23m-6.05-.28L335 75.52l1 1.48-7.74 10.14-.94-1.49 2.34-3-2.5-4-3.7.83-.9-1.42" fill="#d59f0f"/></svg>