<svg xmlns="http://www.w3.org/2000/svg" width="800" height="500"><rect width="800" height="500" ry="0" rx="0" fill="#bc0000"/><g fill="#fcd116"><path d="M119.963 96.593c159.072-24.195 126.489 181.398 10.21 107.295l1.878-2.856-8.305-7.427-2.564 2.23-5.198-4.62-6.249 5.693 4.16 5.194c-5.18 4.362-18.575 16.015-20.453 18.735-8.009 9.996 7.08 22.86 14.54 14.661 2.93-2.316 10.818-14.653 16.063-22.29 13.37 14.06 31.583 23.877 56.087 23.432 5.481-.1 37.576-1.412 58.1-35.85 15.013-25.198 10.693-63.038-16.207-89.163-29.217-28.379-72.905-26.174-102.062-15.034z"/><path d="m157.242 137.834 20.133-20.19-6.653-6.206-26.37-1.82-37.722 35.233 21.212 21.027 18.15-16.88c27.611 28.711 79.623 83.238 83.806 87.966 4.184 4.73 17.027-6.451 12.747-11.39-4.28-4.936-66.22-71.116-85.303-87.74z"/></g><path d="m168.978 24.988-5.143 15.83H147.19l13.465 9.783-5.143 15.83 13.465-9.783 13.466 9.783L177.3 50.6l13.465-9.783h-16.644z" fill="none" stroke="#fcd116" stroke-width="8.2" stroke-linecap="square" paint-order="stroke fill markers"/><path d="m168.978 24.988 5.144 15.83h16.644L177.3 50.601l5.143 15.83-13.466-9.783-13.465 9.783 5.143-15.83-13.465-9.783h16.644z" fill="#bc0000" fill-rule="evenodd"/></svg>