<?xml version="1.0" encoding="UTF-8" standalone="no"?>
<svg
   version="1.1"
   id="Layer_1"
   x="0px"
   y="0px"
   viewBox="0 0 753.14545 773.52765"
   enable-background="new 0 0 1024 1024"
   xml:space="preserve"
   sodipodi:docname="a pictogram of a dice.svg"
   inkscape:version="1.4 (86a8ad7, 2024-10-11)"
   xmlns:inkscape="http://www.inkscape.org/namespaces/inkscape"
   xmlns:sodipodi="http://sodipodi.sourceforge.net/DTD/sodipodi-0.dtd"
   xmlns="http://www.w3.org/2000/svg"
   xmlns:svg="http://www.w3.org/2000/svg"><defs
   id="defs15" /><sodipodi:namedview
   id="namedview15"
   pagecolor="#ffffff"
   bordercolor="#000000"
   borderopacity="0.25"
   inkscape:showpageshadow="2"
   inkscape:pageopacity="0.0"
   inkscape:pagecheckerboard="0"
   inkscape:deskcolor="#d1d1d1"
   inkscape:zoom="1.3105469"
   inkscape:cx="378.46796"
   inkscape:cy="393.34724"
   inkscape:window-width="2560"
   inkscape:window-height="1369"
   inkscape:window-x="-8"
   inkscape:window-y="625"
   inkscape:window-maximized="1"
   inkscape:current-layer="Layer_1" />
<path
   fill="#000000"
   opacity="1"
   stroke="none"
   d="m 753.11632,394.87438 c -0.004,60.16528 -0.0431,119.83057 0.006,179.49585 0.0186,22.52783 -10.04169,38.28119 -30.68292,47.5611 -44.65766,20.07733 -89.22266,40.35589 -133.65961,60.92425 -52.89929,24.48535 -106.12524,48.26587 -159.24475,72.27417 -10.61743,4.79877 -21.39154,9.25098 -32.09528,13.85877 -14.57318,6.2735 -29.0473,5.92627 -43.58432,-0.31256 C 311.76334,750.6115 269.96946,731.87945 228.32428,712.81323 162.44541,682.65227 96.53017,652.56969 30.74709,622.20098 11.05783,613.11144 0.60824965,597.00158 0.56283965,575.43078 c -0.26167,-124.32984 -0.15421,-248.66046 -0.18988,-372.99082 -0.003,-10.12823 -1.36852,-20.2911 1.14265005,-30.33609 3.31049,-13.24221 10.5420103,-23.09088 23.4543803,-28.53311 40.51425,-17.07561 80.98776,-34.24838 121.44282,-51.46394 58.07267,-24.71272 116.21787,-49.2511 174.67331,-73.0475 12.95304,-5.27301 25.89942,-10.5700399 38.94919,-15.5954799 11.97272,-4.61068 24.16654,-4.67871 36.05332,0.15809 33.31176,13.5548199 66.59771,27.1779999 99.76861,41.0732399 57.59558,24.12668 115.1073,48.45398 172.63239,72.74852 20.24176,8.54866 40.56018,16.93721 60.58294,25.97619 16.284,7.35117 23.80286,21.15137 23.88758,38.46024 0.30115,61.49716 0.14068,122.99655 0.15442,184.49512 0.002,9.33304 0.001,18.66604 0.001,28.49914 m -90.76896,198.99573 c 4.98358,-2.3197 9.93994,-4.70001 14.9555,-6.9483 19.03943,-8.53492 27.93836,-24.08582 28.00391,-44.06818 0.32605,-99.32782 0.13672,-198.65732 0.17639,-297.98621 0.001,-3.20428 -0.41992,-6.30798 -1.13617,-9.38736 -2.9154,-12.53353 -13.1015,-17.93472 -25.06982,-13.16995 -5.72022,2.27731 -11.30744,4.88843 -16.95532,7.34735 -37.70905,16.41758 -75.40766,32.85926 -113.13032,49.24564 -39.86096,17.31522 -79.70269,34.6759 -119.63824,51.81772 -17.46912,7.49838 -25.30261,21.26333 -25.34174,39.39252 -0.21936,101.66155 -0.11041,203.32379 -0.17437,304.98577 -0.003,5.29432 1.11273,10.19605 3.38556,14.92865 5.00909,10.4303 13.83361,14.03229 24.32013,9.30109 35.6737,-16.09479 71.29846,-32.29907 106.88519,-48.58551 41.04077,-18.78265 82.0213,-37.69702 123.7193,-56.87323 M 47.08348,488.37426 c -0.001,18.16028 -0.0229,36.32068 0.0195,54.48083 0.006,2.48383 0.13547,4.99885 0.53785,7.44513 3.13191,19.04102 13.99344,31.52497 31.65481,39.21802 26.70799,11.63349 53.1095,23.97632 79.56247,36.18829 42.32761,19.54053 84.58066,39.24256 126.88791,58.82734 10.87668,5.03509 21.70059,10.22577 32.79828,14.73028 11.63937,4.72418 21.08862,-0.0497 25.1868,-11.94238 1.3717,-3.98071 1.79718,-8.065 1.79425,-12.27069 -0.0341,-48.98285 -0.01,-97.9657 1.5e-4,-146.94855 0.0107,-53.64776 0.3133,-107.29797 -0.14139,-160.94177 -0.13928,-16.43234 -7.66629,-29.58371 -23.37777,-36.52219 -68.38239,-30.19885 -136.8144,-60.2854 -205.25632,-90.34918 -14.48015,-6.36056 -28.95735,-12.758 -43.65856,-18.57581 -12.05418,-4.77032 -22.54702,1.59028 -24.97554,14.33475 -0.7198,3.77735 -1.03588,7.55863 -1.03462,11.40973 0.0264,79.97208 0.0102,159.94415 0.002,240.9162 m 69.08298,-305.47488 c 33.98218,14.53561 68.00501,28.97717 101.93668,43.62973 46.46615,20.06524 92.88876,40.23205 139.27353,60.48477 13.31137,5.8121 26.28085,5.77331 39.57516,-0.16025 17.17664,-7.66629 34.58002,-14.8233 51.85999,-22.25946 53.5285,-23.03494 107.01611,-46.16547 160.58062,-69.11627 20.50544,-8.78589 41.18256,-17.1706 61.76392,-25.78003 2.79291,-1.16831 5.9502,-2.5976 5.99158,-6.0087 0.0415,-3.41772 -3.15753,-4.78445 -5.85376,-6.14502 -0.5918,-0.29864 -1.23541,-0.49573 -1.85791,-0.73233 C 632.08001,142.61324 595.37871,126.79841 558.3659,111.75309 503.76659,89.55901 449.22326,67.2255 394.75243,44.71815 382.4619,39.63969 370.57476,39.70469 358.44362,44.68855 305.93431,66.26103 253.42318,87.82908 200.88759,109.33746 c -31.89306,13.05724 -63.83069,26.0056 -95.75113,38.99596 -8.01335,3.26111 -16.06189,6.43747 -24.04103,9.77984 -2.19314,0.9187 -4.17511,2.44577 -4.00578,5.18464 0.16077,2.60043 2.03984,4.07327 4.23527,5.1372 0.74872,0.36286 1.52375,0.67282 2.29337,0.99094 10.61688,4.38836 21.23492,8.77399 32.54817,13.47333 z"
   id="path1"
   style="fill:#1cd997;fill-opacity:1" />
<path
   fill="#000000"
   opacity="1"
   stroke="none"
   d="m 585.54192,477.50225 c -6.21338,10.38995 -13.73157,18.81592 -25.03296,23.17902 -16.53931,6.38525 -32.08008,-0.83106 -37.00415,-17.92066 -5.41199,-18.78277 -0.40393,-35.84991 10.35925,-51.49188 5.99286,-8.70929 13.73261,-15.30847 24.18763,-18.27393 17.27001,-4.89862 32.15618,4.96668 35.11486,22.81958 2.45063,14.78718 -0.61315,28.36335 -7.62463,41.68787 z"
   id="path2"
   style="fill:#1cd997;fill-opacity:1" />

<path
   fill="#000000"
   opacity="1"
   stroke="none"
   d="m 652.05407,568.28912 c -9.17261,5.25128 -18.35346,8.19061 -28.33185,3.65142 -10.79096,-4.90887 -15.01081,-14.45703 -16.02478,-25.3114 -1.91858,-20.53705 4.50976,-38.43408 19.06421,-53.16589 9.99591,-10.11768 23.98565,-13.48431 35.1828,-8.63709 11.72125,5.07428 16.1607,15.44379 16.89727,26.8946 1.50196,23.34961 -6.79272,42.68322 -26.78765,56.56836 z"
   id="path4"
   style="fill:#1cd997;fill-opacity:1" />
<path
   fill="#000000"
   opacity="1"
   stroke="none"
   d="m 501.98064,398.81188 c -5.52698,14.8451 -13.57391,27.27436 -28.11352,33.969 -19.29828,8.88574 -37.97242,-1.50312 -40.16059,-22.70404 -2.35071,-22.77521 4.33826,-42.57953 22.59516,-57.27958 10.03125,-8.07693 21.58221,-10.69369 33.54156,-4.48287 11.09845,5.76373 14.28101,16.46987 15.1966,28.00311 0.59857,7.53921 -0.58185,14.9244 -3.05921,22.49438 z"
   id="path5"
   style="fill:#1cd997;fill-opacity:1" />

<path
   fill="#000000"
   opacity="1"
   stroke="none"
   d="m 245.15343,591.27502 c 0.15653,-5.47174 1.16953,-10.36573 3.0043,-15.01453 6.6615,-16.87842 25.50962,-22.91736 41.42649,-12.97888 17.42511,10.88013 25.3854,27.59247 27.41491,47.41089 0.76328,7.45337 0.14093,14.91278 -2.90643,22.03302 -5.81714,13.59186 -20.06323,20.22241 -34.12662,15.51971 -14.68478,-4.91046 -22.9815,-16.323 -29.59292,-29.41583 -4.31995,-8.55493 -5.39356,-17.71649 -5.21973,-27.55438 z"
   id="path7"
   style="fill:#1cd997;fill-opacity:1" />
<path
   fill="#000000"
   opacity="1"
   stroke="none"
   d="m 247.68694,398.65551 c -2.86908,-9.96872 -3.51956,-19.63284 -1.36978,-29.44214 5.81585,-26.53763 30.60434,-29.40698 46.53421,-17.12231 18.37277,14.16854 25.87683,33.74179 23.52231,56.78167 -1.2388,12.12201 -7.00424,21.49244 -19.11289,25.65516 -12.47412,4.28839 -22.88547,-0.32709 -32.06946,-8.46436 -8.2752,-7.33215 -13.61786,-16.70837 -17.50439,-27.40802 z"
   id="path8"
   style="fill:#1cd997;fill-opacity:1" />
<path
   fill="#000000"
   opacity="1"
   stroke="none"
   d="m 219.26348,435.49364 c 7.78222,13.53669 11.86944,27.57148 8.96209,42.86622 -4.54583,23.91442 -28.79849,32.86932 -47.49624,16.95159 -18.22379,-15.51428 -26.57263,-35.57208 -22.18158,-59.73223 3.89987,-21.45789 24.62552,-30.30109 43.07886,-18.66285 7.3226,4.61829 12.99627,10.87232 17.63687,18.57727 z"
   id="path9"
   style="fill:#1cd997;fill-opacity:1" />
<path
   fill="#000000"
   opacity="1"
   stroke="none"
   d="M 87.95821,557.65404 C 75.24331,541.80773 70.135,524.23247 74.63666,504.61529 c 4.3813,-19.09278 21.55219,-27.01227 39.41486,-18.71741 11.83769,5.49695 18.95271,15.34711 24.29378,26.76605 5.66403,12.10938 7.31137,24.72559 4.92932,37.90955 -4.17902,23.12945 -28.65053,30.75873 -47.30002,15.08801 -2.79071,-2.34503 -5.1956,-5.14917 -8.01639,-8.00745 z"
   id="path10"
   style="fill:#1cd997;fill-opacity:1" />
<path
   fill="#000000"
   opacity="1"
   stroke="none"
   d="m 140.93392,307.01232 c 2.79275,9.58762 3.91852,18.81482 2.23257,28.44284 -4.06781,23.23023 -26.252,32.71234 -45.68554,19.30029 -18.81241,-12.98342 -28.78988,-41.08331 -22.87232,-62.92453 6.41324,-23.67065 29.42192,-25.85739 44.33966,-15.97912 11.19217,7.41125 17.59061,18.37521 21.98563,31.16052 z"
   id="path11"
   style="fill:#1cd997;fill-opacity:1" />
<path
   fill="#000000"
   opacity="1"
   stroke="none"
   d="m 555.74279,139.57287 c 10.91394,1.35629 21.1455,3.29394 29.82678,9.98413 10.12128,7.7999 9.93371,19.41403 -0.44714,26.61279 -8.92237,6.18738 -19.11408,8.48715 -29.60657,9.51886 -15.8039,1.55387 -31.33832,0.36841 -45.57721,-7.45782 -14.54224,-7.99295 -14.93463,-21.44608 -1.03723,-30.56894 8.14221,-5.34491 17.40118,-7.36457 26.95996,-8.09824 6.46728,-0.49637 12.95428,-0.82941 19.88141,0.009 z"
   id="path12"
   style="fill:#1cd997;fill-opacity:1" />
<path
   fill="#000000"
   opacity="1"
   stroke="none"
   d="m 329.53563,103.91547 c -1.51141,-9.5598 3.26941,-15.37445 10.73053,-19.27597 13.67276,-7.14964 28.39377,-8.84781 43.60205,-7.66221 7.49744,0.58447 14.81794,1.89512 21.85987,4.56109 5.51611,2.08832 10.5451,4.92322 14.24591,9.70308 5.07098,6.54955 4.67828,13.28777 -0.96002,19.34195 -5.99317,6.43521 -13.9488,9.14614 -22.06189,10.82045 -17.52552,3.61679 -35.01539,3.55457 -51.99164,-3.13359 -6.8577,-2.70169 -12.62799,-6.69311 -15.42481,-14.3548 z"
   id="path13"
   style="fill:#1cd997;fill-opacity:1" />
<path
   fill="#000000"
   opacity="1"
   stroke="none"
   d="m 350.50029,210.36138 c 18.82547,-5.35797 37.14661,-5.02576 55.3227,1.10938 4.45617,1.50418 8.59131,3.6358 11.88507,7.10562 8.47101,8.92373 7.66089,18.33496 -2.46558,25.31604 -8.12488,5.60125 -17.41894,8.2341 -27.14148,9.18408 -12.66861,1.23782 -25.24823,0.73712 -37.55688,-2.92947 -5.31064,-1.58201 -10.36685,-3.75751 -14.63462,-7.33121 -8.98214,-7.52146 -8.78366,-18.31583 0.36152,-25.6153 4.10345,-3.27527 8.87408,-5.2095 14.22927,-6.83914 z"
   id="path14"
   style="fill:#1cd997;fill-opacity:1" />
<path
   fill="#000000"
   opacity="1"
   stroke="none"
   d="m 161.56139,165.44158 c -1.01483,-8.53952 3.51444,-13.65844 9.7298,-17.54013 11.87576,-7.41681 25.24405,-8.90131 38.82181,-8.79501 9.15393,0.0716 18.22869,1.20236 26.88656,4.55481 4.39322,1.70114 8.44373,3.97332 11.86966,7.19534 8.11682,7.6337 7.70087,17.52304 -1.09064,24.37823 -7.28726,5.68226 -15.90194,8.02146 -24.85016,9.55622 -16.63867,2.85382 -32.79275,1.52337 -48.25888,-5.46631 -6.02813,-2.72434 -11.30606,-6.45334 -13.10815,-13.88315 z"
   id="path15"
   style="fill:#1cd997;fill-opacity:1" />
</svg>
