<svg xmlns="http://www.w3.org/2000/svg" xml:space="preserve" viewBox="0 0 753.1 773.5"><path fill="#59F3B3" d="M753 395v179c0 23-10 39-31 48l-133 61-159 72-33 14c-14 6-29 6-43 0l-126-56-197-91c-20-9-30-25-30-47L0 202c0-10-1-20 2-30 3-13 10-23 23-28A37877 37877 0 0 0 321 19l39-16c12-4 24-4 36 1l100 41 172 72 61 26c16 8 24 22 24 39v213m-91 199 15-7c19-9 28-24 28-44V245l-1-10c-3-12-13-17-25-13l-17 8-113 49-119 52c-18 7-26 21-26 39v305l3 15c5 10 14 14 25 9l107-48 123-57M47 488v55l1 7c3 19 14 32 31 40 27 11 53 24 80 36l127 59c11 5 21 10 33 14 11 5 21 0 25-12l2-12V528l-1-161c0-16-7-29-23-36l-205-91-44-18c-12-5-22 1-25 14l-1 11v241m69-305 102 44 139 60c14 6 27 6 40 0l52-22 160-70 62-25c3-1 6-3 6-6 0-4-3-5-6-6l-2-1-111-45-163-67c-13-5-24-5-37 0l-157 64-96 39-24 10c-2 1-4 3-4 5 0 3 2 4 4 5l3 1 32 14z"/><path fill="#59F3B3" d="M586 478c-7 10-14 18-25 23-17 6-33-1-37-18-6-19-1-36 10-52 6-8 14-15 24-18 17-5 32 5 35 23 3 15 0 28-7 41zM652 568c-9 6-18 8-28 4-11-5-15-15-16-25-2-21 4-39 19-54 10-10 24-13 35-8 12 5 16 15 17 27 1 23-7 42-27 56zM502 399c-6 15-14 27-28 34-19 9-38-2-40-23-3-23 4-43 22-57 10-8 22-11 34-5 11 6 14 17 15 28 1 8-1 15-3 23zM245 591l3-15c7-17 26-23 42-13 17 11 25 28 27 48 1 7 0 15-3 22-6 13-20 20-34 15-15-5-23-16-30-29-4-9-5-18-5-28zM248 399c-3-10-4-20-2-30 6-26 31-29 47-17 18 14 26 34 23 57-1 12-7 21-19 26-12 4-23-1-32-9-8-7-13-17-17-27zM219 435c8 14 12 28 9 43-4 24-29 33-47 17a60 60 0 0 1-22-59c3-22 24-31 43-19 7 5 13 11 17 18zM88 558a60 60 0 0 1-13-53c4-19 21-27 39-19 12 5 19 15 24 27 6 12 8 24 5 38-4 23-28 30-47 15l-8-8zM141 307c3 10 4 19 2 28-4 24-26 33-46 20a62 62 0 0 1-22-63c6-24 29-26 44-16 11 7 18 18 22 31zM556 140c11 1 21 3 30 10 10 7 10 19-1 26-9 6-19 9-29 10-16 1-32 0-46-8-15-8-15-21-1-30 8-6 17-8 27-8h20zM330 104c-2-10 3-15 10-19 14-8 29-9 44-8 7 1 15 2 22 5 5 2 10 4 14 9 5 7 5 14-1 20s-14 9-22 10c-18 4-35 4-52-3-7-2-13-6-15-14zM351 210c18-5 37-5 55 1 4 2 8 4 12 8 8 8 7 18-3 25-8 5-17 8-27 9-13 1-25 1-37-3-6-1-11-4-15-7-9-8-9-19 0-26l14-7zM162 165c-1-8 3-13 9-17 12-8 26-9 39-9 9 0 18 1 27 5 4 1 8 4 12 7 8 7 8 17-1 24-8 6-16 8-25 10-17 3-33 1-48-6-6-2-12-6-13-14z"/></svg>