<svg fill="#59F3B3" viewBox="0 0 256 256"><path d="M61.249 49.905c.247.067.503.109.764.109.32 0 .645-.053.964-.164 14.436-5.022 24.518-22.287 24.518-41.986a2.935 2.935 0 0 0-2.935-2.935H73.496c.041-1.307.07-2.622.07-3.95a.978.978 0 0 0-.978-.978H17.414a.978.978 0 0 0-.978.978c0 1.329.029 2.643.07 3.95H5.44a2.935 2.935 0 0 0-2.935 2.935c0 19.7 10.083 36.966 24.52 41.987.319.112.644.164.964.164.261 0 .516-.042.763-.109 2.756 3.988 5.86 6.998 9.2 8.771v15.639h-2.933c-3.968 0-7.197 3.228-7.197 7.197v2.618h-3.245a2.935 2.935 0 1 0 0 5.87h40.846a2.935 2.935 0 1 0 0-5.87h-3.245v-2.618c0-3.968-3.228-7.197-7.197-7.197h-2.934V58.677c3.341-1.774 6.446-4.784 9.202-8.772zm20.294-39.107c-.772 13.746-6.933 25.671-15.903 31.275 3.874-8.448 6.569-19.254 7.53-31.275h8.373zm-73.086 0h8.373c.962 12.021 3.657 22.828 7.531 31.276C15.39 36.47 9.229 24.545 8.457 10.798z" style="stroke:none;stroke-width:1;stroke-dasharray:none;stroke-linecap:butt;stroke-linejoin:miter;stroke-miterlimit:10;fill-rule:nonzero;opacity:1" transform="matrix(2.81 0 0 2.81 1.407 1.407)"/></svg>
