<svg viewBox="0 0 512 512"><path d="M256.32 139.333C357.675 139.333 428.331 209.613 459.072 247.507C429.184 290.37 358.528 372.667 256.32 372.667C162.027 372.667 87.1467 290.16 54.1227 246.503C85.9733 208.073 156.885 139.333 256.32 139.333ZM256.32 92.6667C94.848 92.6667 0 245.523 0 245.523C0 245.523 103.147 419.333 256.32 419.333C421.291 419.333 512 245.523 512 245.523C512 245.523 420.459 92.6667 256.32 92.6667ZM256 209.333C279.531 209.333 298.667 230.263 298.667 256C298.667 281.737 279.531 302.667 256 302.667C232.469 302.667 213.333 281.737 213.333 256C213.333 230.263 232.469 209.333 256 209.333ZM256 162.667C208.875 162.667 170.667 204.48 170.667 256C170.667 307.543 208.875 349.333 256 349.333C303.125 349.333 341.333 307.543 341.333 256C341.333 204.48 303.125 162.667 256 162.667Z" fill="#1CD997"/></svg>
