<svg viewBox="0 0 24 24" fill="#1cd997"><path d="M17.246 4.042c-3.36 0-3.436-2.895-7.337-2.895-2.108 0-4.075.98-4.909 1.694v-2.841h-2v24h2v-9.073c1.184-.819 2.979-1.681 4.923-1.681 3.684 0 4.201 2.754 7.484 2.754 2.122 0 3.593-1.359 3.593-1.359v-12.028s-1.621 1.429-3.754 1.429zm1.754 5.223c-2.417 1.777-5.029-.34-6.35-1.212v3.669l.003.001c-.757-.279-1.645-.477-2.73-.477-1.979 0-3.71.679-4.923 1.339v-3.79c2.26-1.972 5.545-2.233 7.65-.742v-3.803c.966.756 2.288 1.792 4.596 1.792.627 0 1.215-.086 1.754-.223v3.446z"/></svg>
