<svg viewBox="0 0 512 512"><path d="M407 106.62a242.13 242.13 0 0 0-67.3-37.9L353 45.6a20.21 20.21 0 0 1 5.199-5.93c2.106-1.616 4.509-2.802 7.073-3.489A20.21 20.21 0 0 1 380.61 38.2l31.89 18.41c2.299 1.327 4.314 3.093 5.93 5.199a20.21 20.21 0 0 1 3.489 7.073c.687 2.564.863 5.238.516 7.87s-1.208 5.169-2.535 7.468l-12.9 22.4zm64.61 189.8C471.58 415.29 374.87 512 256 512S40.42 415.29 40.42 296.42 137.13 80.84 256 80.84s215.58 96.71 215.58 215.58h.03zm-175.16 0a40.43 40.43 0 0 0-7.42-23.337c-4.826-6.825-11.649-11.986-19.53-14.773v-83.15c0-3.574-1.42-7.001-3.947-9.528a13.47 13.47 0 0 0-19.056 0c-2.527 2.527-3.947 5.954-3.947 9.528v83.15a40.42 40.42 0 0 0-26.566 32.553c-1.019 7.341 0 14.819 2.945 21.619s7.702 12.66 13.753 16.939a40.41 40.41 0 0 0 20.553 7.322 40.42 40.42 0 0 0 21.365-4.427 40.43 40.43 0 0 0 15.951-14.887 40.42 40.42 0 0 0 5.889-21.009h.01zM256 282.95c-2.664 0-5.268.79-7.484 2.27s-3.941 3.584-4.961 6.045-1.286 5.17-.766 7.783a13.47 13.47 0 0 0 3.686 6.897 13.48 13.48 0 0 0 6.897 3.686c2.613.52 5.321.253 7.783-.767a13.47 13.47 0 0 0 8.315-12.444A13.49 13.49 0 0 0 256 282.95zM105 106.62a242.13 242.13 0 0 1 67.3-37.9L159 45.6a20.21 20.21 0 0 0-5.199-5.93c-2.106-1.616-4.509-2.802-7.073-3.489A20.21 20.21 0 0 0 131.39 38.2L99.5 56.61a20.21 20.21 0 0 0-9.419 12.272A20.21 20.21 0 0 0 92.1 84.22l12.9 22.4zm204.86-46.7v-33c-.021-7.131-2.863-13.965-7.904-19.008A27 27 0 0 0 282.95 0h-53.9a27 27 0 0 0-26.95 26.95v33a244.28 244.28 0 0 1 107.79 0l-.03-.03z" fill="#1cd997"/></svg>
