<svg viewBox="0 0 512 512"><path fill-rule="evenodd" d="M339.7 68.72a242.13 242.13 0 0 1 67.3 37.9l12.9-22.4c1.327-2.299 2.189-4.836 2.535-7.468s.171-5.306-.516-7.87a20.21 20.21 0 0 0-3.489-7.073c-1.616-2.106-3.631-3.872-5.93-5.199L380.61 38.2a20.21 20.21 0 0 0-15.338-2.019c-2.564.687-4.967 1.873-7.073 3.489A20.21 20.21 0 0 0 353 45.6l-13.3 23.12zM256 512c118.87 0 215.58-96.71 215.61-215.58h-.03c0-42.529-12.379-82.221-33.723-115.662l-300.19 295.786C171.657 498.949 212.333 512 256 512zm-137.057-49.296C71.016 423.131 40.42 363.281 40.42 296.42c0-118.87 96.71-215.58 215.58-215.58 68.002 0 128.753 31.65 168.293 80.993L295.678 288.562a40.43 40.43 0 0 0-6.648-15.479c-4.826-6.825-11.649-11.986-19.53-14.773v-83.15c0-3.574-1.42-7.001-3.947-9.528a13.47 13.47 0 0 0-19.056 0c-2.527 2.527-3.947 5.954-3.947 9.528v83.15a40.42 40.42 0 0 0-26.566 32.553c-1.019 7.341 0 14.819 2.945 21.619s7.702 12.66 13.753 16.939c4.49 3.175 9.563 5.389 14.903 6.528L118.943 462.704zM248.516 285.22c2.216-1.48 4.82-2.27 7.484-2.27a13.49 13.49 0 0 1 13.47 13.47 13.47 13.47 0 0 1-8.315 12.444c-2.462 1.02-5.17 1.287-7.783.767a13.48 13.48 0 0 1-6.897-3.686 13.47 13.47 0 0 1-3.686-6.897c-.52-2.613-.253-5.322.766-7.783s2.746-4.565 4.961-6.045zM172.3 68.72a242.13 242.13 0 0 0-67.3 37.9l-12.9-22.4a20.21 20.21 0 0 1-2.019-15.338c.687-2.564 1.873-4.967 3.489-7.073a20.21 20.21 0 0 1 5.93-5.199l31.89-18.41a20.21 20.21 0 0 1 15.338-2.019c2.564.687 4.967 1.873 7.073 3.489A20.21 20.21 0 0 1 159 45.6l13.3 23.12zm137.56-41.8v33l.03.03a244.28 244.28 0 0 0-107.79 0v-33A27 27 0 0 1 229.05 0h53.9a27 27 0 0 1 19.006 7.912c5.041 5.044 7.883 11.877 7.904 19.008z" fill="#1cd997"/><g filter="url(#A)"><path d="M65 493L452 108" stroke="#ff3a3a" stroke-width="40" stroke-linejoin="round"/></g><defs><filter id="A" x="46.895" y="93.821" width="423.211" height="421.357" filterUnits="userSpaceOnUse" color-interpolation-filters="sRGB"><feFlood flood-opacity="0" result="A"/><feColorMatrix in="SourceAlpha" values="0 0 0 0 0 0 0 0 0 0 0 0 0 0 0 0 0 0 127 0" result="B"/><feOffset dy="4"/><feGaussianBlur stdDeviation="2"/><feComposite in2="B" operator="out"/><feColorMatrix values="0 0 0 0 0 0 0 0 0 0 0 0 0 0 0 0 0 0 0.25 0"/><feBlend in2="A"/><feBlend in="SourceGraphic"/></filter></defs></svg>
