<svg xmlns="http://www.w3.org/2000/svg" width="30" height="30" viewBox="0 0 256 256" xml:space="preserve"><g style="stroke:none;stroke-width:0;stroke-dasharray:none;stroke-linecap:butt;stroke-linejoin:miter;stroke-miterlimit:10;fill:none;fill-rule:nonzero;opacity:1"><path d="M64.558 89H25.442v-2.896a5.383 5.383 0 0 1 5.382-5.382h28.352a5.383 5.383 0 0 1 5.382 5.382V89z" style="stroke:none;stroke-width:1;stroke-dasharray:none;stroke-linecap:butt;stroke-linejoin:miter;stroke-miterlimit:10;fill:#3e3d43;fill-rule:nonzero;opacity:1" transform="matrix(2.81 0 0 2.81 1.407 1.407)"/><path d="m25.563 44.699-.077-.001c-10.325-.303-18.412-8.635-18.412-18.97V11.19a2.58 2.58 0 0 1 2.581-2.581h15.397a2.58 2.58 0 1 1 0 5.162H12.237v11.957c0 7.523 5.886 13.589 13.4 13.809a2.582 2.582 0 0 1-.074 5.162z" style="stroke:none;stroke-width:1;stroke-dasharray:none;stroke-linecap:butt;stroke-linejoin:miter;stroke-miterlimit:10;fill:#fece00;fill-rule:nonzero;opacity:1" transform="matrix(2.81 0 0 2.81 1.407 1.407)"/><path d="M64.436 44.699a2.581 2.581 0 0 1-.074-5.162c7.515-.219 13.402-6.285 13.402-13.809V13.771H64.947a2.58 2.58 0 1 1 0-5.162h15.398a2.58 2.58 0 0 1 2.581 2.581v14.539c0 10.336-8.088 18.668-18.414 18.969l-.076.001z" style="stroke:none;stroke-width:1;stroke-dasharray:none;stroke-linecap:butt;stroke-linejoin:miter;stroke-miterlimit:10;fill:#daaf00;fill-rule:nonzero;opacity:1" transform="matrix(2.81 0 0 2.81 1.407 1.407)"/><path d="m25.563 45.699-.096-.001c-10.879-.319-19.393-9.09-19.393-19.969V11.19a3.586 3.586 0 0 1 3.582-3.582h15.397a3.586 3.586 0 0 1 3.582 3.582 3.585 3.585 0 0 1-3.582 3.581H13.237v10.958c0 6.979 5.459 12.605 12.429 12.809a3.585 3.585 0 0 1 3.475 3.685 3.564 3.564 0 0 1-3.578 3.476zM9.655 9.608c-.872 0-1.582.709-1.582 1.582v14.539c0 9.79 7.661 17.684 17.441 17.97l.048 1v-1c.86 0 1.554-.674 1.58-1.536a1.583 1.583 0 0 0-1.535-1.626c-8.058-.235-14.371-6.74-14.371-14.808V12.771h13.815c.872 0 1.582-.709 1.582-1.581s-.709-1.582-1.582-1.582H9.655zM64.436 45.699a3.565 3.565 0 0 1-3.579-3.477 3.587 3.587 0 0 1 3.476-3.684c6.971-.204 12.432-5.83 12.432-12.809V14.771H64.947a3.585 3.585 0 0 1-3.582-3.581 3.586 3.586 0 0 1 3.582-3.582h15.397a3.585 3.585 0 0 1 3.581 3.582v14.539c0 10.88-8.515 19.652-19.384 19.969l-.105.001zm.511-36.091c-.872 0-1.582.709-1.582 1.582 0 .872.71 1.581 1.582 1.581h13.816v12.958c0 8.068-6.313 14.573-14.373 14.808a1.583 1.583 0 0 0-1.534 1.627 1.572 1.572 0 0 0 1.579 1.535v1l.056-1.001c9.773-.285 17.435-8.178 17.435-17.969V11.19c0-.872-.709-1.582-1.581-1.582H64.947z" style="stroke:none;stroke-width:1;stroke-dasharray:none;stroke-linecap:butt;stroke-linejoin:miter;stroke-miterlimit:10;fill:#000;fill-rule:nonzero;opacity:1" transform="matrix(2.81 0 0 2.81 1.407 1.407)"/><path d="M18.184 1c2.247 1.082 3.641 3.136 3.641 6.272v26.279c0 11.471 8.674 20.913 19.82 22.133v20.672h4.899V55.685c11.146-1.22 19.82-10.662 19.82-22.133V7.272c0-3.136 1.393-5.19 3.641-6.272H18.184z" style="stroke:none;stroke-width:1;stroke-dasharray:none;stroke-linecap:butt;stroke-linejoin:miter;stroke-miterlimit:10;fill:#fece00;fill-rule:nonzero;opacity:1" transform="matrix(2.81 0 0 2.81 1.407 1.407)"/><path d="M58.342 1v27.979c0 12.325-8.261 22.713-19.546 25.95a22.17 22.17 0 0 0 3.754.755v20.672h4.899V55.685c11.146-1.22 19.82-10.662 19.82-22.133V7.272c0-3.136 1.393-5.19 3.641-6.272H58.342z" style="stroke:none;stroke-width:1;stroke-dasharray:none;stroke-linecap:butt;stroke-linejoin:miter;stroke-miterlimit:10;fill:#daaf00;fill-rule:nonzero;opacity:1" transform="matrix(2.81 0 0 2.81 1.407 1.407)"/><path d="M47.449 77.356H42.55a1 1 0 0 1-1-1V56.563c-11.361-1.682-19.82-11.42-19.82-23.012V7.272c0-2.582-1.034-4.389-3.074-5.372A1 1 0 0 1 19.09 0h51.82a1 1 0 0 1 .434 1.901c-2.04.982-3.074 2.79-3.074 5.372v26.279c0 11.591-8.459 21.33-19.82 23.012v19.793a1 1 0 0 1-1.001.999zm-3.899-2h2.899V55.685a1 1 0 0 1 .892-.994C58.132 53.51 66.27 44.422 66.27 33.552V7.272c0-2.138.586-3.918 1.719-5.272H22.012c1.132 1.354 1.718 3.134 1.718 5.272v26.279c0 10.87 8.138 19.958 18.929 21.139a1 1 0 0 1 .891.994v19.672z" style="stroke:none;stroke-width:1;stroke-dasharray:none;stroke-linecap:butt;stroke-linejoin:miter;stroke-miterlimit:10;fill:#000;fill-rule:nonzero;opacity:1" transform="matrix(2.81 0 0 2.81 1.407 1.407)"/><path d="M56.745 80.722h-23.49l.74-2.4a4.19 4.19 0 0 1 4.003-2.954h14.005a4.19 4.19 0 0 1 4.003 2.954l.739 2.4z" style="stroke:none;stroke-width:1;stroke-dasharray:none;stroke-linecap:butt;stroke-linejoin:miter;stroke-miterlimit:10;fill:#75747b;fill-rule:nonzero;opacity:1" transform="matrix(2.81 0 0 2.81 1.407 1.407)"/><path d="M56.745 81.722H33.254a1 1 0 0 1-.956-1.295l.741-2.399a5.163 5.163 0 0 1 4.958-3.659h14.005a5.163 5.163 0 0 1 4.957 3.659l.74 2.399a1 1 0 0 1-.954 1.295zm-22.135-2h20.78l-.34-1.104a3.175 3.175 0 0 0-3.047-2.249H37.998a3.172 3.172 0 0 0-3.047 2.249l-.341 1.104z" style="stroke:none;stroke-width:1;stroke-dasharray:none;stroke-linecap:butt;stroke-linejoin:miter;stroke-miterlimit:10;fill:#000;fill-rule:nonzero;opacity:1" transform="matrix(2.81 0 0 2.81 1.407 1.407)"/><path d="M65.558 90H24.442v-3.896a6.39 6.39 0 0 1 6.382-6.382h28.352a6.39 6.39 0 0 1 6.382 6.382V90zm-39.116-2h37.116v-1.896a4.387 4.387 0 0 0-4.382-4.382H30.824a4.387 4.387 0 0 0-4.382 4.382V88zM54.211 6.684H22.596a1 1 0 0 1 0-2h31.615a1 1 0 1 1 0 2zM61.855 6.684h-2.339a1 1 0 1 1 0-2h2.339a1 1 0 1 1 0 2z" style="stroke:none;stroke-width:1;stroke-dasharray:none;stroke-linecap:butt;stroke-linejoin:miter;stroke-miterlimit:10;fill:#000;fill-rule:nonzero;opacity:1" transform="matrix(2.81 0 0 2.81 1.407 1.407)"/><path d="M48.463 62.08h-6.927a3.236 3.236 0 0 1-3.226-3.226 3.236 3.236 0 0 1 3.226-3.226h6.927a3.236 3.236 0 0 1 3.226 3.226 3.235 3.235 0 0 1-3.226 3.226z" style="stroke:none;stroke-width:1;stroke-dasharray:none;stroke-linecap:butt;stroke-linejoin:miter;stroke-miterlimit:10;fill:#daaf00;fill-rule:nonzero;opacity:1" transform="matrix(2.81 0 0 2.81 1.407 1.407)"/><path d="M48.463 63.079h-6.926c-2.33 0-4.226-1.896-4.226-4.226s1.896-4.226 4.226-4.226h6.926c2.33 0 4.227 1.896 4.227 4.226s-1.897 4.226-4.227 4.226zm-6.926-6.451c-1.228 0-2.226.998-2.226 2.226s.999 2.226 2.226 2.226h6.926c1.228 0 2.227-.998 2.227-2.226s-.999-2.226-2.227-2.226h-6.926z" style="stroke:none;stroke-width:1;stroke-dasharray:none;stroke-linecap:butt;stroke-linejoin:miter;stroke-miterlimit:10;fill:#000;fill-rule:nonzero;opacity:1" transform="matrix(2.81 0 0 2.81 1.407 1.407)"/></g></svg>
