<?xml version="1.0" encoding="UTF-8" standalone="no"?>
<!-- Created with Inkscape (http://www.inkscape.org/) -->
<svg width="300mm" height="150mm" viewBox="0 0 300 150" version="1.1" id="svg2407" inkscape:version="1.1.2 (b8e25be833, 2022-02-05)" sodipodi:docname="Flag_of_the_Islamic_Emirate_of_Afghanistan.svg" xmlns:inkscape="http://www.inkscape.org/namespaces/inkscape" xmlns:sodipodi="http://sodipodi.sourceforge.net/DTD/sodipodi-0.dtd" xmlns="http://www.w3.org/2000/svg" xmlns:svg="http://www.w3.org/2000/svg" xmlns:rdf="http://www.w3.org/1999/02/22-rdf-syntax-ns#" xmlns:cc="http://creativecommons.org/ns#" xmlns:dc="http://purl.org/dc/elements/1.1/">
  <title id="title858">Flag of Taliban</title>
  <defs id="defs2401"/>
  <sodipodi:namedview id="base" pagecolor="#ffffff" bordercolor="#666666" borderopacity="1.0" inkscape:pageopacity="0.0" inkscape:pageshadow="2" inkscape:zoom="0.49497475" inkscape:cx="571.74634" inkscape:cy="135.36044" inkscape:document-units="mm" inkscape:current-layer="g989" showgrid="false" fit-margin-top="0" fit-margin-left="0" fit-margin-right="0" fit-margin-bottom="0" inkscape:window-width="1309" inkscape:window-height="639" inkscape:window-x="41" inkscape:window-y="50" inkscape:window-maximized="0" inkscape:snap-global="false" inkscape:pagecheckerboard="0"/>
  <metadata id="metadata2404">
    <rdf:RDF>
      <cc:Work rdf:about="">
        <dc:format>image/svg+xml</dc:format>
        <dc:type rdf:resource="http://purl.org/dc/dcmitype/StillImage"/>
        <dc:title>Flag of Taliban</dc:title>
        <dc:publisher>
          <cc:Agent>
            <dc:title>Lexicon on Wikimedia Commons</dc:title>
          </cc:Agent>
        </dc:publisher>
        <cc:license rdf:resource="http://creativecommons.org/publicdomain/zero/1.0/"/>
      </cc:Work>
      <cc:License rdf:about="http://creativecommons.org/publicdomain/zero/1.0/">
        <cc:permits rdf:resource="http://creativecommons.org/ns#Reproduction"/>
        <cc:permits rdf:resource="http://creativecommons.org/ns#Distribution"/>
        <cc:permits rdf:resource="http://creativecommons.org/ns#DerivativeWorks"/>
      </cc:License>
    </rdf:RDF>
  </metadata>
  <g inkscape:label="Layer 1" inkscape:groupmode="layer" id="layer1" transform="translate(332.18451,-79.880943)">
    <rect style="opacity:1;fill:#ffffff;fill-opacity:1;stroke:none;stroke-width:0.26178819;stroke-linecap:square;stroke-linejoin:miter;stroke-miterlimit:4;stroke-dasharray:none;stroke-opacity:1" id="rect1562-0" width="300" height="150" x="-332.18451" y="79.880943"/>
    <g id="g941" transform="translate(0,-0.52507887)">
      <g id="g989" transform="translate(1.0809739,-1.354835)">
        <path id="rect4336-7" style="display:inline;fill:#000000;fill-rule:evenodd;stroke:none;stroke-width:0.1087;enable-background:new" d="m -171.14998,185.34255 c -0.67506,0 -2.01022,0.72604 -3.07615,1.6726 -1.05659,0.93825 -1.42856,0.92623 -1.99263,-0.0651 -0.25071,-0.44058 -0.59223,-0.80191 -0.75906,-0.80266 -0.51004,-0.003 -2.23875,2.10312 -2.23875,2.72728 0,0.51929 0.10901,0.46709 0.94976,-0.45084 l 0.95049,-1.03696 0.39246,0.75758 c 0.21621,0.41678 0.32285,0.98073 0.2365,1.25279 -0.16102,0.50737 0.50425,0.73097 0.79159,0.26606 0.0776,-0.12557 0.99547,-0.30794 2.03994,-0.40503 1.99859,-0.18575 3.82511,-0.91995 4.1057,-1.65116 0.49855,-1.29916 -0.0982,-2.26461 -1.39985,-2.26461 z m -127.09563,0.0259 c -1.2313,-0.009 -1.41366,1.4189 -0.59571,4.5344 0.48015,1.82886 0.54596,2.88165 0.10645,1.69995 -0.23785,-0.6395 -1.13148,-1.44348 -1.60461,-1.44348 -0.20606,0 -0.36066,0.28643 -0.36066,0.66889 0,0.36794 0.0983,0.66891 0.21803,0.66891 0.11985,0 0.62424,0.54247 1.12048,1.20472 1.24355,1.65968 1.60534,1.57842 1.60534,-0.3592 0,-0.85964 -0.17922,-2.15414 -0.39837,-2.87657 -0.21918,-0.72248 -0.39976,-1.52446 -0.40135,-1.78199 -0.003,-0.54546 0.79887,-0.62983 1.2927,-0.13602 0.26461,0.2646 0.38195,0.25195 0.5765,-0.0629 0.34457,-0.55754 -0.54063,-1.98624 -1.2986,-2.09611 -0.0914,-0.0129 -0.17809,-0.0203 -0.26018,-0.0207 z m 43.8858,0.0296 c -0.093,-0.005 -0.21806,0.0186 -0.38212,0.0695 -0.33113,0.10269 -1.20429,0.35196 -1.94014,0.55434 -6.26422,1.72277 -8.47988,2.34084 -9.63349,2.68663 -2.1731,0.6514 -2.09774,0.68672 -2.55359,-1.22396 -0.46416,-1.94537 -1.17589,-2.50405 -1.47231,-1.15596 -0.0911,0.41449 -0.20665,0.88934 -0.25647,1.05544 -0.0497,0.16612 0.01,0.74579 0.13159,1.28754 0.20492,0.90857 0.16682,1.00682 -0.48929,1.27051 -0.39119,0.15721 -1.13236,0.37774 -1.64746,0.49002 -3.98093,0.86781 -9.45537,2.96184 -10.63127,4.06656 -0.62645,0.5885 -0.81245,1.65731 -0.33926,1.94976 0.14761,0.0912 0.8402,-0.13531 1.53883,-0.50334 0.69864,-0.36808 1.93262,-0.92851 2.74206,-1.24538 0.80946,-0.31689 1.75839,-0.69069 2.10941,-0.83002 2.8352,-1.12544 7.10555,-2.34685 7.27057,-2.07985 0.26212,0.42413 0.50304,4.21037 0.5595,8.80568 l 0.0474,3.87957 -4.3171,4.30455 c -4.62857,4.61452 -5.93715,5.52501 -7.14935,4.97269 -1.46956,-0.66957 -1.48067,-2.85883 -0.0334,-6.69777 l 0.84331,-2.23727 1.70512,-0.63933 c 0.93773,-0.35151 2.00363,-0.63931 2.3681,-0.63931 h 0.66223 l -0.49446,0.77901 c -0.272,0.42828 -0.9528,1.2882 -1.51295,1.91132 -1.07914,1.20046 -2.32597,3.42336 -2.32597,4.14638 0,0.67645 0.62285,0.31222 1.11236,-0.65041 0.24414,-0.4801 0.96644,-1.47516 1.60534,-2.2114 1.79811,-2.07206 3.42057,-4.57649 3.42872,-5.29199 0.0114,-0.98833 -0.72773,-1.62604 -1.88401,-1.62604 -0.56696,0 -2.15482,0.47525 -3.63785,1.08871 -4.91849,2.03456 -9.92611,3.58379 -12.93359,4.00227 -4.10544,0.57122 -4.93162,0.58806 -7.08282,0.14044 -3.40775,-0.70914 -4.96191,-2.03206 -4.95498,-4.21732 0.005,-1.66577 0.24254,-2.31139 0.88398,-2.40432 0.77134,-0.1117 1.78789,-1.70181 1.78789,-2.79678 0,-1.00553 -0.14713,-1.08938 -0.83149,-0.47005 -0.84185,0.76185 -1.12604,0.20307 -0.96676,-1.90319 0.0805,-1.06454 0.26898,-2.16161 0.41834,-2.43756 1.29242,-2.38772 1.73692,-4.31198 0.63784,-2.76057 -1.69139,2.38756 -2.26379,4.28292 -2.34073,7.74435 -0.0376,1.69246 -0.20239,3.41647 -0.36586,3.83076 -0.46545,1.17972 -0.35838,3.48166 0.22248,4.77684 0.66291,1.47814 1.22507,2.12076 2.55729,2.92315 1.01229,0.60969 1.30271,0.64451 5.35186,0.64451 4.84641,0 7.3714,-0.49408 13.09618,-2.56248 1.16905,-0.42238 2.15952,-0.73481 2.20033,-0.69403 0.0407,0.0408 -0.28422,0.95501 -0.72211,2.03106 -1.45399,3.57283 -1.29455,6.17058 0.48188,7.84338 1.26021,1.18669 2.72889,1.18314 4.34372,-0.01 0.51512,-0.38071 1.77913,-1.59521 2.80934,-2.6992 2.92911,-3.13896 4.73387,-4.84483 5.12569,-4.84483 0.26517,0 0.36155,0.47431 0.36585,1.80562 0.006,2.08992 0.61374,3.68773 1.73616,4.57061 0.83095,0.65364 3.21149,0.81245 4.20476,0.28087 1.06421,-0.56954 2.33975,-1.92088 2.89507,-3.06801 0.37474,-0.77413 0.68296,-1.10297 0.94162,-1.00371 0.21157,0.0812 0.38507,0.23999 0.38507,0.35328 0,0.38191 2.63241,1.34223 3.67926,1.34223 0.92481,0 1.08683,-0.10279 1.48857,-0.94533 0.59188,-1.24122 0.57598,-3.96522 -0.0304,-5.19959 -0.58113,-1.18317 -1.57879,-1.76044 -2.60017,-1.50409 -1.20627,0.30276 -3.4592,2.9502 -4.00521,4.70589 -0.45296,1.45647 -2.54064,2.6703 -4.59797,2.67407 -1.77673,0.003 -2.32471,-0.71091 -2.6046,-3.39693 -0.20294,-1.94751 0.0561,-2.221 2.10866,-2.221 0.95937,0 1.38307,0.1495 1.9032,0.66964 0.91911,0.91912 1.11987,0.84723 1.31635,-0.46859 0.40569,-2.71701 -1.58778,-4.06423 -4.48489,-3.03033 l -1.0037,0.35846 -0.004,-0.83815 c -0.003,-0.46095 -0.11455,-2.52426 -0.24981,-4.58464 -0.13516,-2.06042 -0.28381,-4.5842 -0.33038,-5.60833 l -0.085,-1.86181 0.80268,-0.19809 c 0.44151,-0.10912 1.46552,-0.39185 2.27495,-0.62823 2.63125,-0.76835 5.45995,-1.51915 6.62608,-1.75758 0.62757,-0.12831 1.37229,-0.35654 1.65485,-0.50778 0.28257,-0.15122 0.75397,-0.27493 1.04731,-0.27493 0.58014,0 1.64229,-1.16903 1.64229,-1.80711 0,-0.18009 -0.0645,-0.26968 -0.21952,-0.27865 z m 3.72214,0.21212 c -0.12029,0 -0.41439,0.51245 -0.65338,1.13822 -0.35257,0.9232 -0.3846,1.44046 -0.17146,2.74281 0.14445,0.88273 0.38697,4.13341 0.53953,7.224 0.15256,3.0906 0.40491,6.58248 0.56025,7.75986 0.15535,1.17737 0.29793,4.08881 0.31706,6.46938 0.0192,2.38056 0.13145,4.26858 0.24908,4.19588 0.11757,-0.0726 0.40337,-0.57568 0.63565,-1.11752 0.73567,-1.71613 0.90062,-4.22666 0.62749,-9.54774 -0.14354,-2.79625 -0.37631,-6.10756 -0.51738,-7.35852 -0.14101,-1.25097 -0.31547,-3.0867 -0.38802,-4.07988 l -0.1323,-1.80562 0.70436,0.4612 0.70437,0.46196 -0.18329,-0.93055 c -0.31883,-1.61263 -1.95238,-5.61348 -2.29196,-5.61348 z m 52.86072,0 c -1.23955,0 -4.32722,2.60259 -6.13087,5.16782 -1.31928,1.87633 -7.39248,8.74728 -7.73177,8.74728 -0.12243,0 -0.43798,-0.21104 -0.7014,-0.46859 -0.26345,-0.25754 -1.6679,-1.55204 -3.12125,-2.87658 -2.73769,-2.49507 -5.83269,-5.61906 -5.98821,-6.0444 -0.0491,-0.13415 0.16197,-0.24391 0.46859,-0.24391 0.3066,0 0.55729,-0.16016 0.55729,-0.35626 0,-0.51013 -3.98499,-3.45808 -4.43907,-3.28383 -0.24641,0.0945 -0.37767,0.55685 -0.37767,1.33188 0,0.9678 0.17561,1.39731 0.949,2.323 0.5218,0.62453 1.3637,1.76027 1.87066,2.52403 0.85413,1.2868 4.17646,4.65733 7.59726,7.70664 l 1.43756,1.28086 -0.77605,0.74281 c -1.09607,1.04837 -4.76075,3.95537 -6.87886,5.45681 -1.71112,1.21292 -2.18839,1.80786 -1.45086,1.80786 0.50443,0 6.95632,-3.8181 7.68743,-4.5492 0.0735,-0.0736 0.70929,-0.5962 1.41317,-1.16187 l 1.28013,-1.02884 0.92757,0.70807 c 0.51029,0.38922 0.92832,0.81038 0.92832,0.93645 0,0.126 -0.48227,1.15501 -1.07096,2.28605 -0.93691,1.80004 -1.07023,2.27901 -1.07023,3.84482 0,2.9994 1.19414,3.7423 3.7066,2.306 1.41396,-0.80832 1.37765,-0.80651 1.37918,-0.0635 10e-4,0.88004 1.06279,2.01229 2.13896,2.28237 1.12188,0.28152 3.09898,-0.16887 4.20106,-0.95641 0.41209,-0.29449 1.10997,-0.96868 1.55065,-1.49889 0.94796,-1.14058 1.20548,-1.202 1.20548,-0.28605 0,1.61208 1.47646,2.57368 3.56765,2.32374 0.7244,-0.0865 1.34792,-0.4285 2.12198,-1.16483 l 1.09609,-1.04287 0.70289,0.67332 c 0.81544,0.78123 2.09995,0.88961 3.06285,0.25869 0.89499,-0.58644 1.8507,-2.92322 1.66446,-4.07099 -0.14938,-0.92053 -0.59281,-1.66889 -0.98893,-1.66889 -0.3593,0 -0.85254,1.85939 -0.67775,2.55582 0.14993,0.59743 0.086,0.65484 -0.73541,0.65484 -1.24966,0 -1.8146,-0.68524 -1.60903,-1.95197 0.2311,-1.42406 -0.26071,-1.2601 -1.40947,0.47008 -1.20134,1.80932 -1.90518,2.28457 -3.38141,2.28457 -1.69255,0 -2.3437,-0.56177 -2.3437,-2.0222 0,-0.77764 -0.11528,-1.18559 -0.33407,-1.17962 -0.18397,0.005 -1.09004,0.70968 -2.01332,1.56543 -1.7542,1.6259 -2.97335,2.17812 -4.77461,2.16336 -1.80395,-0.0146 -2.40971,-0.93845 -1.5743,-2.39986 0.21034,-0.36794 0.38651,-0.99739 0.39174,-1.39914 0.0114,-0.86456 -0.67533,-2.71823 -1.39025,-3.75169 l -0.50925,-0.73539 1.00813,-1.27128 c 0.55431,-0.69916 1.14258,-1.39163 1.30748,-1.5388 0.8531,-0.76144 7.1925,-9.26279 7.65934,-10.27134 0.67609,-1.46061 0.93906,-3.75345 0.52033,-4.53588 -0.17945,-0.33529 -0.56782,-0.57945 -0.92315,-0.57945 z m -93.58832,0.005 c -0.49872,0.0165 -0.59972,0.17895 -0.80342,0.62602 -0.17707,0.38863 -0.4103,0.70659 -0.5181,0.70659 -0.10779,0 -0.25757,0.16106 -0.33334,0.35846 -0.10581,0.27573 0.21316,0.35359 1.37621,0.33483 0.83266,-0.0129 1.5496,0.096 1.59351,0.24316 0.0439,0.14717 -0.97936,0.7859 -2.27423,1.41982 -1.29487,0.63389 -2.76592,1.35754 -3.26906,1.60755 -1.19516,0.59386 -1.44003,1.21166 -0.38284,0.96675 0.41911,-0.0971 1.11148,-0.34328 1.53881,-0.54694 0.42734,-0.20367 0.91516,-0.3703 1.08353,-0.3703 0.73716,0 4.10457,-1.96398 4.89655,-2.85589 1.50671,-1.6968 1.18725,-2.14344 -1.72506,-2.41538 -0.40116,-0.0375 -0.70593,-0.0646 -0.94308,-0.0732 -0.089,-0.003 -0.16824,-0.004 -0.23948,-10e-4 z m 185.81742,0.0525 c -0.20334,0.0129 -0.36269,0.22255 -0.46562,0.63269 -0.13631,0.54284 -0.0307,0.87652 0.43533,1.37325 0.54799,0.58393 0.61491,0.91227 0.60163,2.97564 -0.01,1.65848 -0.14409,2.54788 -0.46712,3.12197 -0.24842,0.4415 -0.45232,1.01534 -0.45307,1.27569 -0.001,0.56022 0.3982,0.48882 3.46935,-0.61864 5.186323,-1.87018 6.045175,-2.20161 6.282395,-2.42499 0.139744,-0.13173 0.422365,-0.23946 0.62823,-0.23946 0.205876,0 0.754294,-0.16266 1.218045,-0.36143 1.830958,-0.78481 3.81321,-1.51146 4.122751,-1.51146 0.393884,0 1.745851,-2.07006 1.554322,-2.37992 -0.113997,-0.1845 -1.218507,0.11885 -3.09463,0.84923 -0.220751,0.086 -1.304961,0.46113 -2.40875,0.83371 -2.570334,0.86759 -8.048613,2.95445 -8.773173,3.34222 -0.90894,0.48646 -1.1447,0.37942 -0.85292,-0.38803 0.5068,-1.33296 0.30763,-3.40639 -0.47524,-4.952 -0.52243,-1.03142 -0.98262,-1.55094 -1.32153,-1.52847 z m -54.67891,0.0304 c -0.10042,0.009 -0.20261,0.0277 -0.30378,0.06 -0.50487,0.16025 -0.5456,0.32469 -0.41611,1.68665 0.079,0.83029 0.23257,1.75076 0.34147,2.0451 0.16273,0.43989 0.13444,0.47597 -0.16186,0.20104 -0.44056,-0.40876 -1.32374,-0.44201 -1.32374,-0.0495 0,0.43322 1.69179,2.38034 2.07319,2.38584 0.21441,0.003 0.3348,-0.39213 0.3348,-1.10127 0,-0.60841 -0.13658,-1.56257 -0.30376,-2.12048 -0.35092,-1.17128 -0.13516,-2.13597 0.36586,-1.63491 0.48855,0.48855 0.74058,0.37025 0.74058,-0.34739 0,-0.68207 -0.6435,-1.1824 -1.34665,-1.12489 z m -23.38452,0.1796 c -0.55215,0 -1.21596,2.28067 -0.94975,3.26388 0.13157,0.48576 0.42467,4.13435 0.6519,8.10797 0.2272,3.97362 0.5452,8.60991 0.70584,10.30237 0.16065,1.69248 0.23053,4.18318 0.15521,5.53516 -0.15833,2.84206 0.18563,3.11047 1.03918,0.81006 0.45392,-1.22333 0.51079,-2.02102 0.46045,-6.47899 -0.0315,-2.79627 -0.24215,-6.83061 -0.46784,-8.96459 -0.22568,-2.13401 -0.41066,-4.5164 -0.41095,-5.29422 -3.6e-4,-1.36342 0.0199,-1.40271 0.57354,-1.10643 0.55662,0.2979 0.56917,0.27189 0.39026,-0.84701 -0.1015,-0.63485 -0.29144,-1.28315 -0.42203,-1.44053 -0.13058,-0.15734 -0.50413,-1.09671 -0.82927,-2.08722 -0.32517,-0.99052 -0.72824,-1.80045 -0.89654,-1.80045 z m -7.25653,0.0273 c -0.7924,0.01 -1.01136,0.16882 -1.56247,0.89137 -0.38539,0.50526 -0.70066,0.99062 -0.70066,1.07907 0,0.0886 0.5722,0.0918 1.27126,0.006 1.09544,-0.13243 2.31319,0.16706 1.93202,0.47525 -0.0694,0.0561 -1.45061,0.74256 -3.06951,1.52478 -3.2321,1.56168 -3.67223,1.83526 -3.47083,2.16114 0.12988,0.21008 2.37919,-0.41506 2.93573,-0.81597 0.14716,-0.10602 0.59406,-0.27054 0.99335,-0.36586 1.19605,-0.28551 3.78016,-1.93241 4.44276,-2.83151 1.11196,-1.50882 0.5038,-2.04793 -2.39396,-2.12195 -0.13931,-0.004 -0.26448,-0.005 -0.37769,-0.004 z m -28.26925,0.009 c -0.20314,0.0211 -0.34564,0.22074 -0.52254,0.60903 -0.25085,0.55053 -0.1946,0.75404 0.38507,1.37916 0.37393,0.4033 0.81231,1.25685 0.97339,1.89655 0.30279,1.20244 0.64333,1.47479 0.92537,0.73983 0.0894,-0.23278 0.16253,-0.62442 0.16259,-0.86991 1e-4,-0.39235 0.41322,-0.4492 3.41171,-0.46787 2.721,-0.0169 3.76092,-0.1366 5.13899,-0.59129 1.83878,-0.60664 2.17111,-0.58913 1.61347,0.0828 -0.23726,0.28587 -0.26142,0.50577 -0.0746,0.69254 0.37891,0.3789 2.48259,-2.10576 2.48487,-2.93497 0.001,-0.58435 -0.0732,-0.6182 -0.99262,-0.44568 -0.5468,0.10258 -1.29958,0.34352 -1.67259,0.5351 -0.37301,0.19157 -1.91484,0.56355 -3.4265,0.82705 -2.64752,0.46152 -2.82386,0.46171 -4.81599,-0.005 -1.13745,-0.26699 -2.35562,-0.7102 -2.7066,-0.98448 -0.41738,-0.32618 -0.68084,-0.48318 -0.88398,-0.46194 z m 73.33171,7.5e-4 c -0.006,-0.003 -0.0152,-10e-4 -0.0252,0.001 -0.0481,0.0156 -0.1353,0.0955 -0.26905,0.22913 -0.87409,0.87426 -1.30196,3.34403 -0.68588,3.96011 0.39962,0.39962 0.3605,0.40375 0.86402,-0.0998 0.54716,-0.54719 0.53825,-1.18481 -0.0164,-1.18481 -0.44379,0 -0.42915,-0.5833 0.06,-2.40797 0.0871,-0.32518 0.11956,-0.48164 0.0724,-0.49816 z m 81.72718,0.003 c -0.467807,0.0381 -3.476074,1.17203 -5.5625,2.10792 -0.588693,0.26408 -1.913651,0.80705 -2.943848,1.20623 -4.509666,1.74744 -6.287568,3.01794 -6.287568,4.49302 0,0.75671 0.01835,0.76823 0.60164,0.3592 0.331131,-0.23221 1.384868,-0.89561 2.341478,-1.47452 2.032564,-1.23 5.659072,-2.94548 8.294958,-3.92315 2.561857,-0.95023 3.088076,-1.24787 3.408753,-1.92981 0.182457,-0.38793 0.274823,-0.76212 0.20547,-0.83149 -0.0071,-0.006 -0.02718,-0.01 -0.05835,-0.006 z m -88.354,0.0114 c -0.21545,0.003 -0.39845,0.17761 -0.53365,0.53142 -0.17834,0.46683 -0.11541,0.75574 0.2513,1.15745 1.22744,1.34429 1.36156,3.29207 0.41391,6.00447 -0.65872,1.88541 -0.63906,2.29886 0.0961,2.01111 0.22843,-0.0894 1.43864,-0.50919 2.68959,-0.93201 1.25095,-0.42284 3.83996,-1.38595 5.75319,-2.14045 1.91322,-0.75451 3.84012,-1.49474 4.28162,-1.64525 0.44152,-0.1505 1.18223,-0.44272 1.64599,-0.64894 0.46376,-0.2062 0.94911,-0.37472 1.07908,-0.37472 0.30601,0 1.15449,-1.43511 1.15449,-1.9527 0,-0.42363 -1.45242,-0.0287 -5.75245,1.5632 -1.0302,0.38139 -2.17458,0.79274 -2.54252,0.91428 -0.36791,0.12156 -1.92645,0.71562 -3.46343,1.32004 -3.27611,1.2883 -3.61729,1.33929 -3.31119,0.49666 0.4448,-1.22439 0.21603,-3.56549 -0.48115,-4.9202 -0.47212,-0.9174 -0.9218,-1.38953 -1.28087,-1.38436 z m 43.29819,0.0114 c -0.0999,0.004 -0.20887,0.0658 -0.33628,0.17147 -0.57156,0.47434 -0.68806,1.88552 -0.26756,3.24466 0.53781,1.73829 0.85365,5.5406 1.1663,14.0415 0.35853,9.74816 0.66617,10.82525 3.29863,11.55368 0.61261,0.16951 1.15142,0.31961 1.19734,0.33408 0.046,0.0144 0.70806,-0.17191 1.47158,-0.41465 0.7635,-0.24274 1.57844,-0.60387 1.81078,-0.80266 0.23235,-0.19878 0.54446,-0.36143 0.69402,-0.36143 0.149583,0 0.490467,-0.2415 0.756845,-0.53584 0.672135,-0.74268 1.075427,-0.67572 2.379926,0.39319 0.768943,0.63012 1.683001,1.05663 2.847024,1.32818 1.528091,0.35648 1.930296,0.35521 3.699966,-0.01 2.76014,-0.57011 4.617835,-1.84835 5.679269,-3.90763 0.669767,-1.29935 0.676775,-4.41433 0.01292,-6.04884 -0.989372,-2.43744 -3.477547,-4.1668 -4.998567,-3.47378 -1.071433,0.48817 -2.112826,2.27262 -2.262397,3.8766 l -0.133738,1.43461 -1.070971,-0.59204 c -0.944595,-0.52241 -1.478568,-0.59396 -4.548453,-0.60902 -4.459084,-0.022 -6.032494,0.43961 -6.830054,2.00298 -0.69824,1.36867 -0.69597,1.97421 0.006,1.75759 0.29433,-0.0907 0.7454,-0.22744 1.00295,-0.30378 0.25755,-0.0764 1.12462,0.24067 1.9261,0.70437 l 1.45679,0.84332 -0.60903,0.49299 c -1.18238,0.95743 -4.00813,1.3629 -4.86701,0.69845 -0.90963,-0.70374 -1.1065,-2.13043 -1.33482,-9.69113 -0.24246,-8.02967 -0.58777,-11.96726 -1.25499,-14.31572 -0.3778,-1.32978 -0.59395,-1.82484 -0.89358,-1.8108 z m 27.4097,0.0129 c -0.149498,-0.0498 -0.464367,0.40029 -0.699937,0.99999 -0.335024,0.85291 -0.375377,1.39341 -0.184036,2.48266 0.373211,2.12479 1.13555,14.63929 1.26239,20.72596 0.06207,2.98022 0.202911,5.41838 0.313377,5.41838 0.110456,0 0.355192,-0.33143 0.543988,-0.73615 1.057041,-2.26603 1.271611,-5.07033 0.82631,-10.82271 -0.140166,-1.81088 -0.385313,-5.09847 -0.544723,-7.30605 -0.159408,-2.20757 -0.355202,-4.31163 -0.434589,-4.67558 -0.137162,-0.62855 -0.11942,-0.6394 0.350341,-0.21433 0.293301,0.26545 0.63441,0.36169 0.838134,0.23578 0.26399,-0.16316 0.07174,-0.88371 -0.828534,-3.1146 -0.644243,-1.59629 -1.293234,-2.94353 -1.442721,-2.99335 z m -152.87632,0.0185 c -0.0664,0.004 -0.13186,0.0149 -0.1966,0.031 -0.39192,0.0985 -0.87245,0.3812 -1.06726,0.62897 -0.4638,0.58996 -0.30301,3.39356 0.31706,5.53443 0.25577,0.88301 0.51733,2.08759 0.58169,2.67629 l 0.11757,1.07022 -0.44272,-0.85958 c -0.44507,-0.86402 -1.97619,-2.21732 -2.50853,-2.21731 -0.15698,0 -0.28529,0.40724 -0.28529,0.9054 0,0.65601 0.17332,1.01951 0.62972,1.31856 0.34659,0.2271 1.07976,1.0898 1.62898,1.91722 1.10462,1.66419 1.59411,1.66857 1.90394,0.017 0.09,-0.47934 -0.0396,-1.82147 -0.28825,-2.98302 -0.66095,-3.08703 -0.81136,-5.72437 -0.32594,-5.72437 0.21001,0 0.59985,0.24078 0.86621,0.53512 0.7528,0.83181 1.204,0.67358 1.204,-0.42203 0,-1.24159 -1.13901,-2.4908 -2.13451,-2.42795 z m 78.56012,0.0208 c -0.0857,-0.003 -0.1789,0.0551 -0.29342,0.15003 -0.64217,0.53297 -0.68968,2.00996 -0.15078,4.68888 0.36621,1.82045 0.57665,4.25206 0.68146,7.87146 0.337,11.63655 0.84443,15.11934 2.33999,16.05335 0.84883,0.53011 1.86189,0.8071 2.47675,0.67702 0.29435,-0.0622 0.67056,-0.11485 0.83592,-0.11671 0.33139,-0.004 2.50926,-1.915 2.50926,-2.20179 0,-0.0987 0.25808,-0.61856 0.57429,-1.1545 l 0.57501,-0.97412 0.72802,1.15966 c 0.66539,1.05996 2.07622,2.35103 2.59352,2.37325 0.11628,0.004 0.69293,0.24189 1.2816,0.52624 0.76613,0.37007 1.65727,0.51974 3.13456,0.52624 2.29177,0.01 4.03283,-0.53365 6.03034,-1.88175 0.64016,-0.43204 1.20861,-0.78567 1.26314,-0.78567 0.0545,0 0.17186,0.33143 0.26089,0.73615 0.21717,0.98729 1.65455,1.94014 2.92684,1.94014 1.2087,0 3.10982,-1.04749 4.02591,-2.21805 l 0.6482,-0.82779 0.46342,0.97265 c 0.54983,1.153 1.60397,1.66995 2.95863,1.45013 1.14984,-0.18659 1.83731,-0.75722 2.43758,-2.02218 l 0.44346,-0.9335 0.32151,0.78789 c 0.51261,1.25629 1.35497,1.8544 2.61419,1.8544 1.33787,0 2.04811,-0.57408 2.82266,-2.28161 0.65335,-1.44035 0.69554,-2.8568 0.14258,-4.81822 -0.22684,-0.80472 -0.53487,-1.94496 -0.68439,-2.53363 -0.14954,-0.5887 -0.3853,-1.18467 -0.52403,-1.32449 -0.43111,-0.43447 -0.27743,-0.94975 0.28307,-0.94975 0.73944,0 0.68005,-0.26046 -0.43458,-1.90984 -1.57948,-2.33722 -1.62574,-2.36284 -2.12197,-1.17518 -0.39604,0.94788 -0.39485,1.18935 0.0146,3.06064 0.50259,2.29588 1.43221,5.37553 1.74355,5.77757 0.11398,0.14719 0.39311,0.71706 0.62084,1.26682 0.36977,0.89276 0.3708,1.04314 0.009,1.40504 -0.23549,0.23549 -0.88389,0.40504 -1.54842,0.40504 -1.43066,0 -2.1307,-0.67598 -2.08059,-2.0089 0.0481,-1.28413 -0.45795,-1.18066 -1.34073,0.27421 -1.77972,2.93311 -5.12367,3.0307 -4.66078,0.13603 0.0946,-0.59246 0.0952,-1.07689 7.4e-4,-1.07689 -0.0942,0 -1.00147,0.78249 -2.01552,1.73911 l -1.84334,1.7391 h -1.72506 c -1.99666,0 -2.50294,-0.44611 -2.0015,-1.76496 0.44667,-1.1748 -0.0497,-1.23163 -1.75611,-0.20029 -3.02913,1.83075 -3.74461,2.04897 -6.81602,2.07539 -2.61884,0.0225 -2.9044,-0.0286 -4.20106,-0.74724 -1.80756,-1.0017 -2.4232,-1.68376 -2.6933,-2.98376 -0.12129,-0.5838 -0.33059,-1.06135 -0.46489,-1.06135 -0.1343,0 -0.84343,0.85279 -1.57579,1.8958 -1.47262,2.09749 -2.41568,2.78641 -3.8145,2.78641 -2.30492,0 -2.6825,-1.04899 -2.88696,-8.0274 -0.26687,-9.11003 -0.6306,-13.98665 -1.19511,-16.02378 -0.48731,-1.75851 -0.67566,-2.31648 -0.93276,-2.32522 z m 41.09197,0.003 c -0.31856,0.015 -0.78696,0.12686 -1.38582,0.33483 -0.40283,0.13987 -5.80902,1.64523 -8.56252,2.38434 -0.80944,0.21727 -2.10394,0.57117 -2.8766,0.78641 -0.77263,0.21523 -2.03668,0.56041 -2.80933,0.76719 -10.86147,2.90688 -12.69392,3.75048 -13.96095,6.42872 -0.829,1.7524 -0.83691,1.87781 -0.15446,2.56025 0.61507,0.61508 1.03512,0.6617 2.00076,0.22174 0.95183,-0.43368 1.83746,-1.93816 1.66667,-2.8315 -0.13987,-0.7316 0.37376,-1.37809 1.10867,-1.39543 0.19852,-0.004 0.74023,-0.18718 1.204,-0.40576 1.10009,-0.51856 10.16927,-3.50393 12.75103,-4.19739 1.10377,-0.29646 2.36781,-0.63655 2.80933,-0.7561 4.19976,-1.1372 6.33318,-1.65062 6.43537,-1.54842 0.067,0.067 -0.11915,0.82261 -0.41389,1.67924 -0.71511,2.07851 -0.69436,3.40128 0.0665,4.28237 0.52585,0.60893 0.66348,0.65195 1.08796,0.33999 0.27953,-0.20543 0.55145,-0.84972 0.64082,-1.51591 0.14869,-1.10871 0.13216,-1.14541 -0.40061,-0.86031 -0.46574,0.24925 -0.58385,0.2125 -0.72285,-0.22543 -0.33558,-1.05731 0.69607,-4.34405 1.59871,-5.09317 0.22245,-0.18463 0.40428,-0.50399 0.40428,-0.70954 0,-0.17971 -0.16851,-0.26111 -0.48707,-0.24612 z m -130.23531,0.0776 c -0.1336,-0.001 -0.39966,0.23571 -0.74725,0.74723 -0.78008,1.14801 -0.99448,3.22211 -0.39542,3.82118 0.52072,0.52072 1.52787,0.36942 2.23284,-0.33557 0.49934,-0.49933 0.65706,-0.94055 0.65706,-1.84035 0,-1.19421 -0.51232,-1.99576 -1.05913,-1.65782 -0.36932,0.22825 -0.35755,1.29364 0.0185,1.66965 0.42336,0.42336 0.0527,0.87953 -0.71472,0.87953 -0.52171,0 -0.65337,-0.13731 -0.65337,-0.6822 0,-0.37525 0.1879,-1.04585 0.4176,-1.49002 0.36919,-0.71393 0.41574,-1.10973 0.2439,-1.11163 z m 111.27507,0.1626 c -0.0882,0.0271 -0.2338,0.23107 -0.43163,0.6216 -0.56817,1.12164 -0.77348,2.60479 -0.47007,3.40283 0.32626,0.85813 0.6553,0.88812 1.20179,0.108 0.55156,-0.78746 0.5257,-1.01107 -0.11829,-1.01107 -0.60526,0 -0.63199,-0.19381 -0.25203,-1.84186 0.20316,-0.88125 0.21709,-1.32478 0.0702,-1.27939 z m -37.4807,0.3836 c 0.10602,0.003 0.20833,0.0175 0.30081,0.0451 0.24939,0.0741 0.3457,0.17819 0.39838,0.43091 0.0285,0.13659 0.016,0.1624 -0.12487,0.24834 -0.0864,0.0527 -0.20352,0.096 -0.25941,0.0961 -0.056,1e-4 -0.22214,0.0636 -0.36955,0.14116 -0.2616,0.1376 -0.72907,0.24264 -1.37326,0.30821 -0.15609,0.0159 -0.33164,0.039 -0.39024,0.051 -0.0817,0.0169 -0.12871,-0.0144 -0.20105,-0.13301 -0.052,-0.0851 -0.0945,-0.16862 -0.0946,-0.18625 -2.7e-4,-0.0492 0.24135,-0.22838 0.30821,-0.22838 0.0326,0 0.16323,-0.07 0.28973,-0.15597 0.12644,-0.086 0.30437,-0.18571 0.39542,-0.22099 0.0911,-0.0354 0.20814,-0.10021 0.26017,-0.14486 0.19377,-0.16598 0.54221,-0.26068 0.86032,-0.25129 z m -100.78351,0.5972 c -0.36108,0 -5.00856,1.44286 -5.91579,1.83668 -1.08305,0.4701 -3.49451,1.37399 -3.66521,1.37399 -0.0968,0 -1.11773,0.43569 -2.26905,0.96822 -1.15134,0.53252 -2.72266,1.24686 -3.49152,1.5876 -1.39864,0.61982 -2.2983,1.64581 -2.66005,3.03402 -0.36195,1.38895 0.73242,2.69163 2.26905,2.70142 0.53777,0.003 0.60796,-0.10979 0.53512,-0.86549 -0.0656,-0.67967 -0.27281,-0.95756 -0.94754,-1.27125 -0.47483,-0.22075 -0.82909,-0.52174 -0.78714,-0.66891 0.0961,-0.33723 3.89356,-2.26532 6.05178,-3.07243 0.89686,-0.33542 1.69544,-0.71454 1.77459,-0.8426 0.0791,-0.128 0.32992,-0.2328 0.55654,-0.2328 0.22662,0 0.79125,-0.16888 1.255,-0.37547 0.46375,-0.20658 2.26638,-0.82532 4.00595,-1.37548 2.33179,-0.73744 3.26927,-1.16361 3.5684,-1.62011 0.42491,-0.64849 0.29918,-1.17739 -0.28013,-1.17739 z m 185.811533,0.26756 c -0.693544,0 -2.401549,3.76186 -2.408739,5.30529 -0.0032,0.69221 1.337456,2.18701 1.961596,2.187 0.220138,0 0.761054,-0.20679 1.201771,-0.45972 0.440728,-0.25294 1.006507,-0.80766 1.257214,-1.23209 0.638645,-1.08112 0.625696,-3.11116 -0.02519,-4.00225 -0.634097,-0.8682 -0.870358,-0.82095 -1.327414,0.26608 -0.326052,0.77546 -0.301845,0.90385 0.299336,1.59721 l 0.653363,0.75314 -0.569848,0.4686 c -0.313383,0.25755 -0.853115,0.46858 -1.199564,0.46859 -1.287438,0 -1.346821,-1.5408 -0.154469,-3.99782 0.664364,-1.36906 0.660898,-1.35403 0.311888,-1.35403 z m -112.079973,0.9416 c 0.65843,0.0143 0.51157,0.87685 -0.45529,2.33189 -0.47964,0.72181 -1.0862,1.5416 -1.34814,1.82114 -0.26192,0.27955 -0.57187,0.67531 -0.68883,0.87953 -0.117,0.20425 -0.93321,1.248 -1.81377,2.32007 -0.88055,1.07205 -1.89492,2.33661 -2.25427,2.81006 -0.35933,0.47345 -0.7937,0.98878 -0.96454,1.14488 -0.1708,0.1561 -0.43286,0.46218 -0.58315,0.67997 -0.62373,0.9039 -1.76691,2.15819 -1.96675,2.15819 -0.11799,0 -0.58838,-0.38092 -1.0451,-0.84628 -0.94897,-0.96694 -1.03631,-0.69711 0.8485,-2.62824 0.52174,-0.53456 1.24546,-1.34562 1.60829,-1.80194 0.36282,-0.45633 1.40503,-1.70828 2.31563,-2.78273 0.91057,-1.07445 1.65558,-2.02458 1.65558,-2.11088 0,-0.28386 3.59699,-3.65233 4.1072,-3.8463 0.23752,-0.0902 0.43269,-0.1326 0.58464,-0.1293 z m -30.32694,0.53069 c -0.4054,0.0471 -1.05472,2.04937 -0.87953,2.84703 0.19002,0.86513 1.02611,1.05745 1.31562,0.30303 0.10678,-0.2786 0.0129,-0.58125 -0.23873,-0.76496 -0.47831,-0.34976 -0.53408,-0.99673 -0.14782,-1.71843 0.15502,-0.28967 0.16671,-0.56398 0.028,-0.64968 -0.0244,-0.0152 -0.0506,-0.02 -0.0776,-0.017 z m 17.08366,1.83741 c -0.0534,0.0194 -0.1808,0.16152 -0.40208,0.43311 -0.64558,0.79243 -0.94353,2.15765 -0.70658,3.23655 0.20236,0.92132 0.78594,1.01662 1.22322,0.19955 0.25646,-0.47919 0.22824,-0.64139 -0.16111,-0.9261 -0.47011,-0.34375 -0.46818,-1.24474 0.005,-2.64082 0.074,-0.21839 0.0949,-0.32159 0.0414,-0.30229 z m 145.531098,0.29934 c -0.103977,-0.038 -0.3765,0.34945 -0.793062,1.17148 -0.975805,1.92567 -0.853832,3.782 0.24908,3.782 0.16189,0 0.439073,-0.14417 0.61568,-0.32078 0.442163,-0.44215 0.404462,-1.28456 -0.05764,-1.28456 -0.583171,0 -0.64842,-0.54841 -0.232816,-1.96675 0.25786,-0.87995 0.322793,-1.34342 0.218771,-1.38139 z m -101.124238,0.40429 c -1.06518,0 -1.27768,0.11102 -2.02219,1.051 -0.84318,1.06476 -0.73511,1.64415 0.19808,1.06136 0.67703,-0.42281 2.62123,-0.0844 2.22913,0.38803 -0.14971,0.18038 -1.66192,0.98653 -3.35995,1.79084 -3.12521,1.48035 -4.21434,2.35035 -2.49447,1.99262 0.47814,-0.0995 1.21864,-0.34999 1.64597,-0.55653 0.42734,-0.20656 0.88586,-0.37546 1.01849,-0.37546 0.37553,0 2.62356,-1.06583 3.75685,-1.78125 0.91581,-0.57812 2.07056,-2.01573 2.07321,-2.58095 0.001,-0.39183 -1.83784,-0.98966 -3.04512,-0.98966 z m -19.92476,0.40133 -0.56987,0.84997 c -0.65398,0.97575 -0.9525,2.42525 -0.70363,3.41689 0.23092,0.9199 1.15611,0.91828 1.50631,-0.003 0.3478,-0.91481 0.34661,-0.91872 -0.30895,-0.91872 -0.60741,0 -0.60351,0.14379 -0.0805,-2.54251 z m -69.24373,0.93719 c -0.67195,0 -1.65687,1.31631 -1.85291,2.47673 l -0.18701,1.1057 -0.56541,-0.78789 c -1.00039,-1.39359 -2.19337,-2.49975 -2.49227,-2.31043 -0.1599,0.10118 -0.37402,0.68332 -0.47598,1.29342 -0.1579,0.94494 -0.0959,1.19293 0.41907,1.6726 0.61171,0.56991 0.84205,0.65518 1.58317,0.58685 0.27195,-0.025 0.57979,0.46155 0.91278,1.44125 0.54619,1.60685 1.2188,1.98676 1.2188,0.68886 0,-1.08074 0.53854,-3.5522 0.86178,-3.95421 0.1899,-0.23617 0.40871,-0.2517 0.7768,-0.0546 0.66406,0.3554 1.03697,0.10957 1.03697,-0.68367 0,-0.71281 -0.63848,-1.47452 -1.23579,-1.47451 z m 145.38328,0.0821 c -0.057,-0.0129 -0.15544,0.0479 -0.29713,0.16555 -0.49149,0.4079 -1.05645,2.77386 -0.83149,3.48266 0.22664,0.71406 1.1218,0.71103 1.34886,-0.004 0.11671,-0.36787 0.0241,-0.66615 -0.27568,-0.88545 -0.38582,-0.28213 -0.40936,-0.48559 -0.15965,-1.38509 0.2645,-0.95267 0.34056,-1.3439 0.21509,-1.37325 z m 16.769506,0.12858 c -0.120144,0.0262 -0.332629,0.26596 -0.6223,0.74872 -0.751926,1.25309 -0.911916,3.46229 -0.279391,3.86256 0.505266,0.31974 0.425443,0.33287 0.917233,-0.15891 0.532251,-0.53225 0.566932,-1.49165 0.0465,-1.29195 -0.647174,0.24835 -0.769686,-0.42491 -0.300822,-1.65264 0.382809,-1.00237 0.43906,-1.55149 0.238727,-1.50778 z m -146.169646,0.0569 c -0.41564,0 -1.07207,0.95613 -1.92906,2.81006 -0.76003,1.64416 -0.87392,2.18753 -0.93276,4.4568 -0.0369,1.42147 -0.1816,2.8059 -0.32149,3.07688 -0.88885,1.72159 -1.25249,3.56784 -1.25724,6.37995 -0.005,3.16854 0.29379,4.1488 1.65338,5.41913 1.9914,1.86063 4.53302,2.27257 7.57361,1.22691 4.68495,-1.61119 9.16168,-4.16457 10.31493,-5.88253 2.25537,-3.35979 1.77473,-4.74579 -2.04065,-5.87884 -0.72431,-0.21509 -1.31675,-0.47625 -1.31635,-0.58094 3.7e-4,-0.10462 0.741,-0.5842 1.64597,-1.06504 1.48453,-0.78877 1.68987,-0.83415 2.09462,-0.46785 0.59998,0.54296 0.80784,0.51111 0.80784,-0.12273 0,-0.62882 1.09977,-1.25756 2.62752,-1.50186 1.11797,-0.17876 1.38806,-0.52559 1.81007,-2.32891 0.14809,-0.63281 0.0129,-0.9016 -0.8884,-1.75834 -1.1849,-1.12717 -3.20428,-2.17739 -4.18702,-2.17739 -0.35398,0 -1.01744,0.34908 -1.47452,0.77605 -0.68657,0.64134 -0.83149,0.98131 -0.83149,1.95567 0,0.64869 0.17711,1.41353 0.39319,1.69922 0.56561,0.74778 0.52021,0.85428 -0.59349,1.39541 -1.81522,0.88199 -4.74491,2.67422 -5.19517,3.17816 -0.39681,0.4441 -0.60315,1.29064 -0.52108,2.13823 0.0348,0.35911 0.48648,0.56314 2.30454,1.03989 3.2518,0.85275 4.5715,1.26435 4.88918,1.52627 0.34014,0.28042 0.27477,0.33954 -1.95272,1.7428 -0.2907,0.18313 -1.63078,0.87991 -2.97784,1.54842 -6.39508,3.17374 -10.67178,2.96935 -12.49826,-0.59718 -0.9817,-1.91697 -0.13616,-7.40208 1.15152,-7.47014 0.74635,-0.0395 1.19959,-0.52006 1.58612,-1.68146 0.49556,-1.48894 0.41896,-1.67844 -0.5972,-1.48782 -0.74617,0.14002 -0.92243,0.0799 -1.03547,-0.35254 -0.23698,-0.90618 0.30055,-3.42226 1.12122,-5.25134 0.43553,-0.97071 0.6947,-1.76497 0.5765,-1.76497 z m 115.61067,0.54027 c -0.71173,0.0296 -1.60117,0.46967 -2.40504,1.25501 -0.51643,0.50449 -1.05773,0.42224 -1.25204,-0.18995 -0.23159,-0.72965 -0.57195,-0.67345 -1.49226,0.24687 -1.08907,1.08905 -1.0448,1.9216 0.0495,0.93125 0.59063,-0.53451 1.0414,-0.28107 1.0414,0.58612 0,0.57215 0.0712,0.62499 0.51812,0.38581 0.28467,-0.15236 0.95017,-0.27716 1.47968,-0.27716 2.09593,0 3.94151,-1.51218 3.09316,-2.5344 -0.24223,-0.29185 -0.6055,-0.42129 -1.03254,-0.40355 z m -0.0259,0.87954 c 0.15796,0.021 0.22911,0.14046 0.22911,0.3592 0,0.2611 -0.10526,0.36688 -0.36512,0.36955 -0.11228,10e-4 -0.35409,0.0765 -0.53806,0.16704 -0.33321,0.16391 -0.44503,0.18479 -0.63563,0.12115 -0.0552,-0.0185 -0.1396,-0.0455 -0.18773,-0.0606 -0.18232,-0.0574 0.25751,-0.48678 0.74575,-0.72802 0.34862,-0.17225 0.59371,-0.24945 0.75168,-0.22838 z m 51.715118,0.18552 c -0.244659,0 -0.357736,0.37775 -0.357736,1.19882 0,1.12244 0.123146,1.32711 1.937938,3.22915 1.612696,1.69022 2.387194,2.25618 4.6157,3.37105 2.744729,1.37309 4.417626,2.47449 4.417626,2.90911 0,0.74454 -9.055252,6.49927 -11.219598,7.13014 -1.315177,0.38336 -1.517625,0.38382 -2.140444,0.006 -0.56956,-0.34428 -0.701961,-0.64768 -0.768668,-1.76352 -0.04438,-0.74127 0.05439,-1.98387 0.219519,-2.76128 0.397994,-1.87254 0.441665,-2.48411 0.176639,-2.48411 -0.567579,0 -0.686555,-0.94213 -0.303779,-2.4117 0.221178,-0.84913 0.352923,-1.59315 0.292689,-1.65339 -0.06018,-0.0602 -0.424433,0.52184 -0.809301,1.29417 -0.773129,1.55146 -0.929868,3.45066 -0.326694,3.95126 0.318318,0.26418 0.318318,0.48925 0,1.54695 -0.204892,0.6808 -0.372164,2.21205 -0.371029,3.40282 0.0033,3.23403 0.888077,4.31151 3.300838,4.0163 0.565393,-0.0692 1.528469,-0.37971 2.140446,-0.69033 2.67569,-1.35805 8.572183,-5.41579 9.709607,-6.6815 0.908511,-1.01096 1.345654,-3.19918 0.943095,-4.72361 -0.39402,-1.49226 -0.854133,-1.90942 -3.518868,-3.19072 -1.103784,-0.53073 -2.65445,-1.38911 -3.44571,-1.90762 -1.299601,-0.85162 -1.383927,-0.96361 -0.869923,-1.15374 0.312953,-0.11572 0.569112,-0.33623 0.569112,-0.49003 0,-0.3017 -3.602124,-2.14561 -4.191459,-2.14561 z m -221.771918,0.004 c -0.14101,-0.003 -0.70644,0.43484 -1.25648,0.97193 l -1,0.97635 0.78788,1.14563 c 0.43345,0.62998 0.78789,1.2516 0.78789,1.38137 0,0.12972 -0.36115,0.50285 -0.80267,0.82928 -0.44151,0.32643 -0.80266,0.68862 -0.80266,0.80488 0,0.11628 0.43444,0.71911 0.96526,1.33926 0.6314,0.73766 1.0704,1.04698 1.27053,0.89505 0.16824,-0.12772 0.75537,-0.56568 1.30452,-0.9734 l 0.99853,-0.74132 -0.93127,-1.13674 c -0.51235,-0.62526 -0.932,-1.27168 -0.932,-1.43608 0,-0.16441 0.36113,-0.56566 0.80264,-0.89209 0.44153,-0.32643 0.80342,-0.69916 0.80342,-0.82853 0,-0.34543 -1.69556,-2.32995 -1.99559,-2.33559 z m 22.92777,0.0318 c -0.10721,-0.009 -0.25789,0.10043 -0.41538,0.36732 -1.23917,2.10044 -1.26344,4.41245 -0.0466,4.41245 0.16189,0 0.43832,-0.14416 0.61493,-0.32077 0.49681,-0.49682 0.37997,-1.20625 -0.22469,-1.36438 -0.44254,-0.11571 -0.51465,-0.28633 -0.38064,-0.90098 0.0909,-0.41695 0.29704,-1.02903 0.45751,-1.35995 0.23206,-0.47854 0.17363,-0.81932 -0.005,-0.83369 z m 95.52329,0.49887 c -0.4543,0 -2.16435,3.72195 -2.62456,5.71254 -0.45231,1.95643 -0.4566,2.18321 -0.0546,3.30084 0.31305,0.87054 0.36513,1.43171 0.18922,2.0451 -0.37116,1.29419 -0.28889,3.72661 0.17,5.02961 0.94352,2.67917 3.06787,4.6121 5.51593,5.01778 1.41007,0.23367 1.99806,0.21841 4.10573,-0.10645 1.19228,-0.18376 3.08851,-0.77778 3.81008,-1.19364 0.2593,-0.14945 0.77251,-0.39194 1.14042,-0.53882 0.36794,-0.14688 0.90765,-0.41805 1.19957,-0.60237 3.35139,-2.11607 4.96773,-3.53936 5.64824,-4.97344 0.2587,-0.54517 0.45134,-1.63562 0.46046,-2.60533 0.0129,-1.35396 -0.14468,-1.99353 -0.83667,-3.39914 -1.00487,-2.04116 -1.00868,-2.06727 -0.31706,-2.06727 0.79889,0 0.66932,-0.29549 -0.81746,-1.86255 -1.50701,-1.58839 -1.81012,-1.55437 -2.04953,0.23061 -0.10398,0.77547 -0.0282,1.24728 0.25203,1.57059 0.22037,0.25424 0.46934,0.82668 0.55285,1.272 0.0835,0.44529 0.58181,1.74066 1.10718,2.87806 0.52537,1.13742 0.95493,2.17832 0.95493,2.3134 0,0.8654 -5.57635,4.36948 -8.56251,5.38068 -2.08633,0.70649 -5.81676,0.98343 -7.41323,0.5499 -1.33713,-0.36313 -2.56386,-1.33749 -3.44867,-2.73912 -0.50515,-0.80022 -0.64449,-1.38591 -0.64449,-2.71473 0,-1.5538 0.0632,-1.74138 0.76497,-2.26018 0.49196,-0.36374 0.87057,-0.97848 1.05913,-1.72137 0.32042,-1.26234 0.063,-1.85846 -0.57427,-1.32965 -0.20835,0.17288 -0.57509,0.23896 -0.81451,0.14708 -0.82277,-0.31574 -0.42253,-2.71241 1.01112,-6.05475 0.4855,-1.13194 0.51074,-1.27939 0.2158,-1.27939 z m 87.0746,0 c -0.377039,0 -2.03917,2.17553 -2.03917,2.66892 0,0.2899 2.12628,1.54878 2.677776,1.58538 0.221807,0.0147 0.733079,-0.51947 1.136737,-1.18774 0.403647,-0.66827 0.733585,-1.36084 0.732444,-1.53883 -0.0032,-0.36786 -1.906412,-1.52773 -2.507787,-1.52773 z m -52.50669,0.86106 c 0.11799,-0.0114 0.20843,0.009 0.20843,0.0658 0,0.0196 -0.13761,0.20211 -0.30526,0.40575 -0.28844,0.35038 -0.30164,0.38491 -0.25056,0.64229 0.0821,0.41338 0.0648,0.95665 -0.0334,1.0547 -0.12486,0.12487 -1.21415,0.15861 -1.36661,0.0421 -0.22467,-0.17167 -0.45306,-0.55165 -0.45306,-0.75387 0,-0.23959 0.44343,-0.77262 0.64449,-0.77459 0.0687,-7.6e-4 0.25717,-0.0905 0.41907,-0.20031 0.1619,-0.10968 0.34249,-0.20062 0.40135,-0.20176 0.0588,-0.001 0.22083,-0.072 0.35992,-0.15742 0.11129,-0.0685 0.25749,-0.11128 0.37548,-0.12272 z m 23.18421,0.20918 c -0.32725,0 -2.23566,2.94841 -2.03698,3.14709 0.41097,0.41097 2.20348,1.35416 2.61717,1.37695 0.27099,0.0149 0.73413,-0.44772 1.13749,-1.136 0.89728,-1.53109 0.8592,-1.9038 -0.24538,-2.42794 -0.50885,-0.24146 -0.99723,-0.55671 -1.08575,-0.69993 -0.0886,-0.14323 -0.26238,-0.26017 -0.38655,-0.26017 z m -72.79585,1.07021 c -0.66639,0 -1.50206,1.11662 -1.72508,2.30528 l -0.18255,0.97265 -0.4235,-0.63563 c -0.71205,-1.06843 -2.0327,-2.37474 -2.40135,-2.37474 -0.33994,0 -0.48958,0.78826 -0.40578,2.13897 0.0477,0.77074 0.70489,1.34 1.54695,1.34 0.41547,0 0.67958,0.25195 0.90984,0.86917 0.76706,2.05605 0.83022,2.16168 1.12343,1.86846 0.15794,-0.1579 0.36937,-1.04933 0.46934,-1.98078 0.17641,-1.64376 0.62962,-2.89804 1.04731,-2.89804 0.11256,0 0.33807,0.13401 0.50187,0.29787 0.4444,0.4444 0.87953,0.0391 0.87953,-0.81967 0,-0.76585 -0.39229,-1.08354 -1.34001,-1.08354 z m -33.88719,0.12715 c 0.0831,0.004 0.17836,0.0175 0.28604,0.037 0.81355,0.14663 2.31783,0.8226 2.31783,1.04139 0,0.13559 -1.77748,0.95418 -2.07171,0.95418 -0.071,0 -0.3152,-0.331 -0.54249,-0.7354 -0.55404,-0.98577 -0.57115,-1.33046 0.01,-1.29714 z m -60.00194,0.14045 c -0.39233,0 -1.10054,1.75668 -1.10054,2.72952 0,1.6166 1.12417,2.05693 2.28605,0.89505 0.75098,-0.75097 0.89753,-2.28946 0.26756,-2.81229 -0.59781,-0.49613 -0.97452,-0.0706 -0.89062,1.00593 0.0583,0.74904 -0.0318,0.99482 -0.39246,1.06874 -0.37535,0.077 -0.46786,-0.0909 -0.46786,-0.84479 0,-0.51722 0.12044,-1.01475 0.26757,-1.10571 0.33097,-0.20455 0.35459,-0.93645 0.0303,-0.93645 z m 136.8333,0.26757 c -0.17373,0 -0.82282,0.36764 -1.44273,0.8167 l -1.12713,0.81672 0.54619,0.85587 c 1.19184,1.8675 1.25204,2.0859 0.68072,2.48118 -1.43371,0.99192 -1.51145,1.34926 -0.52476,2.41392 0.36792,0.39698 0.66889,0.82406 0.66889,0.94974 0,0.50396 0.99497,0.15859 1.98597,-0.68959 l 1.04954,-0.89801 -0.88619,-1.38138 c -0.85298,-1.32923 -0.86748,-1.39521 -0.38066,-1.74576 1.67514,-1.20621 1.62181,-1.00786 0.6386,-2.37696 -0.49072,-0.68331 -1.03472,-1.24243 -1.20844,-1.24243 z m 48.642677,0.83666 c -0.215717,-0.0217 -0.302337,0.0971 -0.444217,0.33704 -0.16227,0.27432 -0.56613,0.91053 -0.89728,1.4139 -0.68137,1.03578 -0.75256,1.41962 -0.26755,1.44199 0.18397,0.009 0.75544,0.3024 1.27052,0.65337 0.515105,0.35096 1.029779,0.64489 1.1434,0.65337 0.113696,0.009 0.565435,-0.54988 1.003698,-1.24095 0.438273,-0.69109 0.792117,-1.44386 0.786412,-1.67261 -0.0054,-0.22958 -0.623064,-0.71423 -1.377691,-1.08204 -0.657367,-0.32041 -1.00161,-0.48236 -1.217292,-0.50407 z m -34.416397,0.54915 c -0.9138,0.053 -1.60596,0.9336 -1.89062,2.46638 l -0.19366,1.04215 -0.5462,-0.89728 c -0.70306,-1.15609 -1.86993,-2.39099 -2.25943,-2.39099 -0.34083,0 -0.62493,0.85279 -0.63047,1.89285 -0.004,0.8045 0.9262,1.7671 1.83373,1.89654 0.48922,0.0697 0.75256,0.41041 1.15596,1.4952 0.28732,0.77266 0.62676,1.40429 0.75462,1.40429 0.12786,0 0.30736,-0.57146 0.39838,-1.27051 0.091,-0.69905 0.29428,-1.85678 0.45159,-2.57208 0.28307,-1.28709 0.29508,-1.29873 1.18848,-1.15374 0.87567,0.14217 0.9032,0.11928 0.9032,-0.75538 0,-0.66668 -0.13946,-0.9461 -0.53513,-1.07168 -0.15269,-0.0486 -0.30132,-0.0761 -0.44493,-0.085 -0.0628,-0.004 -0.12457,-0.004 -0.18552,-7.6e-4 z m -53.27094,0.80193 c -0.16163,0.0171 -0.52569,0.49425 -0.82409,1.20844 -0.47961,1.14787 -0.51504,2.53375 -0.0761,2.97268 0.39962,0.39961 0.36049,0.40372 0.86402,-0.0999 0.54716,-0.54716 0.53824,-1.18477 -0.0164,-1.18477 -0.44456,0 -0.42493,-0.68227 0.0672,-2.38289 0.10667,-0.36851 0.0822,-0.52399 -0.0146,-0.51367 z m 62.02416,0.74206 c -0.83651,-0.004 -1.34336,0.28191 -1.82117,0.90837 -0.89694,1.17595 -0.86261,1.33952 0.238,1.13304 1.18775,-0.22283 2.40146,0.0605 2.04731,0.4782 -0.1416,0.16703 -1.64153,0.96589 -3.33262,1.77533 -1.69108,0.80944 -3.13969,1.6224 -3.21953,1.80636 -0.2078,0.4788 0.16042,0.42318 2.46785,-0.37324 2.79519,-0.96477 4.82823,-2.09755 5.86112,-3.26536 1.19533,-1.3515 1.13182,-1.78522 -0.31413,-2.14932 -0.80424,-0.20251 -1.42492,-0.31073 -1.92683,-0.31338 z m -40.79339,0.21287 c -0.32259,-0.0129 -0.51003,0.12972 -0.5159,0.43163 -0.003,0.16823 -0.2414,0.60696 -0.52919,0.97487 -0.78572,1.00448 -0.65171,1.40117 0.73985,2.19145 0.69694,0.39582 1.28694,0.72649 1.31116,0.73541 0.0241,0.009 0.35489,-0.54019 0.73541,-1.221 0.38052,-0.68081 0.6918,-1.39667 0.6918,-1.59055 0,-0.19388 -0.49894,-0.64971 -1.10865,-1.01332 -0.54456,-0.32472 -1.00188,-0.49509 -1.32448,-0.50849 z m -34.61519,1.73762 c -0.0525,0.004 -0.14713,0.0909 -0.29418,0.238 -0.46536,0.46535 -0.81789,2.36467 -0.56246,3.03033 0.20951,0.54594 0.87682,0.53014 1.09019,-0.0259 0.0928,-0.24204 -0.015,-0.64316 -0.23947,-0.89136 -0.22463,-0.24821 -0.36541,-0.50155 -0.31264,-0.56321 0.0529,-0.0617 0.17619,-0.53196 0.27421,-1.04508 0.10215,-0.53436 0.13187,-0.75103 0.0444,-0.74281 z m 28.80066,0.72802 c -0.33415,-0.0469 -1.26331,1.35739 -1.71989,2.64379 -0.73984,2.0844 -0.56109,2.98997 0.73615,3.73395 0.69795,0.40029 0.66708,0.40336 1.64376,-0.19217 0.60116,-0.36658 0.96993,-0.90113 1.29344,-1.8751 0.43307,-1.30388 0.43087,-1.40028 -0.0532,-2.22915 -0.63231,-1.08268 -1.17503,-1.10641 -1.45752,-0.0635 -0.16078,0.59351 -0.11312,0.88013 0.18183,1.09978 0.95238,0.70931 -0.16771,1.79625 -1.374,1.33335 -0.55144,-0.21162 -0.3562,-1.69012 0.42424,-3.21732 0.29571,-0.57865 0.46816,-1.12038 0.38359,-1.20401 -0.0167,-0.0165 -0.0361,-0.0266 -0.0584,-0.0296 z m 82.906804,0.51958 c 0.484784,-0.005 0.980707,0.22192 1.441994,0.6689 0.387964,0.37593 0.462739,0.49558 0.374725,0.60164 -0.06038,0.0728 -0.221753,0.12357 -0.358462,0.11313 -0.136741,-0.01 -0.583604,-0.0339 -0.993365,-0.0518 -0.628423,-0.0274 -0.796013,-0.0707 -1.069485,-0.27938 -0.264581,-0.20182 -0.318916,-0.30155 -0.295623,-0.54029 0.02433,-0.24879 0.08751,-0.31256 0.421267,-0.42795 0.157364,-0.0543 0.317366,-0.0822 0.478949,-0.0842 z m -51.046994,0.31931 c -0.0867,-0.0156 -0.24419,0.10867 -0.4634,0.39616 -0.81227,1.06525 -1.14013,2.98512 -0.66225,3.87808 0.33587,0.62752 0.62188,0.65086 1.17592,0.0969 0.58374,-0.58375 0.52567,-1.1848 -0.11457,-1.1848 -0.65581,0 -0.70029,-0.69397 -0.13086,-2.05692 0.28823,-0.68984 0.3398,-1.10334 0.19511,-1.12935 z m -96.91871,1.12639 c -0.3579,3.9e-4 -0.57708,0.10581 -0.83741,0.34148 -0.78486,0.71029 -0.6264,1.14064 0.45382,1.23355 0.95296,0.082 0.93695,0.0972 -1.20254,1.15376 -1.19216,0.58867 -2.16812,1.17573 -2.16925,1.30449 -0.003,0.38702 1.56564,-0.0484 3.36218,-0.93273 2.87514,-1.41544 3.34955,-2.57346 1.22616,-2.99338 -0.3535,-0.07 -0.61823,-0.10742 -0.83296,-0.10709 z m 28.45106,0.14045 c 0.24131,0.0291 0.50276,0.35559 1.01701,0.92388 0.56993,0.62979 1.07994,1.31291 1.13379,1.51884 0.12874,0.49219 -0.58763,1.15646 -2.02883,1.88029 -1.1721,0.5887 -2.15036,0.71812 -2.53365,0.33483 -0.48941,-0.48943 -0.20475,-1.32279 1.08574,-3.1789 0.73869,-1.06245 1.01569,-1.51632 1.32594,-1.47894 z m -48.00111,1.44864 c 0.46289,-0.0307 0.9265,0.22142 1.47747,0.77238 1.1626,1.16258 0.77199,1.5822 -0.97414,1.04582 -0.44151,-0.13559 -1.04417,-0.43336 -1.33852,-0.6615 -0.52883,-0.40988 -0.52879,-0.41869 -0.0155,-0.79897 0.29558,-0.21899 0.57298,-0.33931 0.85071,-0.35773 z m 165.642872,0.45603 c 0.04639,-0.004 0.09569,0.0219 0.154458,0.0755 0.278972,0.25461 1.073478,0.391 2.277929,0.391 1.452272,0 2.008849,0.0976 2.704384,0.4745 1.157112,0.62698 1.223384,1.03288 0.269037,1.6371 -0.744068,0.47111 -1.01078,0.62719 -1.235051,0.72212 -0.130154,0.0551 -0.3497,0.16398 -0.487808,0.24167 -0.138162,0.0776 -0.308389,0.14089 -0.378417,0.14117 -0.07007,3.2e-4 -0.251912,0.0661 -0.404293,0.1456 -1.378143,0.71866 -4.006246,1.06025 -5.549213,0.72136 -0.810619,-0.17804 -1.471097,-0.49727 -1.72358,-0.83224 l -0.170733,-0.22616 0.420557,-0.18034 c 0.2313,-0.0991 0.448531,-0.22674 0.483362,-0.28308 0.03466,-0.0564 0.146407,-0.10204 0.247596,-0.10204 0.101071,0 0.342424,-0.0851 0.536578,-0.18921 0.194165,-0.10408 0.431213,-0.18921 0.526256,-0.18921 0.09515,0 0.405606,-0.11067 0.690336,-0.24538 0.508668,-0.24064 0.615475,-0.36666 0.989673,-1.17371 0.06038,-0.13 0.147193,-0.30036 0.192895,-0.37843 0.04574,-0.078 0.144825,-0.28025 0.220988,-0.44937 0.08902,-0.1975 0.157795,-0.2926 0.235046,-0.3008 z m -7.107991,0.46711 c 0.997627,7.6e-4 2.386168,0.1511 2.506312,0.27126 0.168009,0.16799 -0.03154,0.47165 -0.385069,0.58611 -0.192637,0.0624 -0.563208,0.22426 -0.823365,0.35992 -0.260167,0.13574 -0.495557,0.25838 -0.522552,0.27201 -0.02702,0.0142 -0.154706,-0.0476 -0.283816,-0.13602 -0.129153,-0.0885 -0.256659,-0.19243 -0.283826,-0.23134 -0.07567,-0.10846 -0.675569,-0.49566 -0.97116,-0.62676 -0.225595,-0.1001 -0.249425,-0.14451 -0.162606,-0.30674 0.08966,-0.16757 0.197427,-0.18911 0.926082,-0.18847 z M -286.25072,209.728 c -0.0325,-0.0305 -0.13917,0.0677 -0.34442,0.27274 -0.48022,0.47954 -1.25023,2.47497 -1.25648,3.25576 -0.01,1.20258 0.86598,1.88127 1.54769,1.19956 0.46712,-0.46714 0.39368,-1.28457 -0.11528,-1.28457 -0.35852,0 -0.40911,-0.20197 -0.28454,-1.13675 0.0834,-0.62547 0.24148,-1.43843 0.35106,-1.80636 0.0926,-0.3108 0.13444,-0.46986 0.10204,-0.50038 z m 67.81649,0.47525 c -0.50407,-0.0145 -0.70741,0.33519 -1.13525,1.22913 -0.35216,0.73585 -0.68401,1.38309 -0.73688,1.43829 -0.053,0.0552 -0.58751,-0.0959 -1.18849,-0.33628 l -1.09312,-0.43756 -0.64303,1.38878 c -0.35391,0.76388 -0.58268,1.48753 -0.5085,1.60754 0.16172,0.26167 2.25682,1.26628 2.66965,1.28014 0.16004,0.005 0.57062,-0.65252 0.91277,-1.46194 0.34218,-0.80944 0.66699,-1.47158 0.72139,-1.47158 0.0544,0 0.53077,0.1806 1.05912,0.40136 1.29062,0.53925 1.40174,0.5172 1.71029,-0.33483 0.14658,-0.40472 0.39827,-0.99453 0.55949,-1.31117 0.42259,-0.8298 0.21562,-1.16963 -0.98226,-1.61051 -0.63189,-0.23258 -1.04272,-0.37264 -1.34518,-0.38137 z m 62.01234,1.11679 c -0.10824,-0.006 -0.31642,0.15779 -0.58833,0.5181 -0.47869,0.63435 -1.06727,2.4586 -1.06727,3.30824 0,0.76284 0.52465,1.77164 0.92092,1.77164 0.21922,0 0.52319,-0.23272 0.67554,-0.51739 0.42479,-0.79372 0.33227,-1.27896 -0.2742,-1.43755 -0.47848,-0.12515 -0.52714,-0.27584 -0.36438,-1.14339 0.10311,-0.54968 0.34726,-1.30582 0.54175,-1.68072 0.26933,-0.51913 0.29517,-0.81039 0.15597,-0.81893 z m -114.86566,0.28899 c -0.0354,-0.015 -0.13459,0.0754 -0.32077,0.26163 -0.69393,0.69393 -1.10882,2.46139 -0.73985,3.15081 0.40459,0.75599 0.92425,0.58905 1.03327,-0.33187 0.0495,-0.41741 -0.0464,-0.7147 -0.22986,-0.7147 -0.3003,0 -0.25024,-0.51124 0.19363,-1.99485 0.0705,-0.23561 0.0988,-0.356 0.0636,-0.37102 z m 57.76763,1.32225 c -0.0447,-0.0181 -0.15889,0.0964 -0.34071,0.27051 -0.48275,0.46221 -0.8473,2.35218 -0.58538,3.03476 0.17841,0.46493 0.22764,0.47961 0.82263,0.2513 0.53601,-0.20568 0.54361,-0.74267 0.0164,-1.18034 -0.22407,-0.18598 -0.34446,-0.56163 -0.26755,-0.8352 0.31223,-1.11063 0.42937,-1.51067 0.35477,-1.54103 z m -12.90254,0.34073 c -0.0499,-3.9e-4 -0.13945,0.10312 -0.27937,0.28086 -0.56915,0.72302 -0.78441,2.13451 -0.42721,2.80193 0.3787,0.70758 0.71744,0.71534 1.08724,0.0243 0.22975,-0.42931 0.19912,-0.57363 -0.14932,-0.70732 -0.35328,-0.13559 -0.40503,-0.40518 -0.27124,-1.40061 0.0955,-0.70969 0.12314,-0.99852 0.0399,-0.99927 z"/>
        <path d="m -123.24425,162.39529 c 4.58186,-1.85449 9.1481,-3.73574 13.73107,-5.58641 -0.242,0.68436 -0.55932,1.467 -1.37319,1.81251 -4.22491,1.70373 -8.44144,3.42166 -12.66494,5.12451 -0.27854,0.11741 -0.55482,0.24528 -0.85846,0.30737 0.27854,-0.46863 0.54108,-0.94298 0.80932,-1.41452 0.0572,-0.13171 0.2181,-0.18422 0.35623,-0.24338 z m -14.26776,-6.44747 c 0.98676,0.63165 1.88354,1.35358 2.5125,2.13132 1.16431,1.49947 1.46453,3.44368 0.742,5.13028 -0.0628,0.1384 -0.19521,0.24146 -0.30823,0.35224 0.22375,-0.93345 0.28992,-1.92227 -0.0605,-2.83946 -0.48054,-1.3324 -1.56843,-2.45112 -3.02036,-3.10591 0.0247,-0.5827 0.0988,-1.17055 0.13469,-1.66835 z m -37.80027,-0.81134 c 0.61412,-0.43429 1.46682,-0.47627 2.23509,-0.47532 0.77168,0.0448 1.58786,0.0736 2.2682,0.41809 0.32191,0.31305 0.0159,0.6834 -0.31387,0.88 -1.33785,0.80743 -2.81157,1.50806 -3.89724,2.56847 -0.29449,0.27394 -0.14156,0.70057 0.23062,0.86092 0.56273,0.23578 1.21457,0.2472 1.83322,0.23386 1.46911,-0.0668 2.87996,-0.53161 4.10936,-1.194 0.34242,-0.1823 0.6495,-0.40947 1.0034,-0.57843 -0.75797,0.76832 -1.60956,1.47368 -2.54898,2.08644 -0.79225,0.49725 -1.68488,0.92869 -2.67575,1.05848 -0.77963,0.0554 -1.61862,0.0238 -2.29219,-0.34455 -0.75,-0.37132 -1.10152,-1.20263 -0.82418,-1.88888 0.16781,-0.38561 0.47825,-0.71206 0.80474,-1.01266 0.84243,-0.74638 1.87206,-1.31715 2.89947,-1.86789 -0.69627,-0.0277 -1.40173,-0.0592 -2.09351,0.0114 -0.45203,0.0382 -0.75568,0.32165 -1.07641,0.55171 -0.0969,-0.44757 -0.0993,-0.97827 0.33792,-1.30758 z m -27.5707,-1.12337 c 0.61074,-0.25007 1.45318,-0.21382 1.93486,0.22142 0.40296,0.39894 0.44635,0.94777 0.4167,1.44696 -0.32306,0.3598 -0.69514,0.69105 -0.96579,1.08328 -0.56615,0.0878 -1.16088,0.0105 -1.71454,0.14983 -0.27854,0.13553 -0.64264,0.21759 -0.77627,0.49056 -0.17468,0.35224 -0.0936,0.74352 -0.0194,1.10812 0.28763,1.27326 0.81962,2.52456 0.79224,3.83594 -0.0308,0.46007 -0.0673,0.93731 -0.32762,1.35341 -0.0605,-0.7292 -0.36754,-1.41834 -0.59015,-2.11989 -0.42012,-1.27803 -0.75338,-2.58944 -0.80253,-3.91797 -0.0547,-0.51162 0.29678,-0.95159 0.65179,-1.3372 0.52397,-0.61276 1.46339,-0.79218 2.29783,-0.92486 -0.21689,-0.16706 -0.46232,-0.35981 -0.78306,-0.32263 -0.44863,0.0544 -0.75224,0.36843 -0.99881,0.65763 -0.0445,-0.63841 0.16445,-1.39244 0.88472,-1.72459 z m 39.98277,-0.2472 c 0.04,-0.0343 0.0925,-0.0477 0.15752,-0.0391 -0.23741,0.22717 -0.3676,0.51348 -0.55024,0.77122 -0.51938,0.82083 -1.11982,1.69229 -0.9817,2.65817 0.0147,0.45338 0.31961,1.03939 0.95314,1.03556 0.30938,-0.12883 0.38928,-0.4591 0.54452,-0.69675 -0.0194,0.70727 -0.14386,1.56626 -0.93828,1.97093 -0.6598,-0.0887 -1.15516,-0.57837 -1.18143,-1.13101 -0.13469,-1.6713 0.70204,-3.31953 1.99647,-4.569 z m -118.34633,-9.41574 c 0.37785,-0.56313 0.73284,-1.17686 1.39382,-1.5491 -0.80245,1.35434 -1.63694,2.72689 -1.98739,4.22242 -0.11646,0.57175 -0.17468,1.23224 0.26709,1.72374 0.34357,0.30826 0.89496,0.3646 1.36527,0.26915 0.71347,-0.1317 1.04565,-0.75596 1.34015,-1.25131 0.22605,0.36939 -0.008,0.76834 -0.11188,1.13677 -0.29563,0.77983 -0.64835,1.62445 -1.46453,2.13131 -0.62671,0.40085 -1.52508,0.24049 -2.12779,-0.11263 -0.79454,-0.51922 -0.81276,-1.46129 -0.6735,-2.22388 0.31387,-1.5433 1.12548,-2.97599 1.99876,-4.34658 z m 58.16843,-6.04171 c 0.23283,-0.37036 0.6895,-0.80937 1.24995,-0.62425 0.67348,0.16992 1.47487,0.61659 1.36754,1.28658 -0.18033,0.22812 -0.4121,0.42376 -0.6164,0.63662 -0.21802,-0.34551 -0.46232,-0.78739 -0.97368,-0.86091 -0.66549,0.1823 -1.06391,0.74062 -1.27392,1.27228 -0.44178,1.1616 -0.53995,2.38807 -0.66324,3.59536 -0.16096,0.0716 -0.32191,0.14224 -0.48627,0.20713 0.004,-1.11098 -0.28428,-2.2907 -1.17576,-3.15162 -0.20208,-0.28543 -0.65064,-0.14223 -0.9543,-0.27967 -0.56616,-0.16987 -0.77168,-0.68627 -0.90867,-1.12816 -0.0684,-0.29876 -0.19063,-0.65763 0.048,-0.92391 0.50116,-0.12028 0.89379,0.2472 1.25108,0.47915 0.92007,0.73112 1.5559,1.67218 2.07645,2.63049 0.21911,-1.06996 0.45089,-2.16754 1.05932,-3.13923 z m 95.71193,-2.93223 c 0.69638,-0.20042 1.42923,0.0629 1.99876,0.39893 0.95088,0.58794 1.6929,1.38683 2.26593,2.24489 0.30594,0.49726 0.65521,1.04226 0.53192,1.6207 -0.073,0.38943 -0.10958,0.80744 -0.38813,1.13964 -0.30823,0.31879 -0.88694,0.28631 -1.27506,0.0964 -0.44294,-0.20999 -0.86525,-0.44952 -1.32872,-0.62705 -0.62669,1.42406 -1.94739,2.54555 -3.37896,3.43515 -0.96912,0.62042 -2.03188,1.13006 -3.10826,1.60634 -0.66437,0.29972 -1.39953,0.46006 -2.11178,0.65473 -0.71118,0.16897 -1.43487,0.39133 -2.18601,0.32931 0.47375,-0.0229 0.84816,-0.27968 1.24766,-0.46292 2.08208,-1.01265 4.12192,-2.10175 5.97452,-3.39303 0.984,-0.71205 1.98968,-1.45364 2.65283,-2.40237 -0.42803,-0.0773 -0.85731,-0.14415 -1.28993,-0.19284 -0.34815,-0.84663 -0.35159,-1.88219 0.39947,-2.58275 -0.37438,-0.2405 -0.4178,-0.67672 -0.48051,-1.03938 -0.0535,-0.31591 0.0732,-0.71677 0.47611,-0.82563 m 1.86758,2.09697 c 0.14157,0.62706 0.18377,1.26657 0.19521,1.90414 0.58671,0.0706 1.17007,0.26532 1.76821,0.20903 0.30481,-0.0372 0.29337,-0.37224 0.1244,-0.53166 -0.55595,-0.6404 -1.32756,-1.12241 -2.08781,-1.58151 m -1.98738,1.0232 c 0.30021,0.46486 0.98056,0.58317 1.53651,0.73209 0.11417,-0.29972 0.26138,-0.61372 0.20544,-0.93155 -0.20093,-0.32838 -0.47375,-0.75786 -0.97828,-0.75596 -0.43605,0.18709 -0.60845,0.59558 -0.76367,0.95542 z m -38.51196,-4.00386 c 0.34586,-0.37419 0.93149,-0.5565 1.48394,-0.57078 0.38354,-0.003 0.56961,0.3417 0.65751,0.60414 0.16667,0.61948 0.19636,1.2933 -0.16438,1.87077 0.18719,0.11358 0.37555,0.22907 0.5673,0.3417 -0.0502,0.39611 -0.0857,0.79506 -0.0949,1.194 -0.38126,-0.17083 -0.67462,-0.44284 -1.00111,-0.67193 -1.01598,1.46512 -2.50106,2.73551 -4.35132,3.45332 -0.97827,0.41233 -2.09811,0.59272 -3.18724,0.47915 2.06269,-0.61659 4.06609,-1.50617 5.56259,-2.87112 0.51481,-0.46766 0.95773,-0.98503 1.33214,-1.53856 -0.28992,-0.25868 -0.63701,-0.48011 -0.86295,-0.78269 -0.18026,-0.48387 -0.31268,-1.06222 0.0584,-1.508 m 0.56618,0.47724 c 0.14957,0.35408 0.43605,0.64621 0.73398,0.92101 0.12554,-0.3064 0.28993,-0.63949 0.10615,-0.95446 -0.2819,-0.0458 -0.56503,-0.02 -0.84014,0.0334 z m -115.69495,3.83512 c 4.13921,-2.17329 8.29545,-4.32648 12.44249,-6.48849 -0.11875,0.75499 -0.42804,1.62831 -1.29789,2.00631 -3.83893,1.99002 -7.68704,3.96863 -11.52009,5.96547 -0.0993,0.0439 -0.20322,0.0801 -0.31167,0.10783 0.24436,-0.52586 0.43041,-1.07084 0.68722,-1.59109 z m 86.65538,-11.4803 c 0.31848,-0.38561 0.67806,-0.755 1.08099,-1.0833 -0.29679,0.56313 -0.11989,1.1778 0.0182,1.75337 0.15636,0.62993 0.36753,1.24841 0.60387,1.86118 0.16552,0.46199 0.79909,0.62424 1.30589,0.71492 0.30366,0.081 0.67576,-0.10784 0.55816,-0.39805 -0.27971,-0.7483 -0.637,-1.47464 -1.04565,-2.17905 0.14501,-0.47245 0.30937,-0.94016 0.44859,-1.41356 0.19178,0 0.38584,0.002 0.58107,0.004 0.16781,0.87521 0.66661,1.66933 1.12556,2.45583 10e-4,0.85046 -0.0594,1.73715 -0.42013,2.54365 -0.24084,0.57174 -1.04673,0.74924 -1.69738,0.70344 -0.8641,-0.13937 -1.43716,-0.7626 -1.94406,-1.31048 -0.25228,0.71868 -0.96567,1.27612 -1.81039,1.50137 -0.71463,0.21951 -1.53873,-0.0993 -1.92229,-0.62611 -0.42013,-0.5841 -0.50003,-1.28946 -0.48054,-1.9576 0.0376,-0.95543 0.25916,-2.0693 1.28421,-2.64295 0.072,0 0.21575,8.4e-4 0.28772,8.4e-4 -0.0456,0.0172 -0.13928,0.0506 -0.18491,0.0677 -0.62327,0.95349 -0.66212,2.15132 -0.10844,3.13344 0.16094,0.31018 0.56844,0.53356 0.98056,0.46103 0.51366,-0.10404 0.92005,-0.40947 1.27048,-0.72444 0.0126,-0.95548 0.008,-1.91186 0.0684,-2.86533 z m -81.66522,-1.99577 c 0.92922,-0.16801 1.77509,0.31783 2.43596,0.80559 0.88463,0.72251 1.62205,1.58343 2.08895,2.54458 0.14156,0.29013 0.20428,0.60703 0.15178,0.91916 -0.0674,0.41426 -0.10615,0.86858 -0.42126,1.21314 -0.36982,0.28535 -0.95316,0.22333 -1.34581,0.004 -0.39042,-0.21568 -0.79795,-0.40947 -1.22257,-0.57365 -0.63699,1.40974 -1.93829,2.52457 -3.35719,3.41423 -1.11412,0.7044 -2.32867,1.29616 -3.58438,1.80492 -0.89953,0.28535 -1.81957,0.5307 -2.75336,0.72537 -0.37212,0.0849 -0.75911,0.0764 -1.14037,0.0677 0.22375,-0.0439 0.46231,-0.0582 0.66661,-0.15462 2.04331,-0.96491 4.03623,-2.01198 5.89358,-3.21272 1.25452,-0.8447 2.49991,-1.73899 3.39015,-2.87386 -0.43262,-0.0821 -0.86754,-0.15939 -1.30935,-0.19468 -0.34813,-0.84854 -0.35842,-1.88122 0.37555,-2.59328 -0.35385,-0.25868 -0.40523,-0.68435 -0.46918,-1.04895 -0.0672,-0.35333 0.14851,-0.77229 0.60062,-0.84675 m 1.73508,2.11223 c 0.16439,0.6328 0.18032,1.28283 0.21117,1.92706 0.61868,0.0582 1.24193,0.30354 1.86518,0.1756 0.28879,-0.13553 0.0857,-0.4457 -0.0651,-0.60414 -0.56954,-0.58507 -1.29099,-1.05183 -2.01124,-1.49851 m -1.51936,0.27202 c -0.20322,0.25198 -0.43949,0.54212 -0.40751,0.85996 0.35958,0.37794 0.96682,0.53543 1.5159,0.61851 0.0537,-0.18136 0.1176,-0.35888 0.1598,-0.54117 0.15064,-0.37035 -0.19178,-0.70247 -0.46574,-0.9602 -0.2043,-0.20714 -0.62557,-0.21384 -0.80245,0.0229 z m 68.92467,-3.11446 c 0.60615,0.4228 0.97482,1.03085 1.38462,1.58536 1.04903,1.54335 1.94288,3.15629 2.80823,4.77601 1.89834,3.47698 3.14705,7.18906 3.83446,10.96389 0.19406,1.17019 0.3927,2.34704 0.35271,3.53231 0.11531,2.35272 0.44973,4.75812 1.62434,6.9237 0.8642,1.47115 2.33402,2.77669 3.48503,3.73107 0.54847,0.31683 0.78067,0.24213 0.92525,0.11271 0.0895,-0.0801 0.0542,-1.11203 0.23679,-1.59687 0.26023,-0.79602 0.85616,-1.47368 1.48965,-2.09123 0.70891,-0.64901 1.51135,-1.24459 2.45879,-1.63689 1.89719,-0.80463 3.86402,-1.48893 5.85032,-2.12275 1.49538,-0.4639 3.01587,-0.87526 4.5707,-1.17396 -6.67309,0.0391 -13.34649,0.0849 -20.01985,0.14887 0.33335,-1.35532 0.67234,-2.70975 1.01599,-4.06305 0.70774,-0.77693 1.59807,-1.41549 2.47707,-2.05018 3.82636,-2.64005 8.24384,-4.59378 12.71769,-6.34342 -0.52398,-0.68626 -1.25223,-1.32577 -1.36756,-2.16856 -0.27054,-1.18353 0.31732,-2.35366 1.05703,-3.33879 0.43835,-0.55931 0.84817,-1.17019 1.52279,-1.55486 0.67691,-0.39229 1.59284,-0.4183 2.33325,-0.13936 2.48068,0.93126 5.03957,2.57087 6.93125,4.04322 0.18948,0.16036 0.43261,0.29877 0.55136,0.50781 -0.4452,1.20547 -0.91546,2.40619 -1.34694,3.61655 -1.97249,0.36842 -3.95529,0.72061 -5.87768,1.25035 0.19521,1.0184 0.54336,2.12938 0.0206,3.11637 -0.18262,-0.021 -0.43033,-0.0478 -0.46117,-0.23482 -0.0741,-0.85613 -0.56732,-1.63499 -1.07413,-2.36419 -2.45311,0.80752 -4.90058,1.64265 -7.21313,2.70495 -1.86412,0.86572 -3.75436,1.80487 -5.13558,3.18988 10.25971,0.003 20.52082,0.003 30.7811,0 -0.65752,1.20837 -1.36069,2.40044 -2.03074,3.60389 -6.71775,1.36872 -13.42295,2.83175 -19.93975,4.77711 -2.73502,0.83801 -5.46799,1.76004 -7.89357,3.12683 -0.25116,0.16036 -0.39614,0.45624 -0.21345,0.69675 0.37668,0.48393 1.0639,0.6834 1.64036,0.95925 1.25338,0.58027 2.64261,0.8962 4.00777,1.2351 0.97826,0.24145 1.95655,0.48201 2.93353,0.72633 -0.081,1.4479 -0.0948,2.89974 -0.19978,4.34576 -0.80025,0 -1.61642,-0.11837 -2.42116,-0.17752 -1.57642,-0.15652 -3.17691,-0.26155 -4.6974,-0.66624 -2.07069,-0.54788 -3.93604,-1.58822 -5.39709,-2.92644 -1.60383,-1.44313 -2.76358,-3.19456 -3.59471,-5.03009 -1.13465,-2.54364 -1.76708,-5.65936 -1.98624,-8.36145 -0.10045,-0.0114 -0.12465,0.52644 -0.22165,0.51784 -0.28419,1.19121 -0.61849,2.2485 -1.09445,3.39772 -0.0902,0.27297 -0.32992,0.48106 -0.54108,0.69292 -1.52736,1.48326 -3.15625,2.89313 -4.85928,4.23399 -1.7431,1.35817 -3.56038,2.65818 -5.52379,3.79025 -2.06499,1.1845 -4.29887,2.24968 -6.76911,2.6973 -1.32757,0.23003 -2.8367,0.27393 -3.99996,-0.398 -1.299,-0.74254 -1.93257,-2.03298 -2.275,-3.26997 -1.1837,0.75116 -2.37665,1.49179 -3.59582,2.2029 -1.10037,0.61756 -2.19623,1.27039 -3.45655,1.64265 -3.15067,0.97832 -6.42889,1.61973 -9.69037,2.28119 -2.33897,0.44292 -4.67898,0.88669 -7.03396,1.2656 2.18143,-1.03555 4.39709,-2.02442 6.56927,-3.07426 5.89359,-2.81936 11.69928,-5.78213 17.24121,-9.0656 0.75566,-3.02663 1.97591,-6.07144 4.33989,-8.50046 0.0296,-0.006 0.0902,-0.021 0.11989,-0.0277 -0.18835,0.33501 -0.27856,0.70247 -0.47261,1.03555 -1.42464,2.08644 -2.43709,4.39255 -2.79568,6.78138 2.52272,-1.53386 4.98488,-3.14198 7.30218,-4.8908 1.43143,-1.07283 2.77615,-2.22581 4.00441,-3.46267 0.33785,-0.35032 0.79682,-0.65091 0.92464,-1.11098 0.0559,-0.29939 0.0243,-0.48407 -0.17909,-1.1047 -1.43252,-3.31072 -3.46577,-7.44148 -4.81602,-10.35251 0.46231,-1.47082 0.89036,-2.94929 1.35726,-4.41925 0.62213,0.34266 1.02733,0.88096 1.47026,1.36775 0.90408,1.11002 1.75445,2.25159 2.51813,3.43405 0.42691,0.64997 0.50795,1.40494 0.66442,2.12275 -0.61295,-0.46104 -1.03992,-1.08617 -1.72027,-1.48037 0.0297,0.10496 0.0709,0.20713 0.1244,0.30731 1.07639,1.77627 1.8127,3.69005 2.28988,5.63899 0.29451,1.15775 0.42233,2.34512 0.34023,3.52875 -0.0616,1.28283 -0.27054,2.59709 -0.97485,3.75473 -0.62556,1.02798 -1.46683,1.949 -2.34584,2.83285 -2.9793,2.92341 -6.4713,5.44326 -10.01774,7.86953 0.004,0.14128 0.19637,0.17943 0.31053,0.25678 1.26933,0.66241 2.85734,0.59558 4.27485,0.38942 1.06848,-0.20712 2.16885,-0.3646 3.14705,-0.80176 2.56729,-1.12342 4.8057,-2.68971 6.96671,-4.28547 2.83335,-2.15611 5.50203,-4.46109 8.04763,-6.85295 -0.85045,-2.5236 -1.73395,-5.03861 -2.63347,-7.54994 -0.48857,-1.3114 -0.94286,-2.63431 -1.52735,-3.91797 -0.96912,-1.69319 -1.90062,-3.40652 -2.74532,-5.1446 0.34113,-1.32776 0.77032,-2.64109 1.13448,-3.96587 m 25.8219,6.82927 c -0.31052,0.10311 -0.57075,0.38943 -0.44063,0.6767 0.0479,0.21759 0.3322,0.29301 0.48169,0.45432 0.62211,0.60414 1.21109,1.23317 1.75225,1.8908 1.35039,-0.41043 2.72138,-0.76642 4.08423,-1.14346 -1.01474,-0.81032 -2.14144,-1.58151 -3.49535,-1.94803 -0.77055,-0.21855 -1.63243,-0.19181 -2.38239,0.0697 z m 29.87405,-1.74474 c 4.15848,-2.15325 8.29435,-4.33612 12.45842,-6.48078 -0.11761,0.66911 -0.34701,1.40208 -1.00454,1.84307 -4.03178,2.10266 -8.08644,4.17673 -12.11708,6.28313 0.17238,-0.5612 0.44406,-1.09664 0.66323,-1.64545 z m -20.98077,-8.11674 c 0.3847,-0.18612 0.94858,-0.17272 1.2088,0.16706 0.35845,0.45241 0.45432,1.04416 0.26032,1.56339 -0.36646,1.02989 -1.17577,1.90509 -2.05812,2.6668 -1.07297,0.87617 -2.35718,1.68369 -3.87547,1.88122 0.25458,-0.2634 0.6267,-0.40946 0.95431,-0.59847 0.94056,-0.52974 1.8458,-1.11387 2.63573,-1.7963 0.4144,-0.40085 0.86295,-0.83419 0.93723,-1.38301 0.0286,-0.46006 -0.47034,-0.85327 -0.97942,-0.92965 -0.74199,0.10975 -1.20432,0.64612 -1.74996,1.0232 -0.13011,-0.33309 0.21803,-0.56696 0.42346,-0.81129 0.65402,-0.66432 1.31269,-1.37726 2.24304,-1.78296 z m -54.16345,-2.22954 c 1.27162,-0.65571 2.51814,-1.34868 3.80569,-1.98245 -0.12667,0.67671 -0.38928,1.46033 -1.17576,1.79726 -2.81268,1.43935 -5.5944,2.92148 -8.41743,4.34576 0.31505,-0.53926 0.62557,-1.08425 0.97256,-1.6092 1.59129,-0.86673 3.21235,-1.69899 4.8149,-2.55129 z m 122.49363,-4.21583 c 1.85385,1.04323 3.38232,2.53222 4.209836,4.27611 0.815031,1.69038 0.808247,3.60884 0.151865,5.33535 -0.08903,0.19948 -0.279712,0.34936 -0.439491,0.50971 0.285431,-1.17207 0.383563,-2.40238 -0.0136,-3.56481 -0.56158,-1.8421 -2.16771,-3.3721 -4.12079,-4.29785 0.0969,-0.75116 0.11867,-1.50712 0.21224,-2.25829 z m -44.67152,0.75692 c 0.31845,-0.32549 0.629,-0.65667 0.97827,-0.95925 -0.3322,0.64901 -0.0788,1.35435 0.0788,2.01198 0.17918,0.60225 0.35157,1.21027 0.62326,1.78865 0.33906,0.37131 0.93379,0.56024 1.48164,0.54595 0.25458,-8.3e-4 0.37555,-0.25007 0.28764,-0.42855 -0.26824,-0.72537 -0.61641,-1.42976 -1.01256,-2.11223 0.0766,-0.50111 0.29909,-0.98311 0.45547,-1.47175 0.18948,0.0143 0.38241,0.0277 0.57645,0.0439 0.1267,0.88861 0.68264,1.67601 1.1187,2.47394 -0.0182,0.64239 -0.072,1.28851 -0.22032,1.92034 -0.11188,0.44003 -0.30709,0.94967 -0.83901,1.1482 -0.45317,0.14702 -0.984,0.22908 -1.44174,0.0516 -0.67233,-0.2491 -1.14952,-0.73968 -1.56277,-1.2303 -0.26139,0.69385 -0.92578,1.24363 -1.74082,1.48709 -0.67005,0.25772 -1.48508,-0.0124 -1.90976,-0.48394 -0.48741,-0.55649 -0.57305,-1.27325 -0.58108,-1.9423 0.0275,-0.64239 0.0878,-1.30382 0.4189,-1.89367 0.21457,-0.39612 0.54679,-0.78549 1.05703,-0.93346 -0.68036,0.94018 -0.75568,2.14565 -0.25345,3.15547 0.145,0.28631 0.44292,0.56313 0.84016,0.57268 0.60388,-0.0258 1.07306,-0.38943 1.47254,-0.73398 -0.009,-0.81988 0.0343,-1.63786 0.0355,-2.45776 0.0288,-0.18505 -0.0385,-0.40749 0.1372,-0.55253 z m -100.73282,-6.65447 c 1.51708,0.8218 2.72482,2.07215 3.30222,3.51056 0.46919,1.16254 0.43605,2.44155 0.0182,3.61077 -0.0559,0.18996 -0.22719,0.33212 -0.38012,0.4715 0.30823,-1.10333 0.27511,-2.29931 -0.2774,-3.34624 -0.56274,-1.08139 -1.59468,-1.97286 -2.81716,-2.54937 0.0662,-0.56497 0.0994,-1.13192 0.15416,-1.69695 z m 48.96119,-1.22745 c 0.34356,-0.35599 0.65064,-0.76545 1.10724,-1.0251 -0.30136,0.38275 -0.17468,0.85518 -0.10274,1.27708 0.16896,0.78742 0.42012,1.56243 0.71691,2.32318 0.0937,0.31783 0.48511,0.45337 0.80817,0.57557 0.2922,0.0917 0.64377,0.17656 0.94056,0.0544 0.1872,-0.13745 0.0993,-0.37225 0.0331,-0.54212 -0.28543,-0.66626 -0.5776,-1.33431 -0.97942,-1.95858 l 0.46118,-1.45267 c 0.20094,0.0133 0.40178,0.0249 0.60616,0.0353 0.0925,0.89436 0.68034,1.67507 1.1038,2.4778 -0.0147,0.68435 -0.0741,1.37438 -0.25114,2.04446 -0.10045,0.39518 -0.31848,0.81222 -0.76482,1.0108 -0.51254,0.16993 -1.12326,0.24912 -1.62436,0.0133 -0.58107,-0.27871 -1.04564,-0.70343 -1.40974,-1.16733 -0.29221,0.71109 -0.99422,1.27422 -1.84695,1.50617 -0.58672,0.18421 -1.28422,-0.0124 -1.68488,-0.40086 -0.51023,-0.44283 -0.64722,-1.08425 -0.69629,-1.67506 -0.04,-0.75979 0.0332,-1.54336 0.38814,-2.25062 0.20322,-0.41043 0.56617,-0.77215 1.04681,-0.97163 -0.47147,0.78268 -0.71346,1.69318 -0.44972,2.55793 0.11645,0.45337 0.31053,1.03181 0.91431,1.17396 0.65179,0.0697 1.17008,-0.34456 1.59015,-0.70344 0.0786,-0.96593 0.0295,-1.93763 0.0934,-2.90249 z m 50.47664,-1.22363 c 2.19512,-0.79411 4.39013,-1.59586 6.6357,-2.28308 -0.0685,0.42661 -0.25344,0.91343 -0.74999,1.11673 -3.18809,1.13773 -6.38899,2.25636 -9.5098,3.51992 -0.61984,0.28632 -1.25683,0.58029 -1.73967,1.02127 0.34471,0.31784 0.86066,0.43716 1.32641,0.58028 -0.005,0.30825 -0.004,0.61658 -0.004,0.9258 -0.65981,-0.13362 -1.32071,-0.33501 -1.83217,-0.71965 0.0296,-0.43812 0.0206,-0.87904 0.0925,-1.3143 0.0741,-0.39518 0.557,-0.58123 0.90629,-0.796 1.5469,-0.80554 3.22155,-1.41926 4.87547,-2.0511 z m -98.78196,-3.84255 0.0902,0.0754 c -0.19865,0.21095 -0.097,0.48961 -0.0651,0.73209 0.10844,0.52209 0.26367,1.03938 0.47825,1.53857 0.0708,0.22333 0.34814,0.33021 0.58443,0.40467 0.20657,0.0362 0.54107,0.12124 0.6267,-0.10975 -0.14157,-0.54116 -0.48169,-1.02413 -0.69179,-1.54335 0.0992,-0.29972 0.14613,-0.62138 0.31615,-0.89908 0.11416,0.002 0.23063,0.006 0.34701,0.0124 0.11416,0.58221 0.47604,1.09477 0.73626,1.63213 -0.0147,0.55264 -0.0355,1.12623 -0.28428,1.64554 -0.15521,0.35127 -0.6495,0.44475 -1.04674,0.44002 -0.58107,-0.0688 -0.9623,-0.47914 -1.30589,-0.83609 -0.22147,0.52113 -0.78767,0.92869 -1.44747,1.00029 -0.55481,0.0238 -1.02505,-0.35031 -1.17118,-0.77693 -0.19292,-0.56407 -0.17125,-1.1702 -0.0147,-1.73811 0.12218,-0.39708 0.36072,-0.82659 0.85159,-0.97928 -0.38698,0.54691 -0.48283,1.21979 -0.26595,1.82965 0.0845,0.25199 0.24085,0.5679 0.59701,0.60415 0.39491,0.006 0.68836,-0.24625 0.97027,-0.44196 0.073,-0.62423 -0.0148,-1.25416 0.0777,-1.87739 0.14279,-0.26819 0.42821,-0.4667 0.61769,-0.71294 z m 18.19097,-1.07568 c 0.24199,0.0544 0.41668,0.2195 0.6164,0.33691 1.21003,0.83322 2.21791,1.91656 2.69854,3.17556 0.44973,1.13963 0.42233,2.39095 0.0218,3.53726 -0.0547,0.19852 -0.20545,0.35888 -0.33794,0.52496 -0.0105,-0.021 -0.0308,-0.064 -0.0422,-0.0849 0.29219,-1.05941 0.24885,-2.20001 -0.26138,-3.20803 -0.55138,-1.10429 -1.58445,-2.01867 -2.83084,-2.59425 0.0319,-0.56304 0.0845,-1.12616 0.13583,-1.68742 z m 10.97782,-0.98306 c 0.30708,-0.6252 1.11181,-1.150096 1.95082,-1.029877 0.41897,0.07543 0.71234,0.383667 0.86181,0.703427 0.29335,0.65857 0.33678,1.37632 0.23397,2.06929 0.51482,0.5154 1.07413,1.03749 1.28987,1.70562 0.39949,0.87904 0.0422,1.81731 -0.29793,2.66585 -0.43491,1.12248 -1.26138,2.14182 -1.41548,3.33493 -0.0537,0.29494 0.0822,0.61659 0.44292,0.7187 0.5799,-0.14319 0.67004,-0.71965 0.78877,-1.13964 0.18148,-0.0362 0.46576,-0.0525 0.52849,0.13936 0.0993,0.5307 -0.17919,1.04131 -0.4041,1.52524 -0.20314,0.36749 -0.48511,0.80176 -1.00682,0.88382 -0.41668,0.064 -0.73512,-0.24145 -0.9018,-0.52112 -0.47492,-0.80559 -0.32534,-1.76101 0.072,-2.56558 0.61871,-1.28187 1.43603,-2.5723 1.3607,-3.9945 0.002,-0.60414 -0.30137,-1.18069 -0.78649,-1.6207 -0.72483,1.63689 -1.89717,3.11252 -3.24752,4.43356 -0.69856,0.72537 -1.70196,1.16828 -2.65969,1.61015 -0.85723,0.37132 -1.72708,0.73689 -2.64034,1.00506 1.7579,-1.05752 3.44401,-2.21343 4.90283,-3.55627 1.20318,-1.12912 2.3104,-2.40237 2.75679,-3.89127 l -0.0296,-0.084 c -0.65066,-0.35127 -1.43258,-0.66146 -1.77162,-1.28187 -0.14379,-0.35317 -0.12547,-0.7502 -0.0274,-1.11002 m 0.6518,0.17943 c -0.16781,0.0906 -0.0525,0.26437 0.0846,0.32359 0.40981,0.19947 0.83099,0.38464 1.2568,0.56024 -0.0105,-0.35888 0.0674,-0.80463 -0.30824,-1.06038 -0.32533,-0.22723 -0.77054,-0.0306 -1.03305,0.17655 z m 69.49401,-0.79889 c 0.21917,-0.319758 0.55815,-0.713947 1.06046,-0.658567 0.53308,0.100296 1.05474,0.339797 1.38235,0.713947 0.16667,0.23386 0.30481,0.59082 0.009,0.79698 -0.15522,0.12691 -0.26594,0.34169 -0.45774,0.40564 -0.26824,-0.29301 -0.47605,-0.81605 -1.01827,-0.8008 -0.6792,0.20904 -1.05474,0.78453 -1.25797,1.33144 -0.42118,1.12816 -0.50681,2.31742 -0.63921,3.4858 -0.13468,0.11645 -0.31616,0.18134 -0.47824,0.26437 0,-1.18452 -0.32878,-2.45298 -1.34354,-3.32808 -0.48855,-0.0506 -1.06962,-0.0992 -1.34352,-0.49534 -0.33335,-0.50494 -0.57302,-1.12817 -0.34242,-1.69702 0.5171,-0.0849 0.93608,0.23954 1.28766,0.50877 0.9292,0.71301 1.52956,1.65693 2.07186,2.5952 0.22926,-1.06531 0.4598,-2.15529 1.0694,-3.12217 z m -132.18095,0.38463 c 0.28315,-0.41808 0.59586,-0.848526 1.08673,-1.116722 -0.78304,1.412622 -1.69404,2.815772 -1.98507,4.374372 -0.0914,0.50971 -0.0949,1.09383 0.29565,1.52239 0.36533,0.38463 1.02961,0.39132 1.54672,0.25676 0.57879,-0.19373 0.84817,-0.71301 1.11869,-1.14539 0.12104,0.003 0.14615,0.1222 0.2043,0.19373 -0.30479,1.00122 -0.5993,2.0874 -1.50224,2.84633 -0.83901,0.74159 -2.49421,0.35981 -2.9062,-0.56121 -0.29906,-0.66241 -0.19979,-1.39544 -0.0239,-2.07118 0.43155,-1.52136 1.24887,-2.9446 2.1655,-4.29895 z m 78.72918,-1.587246 c 1.50452,0.859958 2.73845,2.100806 3.31365,3.559286 0.28544,0.76546 0.39042,1.5815 0.27972,2.37947 -0.0821,0.58125 -0.19292,1.18451 -0.58221,1.68463 -0.0547,-0.1527 -0.0182,-0.30922 0.0159,-0.46104 0.25909,-1.15392 0.0387,-2.39094 -0.67692,-3.40651 -0.59013,-0.84663 -1.46338,-1.5567 -2.49072,-2.02538 0.0194,-0.57839 0.0868,-1.153925 0.14041,-1.730372 z m 20.99584,-0.776933 c 0.59357,0.257729 0.9817,0.728263 1.36411,1.16925 0.93265,1.141559 1.72478,2.423489 2.43594,3.669119 0.0693,0.16447 0.073,0.3686 0.12221,0.91626 -0.4292,-0.39039 -0.93151,-0.76738 -1.56958,-0.88192 -0.113,0.20904 -0.11188,0.43426 -0.0159,0.64805 0.82871,2.12556 1.7659,4.2216 2.56844,6.3547 0.51138,1.39065 0.96002,2.81936 0.97712,4.28354 0.0355,1.35913 -0.24198,2.71638 -0.7214,4.01239 -0.48168,1.21787 -1.22027,2.42528 -2.45198,3.22897 -1.0137,0.68818 -2.36638,0.97353 -3.65612,0.87239 -1.57413,-0.0983 -3.06499,-0.73305 -4.15736,-1.67603 -0.58336,-0.46485 -1.05703,-1.01362 -1.50109,-1.57297 l 0.17011,-0.0334 c -0.0467,0.005 -0.13928,0.0143 -0.18607,0.019 -0.98627,-1.3897 -1.71797,-2.90635 -2.14029,-4.48422 0.0376,-0.20425 -0.42805,-0.18708 -0.38128,0.0162 -0.60159,2.30123 -1.56163,4.57092 -3.15068,6.53143 -0.92806,1.12623 -2.12885,2.1313 -3.6187,2.72593 -1.6232,0.64045 -3.53526,0.68243 -5.24415,0.27201 -1.71683,-0.41426 -3.07755,-1.54813 -3.8149,-2.88432 -1.0685,-1.91467 -1.23173,-4.08231 -1.11412,-6.16393 0.22948,-1.68177 0.7317,-3.32641 1.22256,-4.96512 0.16553,-0.50398 0.31281,-1.0461 0.0993,-1.55767 -0.0684,-0.0297 -0.20429,-0.0887 -0.27168,-0.11836 -0.22948,0.125 -0.46575,0.24815 -0.64493,0.42375 -1.25795,1.16064 -1.97248,2.64387 -2.54326,4.1148 -0.43148,1.1845 -0.76825,2.39381 -0.99424,3.61848 -0.30021,1.93566 -0.76024,3.8943 -1.82529,5.64834 -0.57761,0.93253 -1.44518,1.90127 -2.75219,2.11511 -1.21109,0.13552 -2.50563,-0.18232 -3.39264,-0.89627 -1.08673,-0.8495 -1.56269,-2.08454 -1.84924,-3.27191 -0.45659,-2.13132 -0.31504,-4.31602 -0.0286,-6.456 0.19177,-1.31906 0.46574,-2.62857 0.80702,-3.92568 0.11188,-0.008 0.2249,-0.0153 0.34014,-0.021 -0.45201,2.18669 -0.76368,4.40686 -0.68493,6.6297 0.0708,1.26657 0.24886,2.55696 0.8641,3.72913 0.41784,0.80273 1.12664,1.55007 2.11178,1.8956 0.93035,0.31687 2.07865,0.37412 2.94972,-0.0983 0.90067,-0.4944 1.32299,-1.37725 1.65747,-2.19523 0.65867,-1.81059 0.94973,-3.69363 1.46683,-5.53301 0.54223,-1.86693 1.32184,-3.68317 2.27846,-5.43005 0.54795,-1.01841 1.15182,-2.01964 1.92685,-2.93222 0.68836,-0.81222 1.3207,-1.70373 2.29783,-2.30027 0.073,0.003 0.21689,0.009 0.28992,0.0124 0.17919,0.6118 -0.0319,1.24556 -0.064,1.86504 -0.0605,1.02319 -0.50565,1.98433 -0.76139,2.97599 -0.31733,1.1339 -0.58899,2.27736 -0.86066,3.41973 -0.42012,1.63595 -0.71919,3.36164 -0.19064,5.00723 0.3995,1.29043 1.46454,2.4291 2.90284,3.017 0.93494,0.41138 1.98396,0.62042 3.03653,0.65188 1.47936,0.12507 3.0262,-0.0238 4.34909,-0.61948 1.59469,-0.69481 2.72367,-1.95475 3.45545,-3.30053 0.71575,-1.34485 1.1244,-2.80147 1.24307,-4.2684 0.0159,-2.91405 -0.22604,-5.88426 -1.41775,-8.64746 -0.1518,-0.38178 -0.35044,-0.7779 -0.26367,-1.18736 0.18835,-1.12343 0.63701,-2.20481 1.16316,-3.246036 0.0331,-0.119324 0.20432,-0.127877 0.30708,-0.189 0.56274,1.405896 1.10954,2.821276 1.45089,4.278856 0.43035,1.89463 0.67808,3.81392 0.93265,5.72872 0.20209,1.36679 0.26139,2.75467 0.6712,4.09471 0.34014,1.11194 0.86982,2.20002 1.70195,3.12106 1.01141,1.17492 2.52959,2.04732 4.21793,2.3804 1.44516,0.28065 2.98853,-0.0801 4.20425,-0.755 0.63921,-0.3646 1.30247,-0.97928 1.09013,-1.67507 -2.02386,-4.45173 -3.68819,-9.00999 -5.3421,-13.56385 -0.10959,-0.37602 -0.31844,-0.73592 -0.35271,-1.12246 0.21466,-1.2044 0.71918,-2.359282 1.28763,-3.475055 z m -56.5497,3.741519 c 0.69178,-1.30573 1.38234,-2.612346 2.08895,-3.912468 1.3664,2.628558 2.47822,5.348848 3.31142,8.129118 0.0981,0.56216 -0.10045,1.12719 -0.0764,1.69222 -0.47711,-0.70823 -1.02505,-1.38111 -1.52507,-2.07788 0.12896,1.27518 0.36302,2.54365 0.50451,3.81888 0.95659,7.5315 1.79789,15.07373 2.51585,22.62449 0.82304,-0.49821 1.45089,-1.21312 1.80361,-2.0082 0.46002,-0.8953 0.95659,-1.78576 1.62892,-2.58562 0.2523,-0.28727 0.58556,-0.6557 1.0742,-0.56695 0.27626,0.0133 0.40753,0.26155 0.43491,0.46292 0.12217,0.7092 -0.5194,1.32099 -0.40982,2.02443 0.0297,0.57746 0.5696,1.07282 1.21112,1.24748 1.10954,0.335 2.31499,0.18518 3.45293,0.0506 0.51366,-0.0945 1.15516,-0.1756 1.40518,-0.62137 -0.26711,-0.71589 -0.56388,-1.42405 -0.90067,-2.11893 0.48054,-1.02413 1.02963,-2.02634 1.53079,-3.04481 0.12899,-0.24049 0.21574,-0.50586 0.42806,-0.70822 0.36415,1.16446 0.45545,2.37281 0.60271,3.5659 0.15181,1.92896 -0.21801,3.93146 -1.36867,5.62853 -0.61985,0.86857 -1.54561,1.6579 -2.75337,1.90892 -1.05246,0.21095 -2.20885,0.11453 -3.16323,-0.32455 -1.10496,-0.52591 -1.86292,-1.44981 -2.25677,-2.44532 -0.59814,1.14916 -1.38464,2.23537 -2.38574,3.16979 0.11646,1.49083 0.24657,2.98066 0.33563,4.47265 0.0662,1.66364 -0.44406,3.29393 -1.03419,4.86877 -0.2865,0.67671 -0.56846,1.35721 -0.92235,2.01198 -3.14594,4.29895 -7.30441,8.10709 -12.29402,10.9504 -3.26595,1.87549 -6.8788,3.32999 -10.67194,4.28547 -1.98278,0.48106 -4.00999,0.87336 -6.07276,0.99933 -2.12895,0.0249 -4.28966,-0.20522 -6.27958,-0.85807 -1.8675,-0.60892 -3.49871,-1.71801 -4.54559,-3.1516 -3.67787,0.31783 -7.37752,0.49248 -11.07606,0.50014 3.29889,-0.98878 6.56482,-2.05685 9.77577,-3.23282 -0.85722,-3.49626 -0.14843,-7.10124 0.9235,-10.50666 0.65636,-2.06451 1.43215,-4.11452 2.38303,-6.09594 0.72053,-1.58539 1.00434,-2.31434 2.38049,-4.18472 -1.44176,2.12781 -1.65176,3.00351 -2.29627,4.51174 -0.86753,2.32221 -1.49127,4.71958 -1.67505,7.14887 -0.18149,2.67054 0.0478,5.47465 1.53643,7.89156 3.95752,-1.54718 7.81011,-3.28623 11.50419,-5.23709 3.13226,-1.67794 6.15845,-3.50865 8.90834,-5.60733 1.30361,-1.00795 2.57064,-2.05972 3.64132,-3.24714 0.31615,-0.31115 0.1621,-0.75499 0.0594,-1.10907 -0.23856,-0.59466 -0.50909,-1.17972 -0.7842,-1.76193 -1.87206,0.63376 -3.86626,1.06804 -5.89694,1.06039 -1.10724,0.0267 -2.24647,-0.14983 -3.20091,-0.63759 -0.81846,-0.42187 -1.42571,-1.11481 -1.67227,-1.89177 -0.34127,-1.01937 -0.19292,-2.09506 0.0115,-3.12299 0.32419,-1.48796 0.97942,-2.97599 2.22478,-4.10213 0.87441,-0.78645 2.03188,-1.39162 3.31507,-1.55007 1.45088,0.006 2.81716,0.59751 3.85258,1.41926 1.31841,1.04514 2.21792,2.40044 2.90982,3.79107 1.29101,-0.62897 2.53188,-1.37342 3.49313,-2.34032 0.94286,-0.81987 1.9132,-1.65693 3.11746,-2.20767 0.30022,-0.14415 0.81845,-0.30355 1.01818,0.0334 0.21803,0.50014 0.0105,1.04991 -0.13584,1.54718 -0.38814,0.72537 0.081,1.55007 0.66095,2.10455 0.80701,0.76163 2.13344,0.83512 3.25785,0.66432 -1.17809,-10.12211 -2.37553,-20.24311 -3.55454,-30.36549 -0.0239,-0.3396 -0.1997,-0.64978 -0.35042,-0.96002 m -16.04279,31.0812 c -0.5776,0.20808 -1.30017,0.51636 -1.3858,1.09765 0.13584,0.44196 0.75681,0.57844 1.2237,0.67288 1.5011,0.24338 3.06138,0.23865 4.56149,-0.007 -0.0274,-0.0448 -0.0845,-0.13362 -0.11301,-0.17848 -0.78192,-0.74062 -1.7785,-1.37822 -2.96341,-1.56531 -0.43491,-0.0544 -0.89722,-0.15845 -1.32299,-0.019 m 9.82964,4.13461 c 0.15522,2.06258 -0.19063,4.14811 -0.96798,6.10751 -0.30022,0.68054 -0.55022,1.40112 -1.11639,1.96807 -2.78417,3.11143 -6.37085,5.65331 -10.15031,7.88468 -3.36753,1.96143 -6.92316,3.70133 -10.63985,5.15505 0.63471,0.25869 1.30131,0.46671 1.99425,0.58986 1.85611,0.34456 3.77279,0.1594 5.63209,-0.0649 5.8216,-0.7292 11.30325,-2.85377 16.02437,-5.75736 3.13003,-1.92512 5.98151,-4.16709 8.4699,-6.66301 0.83214,-0.88192 1.85613,-1.74378 2.05926,-2.90442 -0.19865,-1.96903 -0.46118,-3.93339 -0.68036,-5.90132 -1.29441,0.4343 -2.89697,0.53637 -4.07167,-0.189 -1.42576,-0.90004 -1.96798,-2.43579 -2.19282,-3.85411 -1.22952,1.38116 -2.67581,2.63341 -4.36054,3.62893 z m 71.26903,-38.018092 c 0.32305,-0.448592 0.63128,-0.943939 1.18257,-1.226483 -0.80138,1.341989 -1.6187,2.706845 -1.97938,4.188285 -0.14042,0.64045 -0.18833,1.4202 0.44063,1.9003 0.36525,0.14886 0.78648,0.23769 1.18486,0.12028 0.72828,-0.13649 1.06848,-0.77024 1.35268,-1.28371 0.0788,0.20617 0.13126,0.41993 0.0468,0.63184 -0.25918,0.89147 -0.60388,1.82495 -1.38353,2.49974 -0.87785,0.78645 -2.64833,0.33404 -2.98264,-0.67382 -0.29338,-0.91438 -0.0251,-1.87269 0.29678,-2.7566 0.46812,-1.18359 1.11647,-2.31271 1.84131,-3.399905 z m -92.49679,2.513092 c 0.77847,-1.26179 1.52621,-2.535991 2.28532,-3.805391 1.23287,2.692501 2.20884,5.468041 2.88581,8.295101 0.0445,0.51443 -0.12324,1.02702 -0.17804,1.53856 -0.557,-0.62993 -0.89151,-1.38875 -1.45882,-2.01773 0.30938,2.12371 0.42013,4.26454 0.62213,6.39682 0.2249,2.75742 0.4372,5.51594 0.64836,8.27419 1.69059,-0.23674 3.20983,-1.07186 4.23049,-2.2115 1.53528,-1.70659 2.21676,-3.85411 2.4097,-5.95583 -0.0126,-2.70016 -0.18491,-5.44713 -1.19973,-8.03167 -0.17919,-0.5288 -0.50911,-1.04034 -0.50231,-1.60067 0.12102,-1.0413 0.53764,-2.03967 0.97827,-3.012311 0.11187,-0.227162 0.18491,-0.516364 0.51368,-0.584104 0.50116,1.295205 1.01931,2.589445 1.35267,3.923755 0.51711,2.09026 0.76712,4.21857 1.05474,6.33763 0.19178,1.28283 0.24887,2.58658 0.63701,3.84366 0.50336,1.69036 1.52392,3.33769 3.20425,4.41236 1.26362,0.80176 2.87773,1.3506 4.48502,1.13771 1.1335,-0.17082 2.28073,-0.54788 3.0742,-1.27133 0.35845,-0.3207 0.60501,-0.79028 0.45201,-1.22935 -1.6232,-3.49432 -2.94861,-7.07839 -4.28853,-10.65365 -0.45774,-1.24364 -0.90751,-2.49016 -1.35611,-3.73574 -0.12782,-0.31594 0.0388,-0.64142 0.10045,-0.9535 0.282,-0.952555 0.64722,-1.896557 1.15182,-2.782192 0.54909,0.220462 0.90523,0.656663 1.26363,1.050883 1.08097,1.301909 1.9428,2.720199 2.73502,4.156639 -0.0376,0.18326 -0.0741,0.36749 -0.10389,0.55264 -0.40177,-0.41712 -0.91776,-0.79125 -1.56383,-0.89717 -0.10274,0.20425 -0.0981,0.42758 -0.009,0.63472 0.71919,1.81824 1.48622,3.62316 2.21791,5.43749 0.62212,1.61781 1.36987,3.96973 1.32755,4.97476 -0.13076,1.41146 -0.36757,3.28291 -0.87802,4.59844 -0.56158,1.16926 -1.53969,2.56568 -2.87186,3.20805 -1.14266,0.57461 -2.55355,0.66336 -3.84115,0.45145 -1.69517,-0.28345 -3.14927,-1.19976 -4.19057,-2.32796 -1.4634,-1.59013 -2.36175,-3.50094 -2.89362,-5.4441 -0.0799,0.002 -0.2397,0.007 -0.31962,0.0105 -0.49773,1.95475 -1.25452,3.87999 -2.42345,5.62936 -1.04787,1.56435 -2.49647,3.04288 -4.49421,3.78915 0.34927,4.84014 0.7146,9.67919 0.96454,14.52401 0.0365,2.38902 -0.0788,4.77711 -0.22032,7.16318 -0.002,0.32455 -0.16438,0.62515 -0.28536,0.92869 -0.39155,1.03555 -0.80587,2.06544 -1.2465,3.08857 -0.0695,0.17083 -0.15979,0.33788 -0.28877,0.48491 -0.0571,-4.5613 -0.51939,-9.11131 -0.88808,-13.66021 -0.33448,-4.00578 -0.66889,-8.01185 -0.99424,-12.01764 -1.59925,-0.0297 -3.2464,-0.42089 -4.42668,-1.3601 -1.37548,-1.05849 -2.07759,-2.58466 -2.41314,-4.09084 -0.29679,-1.33431 -0.35958,-2.70209 -0.23513,-4.05259 0.27398,-1.76382 0.81389,-3.48855 1.3287,-5.21231 0.0708,-0.30825 0.12219,-0.63184 0.0387,-0.9421 -0.0319,-0.11262 -0.0628,-0.24624 -0.21917,-0.27776 -0.2397,-0.0258 -0.41783,0.12411 -0.5799,0.24529 -0.89723,0.7254 -1.48394,1.66364 -1.99646,2.60279 -0.97141,1.94044 -1.54329,4.00882 -1.85495,6.09237 -0.25802,1.37351 -0.63472,2.74118 -1.2511,4.03635 -0.4897,0.9621 -1.10036,1.95282 -2.16199,2.55603 -0.90638,0.52208 -2.10497,0.45816 -3.0968,0.15843 -1.25566,-0.38942 -2.14947,-1.33048 -2.62431,-2.3499 -0.82534,-1.75239 -0.879,-3.67078 -0.82871,-5.52916 0.1176,-2.17808 0.48742,-4.34465 1.05705,-6.47113 0.10729,-0.019 0.21573,-0.0373 0.32304,-0.0544 -0.46118,2.43962 -0.83673,4.91364 -0.6187,7.38671 0.10617,1.07185 0.33451,2.15421 0.88244,3.13536 0.46576,0.83803 1.28307,1.5911 2.36519,1.86505 0.92005,0.23673 2.0102,0.21759 2.79316,-0.29972 0.85159,-0.56982 1.25452,-1.46033 1.56612,-2.30595 0.73286,-2.14279 1.00798,-4.3752 1.76705,-6.51216 0.73628,-2.09505 1.73738,-4.12718 2.97596,-6.04942 0.71805,-0.99644 1.49424,-1.97093 2.39605,-2.85872 0.26709,-0.23291 0.53534,-0.56406 0.96002,-0.56789 0.23283,0.12501 0.14957,0.39893 0.15522,0.59465 -0.11875,0.96404 -0.1301,1.94996 -0.4749,2.88239 -0.63013,1.91371 -1.05475,3.86953 -1.51707,5.81462 -0.32075,1.51472 -0.40636,3.13262 0.28649,4.58524 0.51023,1.10811 1.57186,2.00724 2.85261,2.50738 0.69627,0.2749 1.4486,0.44293 2.20999,0.53448 -0.42012,-5.40418 -0.89722,-10.80533 -1.33213,-16.20951 -0.0994,-0.84083 -0.0332,-1.70844 -0.4247,-2.50445 z m 169.570944,0.021 c 0.686066,-1.36106 1.320694,-2.738313 2.014768,-4.096625 1.063901,2.931125 2.102626,5.871045 2.9701,8.846755 0.130118,0.5125 0.300221,1.02127 0.364161,1.54336 -0.0902,0.41329 -0.240845,0.81893 -0.253438,1.24363 -0.378979,-0.61087 -0.760248,-1.21979 -1.144949,-1.82686 0.483975,7.6138 1.068393,15.22376 1.72133,22.82986 0.20208,2.44625 0.497734,4.88776 0.605017,7.3388 0.196359,4.54037 0.0069,9.17901 -1.642597,13.54377 -0.619837,1.57767 -1.408608,3.11527 -2.410857,4.55083 -1.346955,1.85546 -3.346876,3.3187 -5.546682,4.44291 -3.917627,1.97094 -8.401517,2.99609 -12.878437,3.62895 -0.25344,0.0773 -0.35616,-0.16897 -0.50003,-0.28065 3.99409,-1.60826 7.83412,-3.49818 11.41851,-5.68193 1.792164,-1.12246 3.546706,-2.30497 5.054646,-3.69473 1.728223,-1.62734 3.031778,-3.58682 3.624293,-5.71331 0.649503,-2.138 0.425755,-4.36282 0.283111,-6.53913 -0.374402,-5.0166 -0.837863,-10.02852 -1.232862,-15.04428 -0.608367,-7.72915 -1.221421,-15.4594 -1.831014,-23.18854 -0.128971,-0.54309 -0.534212,-1.00888 -0.721399,-1.53763 -0.05029,-0.12972 0.06618,-0.24617 0.106079,-0.3655 z m -10.117104,1.32675 c 2.33439,-2.04926 4.59805,-4.154715 6.841118,-6.275707 0.09937,1.906055 -1.073058,3.658397 -2.382308,5.147357 -0.70086,0.86571 -1.68946,1.51376 -2.57865,2.23346 -0.42574,0.32262 -0.839,0.65473 -1.24764,0.99071 0.11758,0.5097 0.29677,1.01168 0.363,1.52907 -0.0343,0.4801 -0.12668,0.95735 -0.1952,1.43552 -0.50339,-0.66049 -0.86295,-1.39737 -1.43831,-2.0158 0.25344,2.16186 0.37669,4.33336 0.5491,6.50087 0.44972,6.36433 0.8618,12.72978 1.24994,19.09686 -0.0228,0.16419 0.14956,0.2682 0.26023,0.38464 1.66091,1.54432 3.31506,3.09436 4.8696,4.7149 1.221421,1.35914 2.37773,2.76403 3.358321,4.25601 1.284216,1.95282 2.301257,4.068 2.601475,6.29744 0.163236,1.40209 0.08219,2.84909 -0.46346,4.19188 -0.961613,-3.67931 -2.730975,-7.02473 -4.793411,-9.34501 -1.735085,-1.97669 -3.632955,-3.91329 -5.548655,-5.76891 0.13357,2.26968 0.26712,4.54037 0.37099,6.8111 0.10157,2.9292 -0.0275,5.85948 -0.17583,8.78592 10e-4,0.55457 -0.29793,1.06135 -0.45202,1.59109 -0.44636,1.1893 -0.80588,2.40716 -1.37777,3.56012 -0.0914,-2.70303 -0.20093,-5.40886 -0.39615,-8.10903 -0.35042,-4.83628 -0.7191,-9.67064 -1.05016,-14.50694 -0.0491,-0.38081 -0.0239,-0.76928 -0.11073,-1.14346 -1.26026,-1.23223 -2.62094,-2.39094 -3.93716,-3.58021 -2.31842,-2.02539 -4.66085,-4.03167 -7.09229,-5.96161 0.46117,5.0521 0.93827,10.10283 1.36976,15.15686 0.1849,2.29452 0.42918,4.5891 0.45544,6.89038 0.0332,2.00152 0.009,4.00387 -0.0445,6.00456 0.007,1.26274 0.0275,2.56751 -0.50795,3.76822 -0.79223,1.48709 -2.21343,2.72882 -3.92683,3.49516 -1.33786,0.59368 -2.85038,0.90962 -4.36389,0.92013 -1.02162,0.019 -2.03761,-0.20808 -2.94052,-0.59847 -1.581,-0.74541 -2.70879,-2.01677 -3.43479,-3.3856 -0.49765,-0.94207 -0.85494,-1.93757 -1.04789,-2.95589 -0.11187,-0.44573 -0.23053,-0.96114 -0.70659,-1.23981 -0.37899,-0.21382 -0.83215,-0.043 -1.1986,0.1002 -0.8915,0.39708 -1.74987,0.87616 -2.39488,1.5357 -2.10041,2.11317 -3.09933,4.81041 -3.72477,7.46488 -0.30595,1.14531 -0.79106,2.284 -1.64266,3.22979 -0.61755,0.67381 -1.49932,1.31908 -2.54326,1.33624 -0.81756,0.0134 -1.60611,-0.27776 -2.33552,-0.57932 -1.61413,-0.71205 -2.7338,-2.01751 -3.40047,-3.4112 -0.17816,-0.37241 -0.39566,-0.68218 -0.74524,-2.00176 -0.37691,-1.42276 -0.50708,-3.5838 -0.36094,-5.78296 0.0708,-0.21287 -0.19291,-0.29014 -0.33784,-0.40851 -0.57533,-0.41233 -0.81045,-1.06707 -0.80253,-1.68368 -0.0159,-2.26301 0.3767,-4.56514 1.51591,-6.63549 0.9235,-1.70754 2.30699,-3.1984 3.65388,-4.68351 0.12669,-0.16035 0.35044,-0.28823 0.41211,-0.47531 -0.83901,-0.8008 -1.72485,-1.56818 -2.61978,-2.32508 -0.51024,-0.49342 -1.13122,-0.89436 -1.63351,-1.39258 -1.88799,-1.71138 -3.74402,-3.44643 -5.59915,-5.18286 0.17698,2.53981 0.31168,5.08155 0.46347,7.62316 0.1153,2.35368 0.31043,4.70636 0.27053,7.06298 0.008,2.10073 -0.10505,4.19958 -0.20773,6.29745 -0.005,0.52305 -0.25794,1.00985 -0.41774,1.50807 -0.44979,1.22837 -0.85617,2.47107 -1.40183,3.6738 -0.10157,-0.99454 -0.0399,-1.99577 -0.1153,-2.99113 -0.20659,-4.96594 -0.67119,-9.92061 -1.00111,-14.88104 -0.28083,-3.79493 -0.52854,-7.59289 -0.82757,-11.38588 -1.23621,-1.28283 -2.54102,-2.52457 -3.76355,-3.81971 -1.43145,-1.50999 -2.86182,-3.03049 -4.06023,-4.67883 -1.72029,-2.58849 -3.65165,-5.10166 -6.03622,-7.30082 -0.13584,-0.10688 -0.0937,-0.26628 -0.0925,-0.40275 0.0821,-1.42309 0.1473,-2.84634 0.23169,-4.26923 1.69748,0.9239 3.31618,1.94803 4.87212,3.03325 1.20546,0.86953 2.35269,1.80204 3.32874,2.85679 0.50344,0.49822 0.96797,1.1339 0.79911,1.81441 -0.57305,-0.18995 -1.16548,-0.3417 -1.70769,-0.58793 -0.21805,-0.1003 -0.45545,-0.16418 -0.69975,-0.19468 -0.0355,0.398 0.28877,0.71205 0.53193,1.02509 1.76821,2.1657 3.61286,4.28547 5.50538,6.3759 0.24312,0.2682 0.51136,0.52401 0.69856,0.82563 -0.11989,-2.45104 -0.34357,-4.89933 -0.50231,-7.34927 -0.26825,-3.78336 -0.54337,-7.5659 -0.81161,-11.34955 -0.0491,-0.56502 -0.0159,-1.14819 -0.28763,-1.67986 -0.13125,-0.21191 0.0628,-0.40564 0.17011,-0.58889 0.64951,-1.04992 1.27735,-2.110302 1.89375,-3.175563 0.0296,-0.07449 0.1724,-0.266271 0.21574,-0.08209 1.16777,2.537893 2.07645,5.158913 2.74761,7.818893 0.20659,0.63662 -0.048,1.28564 -0.12439,1.92226 -0.43606,-0.72062 -0.93035,-1.41453 -1.41433,-2.11317 0.61984,6.64401 0.97942,13.30428 1.44402,19.95572 0.31387,0.44099 0.79567,0.79029 1.17923,1.19312 3.70411,3.57169 7.55,7.0371 11.39339,10.50281 2.85595,-2.65147 5.74063,-5.28197 8.63539,-7.90395 0.12554,-0.0974 0.21116,-0.21663 0.16667,-0.3646 -0.87097,-8.27033 -1.74309,-16.54176 -2.6152,-24.81211 -0.11074,-0.83608 -0.081,-1.697 -0.4566,-2.49111 0.71347,-1.28187 1.49538,-2.537895 2.20428,-3.822734 0.38812,0.674786 0.65522,1.395444 0.96116,2.099854 0.7191,1.75525 1.34129,3.53919 1.83321,5.34774 0.10274,0.40754 0.27168,0.81894 0.2043,1.24077 -0.0513,0.38081 -0.11418,0.76075 -0.16323,1.1425 -0.47711,-0.67382 -0.93485,-1.35724 -1.41548,-2.02921 0.68215,6.66108 1.3747,15.04841 1.99417,21.22914 3.00108,-2.66584 5.97815,-5.3516 8.9929,-8.00607 0.33107,-0.31498 0.70774,-0.59655 1.01257,-0.9306 -1.46683,-1.64834 -2.83559,-3.35587 -4.20092,-5.06339 -0.4748,-0.56216 -0.84358,-1.17875 -1.29671,-1.75239 -0.95429,-1.237 -1.92915,-2.48826 -3.2397,-3.48579 -0.11417,-1.60731 -0.17582,-3.21851 -0.25802,-4.82859 3.07756,2.24871 6.20423,4.45338 9.19498,6.7844 0.28657,0.21478 0.51482,0.47818 0.67462,0.77215 -0.26938,-2.51499 -0.51595,-5.03091 -0.77055,-7.54692 -0.0308,-0.23099 -0.0218,-0.47149 -0.13698,-0.68722 -0.0765,-0.22142 -0.28772,-0.45816 -0.11645,-0.68435 0.70774,-1.21692 1.37547,-2.450108 2.0753,-3.670785 1.22486,2.424315 2.17915,4.942275 2.93493,7.496255 0.0777,0.35888 0.26482,0.71109 0.20773,1.08139 -0.0559,0.40851 -0.0891,0.81895 -0.14493,1.22745 -0.43261,-0.60133 -0.86523,-1.20261 -1.29336,-1.80492 -0.0741,-0.0955 -0.14384,-0.19091 -0.20658,-0.28824 0.39034,2.87772 0.64835,5.76672 0.95315,8.65132 2.25448,-2.00056 4.56957,-3.95239 6.90168,-5.89087 1.03878,-0.8218 2.11635,-1.61016 3.1116,-2.47015 -0.0936,-1.11673 -0.1473,-2.23536 -0.2523,-3.35117 -0.0194,-0.3541 -0.40868,-0.7111 -0.13584,-1.04993 0.73628,-1.17013 1.43372,-2.358463 2.12094,-3.550488 0.80486,1.546356 1.34824,3.180518 1.93044,4.792528 m -13.4288,14.01916 c 0.0355,0.45144 0.081,0.90289 0.13012,1.35341 0.73284,0.75689 1.47713,1.50712 2.25104,2.23536 2.95085,2.78522 6.00329,5.49281 8.99738,8.24473 -0.46346,-6.80615 -0.98399,-13.61148 -1.44402,-20.41873 -3.37758,2.80807 -6.6904,5.66955 -9.93457,8.58525 m -6.37307,-6.17358 c 0.94629,1.23701 1.93141,2.45584 2.98154,3.6328 -0.0846,-1.09097 -0.21116,-2.18094 -0.32534,-3.26998 -0.0571,0.0964 -0.11875,0.19283 -0.16667,0.2911 -0.71348,-0.43518 -1.58444,-0.77688 -2.48962,-0.6538 m -6.06607,17.60598 c -0.61183,0.60225 -1.29328,1.15775 -1.86863,1.78386 0.13582,1.92992 0.43033,3.85493 0.61183,5.78405 0.0891,3.18878 -0.54451,6.57327 -2.88918,9.18287 0.0674,-0.41519 0.0355,-0.83512 0.0412,-1.25321 -0.003,-1.43073 0.0686,-2.86148 0.0605,-4.29317 -0.007,-1.37167 0.0218,-1.27755 -0.0423,-4.11481 -0.0268,-1.18463 -0.20174,-2.12425 -0.31618,-2.95781 -0.81847,0.72347 -1.59809,1.4775 -2.4143,2.20291 -1.6061,1.50041 -3.31365,2.92065 -4.95974,4.38952 1.67225,1.50615 2.72138,3.48854 2.99188,5.52832 0.27282,2.16947 -0.37327,4.47652 -2.07637,6.16312 -1.50224,1.47847 -3.65722,2.41192 -5.89583,2.84138 -1.05017,0.19468 -2.17228,0.32837 -3.21459,0.0344 0.13011,0.91055 0.29336,1.81823 0.51139,2.71733 0.3744,1.51566 0.86181,3.04563 1.82871,4.38099 0.5171,0.68243 1.22601,1.34388 2.20085,1.54432 1.04221,0.21191 2.10259,-0.22525 2.83559,-0.82467 0.65292,-0.4896 0.95543,-1.19975 1.23056,-1.8755 0.82757,-1.99001 1.10725,-4.12801 2.20199,-6.04172 0.76825,-1.51854 1.74423,-2.99223 3.1529,-4.16241 0.73056,-0.63567 1.5707,-1.1778 2.45082,-1.66078 0.60615,-0.30355 1.34015,-0.55651 2.05353,-0.3789 0.67921,0.16706 1.13695,0.66815 1.45081,1.17301 0.71461,1.13677 0.90066,2.43674 1.47936,3.61847 0.42355,0.9764 0.98511,1.9681 1.98278,2.62667 1.00796,0.66531 2.33671,0.86951 3.59359,0.82467 2.19401,-0.0782 5.80206,-1.57337 5.98487,-1.99577 0.18977,-0.43808 -0.3113,-3.75639 -0.50681,-5.63239 -0.9551,-9.16524 -1.86863,-18.33325 -2.80236,-27.49905 -0.0319,-0.25199 -0.30252,-0.42279 -0.43606,-0.63662 -3.13589,2.80119 -6.17576,5.67615 -9.24048,8.53101 m -14.29622,13.14957 c -0.65637,0.63376 -1.27621,1.29519 -1.89374,1.95568 -1.17465,1.32481 -2.35034,2.66488 -3.22018,4.15003 -0.21918,0.377 -0.41897,0.84757 -0.16667,1.24843 0.29794,0.41043 0.93493,0.47149 1.45768,0.47245 2.30812,-0.0773 4.46101,-0.94113 6.3354,-2.01963 0.62669,-0.25868 1.2157,-0.8313 0.9794,-1.45267 -0.31051,-0.83513 -0.89837,-1.57202 -1.47371,-2.29453 -0.597,-0.71012 -1.226,-1.404 -1.89605,-2.06736 -0.0308,0.002 -0.0914,0.006 -0.12218,0.007 z" id="path4" style="stroke-width:0.277177"/>
      </g>
    </g>
  </g>
</svg>