<svg xmlns="http://www.w3.org/2000/svg" xmlns:xlink="http://www.w3.org/1999/xlink" width="1350" height="900"><path fill="#fff" d="M0 0h1350v900H0z"/><path d="M600 0h1350v100H600zM600 200h1350v100H600zM0 400h1350v100H0zM0 600h1350v100H0zM0 800h1350v100H0z"/><use xlink:href="#a" x="-225" y="-122.5"/><use xlink:href="#a" x="-75" y="-122.5"/><use xlink:href="#a" x="75" y="-122.5"/><use xlink:href="#a" x="225" y="-122.5"/><use xlink:href="#a" x="-150"/><g id="a" fill="#000"><use xlink:href="#b" transform="rotate(-90 300 167.5)"/><path id="b" d="m300 167.5-9-13.5 9-22.5 9 22.5z"/><use xlink:href="#b" transform="rotate(90 300 167.5)"/><path d="m300 167.5 40.5 99L309 253l-9 18-9-18-31.5 13.5z"/></g><use xlink:href="#a" x="150"/><use xlink:href="#a" x="-225" y="122.5"/><use xlink:href="#a" x="-75" y="122.5"/><use xlink:href="#a" x="75" y="122.5"/><use xlink:href="#a" x="225" y="122.5"/></svg>