<svg xmlns="http://www.w3.org/2000/svg" width="600" height="400" version="1.0"><path d="M.41.402v144h648v-144H.41z" style="fill:#002488;fill-opacity:1;stroke:none" transform="matrix(.9259 0 0 .92703 -.38 -.373)"/><path style="fill:green;fill-opacity:1;stroke:none" d="M410.905 328.281c0 1 3.4 3.2 7.6 5 7 3 15.4 6 77.4 28.2 26.6 9.6 37 12.4 37 9.8 0-1-24-9.8-53.4-19.4-29.6-9.8-57-19.4-61-21.6-4.2-2-7.6-2.8-7.6-2zM439.106 345.624c1.2 2 74.6 32 87 35.6 4.6 1.4 6.6-2.4 2-4-1.4-.4-15.2-5.4-30.6-11-23.6-8.6-35.4-13-56.8-21.6-1.8-.6-2.4-.2-1.6 1z" transform="matrix(.9259 0 0 .92703 -.38 -.373)"/><path d="M.424 143.887v288h648v-288h-648z" style="fill:#da121a;fill-opacity:1;stroke:none" transform="matrix(.9259 0 0 .92703 -.38 -.373)"/><path style="fill:green;fill-opacity:1;stroke:none" d="M214.985 225.884c2.254 5.502 10.25 9.264 20.98 10.19 7.262.515 3.93-2.613-6.218-6.307-4.767-1.522-10.32-4.395-12.677-6.104-4.151-3.214-4.151-3.214-2.085 2.22z" transform="matrix(.9259 0 0 .92703 -.38 -.373)"/><g style="fill:#fcdd09;fill-opacity:1;stroke:none"><path style="fill:#fcdd09;fill-opacity:1;stroke:none" d="M56.993 8.06c-3.956 6.517-4.428 11.729-1.728 20.729 1.3 4.2 2.728 10.472 3.328 13.872.8 4.8.717 5.256.829 6.3 1 0 3.272.003 4.323-.003.151-1.662.273-3.58.628-6.217.414-3.076 1.64-9.508 2.96-13.975 2.637-8.928 2.46-14.405-1.64-20.605-1.5-2.3-3.5-4.2-4.4-4.2-.9 0-2.936 1.756-4.3 4.1zM76.421 26.497c-5.6 2.4-8.968 9.044-10.808 18.2-.34 1.719-.422 2.326-.593 4.264 1.212.005 1.689.013 2.87.006.26-1.304.445-1.992 1.015-3.842 2.26-7.156 8.916-10.028 8.616-3.328-.1 1.85-.88 2.883-1.75 3.874 1.075-.267 3.356-1.332 5.206-2.382 10.3-6.2 6.244-21.392-4.556-16.792zM53.538 51.296c4.52.02 12.33.056 16.083.036.004-.964.018-.472.027-1.25-2.762-.024-13.338.014-16.088.014.006.504-.007.748-.022 1.2zM54.868 56.588c-1.63 1.756-4.175 3.07-4.175 3.07s2.252.252 4.351.1c2.1-.154 3.265-.416 4.506-1.019a44.567 44.567 0 0 0-.357 4.918c.306 3.22.651 4.044 1.35 5.61.947 1.308 1.498 1.315 2.194-.065.753-1.546 1.248-3.135 1.405-5.56-.054-1.817-.156-2.65-.586-4.872 1.452.629 2.37.792 4.537.987 2.218.2 4.257.102 4.257.102s-2.996-1.504-4.315-3.347c-1.301-1.82-1.024-1.511-1.97-3.856-1.15-.054-6.98 0-8.83 0-1.014 2.137-1.116 2.583-2.367 3.932zM46.635 26.493c5.6 2.4 8.968 9.044 10.808 18.2.34 1.72.422 2.327.593 4.264-1.212.005-1.689.014-2.87.006-.259-1.303-.445-1.991-1.015-3.842-2.26-7.156-8.916-10.028-8.616-3.328.1 1.85.88 2.883 1.75 3.875-1.075-.268-3.356-1.333-5.206-2.383-10.3-6.2-6.244-21.392 4.556-16.792z" transform="matrix(1.85181 0 0 1.85406 -.093 0)"/></g><g style="fill:#fcdd09;fill-opacity:1;stroke:none"><path style="fill:#fcdd09;fill-opacity:1;stroke:none" d="M56.993 8.06c-3.956 6.517-4.428 11.729-1.728 20.729 1.3 4.2 2.728 10.472 3.328 13.872.8 4.8.717 5.256.829 6.3 1 0 3.272.003 4.323-.003.151-1.662.273-3.58.628-6.217.414-3.076 1.64-9.508 2.96-13.975 2.637-8.928 2.46-14.405-1.64-20.605-1.5-2.3-3.5-4.2-4.4-4.2-.9 0-2.936 1.756-4.3 4.1zM76.421 26.497c-5.6 2.4-8.968 9.044-10.808 18.2-.34 1.719-.422 2.326-.593 4.264 1.212.005 1.689.013 2.87.006.26-1.304.445-1.992 1.015-3.842 2.26-7.156 8.916-10.028 8.616-3.328-.1 1.85-.88 2.883-1.75 3.874 1.075-.267 3.356-1.332 5.206-2.382 10.3-6.2 6.244-21.392-4.556-16.792zM53.538 51.296c4.52.02 12.33.056 16.083.036.004-.964.018-.472.027-1.25-2.762-.024-13.338.014-16.088.014.006.504-.007.748-.022 1.2zM54.868 56.588c-1.63 1.756-4.175 3.07-4.175 3.07s2.252.252 4.351.1c2.1-.154 3.265-.416 4.506-1.019a44.567 44.567 0 0 0-.357 4.918c.306 3.22.651 4.044 1.35 5.61.947 1.308 1.498 1.315 2.194-.065.753-1.546 1.248-3.135 1.405-5.56-.054-1.817-.156-2.65-.586-4.872 1.452.629 2.37.792 4.537.987 2.218.2 4.257.102 4.257.102s-2.996-1.504-4.315-3.347c-1.301-1.82-1.024-1.511-1.97-3.856-1.15-.054-6.98 0-8.83 0-1.014 2.137-1.116 2.583-2.367 3.932zM46.635 26.493c5.6 2.4 8.968 9.044 10.808 18.2.34 1.72.422 2.327.593 4.264-1.212.005-1.689.014-2.87.006-.259-1.303-.445-1.991-1.015-3.842-2.26-7.156-8.916-10.028-8.616-3.328.1 1.85.88 2.883 1.75 3.875-1.075-.268-3.356-1.333-5.206-2.383-10.3-6.2-6.244-21.392 4.556-16.792z" transform="matrix(1.85181 0 0 1.85406 184.832 0)"/></g><g style="fill:#fcdd09;fill-opacity:1;stroke:none"><path style="fill:#fcdd09;fill-opacity:1;stroke:none" d="M56.993 8.06c-3.956 6.517-4.428 11.729-1.728 20.729 1.3 4.2 2.728 10.472 3.328 13.872.8 4.8.717 5.256.829 6.3 1 0 3.272.003 4.323-.003.151-1.662.273-3.58.628-6.217.414-3.076 1.64-9.508 2.96-13.975 2.637-8.928 2.46-14.405-1.64-20.605-1.5-2.3-3.5-4.2-4.4-4.2-.9 0-2.936 1.756-4.3 4.1zM76.421 26.497c-5.6 2.4-8.968 9.044-10.808 18.2-.34 1.719-.422 2.326-.593 4.264 1.212.005 1.689.013 2.87.006.26-1.304.445-1.992 1.015-3.842 2.26-7.156 8.916-10.028 8.616-3.328-.1 1.85-.88 2.883-1.75 3.874 1.075-.267 3.356-1.332 5.206-2.382 10.3-6.2 6.244-21.392-4.556-16.792zM53.538 51.296c4.52.02 12.33.056 16.083.036.004-.964.018-.472.027-1.25-2.762-.024-13.338.014-16.088.014.006.504-.007.748-.022 1.2zM54.868 56.588c-1.63 1.756-4.175 3.07-4.175 3.07s2.252.252 4.351.1c2.1-.154 3.265-.416 4.506-1.019a44.567 44.567 0 0 0-.357 4.918c.306 3.22.651 4.044 1.35 5.61.947 1.308 1.498 1.315 2.194-.065.753-1.546 1.248-3.135 1.405-5.56-.054-1.817-.156-2.65-.586-4.872 1.452.629 2.37.792 4.537.987 2.218.2 4.257.102 4.257.102s-2.996-1.504-4.315-3.347c-1.301-1.82-1.024-1.511-1.97-3.856-1.15-.054-6.98 0-8.83 0-1.014 2.137-1.116 2.583-2.367 3.932zM46.635 26.493c5.6 2.4 8.968 9.044 10.808 18.2.34 1.72.422 2.327.593 4.264-1.212.005-1.689.014-2.87.006-.259-1.303-.445-1.991-1.015-3.842-2.26-7.156-8.916-10.028-8.616-3.328.1 1.85.88 2.883 1.75 3.875-1.075-.268-3.356-1.333-5.206-2.383-10.3-6.2-6.244-21.392 4.556-16.792z" transform="matrix(1.85181 0 0 1.85406 375.95 -.65)"/></g><path style="fill:green;fill-opacity:1;stroke:none" d="M113.906 184.71c5.8 8.6 12.4 14.8 25.2 23.4 9.4 6.4 17.6 11.4 18 11 .8-1-46-44.4-49.2-45.6-1.2-.4 1.4 4.6 6 11.2zM234.317 230.503c4.343 2.024 9.887 3.62 12.683 3.714 3.305.11 2.428-.701-3.74-3.1-4.828-1.885-10.602-5.053-13.165-7.017-4.594-3.755-4.594-3.755-4.113-.452.275 1.887 3.739 4.822 8.335 6.855z" transform="matrix(.9259 0 0 .92703 -.38 -.373)"/><path style="fill:green;fill-opacity:1;stroke:none" d="M207.306 191.482c2.8 11.2 14.4 31.8 18.4 32.6 3.6.6 3.6.4.6-3-5-5.8-15.8-27-15.8-31 0-2.2-1-3.8-2.2-3.8-1.4 0-1.8 2-1 5.2zM87.091 177.438c-.07.394 3.685 3.29 8.39 6.556 4.704 3.267 10.184 7.889 12.004 10.24 3.117 4.206 20.775 14.63 22.431 13.298 1.622-1.136-21.123-19.566-30.74-24.917-11.448-6.486-11.842-6.556-12.085-5.177z" transform="matrix(.9259 0 0 .92703 -.38 -.373)"/><path style="fill:green;fill-opacity:1;stroke:none" d="M93.535 192.825c0 .4 4.2 2.6 9.4 5s11.4 6 13.6 8c3.8 3.6 23 10.8 24.4 9.2 1.4-1.4-24.2-15.6-34.6-19.2-12.4-4.4-12.8-4.4-12.8-3zM182.735 199.882c7.6 14 15.4 23.2 18.6 22.2 1.6-.6-2-6.4-9.8-15.8-7-8.2-13-15.4-13.6-16-.6-.6 1.6 3.8 4.8 9.6zM192.563 194.425c0 2.2 7.8 17.4 12.4 23.8 2.6 3.6 5.6 5.6 9 5.6 5 0 5 0-2.6-8.6-4.4-4.6-10.2-11.6-13.2-15.4-3-3.8-5.6-6.2-5.6-5.4zM174.175 200.882c0 3 14.62 23 16.885 23 1.03 0-1.441-4.8-5.765-10.6-9.678-13.2-11.12-14.6-11.12-12.4zM160.364 255.995c-13.2 5.2-16 7-16 9.8 0 1.2 1.4 1 3.6-.8 1.8-1.8 8.4-4.2 14.4-5.6 6-1.4 13.2-3.8 16-5.2l5-2.6h-6c-3.2.2-11 2.2-17 4.4z" transform="matrix(.9259 0 0 .92703 -.38 -.373)"/><path style="fill:green;fill-opacity:1;stroke:none" d="M122.883 222.02c9.862 8.969 42.845 25.91 59.557 30.894 4.529 1.331 11.877 1.637 16.028.764l7.74-1.54-7.639-4.03c-12.321-6.37-32.557-19.863-39.82-26.371-7.914-7.123-7.657-4.663.394 5.177 3.145 3.963 12.443 10.796 20.594 15.065 8.22 4.457 13.963 8.54 13.024 8.881-2.444.89-25.003-11.97-42.162-24.029-18.646-13.22-19.415-13.578-12.475-5.037 3.402 4.083 9.692 9.669 14.255 12.265 4.443 2.852 7.485 5.363 6.546 5.705-1.88.684-13.57-5.703-28.83-15.473-4.256-2.92-10.05-6.558-12.562-8.198-2.769-1.759-.29.957 5.35 5.928z" transform="matrix(.9259 0 0 .92703 -.38 -.373)"/><path style="fill:green;fill-opacity:1;stroke:none" d="m124.335 219.224-8 2.6 6 1c3.2.8 7.4.4 9.4-.6 1.8-1 5.4-1.8 8-2 4.4 0 4.4-.2.6-1.8-5-2.2-6.2-2.2-16 .8zM134.192 224.652c-3.4 2.6-3.2 2.8 4.2 1.6 4.4-.6 10.8-1.8 14-2.6 5.2-1.4 4.8-1.6-4.2-1.8-6-.2-11.6 1-14 2.8z" transform="matrix(.9259 0 0 .92703 -.38 -.373)"/><path style="fill:green;fill-opacity:1;stroke:none" d="M84.506 203.624c33 6 99.2 28.2 95.2 32-1 1-19.6-3.6-22.2-5.4-1-1-10.8-.6-21.6.8-20.2 2.2-23.6 4-23.2 12.2.2 4 .2 4 1.2 0 1.8-7.4 4.8-9 16.2-9 12.4 0 46.4 5 61.4 9 20 5.6 20.6 5.6 14 2-8.6-4.8-21.6-13.6-24-16.2-4.4-5-84.2-27-95.8-26.6-5.4.4-5.6.4-1.2 1.2z" transform="matrix(.9259 0 0 .92703 -.38 -.373)"/><path style="fill:green;fill-opacity:1;stroke:none" d="M99.678 214.281c-2.4 1.8-5 6-5.6 9.4-1.2 5.8-1.2 5.8 2 2 8.4-10.6 9-11 19.4-11.2 8.4-.2 9.6-.6 5.6-1.8-8.4-2.6-16.8-2-21.4 1.6zM201.62 226.624c1.6 2.8 17.2 10.6 18.4 9.4.6-.6-1.2-2.2-3.6-3.6-2.6-1.4-6-3.6-7.4-5.2-3.2-3-9.2-3.6-7.4-.6zM202.824 245.625c1.6 2.8 17.2 10.6 18.4 9.4.6-.6-1.2-2.2-3.6-3.6-2.6-1.4-6-3.6-7.4-5.2-3.2-3-9.2-3.6-7.4-.6z" transform="matrix(.9259 0 0 .92703 -.38 -.373)"/><path style="fill:green;fill-opacity:1;stroke:none" d="M180.465 221.812c.287-.278 4.787 1.215 10.126 3.289 5.339 2.073 12.235 4.032 15.202 4.225 5.23.233 23.746 9.043 23.568 11.161-.035 1.98-28.033-6.571-37.847-11.551-11.779-5.864-12.057-6.151-11.05-7.124z" transform="matrix(.9259 0 0 .92703 -.38 -.373)"/><path style="fill:green;fill-opacity:1;stroke:none" d="M213.591 236.429c-3.73 1.442-7.483 4.05-8.649 5.915-1.377 2.205-.211 2.226 4.6-.19 3.774-1.888 9.222-3.436 12.212-3.69 5.596-.277 5.596-.277 2.035-2.503-2.036-1.271-6.36-1.144-10.198.468z" transform="matrix(.9259 0 0 .92703 -.38 -.373)"/><path style="fill:green;fill-opacity:1;stroke:none" d="M190.559 250.782c-11.399 10.223-13.92 17.35-10.268 27.94l3.156 9.069-.879-9.178c-1.359-12.596 2.037-18.326 15.837-28.277 6.486-4.632 11.641-8.83 11.518-9.21-.68-2.093-13.567 4.197-19.364 9.656zM119.992 169.024c6.2 11.8 31.4 39 45.4 49.4 3.8 2.8 10.6 5.6 14.8 6.2l7.8 1.2-5.8-6.4c-9.4-10.2-23.8-29.8-28.4-38.4-5-9.4-5.6-7-1.4 5 1.6 4.8 8 14.4 14.2 21.2 6.2 7 10.2 12.8 9.2 12.8-2.6 0-19.4-19.8-31.4-37-13-18.8-13.6-19.4-10-9 1.8 5 5.8 12.4 9.2 16.4 3.2 4.2 5.2 7.6 4.2 7.6-2 0-10.8-10-21.8-24.4-3-4.2-7.2-9.6-9-12-2-2.6-.6.8 3 7.4z" transform="matrix(.9259 0 0 .92703 -.38 -.373)"/><path style="fill:green;fill-opacity:1;stroke:none" d="M184.506 225.024c0 1.4 3 5 6.6 7.8 10.6 8 38.8 21.4 42.4 20 2.2-.8-1.2-3-10.8-6.6-16.8-6.6-32.2-15.4-32.2-18.4 0-1.6 6.6-1.8 23-.8 24.6 1.4 32-1.4 9.6-3.4-23.6-2.4-38.6-1.8-38.6 1.4zM131.706 246.424c-8.6 2-13.2 5-13.2 8.6 0 1.4.8 1.2 1.8-.4 1.6-2.6 18-7.4 19.6-5.8.4.4-.2 3.4-1.4 6.4-1.2 3-1.6 6-1 6.6.6.8 1.6-.8 2.2-3 2.4-8.6 9.8-11.2 27.6-9.6 9 .8 19 1.8 22.2 2 3.4.2 8 1.4 10.4 2.8 5.2 2.8 25.4 3 23.6.2-.6-1-4.4-2.4-8.6-3-4-.6-12.4-2.6-18.6-4.2-12.4-3.2-52-3.6-64.6-.6zM204.74 269.51c-15.074-2.688-22.243-.287-28.34 9.11l-5.202 8.071 6.69-6.343c9.09-8.826 15.696-9.678 32.034-4.93 7.643 2.26 14.125 3.738 14.349 3.406 1.23-1.824-11.661-8.106-19.531-9.314z" transform="matrix(.9259 0 0 .92703 -.38 -.373)"/><path style="fill:green;fill-opacity:1;stroke:none" d="M185.221 263.938c-27.8 7.6-31 10.4-27 23 1.6 4.8 1.6 4.6 1.8-1.6.2-3.4 2-8.2 4-10.2 3.6-3.6 19.8-8.2 39.6-11.4 4.8-.6 8-2 7.4-3-1.6-2.6-8-1.8-25.8 3.2zM208.849 273.71c-14 6.2-18.6 12.2-18.4 23.4l.2 9.6 2-9c2.6-12.4 7.6-16.8 23.8-22 7.6-2.4 13.8-4.8 13.8-5.2 0-2.2-14.2-.2-21.4 3.2z" transform="matrix(.9259 0 0 .92703 -.38 -.373)"/><path style="fill:green;fill-opacity:1;stroke:none" d="M206.192 290.88c-2.4 3.2-4.2 7.4-4.2 9.6 0 2.6 1 2 3.8-2.6 2.2-3.6 6-7.8 8.4-9.6 4.6-3.2 4.6-3.2.4-3.2-2.4 0-6 2.4-8.4 5.8zM422.424 323.474c6.495 2.814 40.19 11.311 64.03 18.293 23.84 6.982 51.715 15.02 57.885 15.885 8.819-19.221-7.23 16.732 1.929-5.059-11.907-3.03-58.84-14.073-77.673-19.485-16.237-4.546-39.27-11.638-45.17-12.937-5.899-1.299-5.98 1.138-1 3.303z" transform="matrix(.9259 0 0 .92703 -.38 -.373)"/><path style="fill:green;fill-opacity:1;stroke:none" d="M426.544 318.484c6.59 2.586 40.56 9.902 64.63 16.047 24.07 6.146 52.207 13.206 58.403 13.856 8.143-19.518-6.642 16.973 1.751-5.123-12.005-2.614-59.294-12.012-78.305-16.763-16.386-3.977-39.653-10.26-45.594-11.353-5.94-1.092-5.937 1.346-.885 3.336zM417.216 327.1c6.338 3.15 39.542 13.4 62.984 21.62 23.443 8.219 50.858 17.704 56.974 18.892 9.813-18.734-8.096 16.33 2.191-4.951-11.731-3.65-58.021-17.133-76.547-23.524-15.976-5.39-38.607-13.677-44.43-15.283-5.823-1.606-6.031.823-1.172 3.246z" transform="matrix(.9259 0 0 .92703 -.38 -.373)"/><path style="fill:green;fill-opacity:1;stroke:none" d="M413.171 331.195c6.165 3.478 38.787 15.45 61.767 24.886 22.98 9.436 49.862 20.343 55.907 21.85 10.78-18.196-8.94 15.883 2.447-4.83-11.524-4.26-57.045-20.147-75.21-27.498-15.673-6.219-37.839-15.68-43.57-17.587-5.731-1.909-6.066.506-1.34 3.179z" transform="matrix(.9259 0 0 .92703 -.38 -.373)"/><path style="fill:green;fill-opacity:1;stroke:none" d="M409.362 336.354c6.04 3.69 38.224 16.795 60.86 27.027 22.638 10.232 49.122 22.07 55.111 23.787 11.409-17.808-9.488 15.562 2.615-4.742-11.37-4.658-56.308-22.125-74.206-30.106-15.446-6.761-37.268-16.99-42.93-19.097-5.66-2.107-6.08.294-1.45 3.131z" transform="matrix(.9259 0 0 .92703 -.38 -.373)"/><path style="fill:green;fill-opacity:1;stroke:none" d="M405.063 341.055c5.838 4.002 37.292 18.773 59.363 30.175 22.07 11.403 47.899 24.611 53.79 26.639 12.324-17.186-10.29 15.044 2.859-4.598-11.11-5.247-55.073-25.042-72.528-33.948-15.071-7.561-36.328-18.917-41.871-21.318-5.543-2.4-6.088-.025-1.613 3.05z" transform="matrix(.9259 0 0 .92703 -.38 -.373)"/><g style="fill:gold;fill-opacity:1;stroke:none"><path style="fill:#fcdd09;fill-opacity:1;stroke:none" d="m332.662 184.272 5.136 3.668c7.363 5.129 11.412 12.258 11.011 19.615l-.272 6.076 2.417-5.978c2.644-6.256 2.28-15.729-.843-22.745l-1.822-4.091 5.786 2.519c8.268 3.487 13.712 9.617 14.849 16.899l.997 6 1.121-6.352c1.285-6.67-1.039-15.857-5.554-22.07l-2.633-3.625 6.184 1.261c8.812 1.692 15.411 6.557 18.038 13.444l2.223 5.662-.225-6.447c-.129-6.791-4.314-15.295-10.021-20.434l-3.329-2.998 6.311-.051c8.971-.177 16.438 3.209 20.439 9.401l3.35 5.074-1.559-6.258c-1.538-6.613-7.399-14.062-14.05-17.902l-3.88-2.241 6.163-1.361c8.738-2.041 16.746-.279 21.946 4.944l4.332 4.267-2.827-5.797c-2.879-6.15-10.161-12.219-17.465-14.592l-4.261-1.382 5.745-2.614c8.122-3.812 16.321-3.754 22.494.272l5.126 3.275-3.97-5.084c-4.096-5.418-12.48-9.838-20.118-10.64l-4.454-.467 5.076-3.752c7.152-5.416 15.184-7.067 22.059-4.41l5.695 2.136-4.94-4.146c-5.133-4.447-14.253-7.029-21.891-6.225l-4.454.467 4.184-4.725c5.87-6.785 13.384-10.068 20.661-8.898l6.014.904-5.695-3.027c-5.945-3.283-15.402-3.912-22.706-1.539l-4.261 1.383 3.11-5.49c4.331-7.858 10.998-12.631 18.359-13.002l6.071-.364-6.2-1.777c-6.498-1.975-15.879-.623-22.53 3.215l-3.88 2.24 1.902-6.018c2.603-8.586 8.131-14.64 15.255-16.533l5.863-1.619-6.434-.449c-6.767-.582-15.662 2.689-21.369 7.828l-3.329 2.998.609-6.281c.76-8.942 4.909-16.012 11.484-19.346l5.398-2.801-6.387.897c-6.74.838-14.76 5.888-19.274 12.101l-2.633 3.625-.71-6.271c-1.115-8.902 1.472-16.684 7.21-21.309l4.697-3.863-6.061 2.205c-6.418 2.221-13.212 8.828-16.336 15.844l-1.822 4.094-1.999-5.987c-2.942-8.476-2.028-16.625 2.623-22.342l3.792-4.755-5.47 3.416c-5.816 3.507-11.089 11.382-12.686 18.894l-.931 4.383-3.2-5.439c-4.64-7.682-5.44-15.84-2.08-22.401l2.72-5.439-4.64 4.478c-4.96 4.641-8.48 13.442-8.48 21.121v4.479l-4.261-4.655c-6.134-6.546-8.613-14.363-6.691-21.478L322.007 0 318.4 5.348c-3.887 5.568-5.5 14.908-3.903 22.422l.93 4.381-5.135-3.668c-7.363-5.129-11.412-12.258-11.011-19.618l.271-6.076-2.417 5.981c-2.643 6.256-2.279 15.726.843 22.742l1.822 4.094-5.786-2.52c-8.268-3.486-13.712-9.617-14.849-16.898l-.997-6-1.12 6.351c-1.285 6.668 1.038 15.858 5.554 22.071l2.632 3.623-6.183-1.262c-8.812-1.691-15.411-6.555-18.038-13.443l-2.223-5.661.225 6.446c.129 6.791 4.314 15.295 10.021 20.433l3.329 2.998-6.311.051c-8.971.178-16.438-3.209-20.439-9.398l-3.351-5.076 1.56 6.257c1.538 6.616 7.399 14.065 14.05 17.905l3.879 2.24-6.162 1.361c-8.738 2.039-16.746.28-21.946-4.943l-4.333-4.268 2.827 5.797c2.88 6.151 10.162 12.217 17.466 14.59l4.261 1.385-5.745 2.613c-8.123 3.813-16.322 3.754-22.495-.273l-5.126-3.274 3.97 5.082c4.096 5.418 12.48 9.838 20.118 10.641l4.455.469-5.076 3.75c-7.153 5.418-15.185 7.066-22.06 4.41l-5.695-2.135 4.94 4.145c5.133 4.449 14.253 7.029 21.891 6.226l4.455-.467-4.185 4.723c-5.87 6.787-13.384 10.068-20.661 8.9l-6.014-.906 5.695 3.029c5.946 3.284 15.403 3.912 22.707 1.539l4.261-1.384-3.111 5.492c-4.331 7.857-10.998 12.631-18.359 13l-6.071.363 6.2 1.779c6.498 1.975 15.879.623 22.53-3.216l3.88-2.241-1.901 6.018c-2.603 8.588-8.131 14.643-15.255 16.535l-5.863 1.619 6.434.45c6.767.58 15.662-2.692 21.369-7.831l3.329-2.998-.609 6.284c-.76 8.939-4.909 16.011-11.484 19.343l-5.398 2.803 6.387-.896c6.74-.838 14.76-5.891 19.274-12.104l2.633-3.623.711 6.272c1.115 8.902-1.473 16.681-7.211 21.308l-4.698 3.863 6.061-2.205c6.418-2.22 13.213-8.83 16.337-15.845l1.821-4.092 1.999 5.984c2.942 8.479 2.028 16.625-2.623 22.344l-3.792 4.756 5.47-3.418c5.816-3.506 11.089-11.383 12.686-18.895l.931-4.381 3.2 5.44c4.64 7.68 5.44 15.84 2.08 22.4l-2.72 5.44 4.64-4.481c4.96-4.638 8.48-13.439 8.48-21.119v-4.48l4.261 4.656c6.134 6.547 8.613 14.363 6.692 21.478l-1.53 5.887 3.607-5.348c3.887-5.57 5.5-14.908 3.904-22.421l-.931-4.381" transform="matrix(1.16776 0 0 1.16918 -78.285 139.762)"/></g></svg>