<svg xmlns="http://www.w3.org/2000/svg" width="602.179" height="323.415" viewBox="0 0 564.543 303.201"><g style="display:inline"><path style="display:inline;fill:#fff;fill-opacity:1;stroke:none;stroke-width:8.10000038;stroke-linecap:round;stroke-miterlimit:4;stroke-dasharray:none;stroke-opacity:1" d="M219.518 205.705H784.06v303.2H219.518z" transform="translate(-219.518 -205.705)"/><path d="M219.518 205.705v48.467h198.384s80.912-.287 80.912 54.4c0 68.91-64.003 67.858-64.003 67.858h349.25V205.705zM434.795 376.43h.016" style="display:inline;fill:#000;fill-opacity:1;stroke:none;stroke-width:8.10000038;stroke-linecap:round;stroke-miterlimit:4;stroke-dasharray:none;stroke-opacity:1" transform="translate(-219.518 -205.705)"/><path d="M219.518 303.52v205.386H784.06V425.78H434.795s-23.628-.315-43.033-12.949c-13.518-8.801-24.987-23.577-24.987-48.402 0-57.35 51.125-51.127 51.125-51.127s40.457.888 40.457 32.453c0 29.786-23.562 30.676-23.562 30.676h.016s28.437.169 28.437-36.678c0-35.888-45.346-36.232-45.346-36.232H219.518z" style="display:inline;fill:#9c0000;fill-opacity:1;stroke:none;stroke-width:8.10000038;stroke-linecap:round;stroke-miterlimit:4;stroke-dasharray:none;stroke-opacity:1" transform="translate(-219.518 -205.705)"/></g></svg>