<svg xmlns="http://www.w3.org/2000/svg" version="1.0" width="750" height="470"><path d="M0 0h750v470H0V0z" style="fill:#000;fill-opacity:1"/><g style="font-size:12px;fill:#000;fill-opacity:1;stroke:#000;stroke-opacity:.99122799"><path d="M294.895 259.711c-9.696 7.373-11.853 9.849-17.211 18.008-1.939 3.149-5.56 10.508-6.55 15.445-.989 4.936-1.73 12.098-1.727 15.891.012 12.853 4.103 20.916 8.571 20.635 3.992-.458 9.072-4.621 16.77-14.076" style="fill:#000;fill-opacity:1;fill-rule:evenodd;stroke:#000;stroke-width:1pt;stroke-linecap:butt;stroke-linejoin:miter;stroke-opacity:.99122799" transform="matrix(.652 0 0 .652 180.578 59.142)"/><path d="M294.895 259.711c-9.696 7.373-11.853 9.849-17.211 18.008-1.939 3.149-5.56 10.508-6.55 15.445-.989 4.936-1.73 12.098-1.727 15.891.012 12.853 4.103 20.916 8.571 20.635 3.992-.458 9.072-4.621 16.77-14.076" transform="matrix(-.652 0 0 .652 569.673 59.278)" style="fill:#000;fill-opacity:1;fill-rule:evenodd;stroke:#000;stroke-width:1pt;stroke-linecap:butt;stroke-linejoin:bevel;stroke-opacity:.99122799"/><path d="M211.888 203.561c13.46-2.359 26.503-3.885 39.963-5.411 17.623-4.441 26.504 15.68 21.647 30.805-6.105 13.46-14.708 25.255-24.56 36.633-7.632 8.603-16.724 9.995-25.394 7.076-6.998-1.94-13.461-6.243-20.399-16.234-3.052-8.604-5.688-13.045-9.574-23.729-3.052-9.852 1.695-24.6 18.317-29.14z" transform="matrix(.652 0 0 .652 180.962 59.142)" style="fill:#000;fill-opacity:1;fill-rule:evenodd;stroke:#000;stroke-width:1pt;stroke-linecap:butt;stroke-linejoin:miter;stroke-opacity:.99122799"/><path d="M211.888 203.561c13.46-2.359 26.503-3.885 39.963-5.411 17.623-4.441 26.504 15.68 21.647 30.805-6.105 13.46-14.708 25.255-24.56 36.633-7.632 8.603-16.724 9.995-25.394 7.076-6.998-1.94-13.461-6.243-20.399-16.234-3.052-8.604-5.688-13.045-9.574-23.729-3.052-9.852 1.695-24.6 18.317-29.14z" transform="matrix(-.652 0 0 .652 569.46 59.142)" style="fill:#000;fill-opacity:1;fill-rule:evenodd;stroke:#000;stroke-width:1pt;stroke-linecap:butt;stroke-linejoin:miter;stroke-opacity:.99122799"/></g><path style="fill:#fff;fill-opacity:1" d="M941.597 194.674c-1.19-.22-4.19-.795-6.665-1.28l-4.5-.88-.574-4.061c-1.714-12.122-10.247-20.659-25.757-25.77-12.745-4.199-16.035-6.648-18.775-13.97-3.03-8.1-3.125-14.823-.4-28.43 1.918-9.576 2.434-14.595 2.489-24.203.066-11.526-.073-12.546-2.82-20.779-3.508-10.512-4.292-22.378-1.67-25.283 1.442-1.597 1.369-1.794-1.834-4.922l-3.336-3.257-1.843 2.342c-4.555 5.79-4.643 19.35-.218 33.397 1.406 4.462 2.821 10.17 3.146 12.686.693 5.378-.285 16.841-1.38 16.165-1.222-.756-6.77-11.09-8.98-16.732-6.128-15.636-7.788-35.426-4.1-48.886 6.3-22.992 22.2-40.413 44.948-49.246 20.138-7.82 51.972-11.316 73.744-8.1 19.343 2.858 39.411 9.21 48.203 15.26 15.154 10.426 27.188 28.857 30.777 47.139 1.666 8.488 1.43 26.248-.442 33.333-1.663 6.292-8.13 19.87-11.303 23.732l-2.07 2.519-.622-4.153c-.95-6.337.121-15.76 2.611-22.963 3.205-9.271 4.555-20.926 3.151-27.199-.603-2.695-2.011-5.958-3.129-7.25l-2.033-2.348-3.085 2.977c-2.905 2.802-3.01 3.092-1.795 4.948.89 1.357 1.292 4.267 1.292 9.35 0 6.015-.52 8.943-2.814 15.832-2.642 7.936-2.813 9.19-2.8 20.573.01 9.651.519 14.822 2.498 25.378 2.27 12.105 2.398 13.789 1.474 19.385-1.283 7.768-3.871 13.816-6.853 16.012-1.28.942-5.055 2.761-8.388 4.042-20.996 8.067-28.61 14.616-31.082 26.736l-1.084 5.315-4.696 1.204c-4.616 1.183-44.326 2.301-49.285 1.387zm11.082-17.119c1.285-.665 3.589-2.766 5.118-4.67l2.78-3.46.25-18.708c.17-12.676-.044-18.707-.661-18.707-2.176.002-10.05 9.132-12.969 15.037-2.621 5.304-3.17 7.449-3.599 14.071-.527 8.13.41 13.162 3.004 16.131 1.6 1.831 2.992 1.902 6.077.306zm27.359-1.67c1.594-2.144 1.818-3.645 1.818-12.167 0-9.47-.082-9.888-3.214-16.223-2.875-5.818-10.993-15.484-13.003-15.484-.366 0-.666 8.403-.666 18.673v18.672l2.375 3.113c2.818 3.696 6.938 6.416 9.227 6.094.904-.127 2.463-1.332 3.463-2.678zM925.4 141.232c5.22-2.18 17.145-17.171 21.51-27.04 3.58-8.094.422-19.273-6.223-22.025-2.315-.96-4.531-.97-12.85-.058-17.024 1.865-23.558 3.282-27.277 5.913-7.431 5.258-8.38 12.132-3.405 24.676 3.416 8.614 5.674 11.914 10.583 15.471 5.758 4.172 12.295 5.306 17.662 3.063zm91.006-1.768c2.098-1.23 4.993-3.723 6.433-5.543 2.637-3.328 9.67-19.702 9.66-22.49-.02-6.266-4.785-13.115-10.64-15.293-4.124-1.534-17.61-3.653-28.644-4.501l-7.415-.57-3.405 3.404c-3.898 3.898-5.747 9.301-4.93 14.41 1.402 8.765 15.56 29.011 22.572 32.276 3.92 1.826 11.746 1.016 16.369-1.693z" transform="translate(-587.722 96.094)"/><path style="fill:#fff;fill-opacity:1" d="M945.158 256.215c-12.72-2.76-18.717-6.119-25.978-14.55-8.19-9.511-10.914-18.637-10.244-34.325.535-12.537-.235-18.435-3.707-28.417-3.085-8.865-1.448-9.158 1.943-.348 3.694 9.598 6.662 20.59 7.994 29.605l1.218 8.247 4.453 4.029c10.02 9.066 20.875 12.226 42.405 12.343 16.215.089 21.92-.993 32.668-6.19 8.277-4.003 12.876-8.927 13.67-14.636 2.315-16.667 9.15-38.9 12.267-39.91.622-.202.029 2.608-1.5 7.103-3.457 10.162-4.181 15.627-3.645 27.487.807 17.855-2.374 26.923-13.18 37.581-5.26 5.19-7.327 6.579-13.09 8.796-3.764 1.449-9.156 3.059-11.981 3.578-7.051 1.296-26.57 1.066-33.293-.393zM863.91 183.373c-38.856-18.924-37.325-18.466-54.874-16.448-7.352.846-13.585.005-17.118-2.307-2.134-1.398.63-5.809 8.393-13.394 7.168-7.004 7.257-7.2 8.205-18.156.342-3.952 1.175-8.36 1.85-9.795 3.01-6.39 10.201-2.181 16.677 9.763 2.46 4.536 5.92 9.769 7.688 11.629 2.134 2.244 12.87 8.224 31.915 17.78l28.7 14.398 2.574 8.564c2.515 8.366 3.337 15.216 1.812 15.1-.419-.032-16.539-7.742-35.821-17.134zM1081.915 292.767c-2.707-2.02-5.423-5.552-7.806-10.153-6.261-12.088-8.927-14.24-33.43-26.987-12.15-6.32-22.299-11.834-22.554-12.253-.255-.418.654-3.884 2.02-7.701 1.366-3.818 2.483-7.848 2.483-8.956 0-1.109.162-2.015.36-2.015.2 0 11.06 5.033 24.136 11.185 29.232 13.753 30.09 14.05 37.385 12.98 3.133-.46 9.194-.866 13.468-.902 6.276-.053 8.182.311 9.908 1.898 1.175 1.08 2.137 2.419 2.137 2.974 0 .556-3.874 4.776-8.608 9.377l-8.609 8.367-.995 9.547c-.978 9.373-2.602 14.704-4.69 15.39-.58.19-2.921-1.047-5.205-2.751zM836.96 292.595c-.524-.982-1.53-6.372-2.235-11.978l-1.282-10.194-8.6-8.929c-5.375-5.582-8.47-9.59-8.258-10.694.64-3.322 4.823-4.522 13.087-3.757 4.213.39 10.876.743 14.808.784 8.511.09 14.316-2.092 40.616-15.26 9.42-4.716 17.347-8.576 17.615-8.576.268 0 .487.892.487 1.982 0 1.09 1.209 5.239 2.686 9.22 1.477 3.98 2.51 7.379 2.297 7.553-.213.174-10.96 5.876-23.883 12.671l-23.495 12.354-7.463 11.243c-9.532 14.36-13.99 18.057-16.38 13.581zM1025.2 196.379c.328-2.777 1.675-8.185 2.992-12.02l2.394-6.97 29.134-14.426c32.298-15.993 32.123-15.86 39.062-29.667 4.645-9.24 12.201-15.375 14.914-12.11 1.425 1.716 4.09 14.139 4.113 19.177.016 3.367 1.042 4.925 8.659 13.147 9.616 10.38 9.965 12.119 2.835 14.097-4.995 1.386-9.839 1.345-18.615-.159-5.455-.934-8.227-.948-11.556-.059-2.408.644-17.684 7.453-33.945 15.131-16.262 7.68-32.046 15.075-35.076 16.435l-5.51 2.472.598-5.048z" transform="translate(-587.722 96.094)"/><path style="fill:#fff;fill-opacity:1" d="M922.213 215.694c-1.613-1.768-1.526-1.516-2.128-6.185-.651-5.059-1.708-10.61-2.913-15.313-1.068-4.165-3.888-12.926-5.417-16.83-.444-1.132-.764-2.105-.71-2.162.201-.217 4.63 3.179 5.64 4.325 2.934 3.329 4.33 6.512 4.564 10.404l.153 2.545 1.279.696 1.278.696-.096 11.174c-.053 6.146-.122 11.412-.152 11.702-.044.414-.368.187-1.498-1.052zM931.755 207.612a83.561 83.561 0 0 1-2.677-1.389l-1.716-.927v-4.936c0-4.568.035-4.926.48-4.803l2.746.762 2.265.628v5.586c0 3.072-.03 5.575-.069 5.563-.037-.012-.5-.23-1.03-.484zM930.382 221.934c-.982-.55-2.083-1.231-2.447-1.511l-.662-.51.065-5.14c.036-2.827.097-5.173.137-5.212.04-.04 1.202.453 2.583 1.096l2.51 1.168.005 5.56c.003 3.058-.087 5.558-.2 5.556-.114-.003-1.01-.455-1.991-1.007zM939.717 225.846c-1.132-.347-2.399-.768-2.814-.936l-.755-.304v-5.635c0-3.1.08-5.636.176-5.636.097 0 .993.239 1.99.53.999.292 2.34.667 2.982.835l1.167.304v3.654c0 3.983-.258 7.867-.521 7.838-.091-.01-1.092-.303-2.225-.65zM941.776 211.216c-.302-.074-1.708-.503-3.125-.954l-2.576-.82.128-5.74c.07-3.158.183-5.798.251-5.866.069-.069 1.449.076 3.067.321l2.942.446v6.405c0 3.523-.031 6.39-.069 6.373a8.589 8.589 0 0 0-.618-.165zM948.64 212.475c-1.057-.133-2.076-.299-2.265-.369-.26-.096-.343-1.67-.343-6.587v-6.461h2.174c1.196 0 2.37.075 2.609.166.38.146.434 1.01.434 6.864 0 5.194-.077 6.69-.343 6.663-.189-.019-1.208-.143-2.265-.276zM948.435 227.676l-2.677-.42v-4.175c0-2.296.076-4.905.17-5.798l.169-1.623 1.958.235c1.077.13 2.236.288 2.576.353l.618.118v5.898c0 3.244-.031 5.883-.069 5.866-.037-.018-1.273-.222-2.745-.454zM956.122 228.509l-1.304-.103V216.63h6.59v12.08l-1.99-.049a77.019 77.019 0 0 1-3.296-.152zM954.818 206.196v-6.864h6.59v13.729h-6.59v-6.865zM964.703 206.237v-6.905h6.04v13.454h-.92c-.505 0-1.864.08-3.02.178l-2.1.177v-6.904zM964.909 228.832c-.114-.117-.206-2.895-.206-6.173v-5.96l.858-.172c.472-.094 1.812-.172 2.978-.172h2.12l.18 3.338c.098 1.836.179 4.616.179 6.178v2.84l-1.167.002c-.642 0-1.97.076-2.952.167-.981.09-1.877.07-1.99-.048zM979.604 224.318c0-.68.054-.958.12-.618.065.34.065.896 0 1.236-.066.34-.12.061-.12-.618zM974.313 205.846v-6.713l2.362-.192c1.3-.105 2.402-.153 2.45-.105.047.047.175 3.004.284 6.57l.198 6.483-1.617.182c-.89.1-2.082.25-2.648.335l-1.03.154v-6.714zM982.965 210.549c-.088-.355-.124-3.234-.081-6.397l.077-5.75 3.09-.433 3.088-.433.001 1.653c0 .91.081 3.588.18 5.953l.178 4.299-2.177.687c-1.197.378-2.631.773-3.187.877-.907.17-1.027.124-1.17-.456zM983.099 220.665v-5.849l2.605-.628c1.433-.346 2.857-.694 3.163-.774.55-.144.557-.058.484 5.57l-.075 5.716-2.608.888c-1.435.49-2.825.897-3.089.908-.443.017-.48-.436-.48-5.83zM992.982 220.954c0-1.094-.08-3.54-.177-5.435l-.175-3.444 2.716-1.35 2.923-1.452c.113-.056.205 2.348.205 5.343v5.446l-1.167.734c-1.252.788-3.885 2.149-4.158 2.149-.091 0-.166-.896-.167-1.99zM992.709 202.423v-5.704l2.265-.591c1.246-.325 2.481-.677 2.745-.782.447-.178.48.156.48 4.777v4.968l-1.039.657c-.572.36-1.807 1.044-2.746 1.517l-1.705.861v-5.703zM1001.949 213.567c-.099-1.836-.18-7.056-.179-11.6l.001-8.263 1.49-.804c1.609-.868 1.793-1.204 1.8-3.275.009-3.32 1.84-7.442 4.51-10.15 2.082-2.113 4.452-3.836 4.197-3.05-.095.292-1.16 3.434-2.369 6.982-3.3 9.698-5.25 18.177-6.367 27.69-.312 2.65-.409 2.942-1.433 4.325-.604.815-1.182 1.482-1.285 1.482-.102 0-.267-1.502-.365-3.337zM974.328 221.979c0-5.61.05-6.019.723-6.019.397 0 1.533-.111 2.524-.247l1.801-.247v12.041l-1.456.24c-.8.133-1.937.244-2.524.246l-1.068.004v-6.018z" transform="translate(-587.722 96.094)"/></svg>