<svg xmlns="http://www.w3.org/2000/svg" xmlns:xlink="http://www.w3.org/1999/xlink" height="600" width="900"><path fill="#002868" d="M0 0h900v600H0z"/><path d="M0 0h900v300H0z" fill="#bf0a30"/><path d="M0 195.33 450 300 0 70.32z" fill="#f0f"/><path id="a" d="M0 195.33 450 300 0 70.32z" fill="#fed700"/><path id="b" d="M103.14 0 450 300 232.83 0z" fill="#fed700"/><path id="c" d="M332.82 0 450 300 407.79 0z" fill="#fed700"/><use xlink:href="#a" transform="matrix(-1 0 0 1 900 0)"/><use xlink:href="#b" transform="matrix(-1 0 0 1 900 0)"/><use xlink:href="#c" transform="matrix(-1 0 0 1 900 0)"/><path d="m450 148.638 97.532 300.171-255.34-185.516H607.81L352.469 448.81z" fill="#ce5c17"/></svg>