<svg width="495" height="495" xmlns="http://www.w3.org/2000/svg">
 <g id="Layer_1">
  <title>Layer 1</title>
  <g>
   <g>
    <path d="m422.509,72.491c-46.747,-46.746 -108.9,-72.491 -175.009,-72.491s-128.262,25.745 -175.009,72.491c-46.746,46.747 -72.491,108.9 -72.491,175.009s25.745,128.262 72.491,175.009c46.747,46.746 108.899,72.491 175.009,72.491s128.262,-25.745 175.009,-72.491c46.746,-46.747 72.491,-108.899 72.491,-175.009s-25.745,-128.262 -72.491,-175.009zm-10.607,339.411c-43.913,43.914 -102.299,68.098 -164.402,68.098s-120.489,-24.184 -164.402,-68.098c-43.914,-43.913 -68.098,-102.299 -68.098,-164.402s24.184,-120.489 68.098,-164.402c43.913,-43.914 102.299,-68.098 164.402,-68.098s120.489,24.184 164.402,68.098c43.914,43.913 68.098,102.299 68.098,164.402s-24.184,120.489 -68.098,164.402z" fill="#1cd997"/>
    <path d="m399.881,95.119c-40.702,-40.703 -94.819,-63.119 -152.381,-63.119s-111.679,22.416 -152.382,63.119c-40.702,40.702 -63.118,94.819 -63.118,152.381s22.416,111.679 63.118,152.382c40.703,40.702 94.82,63.118 152.382,63.118s111.679,-22.416 152.381,-63.119s63.119,-94.819 63.119,-152.381s-22.416,-111.679 -63.119,-152.381zm-144.881,352.727l0,-16.346c0,-4.142 -3.358,-7.5 -7.5,-7.5s-7.5,3.358 -7.5,7.5l0,16.345c-104.603,-3.867 -188.978,-88.242 -192.845,-192.845l16.345,0c4.142,0 7.5,-3.358 7.5,-7.5s-3.358,-7.5 -7.5,-7.5l-16.345,0c3.867,-104.603 88.242,-188.978 192.845,-192.845l0,16.345c0,4.142 3.358,7.5 7.5,7.5s7.5,-3.358 7.5,-7.5l0,-16.345c104.603,3.867 188.978,88.242 192.845,192.845l-16.345,0c-4.142,0 -7.5,3.358 -7.5,7.5s3.358,7.5 7.5,7.5l16.345,0c-3.867,104.603 -88.242,188.978 -192.845,192.846z" fill="#1cd997"/>
    <path d="m383.5,240l-77.411,0l51.956,-92.837c1.64,-2.93 1.132,-6.592 -1.242,-8.966c-2.375,-2.374 -6.038,-2.882 -8.966,-1.241l-92.837,51.964l0,-77.42c0,-4.142 -3.358,-7.5 -7.5,-7.5s-7.5,3.358 -7.5,7.5l0,85.815l-14.296,8.002c-0.986,0.512 -1.957,1.047 -2.901,1.624l-0.2,0.112c-0.296,0.166 -0.571,0.354 -0.835,0.552c-0.716,0.464 -1.42,0.944 -2.109,1.445l-30.854,-30.854c-2.929,-2.929 -7.678,-2.929 -10.606,0c-2.929,2.929 -2.929,7.677 0,10.606l30.854,30.854c-1.378,1.898 -2.617,3.901 -3.707,5.995c-0.04,0.066 -0.084,0.127 -0.122,0.195l-7.922,14.154l-85.802,0c-4.142,0 -7.5,3.358 -7.5,7.5s3.358,7.5 7.5,7.5l77.407,0l-51.952,92.837c-1.639,2.929 -1.132,6.591 1.241,8.965c1.443,1.444 3.364,2.198 5.306,2.198c1.251,0 2.511,-0.313 3.659,-0.955l92.839,-51.925l0,77.38c0,4.142 3.358,7.5 7.5,7.5s7.5,-3.358 7.5,-7.5l0,-85.77l15.361,-8.592c0.112,-0.063 0.216,-0.135 0.323,-0.203c1.613,-0.906 3.168,-1.904 4.658,-2.986l30.854,30.854c1.464,1.465 3.384,2.197 5.303,2.197s3.839,-0.732 5.303,-2.197c2.929,-2.929 2.929,-7.678 0,-10.606l-30.854,-30.854c1.408,-1.939 2.67,-3.987 3.777,-6.131c0.032,-0.054 0.072,-0.102 0.103,-0.158l7.866,-14.054l85.806,0c4.142,0 7.5,-3.358 7.5,-7.5s-3.358,-7.5 -7.5,-7.5zm-153.095,-20.124l2.527,-1.415c4.385,-2.209 9.332,-3.461 14.568,-3.461c17.92,0 32.5,14.579 32.5,32.5s-14.58,32.5 -32.5,32.5s-32.5,-14.579 -32.5,-32.5c0,-11.652 6.167,-21.886 15.405,-27.624zm62.357,13.223c-4.664,-14.624 -16.229,-26.191 -30.851,-30.857l70.071,-39.221l-39.22,70.078zm-90.525,28.799c4.667,14.64 16.252,26.218 30.896,30.876l-70.123,39.221l39.227,-70.097z" fill="#1cd997"/>
    <path d="m247.5,263c8.547,0 15.5,-6.953 15.5,-15.5s-6.953,-15.5 -15.5,-15.5s-15.5,6.953 -15.5,15.5s6.953,15.5 15.5,15.5zm0,-16c0.276,0 0.5,0.224 0.5,0.5s-0.224,0.5 -0.5,0.5s-0.5,-0.224 -0.5,-0.5s0.224,-0.5 0.5,-0.5z" fill="#1cd997"/>
   </g>
  </g>
  <line stroke-width="30" stroke-linecap="undefined" stroke-linejoin="undefined" id="svg_1" y2="460" x2="460" y1="35" x1="35" stroke="#f54e42" fill="none"/>
 </g>

</svg>