<svg width="645" height="645" xmlns="http://www.w3.org/2000/svg">
 <g id="Layer_1">
  <title>Layer 1</title>
  <g>
   <g id="svg_1">
    <title>Layer 1</title>
    <g id="svg_2">
     <path d="m128.05037,427.40543c-25.012,0 -45.289,20.34868 -45.289,45.48463c0,25.12088 20.277,45.48463 45.289,45.48463c25.012,0 45.297,-20.36475 45.297,-45.48463c0.00391,-25.13695 -20.281,-45.48463 -45.297,-45.48463zm0,69.21705c-13.051,0 -23.637,-10.63548 -23.637,-23.73945c0,-13.12708 10.578,-23.74749 23.637,-23.74749c13.051,0 23.629,10.60434 23.629,23.74749c0,13.10397 -10.57,23.73945 -23.629,23.73945z" fill="#1cd997"/>
     <path d="m516.93037,427.40543c-25.004,0 -45.281,20.34868 -45.281,45.48463c0,25.12088 20.277,45.48463 45.281,45.48463c25.02,0 45.297,-20.36475 45.297,-45.48463c0,-25.13695 -20.277,-45.48463 -45.297,-45.48463zm0,69.21705c-13.051,0 -23.637,-10.63548 -23.637,-23.73945c0,-13.12708 10.586,-23.74749 23.637,-23.74749c13.066,0 23.637,10.60434 23.637,23.74749c0,13.10397 -10.57,23.73945 -23.637,23.73945z" fill="#1cd997"/>
     <path d="m356.48037,92.43894c0,-4.29729 -3.5,-7.81365 -7.7773,-7.81365l-47.926,0c-4.2773,0 -7.7773,3.51636 -7.7773,7.81365l0,29.28124c0,4.29729 3.5,7.81365 7.7773,7.81365l47.926,0c4.2773,0 7.7773,-3.51636 7.7773,-7.81365l0,-29.28124zm-22.398,18.05701c0,4.29729 -3.5,7.81365 -7.7773,7.81365l-3.1172,0c-4.2773,0 -7.7773,-3.51636 -7.7773,-7.81365l0,-6.83651c0,-4.29729 3.5,-7.81365 7.7773,-7.81365l3.1172,0c4.2773,0 7.7773,3.51636 7.7773,7.81365l0,6.83651z" fill="#1cd997"/>
     <path d="m286.46037,134.68349c-4.2773,0 -7.7773,3.51636 -7.7773,7.81365l0,7.57042c0,4.29729 3.5,7.81365 7.7773,7.81365l76.559,0c4.2773,0 7.7773,-3.51636 7.7773,-7.81365l0,-7.57042c0,-4.29729 -3.5,-7.81365 -7.7773,-7.81365l-76.559,0z" fill="#1cd997"/>
     <path d="m635.83037,403.5645c-7.7773,-34.14687 -131.25,-61.04603 -131.25,-61.04603c-49.359,-23.97455 -91.141,-39.64948 -124.79,-49.90821l0,-38.93113l-49.422,0l0,-127.22192l-11.262,0l0,19.28473l-107.43,107.93217l-66.43,0l0,34.31164c-67.914,16.54196 -125.8,40.04532 -125.8,40.04532l-11.668,78.63587c-25.277,55.86191 30.141,66.22613 30.141,66.22613l35.73,0c-0.00781,-0.32965 -0.04688,-0.64754 -0.04688,-0.97721c0,-30.76414 24.809,-55.68107 55.41401,-55.68107c30.60499,0 55.418,24.92095 55.418,55.67705c0,0.32965 -0.03907,0.64754 -0.04688,0.97721l278.1,0c0,-30.7561 24.805,-55.67705 55.418,-55.67705c30.613,0 55.418,24.92095 55.418,55.67705l52.789,0c33.051,-3.09641 9.7188,-69.32254 9.7188,-69.32254l-0.00105,-0.00201zm-268.64,-137.22848l0,22.57403c-13.867,-3.91662 -26.172,-6.87579 -36.812,-9.08919l0,-13.4968l36.812,0.00393l0,0.00803zm-48.074,-104.59666l0,91.93977l-91.504,0l91.504,-91.93977zm-58.203,190.02412l-128.33,0l25.277,-49.33856c39.859,-13.00149 103.05,-10.83943 103.05,-10.83943l0.003,60.17799zm19.09,-78.58865c-36.301,-3.74402 -80.516,2.44498 -122.15,11.84813l0,-18.69197l161.27,0l0,11.30661c-25.734,-4.62703 -39.117,-4.46216 -39.117,-4.46216l-0.003,-0.0006l0,-0.00001zm35.684,116.68289l-22.359,0l-0.00391,-4.88603l22.363,0l-0.00009,4.88603zm-35,-38.09525l0,-60.31563c95.34,6.10259 194.69,60.31563 194.69,60.31563l-194.69,0z" fill="#1cd997"/>
    </g>
   </g>
  </g>
  <line stroke-width="38" stroke-linecap="undefined" stroke-linejoin="undefined" id="svg_3" y2="600" x2="600" y1="40" x1="40" stroke="#f54e42" fill="none"/>
 </g>

</svg>