<svg width="512" height="512" viewBox="0 0 512 512" fill="none" xmlns="http://www.w3.org/2000/svg">
<path fill-rule="evenodd" clip-rule="evenodd" d="M378.321 175.491C345.135 154.981 304.145 139.333 256.32 139.333C156.885 139.333 85.9733 208.073 54.1227 246.503C80.3894 281.227 133.136 340.529 201.069 363.343L166.908 399.547C64.364 353.981 0 245.523 0 245.523C0 245.523 94.848 92.6667 256.32 92.6667C318.338 92.6667 369.992 114.489 410.26 141.643L378.321 175.491ZM335.197 221.193C322.579 186.897 291.873 162.667 256 162.667C208.875 162.667 170.667 204.48 170.667 256C170.667 294.197 191.65 327.037 221.695 341.484L258.39 302.594C257.599 302.642 256.802 302.667 256 302.667C232.469 302.667 213.333 281.737 213.333 256C213.333 230.263 232.469 209.333 256 209.333C279.531 209.333 298.667 230.263 298.667 256C298.667 257.374 298.612 258.735 298.505 260.08L335.197 221.193ZM246.455 348.756L341.061 248.493C341.241 250.969 341.333 253.473 341.333 256C341.333 307.543 303.125 349.333 256 349.333C252.774 349.333 249.589 349.137 246.455 348.756ZM226.474 369.932C236.177 371.704 246.135 372.667 256.32 372.667C358.528 372.667 429.184 290.37 459.072 247.507C445.792 231.137 425.063 208.723 397.628 188.543L429.028 155.266C483.23 197.483 512 245.523 512 245.523C512 245.523 421.291 419.333 256.32 419.333C233.023 419.333 210.883 415.313 190.088 408.494L226.474 369.932Z" fill="#1CD997"/>
<g filter="url(#filter0_d_2_13)">
<path d="M95 452L445 79" stroke="#FF3A3A" stroke-width="40" stroke-linejoin="round"/>
</g>
<defs>
<filter id="filter0_d_2_13" x="76.4153" y="65.3147" width="387.169" height="408.371" filterUnits="userSpaceOnUse" color-interpolation-filters="sRGB">
<feFlood flood-opacity="0" result="BackgroundImageFix"/>
<feColorMatrix in="SourceAlpha" type="matrix" values="0 0 0 0 0 0 0 0 0 0 0 0 0 0 0 0 0 0 127 0" result="hardAlpha"/>
<feOffset dy="4"/>
<feGaussianBlur stdDeviation="2"/>
<feComposite in2="hardAlpha" operator="out"/>
<feColorMatrix type="matrix" values="0 0 0 0 0 0 0 0 0 0 0 0 0 0 0 0 0 0 0.25 0"/>
<feBlend mode="normal" in2="BackgroundImageFix" result="effect1_dropShadow_2_13"/>
<feBlend mode="normal" in="SourceGraphic" in2="effect1_dropShadow_2_13" result="shape"/>
</filter>
</defs>
</svg>
